<svg xmlns="http://www.w3.org/2000/svg" xmlns:xlink="http://www.w3.org/1999/xlink" width="376.849" height="281.552" viewBox="0 0 376.849 281.552"><defs><linearGradient id="a" x1="0.5" y1="1" x2="0.5" gradientUnits="objectBoundingBox"><stop offset="0" stop-color="gray" stop-opacity="0.251"/><stop offset="0.54" stop-color="gray" stop-opacity="0.122"/><stop offset="1" stop-color="gray" stop-opacity="0.102"/></linearGradient></defs><g transform="translate(0 0.004)"><path d="M275.937,70.288a1.1,1.1,0,0,0-1.791,1.28c.2.309.43.607.642.9,2.585,3.47,3.925,7.728,5.08,11.92a5.568,5.568,0,0,1,.233,3.123,19.641,19.641,0,0,0-.534-8.2,50.748,50.748,0,0,0-2.9-7.731A7.03,7.03,0,0,0,275.937,70.288Z" transform="translate(-198.665 -60.984)" fill="#f30075" opacity="0.5"/><path d="M228.655,92.3a1.372,1.372,0,0,0-.229,2.731c.455.038.916.049,1.353.059,5.34.146,10.393,2.082,15.247,4.164a6.479,6.479,0,0,1,3.123,2.176,22.958,22.958,0,0,0-8.134-5.76,59.937,59.937,0,0,0-9.591-3.1A8.386,8.386,0,0,0,228.655,92.3Z" transform="translate(-168.162 -75.652)" fill="#f30075"/><path d="M231.379,111c-1.1.042-.854,1.607.257,1.617.288,0,.579,0,.854-.024a31.261,31.261,0,0,1,10.167,1.818,5.193,5.193,0,0,1,2.287,1.149,18.328,18.328,0,0,0-5.941-3.05,46.022,46.022,0,0,0-6.468-1.423,5.854,5.854,0,0,0-1.156-.087Z" transform="translate(-170.403 -87.861)" fill="#f30075" opacity="0.2"/><path d="M296.811,168.052c.312,1.058,1.77.427,1.5-.649-.069-.281-.156-.559-.236-.822a31.282,31.282,0,0,1-.763-10.3,5.235,5.235,0,0,1,.548-2.5,18.29,18.29,0,0,0-1.478,6.513,45.218,45.218,0,0,0,.226,6.617A5.832,5.832,0,0,0,296.811,168.052Z" transform="translate(-213.294 -115.799)" fill="#f30075" opacity="0.5"/><path d="M237.517,66.892c-.663-.115-.711.85-.052,1,.173.038.347.066.514.094a19.084,19.084,0,0,1,5.844,2.377,3.158,3.158,0,0,1,1.218.979,11.181,11.181,0,0,0-3.161-2.578,27.366,27.366,0,0,0-3.682-1.669A3.491,3.491,0,0,0,237.517,66.892Z" transform="translate(-174.535 -59.056)" fill="#f30075" opacity="0.2"/><path d="M207.582,134.458c-1.683.868-.26,3.245,1.468,2.457.451-.208.892-.441,1.315-.659,5.139-2.665,11.1-3.647,17-4.4a8.336,8.336,0,0,1,4.31.222,29.162,29.162,0,0,0-11.246-.673,74.085,74.085,0,0,0-10.983,2.36,9.956,9.956,0,0,0-1.867.7Z" transform="translate(-154.837 -101.023)" fill="#f30075"/><path d="M222.124,150.866c-1.208,1.128.694,2.46,1.947,1.388.347-.281.649-.579.951-.864,3.685-3.47,8.554-5.92,13.4-8.189,1.19-.559,6.09-1.124,7.395-1.093-3.415.305-10.389,1.388-13.492,2.776a74.714,74.714,0,0,0-8.8,4.941A9.242,9.242,0,0,0,222.124,150.866Z" transform="translate(-164.573 -108.176)" fill="#f30075" opacity="0.5"/><path d="M247.643,170.979c-.347,1.614,1.954,1.638,2.384.024.111-.42.2-.847.288-1.253,1.065-4.938,3.671-9.734,6.371-14.356a31.263,31.263,0,0,1,5.462-5.1c-2.637,2.193-7.769,7.037-9.518,9.959a74.952,74.952,0,0,0-4.435,9.067,9.523,9.523,0,0,0-.552,1.662Z" transform="translate(-181.466 -113.52)" fill="#f30075"/><path d="M292.9,45.077c-.826-1.68-3.179-.3-2.429,1.423.194.451.413.892.621,1.312,2.537,5.132,3.408,11.063,4.06,16.9a8.3,8.3,0,0,1-.285,4.272A29.258,29.258,0,0,0,295.7,57.84a73.426,73.426,0,0,0-2.148-10.917A9.829,9.829,0,0,0,292.9,45.077Z" transform="translate(-209.357 -44.32)" fill="#f30075"/><path d="M256.195,51.88a.312.312,0,0,0,.142.045c.094,0,.156-.094.194-.177.2-.448.087-1.041.406-1.388a4.887,4.887,0,0,1,.767,1.263l1.208-.347a1.784,1.784,0,0,1-.229,1.388,1.8,1.8,0,0,1,.569.389.621.621,0,0,1,.149.638,3.064,3.064,0,0,1-.854.083,5.677,5.677,0,0,1-.09,1.589.288.288,0,0,1-.1.2c-.087.056-.2,0-.295-.049a2.776,2.776,0,0,1-.992-1.041l-.451,1.072a.486.486,0,0,1-.2.271.323.323,0,0,1-.378-.132.906.906,0,0,1-.132-.406l-.17-1.02a.243.243,0,0,0-.055-.146.26.26,0,0,0-.177-.052h-1.28c-.073-.229.153-.437.371-.534s.475-.167.586-.378c.222-.434-.347-1.041-.108-1.405C255.358,51.276,255.823,51.7,256.195,51.88Z" transform="translate(-185.777 -48.267)" fill="#f30075"/><path d="M318.892,70.288a1.1,1.1,0,0,1,1.791,1.28c-.2.309-.43.607-.642.9-2.585,3.47-3.928,7.728-5.08,11.92a5.538,5.538,0,0,0-.236,3.123,19.643,19.643,0,0,1,.538-8.2,50.946,50.946,0,0,1,2.9-7.749A7.032,7.032,0,0,1,318.892,70.288Z" transform="translate(-225.148 -60.984)" fill="#f30075" opacity="0.5"/><path d="M338.811,92.3a1.372,1.372,0,0,1,.229,2.731c-.455.038-.913.049-1.35.059-5.344.146-10.393,2.082-15.247,4.164a6.479,6.479,0,0,0-3.123,2.176,22.9,22.9,0,0,1,8.134-5.76,60.334,60.334,0,0,1,9.577-3.1A8.388,8.388,0,0,1,338.811,92.3Z" transform="translate(-228.293 -75.652)" fill="#f30075"/><path d="M348.584,111c1.1.042.854,1.607-.257,1.617-.288,0-.579,0-.857-.024a31.241,31.241,0,0,0-10.164,1.818,5.194,5.194,0,0,0-2.287,1.149,18.329,18.329,0,0,1,5.941-3.05,45.912,45.912,0,0,1,6.468-1.423,5.854,5.854,0,0,1,1.156-.087Z" transform="translate(-238.545 -87.861)" fill="#f30075" opacity="0.5"/><path d="M354.17,66.892c.666-.115.715.85.055,1-.173.038-.347.066-.517.094a19.067,19.067,0,0,0-5.84,2.377,3.158,3.158,0,0,0-1.218.979,11.135,11.135,0,0,1,3.161-2.578,27.323,27.323,0,0,1,3.678-1.669A3.637,3.637,0,0,1,354.17,66.892Z" transform="translate(-246.14 -59.056)" fill="#f30075" opacity="0.2"/><path d="M316.314,184.368c-.149.659-1.062.347-.94-.347.031-.177.069-.347.108-.514a19.1,19.1,0,0,0,.062-6.305,3.193,3.193,0,0,0-.434-1.5,11.174,11.174,0,0,1,1.159,3.921,27.644,27.644,0,0,1,.121,4.043A3.641,3.641,0,0,1,316.314,184.368Z" transform="translate(-225.544 -130.113)" fill="#f30075" opacity="0.2"/><path d="M348.091,168.6c.517.878-.753.815-1.312-.062-.149-.229-.281-.458-.413-.694a47.44,47.44,0,0,0-6.392-7.9,8.863,8.863,0,0,0-1.985-1.711,31.272,31.272,0,0,1,5.205,4.442c1.551,1.624,2.922,3.314,4.265,5A8.138,8.138,0,0,1,348.091,168.6Z" transform="translate(-240.485 -118.705)" fill="#f30075" opacity="0.5"/><path d="M234.092,168.6c-.517.878.756.815,1.315-.062.146-.229.281-.458.409-.694a47.293,47.293,0,0,1,6.4-7.9,8.846,8.846,0,0,1,1.981-1.711,31.557,31.557,0,0,0-5.205,4.442c-1.551,1.624-2.922,3.314-4.261,5a8.177,8.177,0,0,0-.635.923Z" transform="translate(-172.561 -118.705)" fill="#f30075" opacity="0.2"/><path d="M282.677,184.368c.149.659,1.058.347.94-.347-.031-.177-.073-.347-.111-.514a19.1,19.1,0,0,1-.059-6.305,3.227,3.227,0,0,1,.43-1.5,11.167,11.167,0,0,0-1.159,3.921,27.649,27.649,0,0,0-.125,4.043A3.647,3.647,0,0,0,282.677,184.368Z" transform="translate(-204.295 -130.113)" fill="#f30075" opacity="0.2"/><path d="M338.843,85.891c.663-.118.711.85.052,1-.174.038-.347.069-.514.1a19.163,19.163,0,0,0-5.844,2.374,3.22,3.22,0,0,0-1.218.979,11.17,11.17,0,0,1,3.161-2.575,27.831,27.831,0,0,1,3.682-1.673A3.47,3.47,0,0,1,338.843,85.891Z" transform="translate(-236.129 -71.462)" fill="#f30075" opacity="0.2"/><path d="M325.176,48.459c.573-.347.979.524.423.906-.149.1-.3.194-.444.281a19.089,19.089,0,0,0-4.529,4.386,3.227,3.227,0,0,0-.767,1.364,11.214,11.214,0,0,1,1.971-3.571,27.473,27.473,0,0,1,2.776-2.925A3.779,3.779,0,0,1,325.176,48.459Z" transform="translate(-228.646 -46.973)" fill="#f30075" opacity="0.2"/><path d="M352.486,134.458c1.683.868.26,3.245-1.468,2.457-.451-.208-.9-.441-1.315-.659-5.143-2.665-11.1-3.647-17-4.4a8.336,8.336,0,0,0-4.31.222,29.158,29.158,0,0,1,11.246-.673,74.084,74.084,0,0,1,10.983,2.36,10.065,10.065,0,0,1,1.867.7Z" transform="translate(-234.216 -101.023)" fill="#f30075"/><path d="M339.387,150.84c1.208,1.128-.694,2.46-1.947,1.388-.347-.281-.649-.579-.951-.864-3.7-3.474-8.554-5.934-13.412-8.2-1.19-.559-6.09-1.124-7.4-1.093,3.418.305,10.393,1.388,13.5,2.776a74.715,74.715,0,0,1,8.8,4.941,9.244,9.244,0,0,1,1.412,1.055Z" transform="translate(-225.916 -108.15)" fill="#f30075" opacity="0.5"/><path d="M320.731,173.18c.149,1.645-2.144,1.388-2.367-.274-.059-.43-.094-.864-.132-1.277-.437-5.035-2.429-10.119-4.511-15.043a31.213,31.213,0,0,0-4.782-5.746c2.342,2.505,6.826,7.953,8.2,11.073a74.893,74.893,0,0,1,3.265,9.55A9.409,9.409,0,0,1,320.731,173.18Z" transform="translate(-221.515 -113.879)" fill="#f30075"/><path d="M340.8,51.88a.3.3,0,0,1-.142.045c-.09,0-.153-.094-.191-.177-.208-.448-.09-1.041-.406-1.388a4.885,4.885,0,0,0-.767,1.263l-1.211-.347a1.8,1.8,0,0,0,.229,1.388,1.842,1.842,0,0,0-.569.389.628.628,0,0,0-.146.638,3.064,3.064,0,0,0,.854.083,5.55,5.55,0,0,0,.09,1.589.288.288,0,0,0,.1.2c.087.056.2,0,.295-.049a2.841,2.841,0,0,0,.992-1.041l.451,1.072a.455.455,0,0,0,.2.271.323.323,0,0,0,.378-.132.951.951,0,0,0,.132-.406l.17-1.02a.243.243,0,0,1,.056-.146.26.26,0,0,1,.177-.052h1.28c.073-.229-.153-.437-.371-.534s-.479-.167-.586-.378c-.222-.434.347-1.041.108-1.405C341.641,51.276,341.186,51.7,340.8,51.88Z" transform="translate(-240.208 -48.267)" fill="#f30075"/><path d="M351.307,195.283a.306.306,0,0,1-.142.042c-.094,0-.156-.094-.194-.177-.2-.444-.087-1.024-.4-1.388a4.8,4.8,0,0,0-.77,1.287l-1.208-.371a1.787,1.787,0,0,0,.229,1.388,1.794,1.794,0,0,0-.569.385.632.632,0,0,0-.149.639,3.066,3.066,0,0,0,.854.087,5.65,5.65,0,0,0,.09,1.586.316.316,0,0,0,.1.2c.09.056.2,0,.295-.052a2.752,2.752,0,0,0,.992-1.041l.451,1.072a.479.479,0,0,0,.2.267.316.316,0,0,0,.375-.128.972.972,0,0,0,.135-.406l.167-1.024a.243.243,0,0,1,.056-.146.264.264,0,0,1,.18-.049c.423,0,.85-.017,1.277,0,.073-.226-.153-.437-.371-.534s-.475-.167-.586-.378c-.222-.43.347-1.041.108-1.388C352.144,194.666,351.679,195.1,351.307,195.283Z" transform="translate(-247.067 -141.906)" fill="#f30075" opacity="0.2"/><path d="M380.815,99.14a.271.271,0,0,1-.142.042c-.094,0-.156-.09-.194-.174-.2-.448-.087-1.041-.406-1.388a4.9,4.9,0,0,0-.767,1.291l-1.208-.375a1.787,1.787,0,0,0,.229,1.388,1.853,1.853,0,0,0-.569.385.628.628,0,0,0-.149.642,3.065,3.065,0,0,0,.854.083,5.681,5.681,0,0,0,.09,1.589.288.288,0,0,0,.1.2c.087.056.2,0,.295-.049a2.776,2.776,0,0,0,.992-1.041l.451,1.072a.485.485,0,0,0,.2.271.326.326,0,0,0,.378-.132.906.906,0,0,0,.132-.406l.17-1.041a.243.243,0,0,1,.056-.142.26.26,0,0,1,.177-.052h1.28c.073-.226-.153-.437-.371-.531s-.475-.167-.586-.378c-.222-.434.347-1.041.108-1.388C381.651,98.533,381.193,98.963,380.815,99.14Z" transform="translate(-266.334 -79.127)" fill="#f30075"/><path d="M260.429,208.5a.41.41,0,0,1-.2.059c-.128,0-.215-.128-.271-.243-.285-.625-.121-1.433-.562-1.957a6.68,6.68,0,0,0-1.069,1.8l-1.693-.534a2.512,2.512,0,0,0,.319,1.929,2.565,2.565,0,0,0-.795.541.878.878,0,0,0-.2.888,4.3,4.3,0,0,0,1.19.121,7.878,7.878,0,0,0,.125,2.21.4.4,0,0,0,.146.281c.121.08.285,0,.41-.066a3.914,3.914,0,0,0,1.388-1.471l.628,1.5a.694.694,0,0,0,.278.375.444.444,0,0,0,.524-.18,1.3,1.3,0,0,0,.187-.569l.232-1.423a.371.371,0,0,1,.08-.2.347.347,0,0,1,.25-.073c.593,0,1.187-.021,1.78-.017.1-.316-.212-.607-.517-.743s-.663-.232-.815-.527c-.312-.6.489-1.437.149-1.957C261.6,207.644,260.95,208.244,260.429,208.5Z" transform="translate(-186.888 -150.134)" fill="#f30075"/><path d="M211.357,100.861a.413.413,0,0,1-.2.059c-.125,0-.215-.128-.267-.243-.288-.625-.121-1.433-.562-1.957a6.691,6.691,0,0,0-1.072,1.8l-1.683-.524a2.5,2.5,0,0,0,.316,1.929,2.547,2.547,0,0,0-.791.541.878.878,0,0,0-.208.888,4.3,4.3,0,0,0,1.19.121,7.75,7.75,0,0,0,.128,2.21.312.312,0,0,0,.555.215,3.914,3.914,0,0,0,1.388-1.471l.625,1.5a.659.659,0,0,0,.281.375.448.448,0,0,0,.524-.18,1.281,1.281,0,0,0,.184-.569l.236-1.423a.263.263,0,0,1,.326-.271c.593,0,1.187-.024,1.784-.021.1-.316-.215-.607-.517-.743s-.666-.232-.819-.527c-.309-.6.493-1.437.153-1.957C212.523,100,211.875,100.6,211.357,100.861Z" transform="translate(-154.847 -79.845)" fill="#f30075"/><path d="M364.28,169.408a.2.2,0,0,1-.1.031c-.069,0-.115-.069-.146-.128-.153-.347-.062-.76-.3-1.041a3.64,3.64,0,0,0-.569.954l-.9-.278a1.353,1.353,0,0,0,.17,1.041,1.3,1.3,0,0,0-.42.285.465.465,0,0,0-.111.472,2.286,2.286,0,0,0,.632.066,4.162,4.162,0,0,0,.069,1.173.208.208,0,0,0,.076.149.215.215,0,0,0,.219-.035,2.12,2.12,0,0,0,.736-.781l.347.795a.347.347,0,0,0,.146.2.239.239,0,0,0,.281-.094.694.694,0,0,0,.1-.3l.125-.756a.194.194,0,0,1,.042-.108.17.17,0,0,1,.132-.038h.947c.052-.167-.115-.323-.278-.392a.8.8,0,0,1-.434-.281c-.163-.319.264-.763.083-1.041S364.554,169.269,364.28,169.408Z" transform="translate(-256.087 -125.261)" fill="#f30075" opacity="0.2"/><path d="M297.6,207.9a.278.278,0,0,1-.1.031.194.194,0,0,1-.142-.132c-.153-.33-.066-.76-.3-1.041a3.584,3.584,0,0,0-.569.954l-.892-.278a1.329,1.329,0,0,0,.167,1.024,1.458,1.458,0,0,0-.42.288.465.465,0,0,0-.111.472,2.159,2.159,0,0,0,.632.062,4.166,4.166,0,0,0,.069,1.176.215.215,0,0,0,.076.149c.066.042.153,0,.219-.035a2.117,2.117,0,0,0,.736-.781l.347.795a.347.347,0,0,0,.146.2.243.243,0,0,0,.281-.1.694.694,0,0,0,.1-.3l.125-.756a.184.184,0,0,1,.042-.1.18.18,0,0,1,.132-.038h.947c.052-.167-.115-.323-.274-.4s-.347-.121-.434-.281c-.167-.319.26-.763.08-1.041S297.877,207.763,297.6,207.9Z" transform="translate(-212.545 -150.395)" fill="#f30075" opacity="0.2"/><path d="M233.074,73.162a.26.26,0,0,1-.1.031.194.194,0,0,1-.142-.132c-.153-.347-.066-.76-.3-1.041a3.41,3.41,0,0,0-.569.954l-.9-.278a1.315,1.315,0,0,0,.17,1.041,1.43,1.43,0,0,0-.423.288.462.462,0,0,0-.108.472,2.137,2.137,0,0,0,.632.062,4.165,4.165,0,0,0,.066,1.176.215.215,0,0,0,.076.149c.066.042.153,0,.219-.035a2.082,2.082,0,0,0,.736-.781l.347.795a.347.347,0,0,0,.149.2.239.239,0,0,0,.278-.1.694.694,0,0,0,.1-.3l.125-.756a.177.177,0,0,1,.042-.1.18.18,0,0,1,.132-.038h.947c.056-.167-.115-.323-.274-.4s-.347-.121-.434-.281c-.167-.319.26-.763.08-1.041S233.351,73.023,233.074,73.162Z" transform="translate(-170.411 -62.41)" fill="#f30075" opacity="0.5"/><path d="M267.419,149.088a.2.2,0,0,1-.108.031c-.066,0-.115-.066-.142-.128-.153-.33-.066-.76-.3-1.041a3.5,3.5,0,0,0-.569.954l-.9-.278a1.343,1.343,0,0,0,.17,1.041,1.389,1.389,0,0,0-.42.288.462.462,0,0,0-.111.472,2.148,2.148,0,0,0,.632.062,4.164,4.164,0,0,0,.066,1.176.233.233,0,0,0,.076.149c.066.042.153,0,.219-.038a2.054,2.054,0,0,0,.736-.777l.347.795a.375.375,0,0,0,.149.2.236.236,0,0,0,.278-.1.7.7,0,0,0,.1-.3l.125-.756a.156.156,0,0,1,.042-.1.17.17,0,0,1,.132-.038h.944c.056-.167-.111-.323-.274-.4s-.347-.125-.434-.281c-.163-.319.264-.763.08-1.041S267.693,148.953,267.419,149.088Z" transform="translate(-192.837 -111.992)" fill="#f30075" opacity="0.5"/><path d="M242.489,119.488a.191.191,0,0,1-.1.031c-.069,0-.115-.066-.142-.128-.153-.33-.066-.76-.3-1.041a3.584,3.584,0,0,0-.569.954l-.892-.278a1.329,1.329,0,0,0,.167,1.041,1.458,1.458,0,0,0-.42.288.461.461,0,0,0-.111.472,2.158,2.158,0,0,0,.632.062,4.164,4.164,0,0,0,.069,1.176.215.215,0,0,0,.076.149c.066.042.153,0,.219-.038a2.054,2.054,0,0,0,.736-.777l.347.795a.347.347,0,0,0,.146.2.243.243,0,0,0,.281-.1.694.694,0,0,0,.1-.3l.125-.756a.177.177,0,0,1,.042-.1.18.18,0,0,1,.132-.038h.947c.052-.167-.115-.323-.274-.4s-.347-.125-.434-.281c-.167-.319.26-.763.08-1.041S242.766,119.353,242.489,119.488Z" transform="translate(-176.558 -92.664)" fill="#f30075" opacity="0.5"/><path d="M349.549,126.458a.2.2,0,0,1-.1.031c-.069,0-.114-.066-.146-.128-.149-.33-.062-.76-.3-1.041a3.582,3.582,0,0,0-.569.954L347.54,126a1.329,1.329,0,0,0,.167,1.024,1.311,1.311,0,0,0-.42.288.462.462,0,0,0-.111.472,2.284,2.284,0,0,0,.632.062,4.161,4.161,0,0,0,.069,1.176.215.215,0,0,0,.076.149c.066.042.153,0,.219-.038a2.109,2.109,0,0,0,.736-.777l.347.791a.347.347,0,0,0,.146.2.243.243,0,0,0,.281-.1.693.693,0,0,0,.1-.3l.125-.756a.194.194,0,0,1,.042-.108.184.184,0,0,1,.132-.035h.947c.052-.167-.115-.323-.274-.4s-.347-.125-.434-.281c-.167-.319.26-.763.08-1.041S349.826,126.323,349.549,126.458Z" transform="translate(-246.467 -97.215)" fill="#f30075" opacity="0.5"/><path d="M297.6,120.638a.191.191,0,0,1-.1.031c-.069,0-.115-.069-.142-.128-.153-.347-.066-.76-.3-1.041a3.7,3.7,0,0,0-.569.954l-.892-.278a1.336,1.336,0,0,0,.167,1.041,1.388,1.388,0,0,0-.42.285.468.468,0,0,0-.111.475,2.429,2.429,0,0,0,.632.062,4.164,4.164,0,0,0,.069,1.173.2.2,0,0,0,.076.149c.066.045.153,0,.219-.035a2.082,2.082,0,0,0,.736-.781l.347.795a.347.347,0,0,0,.146.2.236.236,0,0,0,.281-.094.693.693,0,0,0,.1-.3l.125-.756a.194.194,0,0,1,.042-.108.219.219,0,0,1,.132-.038h.947c.052-.167-.115-.323-.274-.392a.813.813,0,0,1-.434-.281c-.167-.319.26-.763.08-1.041S297.877,120.5,297.6,120.638Z" transform="translate(-212.544 -93.415)" fill="#f30075" opacity="0.2"/><path d="M281.3,127.728a.2.2,0,0,1-.1.031c-.069,0-.114-.066-.146-.128-.153-.347-.062-.76-.3-1.041a3.7,3.7,0,0,0-.569.954l-.9-.274a1.343,1.343,0,0,0,.17,1.024,1.36,1.36,0,0,0-.42.285.468.468,0,0,0-.111.475,2.429,2.429,0,0,0,.632.062,4.189,4.189,0,0,0,.069,1.176.215.215,0,0,0,.076.149c.066.042.153,0,.219-.038a2.082,2.082,0,0,0,.736-.781l.347.795a.347.347,0,0,0,.146.2.243.243,0,0,0,.281-.1.693.693,0,0,0,.1-.3l.125-.756a.194.194,0,0,1,.042-.108.205.205,0,0,1,.132-.038h.947c.052-.17-.115-.326-.274-.4a.813.813,0,0,1-.434-.281c-.167-.319.26-.763.08-1.041S281.577,127.593,281.3,127.728Z" transform="translate(-201.901 -98.044)" fill="#f30075" opacity="0.3"/><path d="M266.109,84.858a.2.2,0,0,1-.108.031c-.066,0-.115-.066-.142-.128-.153-.347-.066-.76-.3-1.041a3.532,3.532,0,0,0-.569.951l-.9-.274a1.315,1.315,0,0,0,.17,1.041,1.42,1.42,0,0,0-.423.285.475.475,0,0,0-.108.475,2.273,2.273,0,0,0,.632.062,4.189,4.189,0,0,0,.066,1.176.215.215,0,0,0,.076.149c.066.042.153,0,.219-.038a2.04,2.04,0,0,0,.736-.781l.347.795a.371.371,0,0,0,.149.2.236.236,0,0,0,.281-.128.694.694,0,0,0,.1-.3l.121-.756a.2.2,0,0,1,.042-.108.219.219,0,0,1,.132-.038h.947c.056-.17-.111-.326-.274-.4a.8.8,0,0,1-.434-.281c-.163-.319.26-.763.08-1.041S266.383,84.705,266.109,84.858Z" transform="translate(-191.982 -70.05)" fill="#f30075" opacity="0.2"/><path d="M296.04,140.852a.239.239,0,0,1-.108.031c-.066,0-.115-.069-.142-.132-.153-.33-.066-.756-.3-1.041a3.55,3.55,0,0,0-.569.954l-.9-.278a1.322,1.322,0,0,0,.17,1.041,1.357,1.357,0,0,0-.423.285.472.472,0,0,0-.108.472,2.273,2.273,0,0,0,.632.066,4.164,4.164,0,0,0,.066,1.173.232.232,0,0,0,.076.149.215.215,0,0,0,.219-.035,2.082,2.082,0,0,0,.736-.781l.347.795a.347.347,0,0,0,.149.2.239.239,0,0,0,.278-.094.694.694,0,0,0,.1-.3l.125-.756a.142.142,0,0,1,.174-.146h.944c.056-.167-.111-.323-.274-.392a.8.8,0,0,1-.434-.281c-.163-.319.26-.763.08-1.041S296.314,140.7,296.04,140.852Z" transform="translate(-211.527 -106.612)" fill="#f30075" opacity="0.3"/><g transform="translate(240.895 86.147)" opacity="0.1"><ellipse cx="6.243" cy="8.172" rx="6.243" ry="8.172" transform="translate(23.802 168.525)" fill="#3f3d56"/><path d="M830.947,676.219a9.824,9.824,0,0,0,1.3-4.993c0-4.511-2.8-8.176-6.246-8.176s-6.246,3.661-6.246,8.176a9.857,9.857,0,0,0,1.315,4.993,10.216,10.216,0,0,0,0,9.99,10.209,10.209,0,0,0,0,9.987,9.88,9.88,0,0,0-1.3,5c0,4.511,2.8,8.172,6.246,8.172s6.246-3.657,6.246-8.172a9.843,9.843,0,0,0-1.315-4.987,10.209,10.209,0,0,0,0-9.987A10.216,10.216,0,0,0,830.947,676.219Z" transform="translate(-795.971 -534.496)" fill="#3f3d56"/><ellipse cx="6.243" cy="8.172" rx="6.243" ry="8.172" transform="translate(23.802 118.577)" fill="#3f3d56"/><ellipse cx="6.243" cy="8.172" rx="6.243" ry="8.172" transform="translate(23.802 108.59)" fill="#3f3d56"/><path d="M804.623,340.988a29.549,29.549,0,0,0,2.325-3.425l-16.406-2.693,17.743.132a29.965,29.965,0,0,0,.573-23.7l-23.8,12.35L807,307.515a29.908,29.908,0,1,0-49.393,33.472,30.007,30.007,0,0,0-3.411,5.451L775.5,357.5l-22.7-7.634a29.919,29.919,0,0,0,4.82,28.083,29.9,29.9,0,1,0,47.012,0,29.908,29.908,0,0,0,0-36.977Z" transform="translate(-751.208 -292.586)" fill="#f30075"/><path d="M751.219,484.522a29.776,29.776,0,0,0,6.4,18.488,29.905,29.905,0,1,0,47.012,0C808.638,497.933,751.219,481.166,751.219,484.522Z" transform="translate(-751.215 -417.631)" opacity="0.1"/></g><g transform="translate(27.212 86.147)" opacity="0.1"><ellipse cx="6.243" cy="8.172" rx="6.243" ry="8.172" transform="translate(23.528 168.525)" fill="#3f3d56"/><path d="M214.4,676.219a9.858,9.858,0,0,0,1.3-4.993c0-4.511-2.8-8.176-6.246-8.176s-6.246,3.661-6.246,8.176a9.824,9.824,0,0,0,1.315,4.993,10.216,10.216,0,0,0,0,9.99,10.209,10.209,0,0,0,0,9.987,9.844,9.844,0,0,0-1.3,5c0,4.511,2.8,8.172,6.246,8.172s6.246-3.657,6.246-8.172a9.879,9.879,0,0,0-1.3-5,10.209,10.209,0,0,0,0-9.987,10.216,10.216,0,0,0,0-9.99Z" transform="translate(-179.685 -534.497)" fill="#3f3d56"/><ellipse cx="6.243" cy="8.172" rx="6.243" ry="8.172" transform="translate(23.528 118.577)" fill="#3f3d56"/><ellipse cx="6.243" cy="8.172" rx="6.243" ry="8.172" transform="translate(23.528 108.59)" fill="#3f3d56"/><path d="M141.818,340.988a29.556,29.556,0,0,1-2.325-3.425L155.9,334.87,138.157,335a29.964,29.964,0,0,1-.573-23.7l23.8,12.35-21.952-16.139a29.908,29.908,0,1,1,49.393,33.472,30.02,30.02,0,0,1,3.411,5.451l-21.3,11.063,22.7-7.634a29.919,29.919,0,0,1-4.82,28.083,29.905,29.905,0,1,1-47.012,0,29.909,29.909,0,0,1,0-36.977Z" transform="translate(-135.419 -292.586)" fill="#f30075"/><path d="M195.229,484.522a29.777,29.777,0,0,1-6.4,18.488,29.905,29.905,0,1,1-47.012,0C137.81,497.933,195.229,481.166,195.229,484.522Z" transform="translate(-135.419 -417.631)" opacity="0.1"/></g><g transform="translate(127.531 86.164)" opacity="0.1"><ellipse cx="6.243" cy="8.172" rx="6.243" ry="8.172" transform="translate(23.527 168.508)" fill="#3f3d56"/><path d="M503.49,676.219a9.855,9.855,0,0,0,1.3-4.993c0-4.511-2.776-8.176-6.246-8.176s-6.246,3.661-6.246,8.176a9.823,9.823,0,0,0,1.312,4.993,10.216,10.216,0,0,0,0,9.99,10.209,10.209,0,0,0,0,9.987,9.845,9.845,0,0,0-1.3,5c0,4.511,2.8,8.172,6.246,8.172s6.246-3.657,6.246-8.172a9.879,9.879,0,0,0-1.3-5,10.23,10.23,0,0,0,0-9.987,10.237,10.237,0,0,0,0-9.99Z" transform="translate(-468.779 -534.513)" fill="#3f3d56"/><ellipse cx="6.243" cy="8.172" rx="6.243" ry="8.172" transform="translate(23.527 118.56)" fill="#3f3d56"/><ellipse cx="6.243" cy="8.172" rx="6.243" ry="8.172" transform="translate(23.527 108.573)" fill="#3f3d56"/><path d="M430.932,341.019a29.559,29.559,0,0,1-2.325-3.425l16.4-2.693-17.739.132a29.964,29.964,0,0,1-.573-23.7l23.8,12.35-21.955-16.139a29.909,29.909,0,1,1,49.4,33.472,29.812,29.812,0,0,1,3.408,5.451l-21.306,11.063,22.7-7.634a29.919,29.919,0,0,1-4.82,28.083,29.9,29.9,0,1,1-47.012,0,29.908,29.908,0,0,1,0-36.977Z" transform="translate(-424.519 -292.634)" fill="#f30075"/><path d="M484.329,484.522a29.777,29.777,0,0,1-6.4,18.488,29.9,29.9,0,1,1-47.012,0C426.91,497.933,484.329,481.166,484.329,484.522Z" transform="translate(-424.519 -417.648)" opacity="0.1"/></g><g transform="translate(165.722 42.693)" opacity="0.6"><path d="M578.137,183.774a.694.694,0,0,0-1.128.805c.128.194.271.382.406.562a22.314,22.314,0,0,1,3.2,7.509,3.562,3.562,0,0,1,.146,1.981,12.348,12.348,0,0,0-.347-5.17,32.2,32.2,0,0,0-1.829-4.882A4.321,4.321,0,0,0,578.137,183.774Z" transform="translate(-562.215 -177.909)" fill="#f30075" opacity="0.5"/><path d="M548.309,197.589a.863.863,0,0,0-.146,1.718c.288.024.576.031.854.038a26.452,26.452,0,0,1,9.6,2.623,4.1,4.1,0,0,1,1.978,1.388,14.419,14.419,0,0,0-5.122-3.63,37.921,37.921,0,0,0-6.045-1.954A5.172,5.172,0,0,0,548.309,197.589Z" transform="translate(-542.956 -187.098)" fill="#f30075"/><path d="M550.036,209.389c-.694.024-.538,1.013.163,1.017h.538a19.65,19.65,0,0,1,6.406,1.145,3.259,3.259,0,0,1,1.44.725,11.555,11.555,0,0,0-3.744-1.922,28.567,28.567,0,0,0-4.067-.909A3.922,3.922,0,0,0,550.036,209.389Z" transform="translate(-544.378 -194.803)" fill="#f30075" opacity="0.2"/><path d="M591.238,245.3c.2.666,1.114.271.947-.409-.045-.177-.1-.347-.149-.517a19.777,19.777,0,0,1-.479-6.489,3.286,3.286,0,0,1,.347-1.575,11.6,11.6,0,0,0-.944,4.1,28.786,28.786,0,0,0,.142,4.164,3.942,3.942,0,0,0,.135.725Z" transform="translate(-571.381 -212.383)" fill="#f30075" opacity="0.5"/><path d="M553.906,181.579c-.42-.073-.451.538-.035.628l.323.062a12.05,12.05,0,0,1,3.682,1.5,2,2,0,0,1,.767.614,7.026,7.026,0,0,0-1.992-1.621,17.606,17.606,0,0,0-2.318-1.041A2.611,2.611,0,0,0,553.906,181.579Z" transform="translate(-546.982 -176.64)" fill="#f30075" opacity="0.2"/><path d="M535.049,224.123c-1.058.545-.163,2.044.926,1.548.285-.132.562-.278.826-.413,3.241-1.683,7-2.3,10.7-2.776a5.248,5.248,0,0,1,2.717.139,18.391,18.391,0,0,0-7.086-.423,46.286,46.286,0,0,0-6.916,1.489,6.169,6.169,0,0,0-1.17.437Z" transform="translate(-534.575 -203.059)" fill="#f30075"/><path d="M544.208,234.451c-.763.694.427,1.548,1.225.867.208-.18.41-.368.6-.545a32.135,32.135,0,0,1,8.443-5.16,20.792,20.792,0,0,1,4.66-.694,35.85,35.85,0,0,0-8.5,1.735,47.139,47.139,0,0,0-5.552,3.123A5.9,5.9,0,0,0,544.208,234.451Z" transform="translate(-540.705 -207.558)" fill="#f30075" opacity="0.5"/><path d="M560.277,247.124c-.222,1.017,1.232,1.041,1.5,0,.069-.264.128-.531.184-.788a31.921,31.921,0,0,1,4.011-9.043,19.023,19.023,0,0,1,3.442-3.213c-1.662,1.388-4.9,4.431-6,6.27a47.186,47.186,0,0,0-2.776,5.712,6.2,6.2,0,0,0-.368,1.062Z" transform="translate(-551.343 -210.927)" fill="#f30075"/><path d="M588.788,167.838c-.521-1.058-2-.187-1.53.9.121.281.26.559.392.826,1.6,3.231,2.148,6.968,2.557,10.643a5.218,5.218,0,0,1-.181,2.689,18.39,18.39,0,0,0,.527-7.016A46.527,46.527,0,0,0,589.2,169a6.183,6.183,0,0,0-.413-1.162Z" transform="translate(-568.917 -167.358)" fill="#f30075"/><path d="M565.618,172.108a.156.156,0,0,0,.087.024.153.153,0,0,0,.121-.108c.132-.285.056-.649.257-.885a3.047,3.047,0,0,1,.482.812l.763-.236a1.131,1.131,0,0,1-.146.871,1.18,1.18,0,0,1,.347.243.4.4,0,0,1,.09.4,1.853,1.853,0,0,1-.538.056,3.471,3.471,0,0,1-.056,1,.194.194,0,0,1-.066.128.181.181,0,0,1-.184-.031,1.77,1.77,0,0,1-.628-.663l-.281.673a.305.305,0,0,1-.128.17.2.2,0,0,1-.236-.08.623.623,0,0,1-.083-.257l-.107-.645a.147.147,0,0,0-.035-.09.156.156,0,0,0-.111-.031h-.8c-.049-.142.094-.274.232-.347s.3-.108.368-.239c.142-.274-.222-.652-.066-.885S565.392,171.99,565.618,172.108Z" transform="translate(-554.019 -169.828)" fill="#f30075"/><path d="M605.182,183.711a.694.694,0,0,1,1.131.805c-.132.194-.271.382-.406.562a22.246,22.246,0,0,0-3.2,7.509,3.564,3.564,0,0,0-.149,1.981,12.351,12.351,0,0,1,.347-5.17,31.829,31.829,0,0,1,1.829-4.882,4.3,4.3,0,0,1,.448-.805Z" transform="translate(-578.884 -177.846)" fill="#f30075" opacity="0.5"/><path d="M617.7,197.589a.863.863,0,0,1,.142,1.718c-.285.024-.576.031-.85.038a26.469,26.469,0,0,0-9.605,2.623,4.107,4.107,0,0,0-1.975,1.388,14.417,14.417,0,0,1,5.122-3.63,37.985,37.985,0,0,1,6.041-1.954A5.237,5.237,0,0,1,617.7,197.589Z" transform="translate(-580.83 -187.098)" fill="#f30075"/><path d="M623.917,209.39c.694.024.534,1.013-.163,1.017h-.538a19.65,19.65,0,0,0-6.406,1.145,3.241,3.241,0,0,0-1.44.725,11.52,11.52,0,0,1,3.744-1.922,28.565,28.565,0,0,1,4.074-.9A3.922,3.922,0,0,1,623.917,209.39Z" transform="translate(-587.334 -194.805)" fill="#f30075" opacity="0.5"/><path d="M627.387,181.579c.42-.073.451.538.035.628l-.326.062a12.03,12.03,0,0,0-3.678,1.5,2,2,0,0,0-.767.614,7.013,7.013,0,0,1,1.988-1.621,17.858,17.858,0,0,1,2.321-1.041A2.522,2.522,0,0,1,627.387,181.579Z" transform="translate(-592.087 -176.64)" fill="#f30075" opacity="0.2"/><path d="M603.576,255.6c-.094.413-.666.208-.59-.212a1.446,1.446,0,0,1,.069-.323,12.1,12.1,0,0,0,.038-3.973,2.007,2.007,0,0,0-.274-.944,7,7,0,0,1,.729,2.46,17.871,17.871,0,0,1,.08,2.547A2.159,2.159,0,0,1,603.576,255.6Z" transform="translate(-579.139 -221.421)" fill="#f30075" opacity="0.2"/><path d="M623.561,245.664c.326.552-.475.514-.826-.038-.094-.146-.177-.291-.26-.43a29.713,29.713,0,0,0-4.029-4.976,5.578,5.578,0,0,0-1.246-1.079,19.907,19.907,0,0,1,3.272,2.8c.979,1.041,1.839,2.082,2.686,3.151a5.208,5.208,0,0,1,.4.576Z" transform="translate(-588.529 -214.231)" fill="#f30075" opacity="0.5"/><path d="M551.746,245.664c-.326.552.475.514.829-.038.09-.146.177-.291.257-.43a29.726,29.726,0,0,1,4.029-4.976,5.6,5.6,0,0,1,1.249-1.079,19.926,19.926,0,0,0-3.276,2.8c-.975,1.041-1.839,2.082-2.686,3.151A5.219,5.219,0,0,0,551.746,245.664Z" transform="translate(-545.738 -214.231)" fill="#f30075" opacity="0.2"/><path d="M582.358,255.6c.094.413.666.208.593-.212-.021-.111-.045-.219-.069-.323a12.005,12.005,0,0,1-.038-3.973,1.965,1.965,0,0,1,.271-.944,7,7,0,0,0-.729,2.46,17.381,17.381,0,0,0-.076,2.547A2.425,2.425,0,0,0,582.358,255.6Z" transform="translate(-565.735 -221.421)" fill="#f30075" opacity="0.2"/><path d="M617.75,193.549c.416-.073.448.534.031.628-.108.024-.219.042-.323.059a11.973,11.973,0,0,0-3.682,1.5,2.023,2.023,0,0,0-.767.614A7.038,7.038,0,0,1,615,194.725a17.582,17.582,0,0,1,2.318-1.041,2.271,2.271,0,0,1,.43-.135Z" transform="translate(-585.793 -184.456)" fill="#f30075" opacity="0.2"/><path d="M609.125,169.97c.347-.226.618.326.267.569l-.278.177a12.155,12.155,0,0,0-2.856,2.776,1.963,1.963,0,0,0-.479.861,7.048,7.048,0,0,1,1.239-2.252,17.643,17.643,0,0,1,1.756-1.843A2.215,2.215,0,0,1,609.125,169.97Z" transform="translate(-581.071 -169.029)" fill="#f30075" opacity="0.2"/><path d="M626.341,224.124c1.058.545.163,2.044-.926,1.548-.285-.132-.562-.278-.829-.413-3.238-1.683-7-2.3-10.7-2.776a5.247,5.247,0,0,0-2.717.139,18.391,18.391,0,0,1,7.082-.423,46.24,46.24,0,0,1,6.919,1.489A6.344,6.344,0,0,1,626.341,224.124Z" transform="translate(-584.591 -203.06)" fill="#f30075"/><path d="M618.075,234.451c.763.694-.427,1.548-1.225.867-.208-.18-.409-.368-.6-.545a32.076,32.076,0,0,0-8.443-5.16,20.913,20.913,0,0,0-4.657-.694,35.823,35.823,0,0,1,8.5,1.735,46.911,46.911,0,0,1,5.552,3.123,5.9,5.9,0,0,1,.875.673Z" transform="translate(-579.354 -207.558)" fill="#f30075" opacity="0.5"/><path d="M606.313,248.521c.094,1.041-1.353.871-1.492-.17-.035-.274-.059-.545-.083-.805a32.071,32.071,0,0,0-2.849-9.477,19.691,19.691,0,0,0-3.009-3.619c1.475,1.579,4.3,5.011,5.163,6.975a47.282,47.282,0,0,1,2.054,6.014A5.862,5.862,0,0,1,606.313,248.521Z" transform="translate(-576.566 -211.169)" fill="#f30075"/><path d="M618.989,172.108a.167.167,0,0,1-.09.024.163.163,0,0,1-.121-.108c-.128-.285-.056-.649-.253-.885a3.058,3.058,0,0,0-.486.812l-.76-.236a1.114,1.114,0,0,0,.146.871,1.18,1.18,0,0,0-.347.243.4.4,0,0,0-.094.4,1.881,1.881,0,0,0,.538.056,3.579,3.579,0,0,0,.059,1,.194.194,0,0,0,.066.128.18.18,0,0,0,.184-.031,1.771,1.771,0,0,0,.628-.663l.281.673a.315.315,0,0,0,.125.17.2.2,0,0,0,.239-.08.62.62,0,0,0,.083-.257l.108-.645a.145.145,0,0,1,.035-.09.156.156,0,0,1,.111-.031h.805c.049-.142-.1-.274-.232-.347s-.3-.108-.371-.239c-.139-.274.226-.652.069-.885S619.224,171.99,618.989,172.108Z" transform="translate(-588.374 -169.828)" fill="#f30075"/><path d="M625.6,262.438a.211.211,0,0,1-.09.028c-.059,0-.1-.059-.121-.111-.128-.281-.055-.649-.253-.885a2.969,2.969,0,0,0-.486.812l-.76-.236a1.127,1.127,0,0,0,.142.871,1.155,1.155,0,0,0-.347.246.4.4,0,0,0-.094.4,2.009,2.009,0,0,0,.538.052,3.577,3.577,0,0,0,.055,1,.2.2,0,0,0,.066.128c.055.035.128,0,.187-.031a1.763,1.763,0,0,0,.625-.663l.285.673a.287.287,0,0,0,.125.17.2.2,0,0,0,.236-.08.612.612,0,0,0,.087-.257l.1-.645a.2.2,0,0,1,.035-.09.159.159,0,0,1,.115-.031h.8c.045-.142-.1-.274-.232-.347s-.3-.108-.371-.239c-.139-.274.222-.649.069-.885S625.837,262.32,625.6,262.438Z" transform="translate(-592.689 -228.813)" fill="#f30075" opacity="0.2"/><path d="M644.181,201.888a.225.225,0,0,1-.09.028c-.059,0-.1-.059-.121-.111-.132-.281-.055-.649-.257-.885a3.047,3.047,0,0,0-.482.812l-.763-.236a1.13,1.13,0,0,0,.146.871,1.117,1.117,0,0,0-.347.246.4.4,0,0,0-.094.4,1.994,1.994,0,0,0,.538.052,3.574,3.574,0,0,0,.055,1,.194.194,0,0,0,.066.128.18.18,0,0,0,.184-.031,1.769,1.769,0,0,0,.628-.663l.285.673a.288.288,0,0,0,.125.17.2.2,0,0,0,.236-.08.562.562,0,0,0,.083-.257l.108-.645a.146.146,0,0,1,.035-.09.156.156,0,0,1,.111-.031h.809c.045-.142-.1-.274-.236-.347s-.3-.108-.368-.239c-.142-.274.222-.652.069-.885S644.417,201.77,644.181,201.888Z" transform="translate(-604.822 -189.274)" fill="#f30075"/><path d="M568.356,270.78a.264.264,0,0,1-.125.038c-.08,0-.135-.083-.17-.156-.18-.392-.076-.9-.347-1.232a4.246,4.246,0,0,0-.673,1.131l-1.062-.326a1.575,1.575,0,0,0,.2,1.215,1.6,1.6,0,0,0-.5.347.552.552,0,0,0-.132.559,2.611,2.611,0,0,0,.75.076,5.052,5.052,0,0,0,.08,1.388.263.263,0,0,0,.094.18c.076.049.177,0,.257-.045a2.509,2.509,0,0,0,.874-.923l.392.94a.413.413,0,0,0,.177.236.281.281,0,0,0,.347-.115.793.793,0,0,0,.118-.347l.146-.9a.173.173,0,0,1,.208-.173h1.121c.066-.2-.135-.385-.326-.468s-.416-.146-.514-.347c-.194-.378.309-.906.094-1.232C569.092,270.239,568.686,270.617,568.356,270.78Z" transform="translate(-554.783 -234.01)" fill="#f30075"/><path d="M537.439,202.98a.26.26,0,0,1-.125.035c-.08,0-.135-.08-.17-.153-.18-.392-.076-.9-.347-1.232a4.247,4.247,0,0,0-.673,1.131l-1.062-.33a1.575,1.575,0,0,0,.2,1.215,1.737,1.737,0,0,0-.5.347.552.552,0,0,0-.128.562,2.7,2.7,0,0,0,.746.076,5.062,5.062,0,0,0,.08,1.388.257.257,0,0,0,.094.177c.076.052.177,0,.257-.042a2.492,2.492,0,0,0,.874-.927l.392.944a.451.451,0,0,0,.177.236.288.288,0,0,0,.33-.115.809.809,0,0,0,.118-.347l.146-.9a.226.226,0,0,1,.052-.125.2.2,0,0,1,.156-.045h1.121c.066-.2-.132-.385-.326-.468s-.416-.149-.514-.347c-.194-.378.309-.906.1-1.232C538.175,202.452,537.769,202.817,537.439,202.98Z" transform="translate(-534.596 -189.737)" fill="#f30075"/><path d="M633.773,246.155a.114.114,0,0,1-.066.021.121.121,0,0,1-.09-.08c-.094-.212-.038-.479-.187-.656a2.29,2.29,0,0,0-.347.6l-.566-.173a.843.843,0,0,0,.108.645.83.83,0,0,0-.264.18.292.292,0,0,0-.069.3,1.388,1.388,0,0,0,.4.038,2.549,2.549,0,0,0,.045.743.139.139,0,0,0,.049.094.132.132,0,0,0,.135-.024,1.294,1.294,0,0,0,.465-.493l.208.5a.229.229,0,0,0,.094.125.153.153,0,0,0,.177-.062.478.478,0,0,0,.056-.2l.076-.479a.094.094,0,0,1,.111-.09h.593c.035-.1-.069-.2-.17-.246s-.226-.08-.274-.177c-.1-.2.163-.482.049-.656S633.95,246.072,633.773,246.155Z" transform="translate(-598.373 -218.345)" fill="#f30075" opacity="0.2"/><path d="M591.773,270.4a.145.145,0,0,1-.066.021.121.121,0,0,1-.09-.083c-.094-.208-.038-.475-.187-.652a2.235,2.235,0,0,0-.347.6l-.566-.173a.846.846,0,0,0,.108.645.829.829,0,0,0-.264.18.291.291,0,0,0-.069.3,1.386,1.386,0,0,0,.4.038,2.517,2.517,0,0,0,.045.739.15.15,0,0,0,.045.1c.042.024.1,0,.139-.024a1.294,1.294,0,0,0,.465-.493l.208.5a.23.23,0,0,0,.094.125.156.156,0,0,0,.177-.062.426.426,0,0,0,.059-.187l.08-.479a.094.094,0,0,1,.111-.09h.593c.035-.1-.069-.2-.17-.246s-.226-.08-.274-.177c-.1-.2.163-.482.049-.656S591.946,270.322,591.773,270.4Z" transform="translate(-570.947 -234.18)" fill="#f30075" opacity="0.2"/><path d="M551.125,185.535a.164.164,0,0,1-.066.021c-.045,0-.073-.045-.09-.083-.1-.208-.042-.479-.191-.652a2.186,2.186,0,0,0-.347.6l-.59-.191a.826.826,0,0,0,.1.645.937.937,0,0,0-.264.18.3.3,0,0,0-.069.3,1.531,1.531,0,0,0,.4.042,2.641,2.641,0,0,0,.042.739.132.132,0,0,0,.049.094c.042.028.094,0,.135-.021a1.32,1.32,0,0,0,.465-.493l.208.5a.214.214,0,0,0,.094.125.146.146,0,0,0,.177-.059.459.459,0,0,0,.062-.191l.076-.475a.125.125,0,0,1,.028-.069.111.111,0,0,1,.083-.021h.6c.031-.108-.073-.2-.174-.25s-.222-.076-.274-.177c-.1-.2.163-.479.052-.652S551.281,185.448,551.125,185.535Z" transform="translate(-544.385 -178.761)" fill="#f30075" opacity="0.5"/><path d="M572.765,233.326a.11.11,0,0,1-.066,0c-.042,0-.073-.042-.09-.08-.1-.208-.042-.479-.187-.656a2.179,2.179,0,0,0-.347.6l-.562-.177a.83.83,0,0,0,.108.645.885.885,0,0,0-.267.18.3.3,0,0,0-.069.3,1.544,1.544,0,0,0,.4.042,2.639,2.639,0,0,0,.042.739.139.139,0,0,0,.049.094c.042.028.1,0,.139-.021a1.312,1.312,0,0,0,.462-.493l.212.5a.215.215,0,0,0,.094.125.153.153,0,0,0,.174-.059.414.414,0,0,0,.063-.191l.08-.475a.122.122,0,0,1,.024-.069.139.139,0,0,1,.083-.024h.6c.035-.108-.073-.2-.173-.25s-.222-.076-.274-.177c-.1-.2.167-.482.052-.656S572.938,233.239,572.765,233.326Z" transform="translate(-558.536 -209.954)" fill="#f30075" opacity="0.5"/><path d="M557.065,214.715a.146.146,0,0,1-.066.021.121.121,0,0,1-.09-.083c-.1-.208-.042-.479-.187-.652a2.162,2.162,0,0,0-.347.6l-.562-.174a.832.832,0,0,0,.108.645.883.883,0,0,0-.267.18.3.3,0,0,0-.07.3,1.389,1.389,0,0,0,.4.038,2.641,2.641,0,0,0,.042.739.139.139,0,0,0,.049.1c.042.024.1,0,.139-.024a1.288,1.288,0,0,0,.462-.493l.212.5a.229.229,0,0,0,.094.125.149.149,0,0,0,.174-.062.444.444,0,0,0,.062-.191l.08-.475a.111.111,0,0,1,.024-.066.118.118,0,0,1,.083-.024h.6c.035-.1-.073-.2-.174-.246s-.222-.08-.274-.177c-.1-.2.167-.482.052-.656S557.238,214.628,557.065,214.715Z" transform="translate(-548.284 -197.815)" fill="#f30075" opacity="0.5"/><path d="M624.5,219.1a.163.163,0,0,1-.066.021.114.114,0,0,1-.09-.083c-.1-.208-.042-.475-.191-.652a2.237,2.237,0,0,0-.347.6l-.562-.174a.833.833,0,0,0,.1.645.869.869,0,0,0-.264.18.291.291,0,0,0-.069.3,1.387,1.387,0,0,0,.4.038,2.646,2.646,0,0,0,.042.739.139.139,0,0,0,.049.1c.042.024.094,0,.135-.024a1.294,1.294,0,0,0,.465-.493l.208.5a.229.229,0,0,0,.094.125.153.153,0,0,0,.177-.062.443.443,0,0,0,.063-.191l.076-.475a.094.094,0,0,1,.111-.09h.6c.031-.1-.073-.2-.174-.246s-.222-.08-.274-.177c-.1-.2.163-.482.052-.656S624.67,219.018,624.5,219.1Z" transform="translate(-592.313 -200.682)" fill="#f30075" opacity="0.5"/><path d="M591.773,215.435a.114.114,0,0,1-.066.021.122.122,0,0,1-.09-.08c-.094-.208-.038-.479-.187-.656a2.293,2.293,0,0,0-.347.6l-.566-.173a.843.843,0,0,0,.108.645.83.83,0,0,0-.264.18.291.291,0,0,0-.069.3,1.39,1.39,0,0,0,.4.038,2.545,2.545,0,0,0,.045.743.149.149,0,0,0,.045.094.139.139,0,0,0,.139-.024,1.294,1.294,0,0,0,.465-.493l.208.5a.23.23,0,0,0,.094.125.156.156,0,0,0,.177-.062.426.426,0,0,0,.059-.187l.08-.479a.094.094,0,0,1,.111-.09h.593c.035-.1-.069-.2-.17-.246s-.226-.08-.274-.177c-.1-.2.163-.482.049-.656S591.946,215.352,591.773,215.435Z" transform="translate(-570.947 -198.285)" fill="#f30075" opacity="0.2"/><path d="M581.506,219.9a.178.178,0,0,1-.069.021c-.042,0-.069-.045-.09-.083-.094-.208-.038-.479-.187-.652a2.24,2.24,0,0,0-.347.6l-.566-.173a.846.846,0,0,0,.108.645.812.812,0,0,0-.264.18.291.291,0,0,0-.069.3,1.389,1.389,0,0,0,.4.038,2.644,2.644,0,0,0,.045.739.125.125,0,0,0,.049.094c.042.028.094,0,.135-.021a1.319,1.319,0,0,0,.465-.493l.208.5a.226.226,0,0,0,.094.128.153.153,0,0,0,.177-.062.517.517,0,0,0,.062-.191l.076-.475a.094.094,0,0,1,.111-.09h.6c.031-.1-.073-.2-.174-.25s-.222-.076-.274-.173c-.1-.2.163-.482.049-.656S581.68,219.818,581.506,219.9Z" transform="translate(-564.241 -201.204)" fill="#f30075" opacity="0.3"/><path d="M571.933,192.868a.111.111,0,0,1-.066.017c-.042,0-.073-.042-.09-.08-.094-.208-.038-.479-.187-.656a2.29,2.29,0,0,0-.347.6l-.566-.174a.843.843,0,0,0,.108.645.829.829,0,0,0-.264.18.292.292,0,0,0-.069.3,1.52,1.52,0,0,0,.4.042,2.519,2.519,0,0,0,.045.739.149.149,0,0,0,.045.094c.042.028.1,0,.139-.024a1.284,1.284,0,0,0,.465-.489l.208.5a.228.228,0,0,0,.094.125.16.16,0,0,0,.177-.059.455.455,0,0,0,.059-.191l.08-.475a.125.125,0,0,1,.028-.069.132.132,0,0,1,.083-.024h.593c.035-.108-.069-.2-.17-.25s-.226-.08-.274-.177c-.1-.2.163-.482.049-.656S572.106,192.792,571.933,192.868Z" transform="translate(-557.992 -183.547)" fill="#f30075" opacity="0.2"/><path d="M590.786,228.148a.1.1,0,0,1-.156-.062c-.1-.208-.042-.479-.191-.656a2.29,2.29,0,0,0-.347.6l-.562-.174a.84.84,0,0,0,.1.645.912.912,0,0,0-.264.18.291.291,0,0,0-.069.3,1.388,1.388,0,0,0,.4.038,2.659,2.659,0,0,0,.042.743.139.139,0,0,0,.049.094.132.132,0,0,0,.135-.024,1.312,1.312,0,0,0,.465-.489l.208.5a.229.229,0,0,0,.094.125.153.153,0,0,0,.177-.062.43.43,0,0,0,.052-.194l.076-.479a.143.143,0,0,1,.028-.066.115.115,0,0,1,.083-.024h.6c.035-.1-.073-.2-.174-.246s-.222-.08-.274-.177c-.1-.2.167-.482.052-.656S590.96,228.062,590.786,228.148Z" transform="translate(-570.301 -206.585)" fill="#f30075" opacity="0.3"/></g><g transform="translate(248.309 4.076)" opacity="0.8"><path d="M841.862,82.145a1.1,1.1,0,0,0-1.8,1.28c.2.312.43.611.645.9,2.592,3.5,3.935,7.752,5.09,11.951a5.623,5.623,0,0,1,.236,3.151A19.64,19.64,0,0,0,845.5,91.2a50.21,50.21,0,0,0-2.911-7.78,7.034,7.034,0,0,0-.725-1.274Z" transform="translate(-816.515 -72.801)" fill="#f30075" opacity="0.5"/><path d="M794.46,104.188a1.375,1.375,0,0,0-.229,2.738c.458.035.916.045,1.357.059,5.354.146,10.41,2.082,15.286,4.164a6.667,6.667,0,0,1,3.147,2.186,23.008,23.008,0,0,0-8.155-5.778,61.651,61.651,0,0,0-9.619-3.123A8.172,8.172,0,0,0,794.46,104.188Z" transform="translate(-785.936 -87.491)" fill="#f30075"/><path d="M797.189,123c-1.1.038-.854,1.61.257,1.617.292,0,.583,0,.861-.021A31.327,31.327,0,0,1,808.5,126.41a5.23,5.23,0,0,1,2.294,1.156,18.362,18.362,0,0,0-5.958-3.057,45.741,45.741,0,0,0-6.482-1.426A5.671,5.671,0,0,0,797.189,123Z" transform="translate(-788.182 -99.771)" fill="#f30075" opacity="0.2"/><path d="M862.795,180.137c.313,1.062,1.77.43,1.5-.649-.069-.281-.153-.559-.232-.826a31.349,31.349,0,0,1-.767-10.327,5.249,5.249,0,0,1,.548-2.505,18.373,18.373,0,0,0-1.482,6.527A45.494,45.494,0,0,0,862.59,179,5.846,5.846,0,0,0,862.795,180.137Z" transform="translate(-831.184 -127.743)" fill="#f30075" opacity="0.5"/><path d="M803.344,78.712c-.663-.115-.715.854-.052,1,.174.038.347.069.517.1a19.15,19.15,0,0,1,5.854,2.38,3.221,3.221,0,0,1,1.225.982,11.249,11.249,0,0,0-3.172-2.585,28.383,28.383,0,0,0-3.689-1.676,3.857,3.857,0,0,0-.683-.2Z" transform="translate(-792.325 -70.85)" fill="#f30075" opacity="0.2"/><path d="M773.329,146.444c-1.687.867-.26,3.251,1.471,2.46.455-.208.9-.441,1.319-.659,5.157-2.675,11.142-3.657,17.035-4.417a8.354,8.354,0,0,1,4.324.226,29.332,29.332,0,0,0-11.278-.694,73.168,73.168,0,0,0-11.01,2.37A9.793,9.793,0,0,0,773.329,146.444Z" transform="translate(-772.575 -112.913)" fill="#f30075"/><path d="M787.909,162.887c-1.215,1.131.694,2.467,1.95,1.388.347-.285.649-.586.954-.871,3.692-3.47,8.575-5.934,13.436-8.21a31.289,31.289,0,0,1,7.416-1.1c-3.425.305-10.41,1.388-13.533,2.776a74.556,74.556,0,0,0-8.821,4.952A9.344,9.344,0,0,0,787.909,162.887Z" transform="translate(-782.334 -120.081)" fill="#f30075" opacity="0.5"/><path d="M813.493,183.074c-.347,1.617,1.961,1.641,2.391.024.111-.423.2-.85.288-1.256,1.069-4.952,3.682-9.761,6.388-14.394a31.316,31.316,0,0,1,5.479-5.118c-2.644,2.2-7.79,7.055-9.546,9.987a75.05,75.05,0,0,0-4.445,9.088A9.235,9.235,0,0,0,813.493,183.074Z" transform="translate(-799.271 -125.458)" fill="#f30075"/><path d="M858.872,56.835c-.826-1.683-3.185-.3-2.429,1.43.2.451.416.892.628,1.315,2.54,5.143,3.415,11.1,4.07,16.937a8.339,8.339,0,0,1-.288,4.282,29.328,29.328,0,0,0,.84-11.167,74.088,74.088,0,0,0-2.162-10.945A9.66,9.66,0,0,0,858.872,56.835Z" transform="translate(-827.244 -56.072)" fill="#f30075"/><path d="M822.052,63.663a.3.3,0,0,0,.142.042c.09,0,.156-.094.194-.177.2-.448.087-1.041.406-1.388a4.821,4.821,0,0,1,.77,1.291l1.211-.375a1.808,1.808,0,0,1-.229,1.388,1.9,1.9,0,0,1,.569.389.628.628,0,0,1,.149.642,3.075,3.075,0,0,1-.854.083,5.58,5.58,0,0,1-.094,1.593.288.288,0,0,1-.1.2c-.087.059-.2,0-.295-.049a2.822,2.822,0,0,1-1-1.041l-.461,1.034a.479.479,0,0,1-.2.267.323.323,0,0,1-.378-.128.98.98,0,0,1-.132-.409l-.17-1.041a.243.243,0,0,0-.056-.146.26.26,0,0,0-.177-.052h-1.284c-.073-.229.153-.441.371-.534s.479-.17.59-.382c.222-.434-.347-1.041-.111-1.409C821.212,63.046,821.677,63.479,822.052,63.663Z" transform="translate(-803.575 -60.035)" fill="#f30075"/><path d="M884.935,82.145a1.1,1.1,0,0,1,1.8,1.28c-.208.312-.43.611-.645.9-2.592,3.5-3.935,7.752-5.094,11.951a5.593,5.593,0,0,0-.233,3.151A19.64,19.64,0,0,1,881.3,91.2a51.466,51.466,0,0,1,2.908-7.769,7.259,7.259,0,0,1,.729-1.284Z" transform="translate(-843.074 -72.801)" fill="#f30075" opacity="0.5"/><path d="M904.877,104.188a1.375,1.375,0,0,1,.229,2.738c-.455.035-.916.045-1.353.059-5.358.146-10.41,2.082-15.286,4.164a6.566,6.566,0,0,0-3.147,2.186,22.975,22.975,0,0,1,8.155-5.778,61.651,61.651,0,0,1,9.619-3.123A8.172,8.172,0,0,1,904.877,104.188Z" transform="translate(-846.197 -87.491)" fill="#f30075"/><path d="M914.7,122.995c1.107.038.857,1.61-.253,1.617-.291,0-.583,0-.861-.021a31.311,31.311,0,0,0-10.192,1.818,5.211,5.211,0,0,0-2.294,1.156,18.36,18.36,0,0,1,5.958-3.057,45.732,45.732,0,0,1,6.5-1.433A5.652,5.652,0,0,1,914.7,122.995Z" transform="translate(-856.501 -99.77)" fill="#f30075" opacity="0.5"/><path d="M920.3,78.712c.663-.115.715.854.052,1-.174.038-.347.069-.517.1a19.169,19.169,0,0,0-5.857,2.38,3.21,3.21,0,0,0-1.221.982,11.235,11.235,0,0,1,3.168-2.585,28.649,28.649,0,0,1,3.692-1.676,3.859,3.859,0,0,1,.684-.2Z" transform="translate(-864.115 -70.85)" fill="#f30075" opacity="0.2"/><path d="M882.344,196.506c-.149.659-1.062.347-.94-.347.031-.174.073-.347.111-.514a19.182,19.182,0,0,0,.059-6.319,3.193,3.193,0,0,0-.434-1.506,11.218,11.218,0,0,1,1.162,3.918,27.79,27.79,0,0,1,.121,4.053,3.46,3.46,0,0,1-.08.715Z" transform="translate(-843.467 -142.103)" fill="#f30075" opacity="0.2"/><path d="M914.209,180.689c.521.881-.756.822-1.318-.059-.146-.229-.281-.462-.41-.694a47.546,47.546,0,0,0-6.413-7.922,8.9,8.9,0,0,0-1.988-1.714,31.578,31.578,0,0,1,5.205,4.452c1.555,1.627,2.929,3.324,4.275,5.018a8.166,8.166,0,0,1,.649.92Z" transform="translate(-858.447 -130.662)" fill="#f30075" opacity="0.5"/><path d="M799.91,180.689c-.52.881.756.822,1.315-.059.149-.229.285-.462.413-.694a47.546,47.546,0,0,1,6.413-7.922,8.822,8.822,0,0,1,1.988-1.714,31.437,31.437,0,0,0-5.205,4.452c-1.555,1.627-2.932,3.324-4.275,5.018A8.192,8.192,0,0,0,799.91,180.689Z" transform="translate(-790.345 -130.662)" fill="#f30075" opacity="0.2"/><path d="M848.664,196.506c.149.659,1.062.347.941-.347-.031-.173-.073-.347-.111-.514a19.182,19.182,0,0,1-.059-6.319,3.193,3.193,0,0,1,.434-1.506,11.216,11.216,0,0,0-1.145,3.928,27.808,27.808,0,0,0-.122,4.053,3.488,3.488,0,0,0,.063.7Z" transform="translate(-822.203 -142.103)" fill="#f30075" opacity="0.2"/><path d="M904.964,97.761c.663-.118.715.85.052,1-.173.038-.347.066-.517.094a19.215,19.215,0,0,0-5.858,2.384,3.192,3.192,0,0,0-1.221.979,11.178,11.178,0,0,1,3.172-2.582,27.488,27.488,0,0,1,3.689-1.676A3.347,3.347,0,0,1,904.964,97.761Z" transform="translate(-854.098 -83.288)" fill="#f30075" opacity="0.2"/><path d="M891.24,60.229c.573-.347.982.524.42.909-.146.1-.3.191-.441.281a19.074,19.074,0,0,0-4.542,4.4,3.122,3.122,0,0,0-.767,1.364,11.208,11.208,0,0,1,1.974-3.581,27.934,27.934,0,0,1,2.8-2.932,3.631,3.631,0,0,1,.559-.441Z" transform="translate(-846.582 -58.735)" fill="#f30075" opacity="0.2"/><path d="M918.638,146.444c1.686.867.26,3.251-1.471,2.46-.455-.208-.9-.441-1.319-.659-5.156-2.675-11.146-3.657-17.034-4.417a8.354,8.354,0,0,0-4.324.226,29.328,29.328,0,0,1,11.278-.694,73.165,73.165,0,0,1,11.01,2.37,9.885,9.885,0,0,1,1.86.715Z" transform="translate(-852.185 -112.913)" fill="#f30075"/><path d="M905.486,162.887c1.211,1.131-.694,2.467-1.954,1.388-.33-.285-.649-.586-.951-.871-3.7-3.47-8.578-5.934-13.436-8.21a31.315,31.315,0,0,0-7.416-1.1c3.425.305,10.41,1.388,13.533,2.776a74.617,74.617,0,0,1,8.824,4.952A9.349,9.349,0,0,1,905.486,162.887Z" transform="translate(-843.852 -120.081)" fill="#f30075" opacity="0.5"/><path d="M886.726,185.279c.149,1.648-2.155,1.388-2.377-.274-.059-.434-.094-.868-.128-1.284-.441-5.045-2.429-10.143-4.535-15.081a31.237,31.237,0,0,0-4.8-5.76c2.349,2.512,6.846,7.981,8.221,11.1a74.743,74.743,0,0,1,3.269,9.57A9.554,9.554,0,0,1,886.726,185.279Z" transform="translate(-839.386 -125.817)" fill="#f30075"/><path d="M906.891,63.663a.3.3,0,0,1-.142.042c-.094,0-.156-.094-.194-.177-.208-.448-.087-1.041-.406-1.388a4.821,4.821,0,0,0-.77,1.291l-1.211-.375a1.8,1.8,0,0,0,.229,1.388,1.921,1.921,0,0,0-.573.389.631.631,0,0,0-.146.642,3.063,3.063,0,0,0,.854.083,5.711,5.711,0,0,0,.09,1.593.3.3,0,0,0,.1.2c.09.059.208,0,.3-.049a2.821,2.821,0,0,0,1-1.041l.451,1.076a.466.466,0,0,0,.2.267.316.316,0,0,0,.375-.128.942.942,0,0,0,.135-.409l.167-1.041a.272.272,0,0,1,.059-.146.26.26,0,0,1,.177-.052h1.284c.073-.229-.156-.441-.375-.534s-.475-.17-.586-.382c-.222-.434.347-1.041.108-1.409C907.734,63.046,907.269,63.479,906.891,63.663Z" transform="translate(-858.162 -60.035)" fill="#f30075"/><path d="M917.432,207.411a.306.306,0,0,1-.142.042c-.094,0-.156-.09-.194-.173-.2-.451-.087-1.041-.406-1.409a4.88,4.88,0,0,0-.77,1.291l-1.211-.375a1.808,1.808,0,0,0,.229,1.388,1.907,1.907,0,0,0-.569.389.628.628,0,0,0-.149.642,3.078,3.078,0,0,0,.854.087,5.552,5.552,0,0,0,.094,1.589.3.3,0,0,0,.1.2c.087.056.2,0,.3-.052a2.822,2.822,0,0,0,1-1.041l.451,1.076a.5.5,0,0,0,.2.271.347.347,0,0,0,.378-.132.983.983,0,0,0,.132-.409l.17-1.024a.187.187,0,0,1,.233-.194c.427,0,.857-.017,1.284,0,.073-.229-.153-.437-.371-.534s-.479-.167-.59-.382c-.222-.43.347-1.041.111-1.405C918.285,206.793,917.806,207.227,917.432,207.411Z" transform="translate(-865.046 -153.889)" fill="#f30075" opacity="0.2"/><path d="M947.02,111.031a.274.274,0,0,1-.146.042c-.09,0-.153-.09-.191-.173-.208-.448-.09-1.041-.406-1.409a4.856,4.856,0,0,0-.77,1.294l-1.211-.378a1.79,1.79,0,0,0,.229,1.388,1.877,1.877,0,0,0-.573.389.646.646,0,0,0-.149.642,3.1,3.1,0,0,0,.857.087,5.677,5.677,0,0,0,.09,1.589.309.309,0,0,0,.1.2c.09.056.2,0,.295-.049a2.84,2.84,0,0,0,1-1.041l.448,1.076a.486.486,0,0,0,.2.271.326.326,0,0,0,.378-.132.923.923,0,0,0,.135-.409l.167-1.041a.274.274,0,0,1,.055-.142.253.253,0,0,1,.18-.052h1.28c.076-.226-.153-.437-.371-.534s-.479-.167-.586-.378c-.222-.434.347-1.041.108-1.409C947.859,110.413,947.391,110.847,947.02,111.031Z" transform="translate(-884.366 -90.954)" fill="#f30075"/><path d="M826.328,220.694a.41.41,0,0,1-.2.059c-.128,0-.219-.128-.271-.246-.288-.621-.121-1.433-.566-1.957a6.743,6.743,0,0,0-1.072,1.8l-1.69-.521a2.523,2.523,0,0,0,.319,1.933,2.566,2.566,0,0,0-.795.541.885.885,0,0,0-.208.892,4.339,4.339,0,0,0,1.194.121,7.8,7.8,0,0,0,.128,2.217.416.416,0,0,0,.142.281.4.4,0,0,0,.413-.069,3.9,3.9,0,0,0,1.388-1.471l.628,1.5a.659.659,0,0,0,.281.375.451.451,0,0,0,.527-.18,1.343,1.343,0,0,0,.184-.569l.236-1.426a.347.347,0,0,1,.076-.2.364.364,0,0,1,.25-.069c.6,0,1.194-.024,1.787,0,.1-.319-.215-.611-.517-.746s-.666-.232-.819-.527c-.312-.6.493-1.444.149-1.964C827.5,219.834,826.849,220.441,826.328,220.694Z" transform="translate(-804.721 -162.169)" fill="#f30075"/><path d="M777.115,112.768a.424.424,0,0,1-.2.059c-.125,0-.215-.128-.271-.246-.285-.625-.121-1.433-.562-1.961a6.772,6.772,0,0,0-1.076,1.8l-1.687-.524a2.5,2.5,0,0,0,.319,1.936,2.523,2.523,0,0,0-.795.541.874.874,0,0,0-.208.892,4.31,4.31,0,0,0,1.194.118,7.912,7.912,0,0,0,.125,2.217.406.406,0,0,0,.146.285c.125.08.285,0,.413-.069a3.924,3.924,0,0,0,1.388-1.471l.628,1.5a.694.694,0,0,0,.278.375.451.451,0,0,0,.527-.18,1.347,1.347,0,0,0,.187-.569l.232-1.43a.37.37,0,0,1,.08-.2.347.347,0,0,1,.25-.069c.593,0,1.19-.024,1.787-.021.1-.316-.215-.611-.521-.743s-.666-.236-.819-.531c-.309-.6.493-1.44.153-1.961C778.285,111.907,777.636,112.508,777.115,112.768Z" transform="translate(-772.585 -91.692)" fill="#f30075"/><path d="M930.483,181.5a.191.191,0,0,1-.1.031c-.069,0-.115-.069-.146-.128-.153-.347-.062-.763-.3-1.041a3.5,3.5,0,0,0-.569.954l-.9-.278a1.318,1.318,0,0,0,.17,1.041,1.428,1.428,0,0,0-.423.288.475.475,0,0,0-.108.475,2.431,2.431,0,0,0,.632.062,4.057,4.057,0,0,0,.069,1.176.218.218,0,0,0,.076.153c.066.042.153,0,.219-.038a2.082,2.082,0,0,0,.736-.781l.347.795a.371.371,0,0,0,.149.2.243.243,0,0,0,.281-.1.693.693,0,0,0,.1-.3l.125-.76a.139.139,0,0,1,.174-.142h.951c.056-.17-.115-.326-.274-.4a.836.836,0,0,1-.437-.281c-.163-.323.264-.767.08-1.041S930.746,181.363,930.483,181.5Z" transform="translate(-874.12 -137.231)" fill="#f30075" opacity="0.2"/><path d="M863.586,220.092a.205.205,0,0,1-.108.031c-.066,0-.115-.069-.142-.132-.153-.33-.066-.76-.3-1.041a3.582,3.582,0,0,0-.572.958l-.9-.278a1.323,1.323,0,0,0,.17,1.041,1.369,1.369,0,0,0-.423.288.469.469,0,0,0-.111.475,2.428,2.428,0,0,0,.635.062,4.166,4.166,0,0,0,.066,1.176.215.215,0,0,0,.076.149c.066.045.153,0,.219-.035a2.082,2.082,0,0,0,.739-.781l.347.795a.372.372,0,0,0,.149.2.243.243,0,0,0,.281-.1.7.7,0,0,0,.1-.3l.125-.76a.2.2,0,0,1,.042-.108.219.219,0,0,1,.132-.038h.951c.052-.17-.114-.326-.278-.4a.8.8,0,0,1-.434-.281c-.167-.323.26-.767.08-1.041S863.864,219.953,863.586,220.092Z" transform="translate(-830.435 -162.43)" fill="#f30075" opacity="0.2"/><path d="M798.887,85a.2.2,0,0,1-.1.031.187.187,0,0,1-.146-.128c-.153-.347-.066-.763-.3-1.041a3.562,3.562,0,0,0-.573.954l-.9-.278a1.333,1.333,0,0,0,.17,1.041,1.356,1.356,0,0,0-.423.285.472.472,0,0,0-.111.475,2.183,2.183,0,0,0,.635.062,4.207,4.207,0,0,0,.066,1.18.218.218,0,0,0,.08.149c.066.042.149,0,.219-.035a2.082,2.082,0,0,0,.736-.784l.347.8a.347.347,0,0,0,.149.2.243.243,0,0,0,.281-.1.693.693,0,0,0,.1-.3l.125-.756a.194.194,0,0,1,.042-.108.18.18,0,0,1,.132-.038h.951c.052-.167-.115-.323-.278-.4s-.347-.125-.434-.281c-.167-.319.264-.767.08-1.041S799.164,84.863,798.887,85Z" transform="translate(-788.187 -74.218)" fill="#f30075" opacity="0.5"/><path d="M833.323,161.128a.184.184,0,0,1-.1.031c-.069,0-.115-.066-.142-.128-.153-.347-.066-.763-.3-1.041a3.639,3.639,0,0,0-.569.954l-.9-.278a1.35,1.35,0,0,0,.17,1.041,1.39,1.39,0,0,0-.42.288.469.469,0,0,0-.111.475,2.283,2.283,0,0,0,.632.062,4.2,4.2,0,0,0,.07,1.18.215.215,0,0,0,.076.149c.066.042.153,0,.219-.038a2.081,2.081,0,0,0,.739-.781l.347.795a.347.347,0,0,0,.149.2.236.236,0,0,0,.278-.1.693.693,0,0,0,.1-.3l.125-.756a.167.167,0,0,1,.045-.115.17.17,0,0,1,.132-.038h.947c.056-.167-.111-.326-.274-.4a.8.8,0,0,1-.434-.281c-.167-.319.26-.767.08-1.041S833.6,160.993,833.323,161.128Z" transform="translate(-810.675 -123.93)" fill="#f30075" opacity="0.5"/><path d="M808.333,131.452a.259.259,0,0,1-.1.031.2.2,0,0,1-.142-.132c-.153-.33-.066-.76-.3-1.041a3.563,3.563,0,0,0-.569.958l-.9-.278a1.357,1.357,0,0,0,.17,1.041,1.357,1.357,0,0,0-.423.285.475.475,0,0,0-.108.475,2.148,2.148,0,0,0,.632.062,4.2,4.2,0,0,0,.069,1.18.215.215,0,0,0,.076.149c.066.042.153,0,.219-.035a2.11,2.11,0,0,0,.739-.784l.347.8a.347.347,0,0,0,.146.2.243.243,0,0,0,.281-.1.693.693,0,0,0,.1-.3l.122-.756a.194.194,0,0,1,.042-.108.184.184,0,0,1,.135-.038h.947c.056-.167-.114-.323-.274-.4s-.347-.125-.437-.281c-.163-.319.264-.767.083-1.041S808.61,131.313,808.333,131.452Z" transform="translate(-794.357 -104.549)" fill="#f30075" opacity="0.5"/><path d="M915.673,138.438a.184.184,0,0,1-.1.031c-.069,0-.115-.066-.142-.128-.153-.347-.066-.763-.3-1.041a3.549,3.549,0,0,0-.569.954l-.9-.278a1.35,1.35,0,0,0,.17,1.041,1.431,1.431,0,0,0-.423.288.475.475,0,0,0-.108.475,2.273,2.273,0,0,0,.631.062,4.214,4.214,0,0,0,.069,1.18.215.215,0,0,0,.076.149c.066.042.153,0,.219-.038a2.081,2.081,0,0,0,.739-.781l.347.795a.347.347,0,0,0,.149.2.239.239,0,0,0,.278-.1.694.694,0,0,0,.1-.3l.125-.756a.139.139,0,0,1,.173-.146h.947c.055-.167-.115-.326-.274-.4a.836.836,0,0,1-.437-.281c-.163-.319.264-.767.083-1.041S915.954,138.3,915.673,138.438Z" transform="translate(-864.449 -109.113)" fill="#f30075" opacity="0.5"/><path d="M863.587,132.6a.206.206,0,0,1-.108.031c-.066,0-.114-.066-.142-.128-.153-.347-.066-.763-.3-1.041a3.562,3.562,0,0,0-.573.954l-.9-.278a1.333,1.333,0,0,0,.17,1.041,1.357,1.357,0,0,0-.423.285.472.472,0,0,0-.111.475,2.172,2.172,0,0,0,.635.062,4.2,4.2,0,0,0,.066,1.18.232.232,0,0,0,.076.149c.066.042.153,0,.219-.035a2.082,2.082,0,0,0,.739-.784l.347.8a.346.346,0,0,0,.149.2.243.243,0,0,0,.281-.1.694.694,0,0,0,.1-.3l.125-.756a.194.194,0,0,1,.042-.108.181.181,0,0,1,.132-.038h.951c.052-.167-.115-.323-.278-.4s-.347-.125-.434-.281c-.167-.319.26-.767.08-1.041S863.865,132.463,863.587,132.6Z" transform="translate(-830.436 -105.3)" fill="#f30075" opacity="0.2"/><path d="M847.243,139.712a.26.26,0,0,1-.1.031.194.194,0,0,1-.142-.132c-.153-.347-.066-.76-.3-1.041a3.517,3.517,0,0,0-.569.958l-.9-.281a1.361,1.361,0,0,0,.17,1.041,1.356,1.356,0,0,0-.423.285.476.476,0,0,0-.108.475,2.149,2.149,0,0,0,.632.062,4.2,4.2,0,0,0,.069,1.18.215.215,0,0,0,.076.149c.066.042.153,0,.219-.035a2.11,2.11,0,0,0,.739-.784l.347.8a.347.347,0,0,0,.149.2.239.239,0,0,0,.278-.1.694.694,0,0,0,.1-.3l.125-.756a.191.191,0,0,1,.038-.108.184.184,0,0,1,.135-.038h.947c.055-.167-.115-.323-.274-.4s-.347-.125-.437-.281c-.163-.319.264-.767.083-1.041S847.52,139.573,847.243,139.712Z" transform="translate(-819.765 -109.943)" fill="#f30075" opacity="0.3"/><path d="M832.006,96.678a.2.2,0,0,1-.108.031c-.066,0-.115-.066-.142-.128-.153-.347-.066-.763-.3-1.041a3.562,3.562,0,0,0-.573.954l-.9-.278a1.318,1.318,0,0,0,.17,1.041,1.432,1.432,0,0,0-.423.288.469.469,0,0,0-.111.475,2.311,2.311,0,0,0,.635.062,4.211,4.211,0,0,0,.066,1.18.232.232,0,0,0,.076.149c.066.042.153,0,.219-.038a2.046,2.046,0,0,0,.739-.781l.347.795a.372.372,0,0,0,.149.2.243.243,0,0,0,.281-.1.692.692,0,0,0,.1-.3l.125-.756a.187.187,0,0,1,.042-.108.18.18,0,0,1,.132-.038h.951c.052-.17-.115-.326-.278-.4a.8.8,0,0,1-.434-.281c-.167-.323.26-.767.08-1.041S832.284,96.543,832.006,96.678Z" transform="translate(-809.813 -81.844)" fill="#f30075" opacity="0.2"/><path d="M862.017,152.852a.294.294,0,0,1-.108.031c-.066,0-.115-.069-.142-.132-.153-.33-.066-.76-.3-1.041a3.582,3.582,0,0,0-.573.958l-.9-.278a1.326,1.326,0,0,0,.17,1.041,1.357,1.357,0,0,0-.423.285.472.472,0,0,0-.111.475,2.182,2.182,0,0,0,.635.062,4.2,4.2,0,0,0,.066,1.18.233.233,0,0,0,.076.149c.066.042.153,0,.222-.035a2.1,2.1,0,0,0,.736-.784l.347.8a.347.347,0,0,0,.149.2.243.243,0,0,0,.281-.1.694.694,0,0,0,.1-.3l.125-.756a.2.2,0,0,1,.042-.108.181.181,0,0,1,.132-.038h.951c.052-.167-.114-.323-.278-.4s-.347-.125-.434-.281c-.167-.319.26-.767.08-1.041S862.294,152.706,862.017,152.852Z" transform="translate(-829.41 -118.523)" fill="#f30075" opacity="0.3"/></g><path d="M887.83,688.229a8.568,8.568,0,0,0,1.135-4.352c0-3.932-2.429-7.117-5.438-7.117s-5.437,3.185-5.437,7.117a8.568,8.568,0,0,0,1.135,4.352,8.911,8.911,0,0,0,0,8.7,8.911,8.911,0,0,0,0,8.7,8.911,8.911,0,0,0,0,8.7,8.578,8.578,0,0,0-1.135,4.352c0,3.932,2.429,7.12,5.438,7.12s5.438-3.189,5.438-7.12a8.578,8.578,0,0,0-1.135-4.352,8.912,8.912,0,0,0,0-8.7,8.912,8.912,0,0,0,0-8.7A8.911,8.911,0,0,0,887.83,688.229Z" transform="translate(-593.166 -457.302)" fill="#3f3d56"/><ellipse cx="5.438" cy="7.121" rx="5.438" ry="7.121" transform="translate(284.923 210.755)" fill="#3f3d56"/><ellipse cx="5.438" cy="7.121" rx="5.438" ry="7.121" transform="translate(284.923 202.052)" fill="#3f3d56"/><path d="M824.6,396.035a25.987,25.987,0,0,1-2.023-2.981l14.29-2.349-15.456.114a26.1,26.1,0,0,1-.5-20.637l20.734,10.757-19.124-14.064a26.057,26.057,0,1,1,43.029,29.149,26.18,26.18,0,0,1,2.97,4.751l-18.547,9.661,19.779-6.638a26.081,26.081,0,0,1-4.2,24.467,26.053,26.053,0,1,1-40.947,0,26.067,26.067,0,0,1,0-32.216Z" transform="translate(-554.597 -246.415)" fill="#f30075"/><path d="M871.129,521.2a25.952,25.952,0,0,1-5.573,16.108,26.053,26.053,0,1,1-40.947,0C821.1,532.87,871.129,518.272,871.129,521.2Z" transform="translate(-554.6 -355.469)" opacity="0.1"/><path d="M312.976,694.249a9.081,9.081,0,0,0,1.2-4.608c0-4.164-2.578-7.54-5.76-7.54s-5.76,3.376-5.76,7.54a9.081,9.081,0,0,0,1.2,4.608,9.421,9.421,0,0,0,0,9.216,9.421,9.421,0,0,0,0,9.217,9.414,9.414,0,0,0,0,9.213,9.1,9.1,0,0,0-1.2,4.608c0,4.164,2.578,7.54,5.76,7.54s5.76-3.376,5.76-7.54a9.1,9.1,0,0,0-1.2-4.608,9.414,9.414,0,0,0,0-9.213,9.421,9.421,0,0,0,0-9.217,9.421,9.421,0,0,0,0-9.216Z" transform="translate(-217.414 -460.789)" fill="#3f3d56"/><ellipse cx="5.76" cy="7.54" rx="5.76" ry="7.54" transform="translate(85.246 212.098)" fill="#3f3d56"/><ellipse cx="5.76" cy="7.54" rx="5.76" ry="7.54" transform="translate(85.246 202.882)" fill="#3f3d56"/><path d="M288.7,385.044a28.058,28.058,0,0,0,2.145-3.158l-15.123-2.491,16.368.121a27.635,27.635,0,0,0,.527-21.861l-21.972,11.392L290.9,354.16a27.59,27.59,0,1,0-45.569,30.884,27.438,27.438,0,0,0-3.144,5.032l19.658,10.2-20.949-7.03a27.618,27.618,0,0,0,4.449,25.908,27.59,27.59,0,1,0,43.376,0,27.6,27.6,0,0,0,0-34.114Z" transform="translate(-176.131 -237.68)" fill="#f30075"/><path d="M239.393,517.374a27.483,27.483,0,0,0,5.9,17.055,27.59,27.59,0,1,0,43.376,0C292.363,529.734,239.393,514.275,239.393,517.374Z" transform="translate(-176.099 -352.958)" opacity="0.1"/><ellipse cx="188.424" cy="9.206" rx="188.424" ry="9.206" transform="translate(0 263.136)" fill="#3f3d56"/><path d="M566.894,695.09a.607.607,0,0,0-.416.368h-.066l-.257-.042s-1.346-.111-1.6-.094a.5.5,0,0,1-.409-.233l-1-.847-.076-.066.177-.062s-2.689-3.338-3.269-3.4a4.42,4.42,0,0,1-1.548-.854v-.052c-.021-.111-.035-.226-.049-.347l.142.087h0v-.118h0a2.165,2.165,0,0,1,.4-1.145,5.389,5.389,0,0,0,.861-1.142,1.669,1.669,0,0,0,.087-.6,1.984,1.984,0,0,0-.278-1.041,1.315,1.315,0,0,0-.881-.607.735.735,0,0,1-.285-.038c-.562-.132-.767-.885-1.312-1.069a1.113,1.113,0,0,0-.781.08c-.246.1-.465.257-.694.375a4.507,4.507,0,0,0-.729.371l-.069.059h0l-.045.042h0a1.5,1.5,0,0,0-.233.305v.017a.044.044,0,0,1-.017.035v.229a.1.1,0,0,1,0,.028v.038a.069.069,0,0,0,0,.028.128.128,0,0,0,0,.038v.066a.044.044,0,0,1,0,.021v.059h0a1.217,1.217,0,0,0,.26.368l-.031.031a2.366,2.366,0,0,0-.729,1.711,2.425,2.425,0,0,0,.038.423,2.219,2.219,0,0,0-.4-.239,3.472,3.472,0,0,0-1.478-.347,10.258,10.258,0,0,1-2.009-.323.851.851,0,0,1,.066.18l-.167-.094a4.915,4.915,0,0,0-1.568-.527s-.347.049-.392-.694a3.14,3.14,0,0,0-.125-.673,11.718,11.718,0,0,1-.559-2.04l-.111-1.079a13.483,13.483,0,0,0,.208-3.987.829.829,0,0,0-.292-.965c-1.319-.972-2.651,2.814-2.651,2.814l-.5.479a1.063,1.063,0,0,0-.42-.16,2.342,2.342,0,0,0-.451,1.017,4.973,4.973,0,0,1-1.388,1.586c-.43.378-.847.77-1.26,1.162a4.746,4.746,0,0,1-2.484.944l-.642.1a1.986,1.986,0,0,0,.076-.541,2.027,2.027,0,0,0-1.593-1.971.511.511,0,0,0,0-.146.6.6,0,0,0-.153-.274,2.9,2.9,0,0,0-1.121-.972,1.459,1.459,0,0,0-.607-.1h-.149a1.551,1.551,0,0,0-1.135.59c-.167.226-.267.489-.413.729a3.276,3.276,0,0,1-1.131,1.041c-.267.16-.552.3-.8.486a3.022,3.022,0,0,0-1.117,3.015,4.546,4.546,0,0,1,.26,1.457,2.508,2.508,0,0,1-.462,1.041,3.335,3.335,0,0,0-.514,1.041,1.02,1.02,0,0,0,.319,1.041,2.513,2.513,0,0,1,.347.236,1.154,1.154,0,0,1,.163.257,2.557,2.557,0,0,0,1.586,1.232,1.042,1.042,0,0,0,.326.035h.035a.545.545,0,0,0,.59-.271.574.574,0,0,1,.056-.146.17.17,0,0,1,.1-.066.785.785,0,0,1,.232.087,2.945,2.945,0,0,0,1.121.316,1.259,1.259,0,0,0,.2,0,.875.875,0,0,0,.4-.055.846.846,0,0,0,.309-.267l.052-.069a5.629,5.629,0,0,1-.507,1.568,2.868,2.868,0,0,0-.378,1.371,1.361,1.361,0,0,0,.153.722l.038-.076a5.493,5.493,0,0,0,.753,1.041,7.335,7.335,0,0,1-.073,1.627,3.366,3.366,0,0,0,1.287,3.706l.427.937-1.759.125c-.177-.024-2.481-.347-2.491.115s.347,5.032,1.541,4.723c1.114-.288.746-1.621.694-1.8h0l.888-.843a.386.386,0,0,0-.066-.292h0l2.148.1.5,1.1a2.426,2.426,0,0,1,.163,2.4,11.15,11.15,0,0,0-1.53,3.852,4.241,4.241,0,0,1-.951,1.964c-.4.139-1.947.743-1.332,1.662.694,1.041,3,3.054,3.928,2.984s.555-.743.555-.743l-.774-.756a18.674,18.674,0,0,1-.083-2.082.479.479,0,0,0-.347-.493,5.219,5.219,0,0,1,.652-2.058c.559-.767,2.342-4.136,2.342-4.136s.566-.5.441-2c-.052-.6-.08-1.135-.1-1.555l2.02.09s2.165-.215.694-2.537a21.338,21.338,0,0,0-4.6-4.6l-.028-1.437.226.055a.471.471,0,0,0-.035-.146h.035a30.755,30.755,0,0,1-.573-3.48l.128.059c1.343,1.555,2.249.239,2.249.239s2.839-3.987,2.561-3.817a.24.24,0,0,1-.187,0l.2-.652a1.392,1.392,0,0,0-.378-2c-.992-.586-.968,1.256-.923,1.954l-.049-.045s-.951,1.43-1.461,2.231-.937.274-.937.274l-.645-.725a2.575,2.575,0,0,0,.153-.909,1.534,1.534,0,0,0-.437-1.176,2.054,2.054,0,0,1-.649-1.364,1.431,1.431,0,0,1,.128-.559l3.349-1.773s.694,0,1.655-1.45a25.022,25.022,0,0,1,2.03-2.676l-.056-.076.056-.063s-.038-.055-.108-.142l.517-.6a7.9,7.9,0,0,0,0,.809l.264.906.153,5.028s-.163.482.881.961c.881.406,2.28,1.093,2.686,1.291a.635.635,0,0,1-.024.059h.121a1.727,1.727,0,0,1,1.968,1.85s.139,4.14-.486,5.58a8.225,8.225,0,0,0-.534,3.224s.063-.3.413.094l-.024.111c-.2,1-.611,3.123-.694,3.98a13.944,13.944,0,0,1-.451,2.321l-.208,3.817,1.3.063v.135a.417.417,0,0,1-.219.347c-.448.243-1.5,1.093-1.416,3.71l-.045.43a5.334,5.334,0,0,1-.635,2.033,1.334,1.334,0,0,0-.08.153.123.123,0,0,1,.035-.073s-.677.139-.538,1.968.347,2.151.625,2.172,1.634.347,1.565-.319a12.212,12.212,0,0,1-.045-2.4c.094-.229.458-.843.107-.992h0a5.173,5.173,0,0,0,.146-1.28,8.4,8.4,0,0,1,1.169-1.475,3.307,3.307,0,0,0,.926-1.957c0-.055,1.437-1.006,1.228-1.794q-.052-.2-.083-.347a.262.262,0,0,0-.024-.139h.028l.288-1.735v1.693l.173.021v.139l-.073,1.621a2.623,2.623,0,0,1-.208.92,9.024,9.024,0,0,0-.718,4.091l-.017,1.558c-.049,0-.757.177-.621,1.943.139,1.829.347,2.148.625,2.172s1.634.347,1.565-.319a12.539,12.539,0,0,1-.049-2.4c.09-.229.253-.833-.1-.982a1.3,1.3,0,0,1,.146-.586c.153-.26.663-1.5,1.041-2.446a8.8,8.8,0,0,0,.645-3.022v-.035a2.847,2.847,0,0,1,.222-1.017,7.189,7.189,0,0,0,.371-1.121.248.248,0,0,1,.024-.132l.33.042,1.138-4.914a23.842,23.842,0,0,0,.16-3.869.308.308,0,0,0-.021-.139h.069a10.351,10.351,0,0,0,.163-3.123c-.069-2.53.461-3.338.461-3.338.288-.913.607-1.218.791-1.322h0a.378.378,0,0,1,.16-.052l.861.985h0l.16.18h0l.073.08a.721.721,0,0,1,0-.121c.458.267,1.52.888,2.151,1.336a1.951,1.951,0,0,0,1.773.455,4.781,4.781,0,0,0,1.426-.468h.035a1.734,1.734,0,0,0,.347.135s1.166.985,1.277-.815S566.894,695.09,566.894,695.09ZM536.67,716.06a1.769,1.769,0,0,1-.347-.142Zm-1.822-19.495v.257h0A2.1,2.1,0,0,1,534.848,696.565Zm18.214,22.826v.1C553.042,719.44,553.031,719.44,553.063,719.391Z" transform="translate(-364.937 -457.563)" fill="url(#a)"/><rect width="1.978" height="2.079" transform="translate(189.868 231.867)" fill="#6c63ff"/><path d="M589.727,776a3.286,3.286,0,0,1-.909,1.943,8.381,8.381,0,0,0-1.149,1.464,2.968,2.968,0,0,1-.385,1.853l-.385.1h-.954a4.449,4.449,0,0,1-.2-.763.872.872,0,0,1,.149-.423,5.352,5.352,0,0,0,.625-2.02l.042-.42c-.08-2.6.951-3.449,1.388-3.689a.423.423,0,0,0,.215-.347h0l.076-.743,2.568.125a2.081,2.081,0,0,0,.045.749,1.657,1.657,0,0,0,.08.364C591.136,775,589.737,775.941,589.727,776Z" transform="translate(-402.264 -520.12)" fill="#a0616a"/><path d="M602.656,774.734a6.5,6.5,0,0,1-.347,1.11,2.914,2.914,0,0,0-.219,1.013v.035a8.849,8.849,0,0,1-.632,3.005c-.378.944-.878,2.172-1.041,2.429a2,2,0,0,0-.1,1.159l-1.447-.1.024-2.429a9.043,9.043,0,0,1,.694-4.067,2.678,2.678,0,0,0,.2-.913l.073-1.614.021-.475s2.557-.365,2.776.215A1.268,1.268,0,0,1,602.656,774.734Z" transform="translate(-410.838 -520.651)" fill="#a0616a"/><path d="M589.727,776a3.286,3.286,0,0,1-.909,1.943,8.381,8.381,0,0,0-1.149,1.464,2.968,2.968,0,0,1-.385,1.853l-.385.1h-.954a4.449,4.449,0,0,1-.2-.763.872.872,0,0,1,.149-.423,5.352,5.352,0,0,0,.625-2.02l.042-.42c-.08-2.6.951-3.449,1.388-3.689a.423.423,0,0,0,.215-.347h0l.076-.743,2.568.125a2.081,2.081,0,0,0,.045.749,1.657,1.657,0,0,0,.08.364C591.136,775,589.737,775.941,589.727,776Z" transform="translate(-402.264 -520.12)" fill="#8e5362"/><path d="M602.656,774.734a6.5,6.5,0,0,1-.347,1.11,2.914,2.914,0,0,0-.219,1.013v.035a8.849,8.849,0,0,1-.632,3.005c-.378.944-.878,2.172-1.041,2.429a2,2,0,0,0-.1,1.159l-1.447-.1.024-2.429a9.043,9.043,0,0,1,.694-4.067,2.678,2.678,0,0,0,.2-.913l.073-1.614.021-.475s2.557-.365,2.776.215A1.268,1.268,0,0,1,602.656,774.734Z" transform="translate(-410.838 -520.651)" fill="#8e5362"/><path d="M595.409,773.884l-2.689-.132.076-.742,2.568.125A2.081,2.081,0,0,0,595.409,773.884Z" transform="translate(-406.822 -520.152)" opacity="0.1"/><path d="M604.556,774.727l-2.776-.375.021-.475s2.557-.364,2.776.215a1.271,1.271,0,0,1-.021.635Z" transform="translate(-412.738 -520.645)" opacity="0.1"/><path d="M597.727,750.387l-1.114,4.886-3.3-.444v-1.68l-.285,1.735-3.952-.194.2-3.786a13.971,13.971,0,0,0,.441-2.3c.076-.857.482-2.967.694-3.956.063-.347.1-.534.1-.534s6.774,1.409,7.218,1.919a1.1,1.1,0,0,1,.156.521A24.826,24.826,0,0,1,597.727,750.387Z" transform="translate(-404.445 -501.281)" fill="#2f2e41"/><path d="M591.21,760.971s2.665-1.388,3.314-1.1Z" transform="translate(-405.836 -511.545)" opacity="0.1"/><path d="M595.4,750s2.214,1.683,2.283,2.138Z" transform="translate(-408.572 -505.127)" opacity="0.1"/><path d="M593.66,766.643a4.584,4.584,0,0,1,2.113.347Z" transform="translate(-407.435 -515.992)" opacity="0.1"/><path d="M601.549,761.47s.76,2.492.43,3.175-.67-.16-.67-.16Z" transform="translate(-412.431 -512.617)" opacity="0.1"/><path d="M597.712,798.92s-.753.115-.614,1.933.347,2.134.614,2.158,1.6.347,1.534-.319a12.315,12.315,0,0,1-.045-2.384c.094-.226.246-.829-.1-.979l-.076.347s-.725-.67-1.159-.18a1.809,1.809,0,0,0-.087-.347C597.747,799.041,597.643,798.986,597.712,798.92Z" transform="translate(-409.669 -537.071)" fill="#2f2e41"/><path d="M627.388,729.073s-.17.094-.423.215a4.709,4.709,0,0,1-1.388.465,1.906,1.906,0,0,1-1.735-.451c-.621-.444-1.662-1.065-2.113-1.329l-.2-.118h-.021l.375-1.041,1.329-.694.347.284.982.843a.486.486,0,0,0,.4.229c.246-.017,1.568.094,1.568.094l.25.042.527.087Z" transform="translate(-425.621 -489.534)" fill="#a0616a"/><path d="M636.718,731.835s-.17.094-.423.215c-.267-.135-.6-.392-.469-.812s.146-.677.239-.888l.527.087Z" transform="translate(-434.951 -492.296)" opacity="0.1"/><path d="M636.666,729.236s1.482-.427,1.371,1.364-1.253.809-1.253.809-.972-.253-.767-.927S636.162,729.4,636.666,729.236Z" transform="translate(-435.076 -491.539)" fill="#a0616a"/><path d="M583.1,691.113l-1.544.649h-.042l-.1-.049c-.4-.2-1.77-.878-2.634-1.284-1.041-.475-.864-.954-.864-.954l-.149-5-.26-.9s-.187-3.047,1.294-3.817.524,4.407.524,4.407l.108,1.076a11.951,11.951,0,0,0,.406,2.03,2.954,2.954,0,0,1,.121.666c.045.729.385.694.385.694a4.744,4.744,0,0,1,1.537.521,4.177,4.177,0,0,1,.51.323Z" transform="translate(-396.882 -459.212)" fill="#a0616a"/><path d="M607,713l-1.319-.139a4.968,4.968,0,0,0,.559-1.142,1.9,1.9,0,0,0,.059-.232.8.8,0,0,0-.073-.58c-.385-.569,2.3-1.364,2.3-1.364a6.563,6.563,0,0,0-.031.947,5.407,5.407,0,0,0,.069.652,1.637,1.637,0,0,0,.552,1.072C609.955,712.791,607,713,607,713Z" transform="translate(-415.284 -478.707)" fill="#8e5362"/><path d="M607,716.006l-1.319-.139a4.966,4.966,0,0,0,.559-1.142c.153.219.2.212.42.257a1.946,1.946,0,0,0,1.9-.833,1.638,1.638,0,0,0,.552,1.072C609.955,715.8,607,716.006,607,716.006Z" transform="translate(-415.284 -481.717)" opacity="0.1"/><path d="M621.715,727.973a.747.747,0,0,0,0,.121l-.2-.239h0l.375-1.041,1.329-.694.347.284C623.068,726.557,621.739,727.119,621.715,727.973Z" transform="translate(-425.621 -489.534)" opacity="0.1"/><path d="M590.424,708.911l-1.544.649h-.16l.021-.059a5,5,0,0,0,.469-2.561,4.2,4.2,0,0,1,.51.323Z" transform="translate(-404.21 -477.009)" opacity="0.1"/><path d="M600.378,746.529c-.6-.055-6.617-.611-7.18-1.5a2.938,2.938,0,0,0-.3-.409c.063-.347.1-.534.1-.534s6.774,1.409,7.218,1.919A1.1,1.1,0,0,1,600.378,746.529Z" transform="translate(-406.939 -501.268)" opacity="0.1"/><path d="M595.786,710.2a1.942,1.942,0,0,0,1.912-.847,4.457,4.457,0,0,0,1.52.85c.569.069,3.2,3.383,3.2,3.383s-2.113.694-1.978,1.773L599.43,714.2s-.5-.021-.93,1.364c0,0-.524.795-.455,3.317a10.548,10.548,0,0,1-.16,3.123s-6.638-.569-7.228-1.5-.694-.475-.694-.475a8.288,8.288,0,0,1,.521-3.206c.614-1.43.479-5.552.479-5.552a1.71,1.71,0,0,0-1.933-1.839s.84-1.957.455-2.707a9.915,9.915,0,0,0,1.971.323,3.393,3.393,0,0,1,1.45.347,1.614,1.614,0,0,1,.6.455.885.885,0,0,0,1.041.295,10.4,10.4,0,0,0,.593,1.457l.08.146c.042.066.08.132.121.191a.483.483,0,0,0,.444.264Z" transform="translate(-404.412 -476.865)" fill="#f86d70"/><path d="M609.445,710.507a2.339,2.339,0,0,1-.239.288,2.377,2.377,0,0,1-1.707.718h-.246a.8.8,0,0,0-.073-.58c-.385-.569,2.3-1.364,2.3-1.364A6.578,6.578,0,0,0,609.445,710.507Z" transform="translate(-416.239 -478.726)" opacity="0.1"/><path d="M606.065,703.607a2.37,2.37,0,1,1-.694-1.693A2.387,2.387,0,0,1,606.065,703.607Z" transform="translate(-412.418 -473.274)" fill="#a0616a"/><path d="M618.45,723.814l.049,1.6s.715-.573.736-1.121S618.45,723.814,618.45,723.814Z" transform="translate(-423.623 -488.026)" opacity="0.1"/><path d="M601.88,728.42s1.877,2.575,2.967,2.835S602.289,729.256,601.88,728.42Z" transform="translate(-412.803 -491.035)" opacity="0.1"/><path d="M607.61,729.19a4.845,4.845,0,0,0,1.8,1.329Z" transform="translate(-416.545 -491.538)" opacity="0.1"/><path d="M597,737.77s1.908,1.874,3,1.988Z" transform="translate(-409.617 -497.141)" opacity="0.1"/><path d="M607.41,703.607a2.37,2.37,0,0,1-.694,1.666l-.264-.16a.746.746,0,0,1-.253-.222.884.884,0,0,1-.055-.5,1.163,1.163,0,0,0-.347-.965c-.455-.347-1.18-.163-1.634-.517a1.735,1.735,0,0,1-.292-.323l-.43-.576-.09-.111a2.387,2.387,0,0,1,4.06,1.7Z" transform="translate(-413.763 -473.273)" opacity="0.1"/><path d="M603.13,697.68a4.313,4.313,0,0,1,.711-.371c.236-.118.451-.271.694-.375a1.065,1.065,0,0,1,.763-.076c.534.184.736.93,1.287,1.062.09.021.187.021.281.038a1.294,1.294,0,0,1,.864.6,2.045,2.045,0,0,1,.274,1.041,1.736,1.736,0,0,1-.087.6,5.281,5.281,0,0,1-.847,1.135,2.166,2.166,0,0,0-.4,1.256l-.666-.413a.745.745,0,0,1-.253-.222.878.878,0,0,1-.056-.493,1.17,1.17,0,0,0-.347-.968c-.455-.347-1.18-.16-1.634-.517a1.525,1.525,0,0,1-.292-.323c-.142-.191-.288-.382-.43-.576a1.64,1.64,0,0,1-.312-.434A1.1,1.1,0,0,1,603.13,697.68Z" transform="translate(-413.317 -470.401)" fill="#2f2e41"/><path d="M606.144,703.8a.713.713,0,0,1-.257-.219.884.884,0,0,1-.056-.5,1.152,1.152,0,0,0-.347-.965c-.451-.347-1.176-.163-1.634-.517a1.738,1.738,0,0,1-.292-.323c-.142-.191-.285-.385-.43-.576a1.6,1.6,0,0,1-.312-.437.992.992,0,0,1,.316-.822,1.041,1.041,0,0,0-.389.9,1.641,1.641,0,0,0,.312.434c.142.194.288.385.43.576a1.53,1.53,0,0,0,.292.323c.455.347,1.18.156,1.634.517a1.169,1.169,0,0,1,.347.968.879.879,0,0,0,.055.493.748.748,0,0,0,.253.222l.666.413v-.118Z" transform="translate(-413.365 -472.118)" opacity="0.1"/><path d="M585.017,794s-.666.139-.531,1.957.347,2.137.614,2.158,1.6.347,1.534-.316a12.344,12.344,0,0,1-.045-2.387c.09-.229.451-.84.108-.989l-.278.347s-.725-.67-1.159-.184C585.26,794.6,584.857,794.156,585.017,794Z" transform="translate(-401.433 -533.859)" fill="#2f2e41"/><path d="M587.26,797.24c.142.066.278.153.42.222a.957.957,0,0,0,.458.108.347.347,0,0,0,.187-.066" transform="translate(-403.256 -535.974)" opacity="0.1"/><path d="M599.85,802.38a3.212,3.212,0,0,0,.246.243.863.863,0,0,0,.479.1.212.212,0,0,0,.08,0,.166.166,0,0,0,.073-.066l.09-.115" transform="translate(-411.478 -539.331)" opacity="0.1"/><path d="M567.494,710.9s-.305-2.911.888-2.193a1.393,1.393,0,0,1,.368,1.988l-.278.9Z" transform="translate(-390.327 -478.087)" fill="#ffc1c7"/><path d="M573.06,681.629l.694-.67s1.3-3.762,2.6-2.8-1.645,3.411-1.645,3.411l-.777.909Z" transform="translate(-393.984 -458.114)" fill="#ffc1c7"/><path d="M544.245,730.634l-.035.77s.625,1.093.888,1.173.236-2.308.236-2.308Z" transform="translate(-375.145 -492.243)" fill="#f86d70"/><path d="M544.045,730.831l-.035.774s.628,1.09.888,1.169.239-2.3.239-2.3Z" transform="translate(-375.014 -492.374)" opacity="0.1"/><path d="M490.32,684.56l.045,2.849h3.172l-.239-1.659Z" transform="translate(-320.176 -447.016)" fill="#ffc1c7"/><path d="M548.79,749.36l.149.909,1.85,4.115a2.425,2.425,0,0,1,.16,2.384,11.112,11.112,0,0,0-1.5,3.817,4.524,4.524,0,0,1-1.01,2.047l1.954.829a5.969,5.969,0,0,1,.694-2.387c.559-.76,2.3-4.115,2.3-4.115s.555-.5.43-1.988-.111-2.533-.111-2.533l-.194-2.374Z" transform="translate(-377.907 -504.709)" fill="#2f2e41"/><path d="M548.79,749.36l.149.909,1.85,4.115a2.425,2.425,0,0,1,.16,2.384,11.112,11.112,0,0,0-1.5,3.817,4.524,4.524,0,0,1-1.01,2.047l1.954.829a5.969,5.969,0,0,1,.694-2.387c.559-.76,2.3-4.115,2.3-4.115s.555-.5.43-1.988-.111-2.533-.111-2.533l-.194-2.374Z" transform="translate(-377.907 -504.709)" opacity="0.1"/><path d="M546.052,787.29s-2.082.635-1.388,1.68,2.943,3.036,3.852,2.967.545-.739.545-.739l-.76-.75a18.706,18.706,0,0,1-.08-2.058c.055-.465-.649-.694-.739-.409S546.052,787.29,546.052,787.29Z" transform="translate(-375.349 -529.477)" fill="#f86d70"/><path d="M548.068,733.6l-1.659.18a.6.6,0,0,0-.531.607,9.251,9.251,0,0,1-.062,1.909,3.369,3.369,0,0,0,1.263,3.689l2.464.784-3.952.285.125,2.193.611-.347,7.5.347s2.124-.215.694-2.523a20.681,20.681,0,0,0-4.511-4.567l-.035-1.8-.226-.52Z" transform="translate(-376.046 -494.418)" fill="#2f2e41"/><path d="M558.65,753.806a2.145,2.145,0,0,1,1.707,0Z" transform="translate(-384.574 -507.497)" opacity="0.1"/><path d="M541.521,754.764s-2.429-.347-2.453.115.347,5,1.509,4.692.673-1.808.673-1.808l.874-.84s.09-.465-.489-.42Z" transform="translate(-371.786 -508.156)" fill="#f86d70"/><path d="M556.905,715.774l.968,1.1s.42.521.92-.274,1.43-2.214,1.43-2.214,1.041.909,1.308.725-2.512,3.786-2.512,3.786-.885,1.3-2.2-.24l-.385-.18Z" transform="translate(-383.125 -481.874)" fill="#f86d70"/><path d="M556.709,715.774l.965,1.1s.42.521.92-.274,1.433-2.214,1.433-2.214,1.041.909,1.3.725-2.509,3.786-2.509,3.786-.888,1.3-2.207-.24l-.385-.18Z" transform="translate(-382.994 -481.874)" opacity="0.1"/><circle cx="2.013" cy="2.013" r="2.013" transform="translate(168.815 225.399)" fill="#ffc1c7"/><path d="M545.685,692.995s-1.735.819-1.523,2.252a31.683,31.683,0,0,1,.239,3.238s.784,1.159-.257,3.376a2.3,2.3,0,0,0-.222,1.943s.493-1.3,1.763-.347A10.085,10.085,0,0,0,549,704.845s-1.058-4.636-.409-5.285c0,0,1.124-1.669.1-2.724a1.814,1.814,0,0,1-.514-2.047l3.286-1.763s.694,0,1.624-1.44a24.567,24.567,0,0,1,1.988-2.661s-.694-1.041-1.364-1.135a2.363,2.363,0,0,0-.444,1.01,4.935,4.935,0,0,1-1.35,1.575c-.42.375-.829.767-1.235,1.156a4.583,4.583,0,0,1-2.429.94A13.074,13.074,0,0,0,545.685,692.995Z" transform="translate(-374.858 -464.504)" opacity="0.1"/><path d="M545.685,692.592s-1.735.819-1.523,2.249a31.745,31.745,0,0,1,.239,3.241s.784,1.159-.257,3.373a2.3,2.3,0,0,0-.222,1.943s.493-1.294,1.763-.347A10.167,10.167,0,0,0,549,704.439s-1.058-4.636-.409-5.285c0,0,1.124-1.669.1-2.728a1.808,1.808,0,0,1-.514-2.044l3.286-1.763s.694,0,1.624-1.444a24.742,24.742,0,0,1,1.988-2.658s-.694-1.058-1.364-1.138a2.4,2.4,0,0,0-.444,1.013,4.936,4.936,0,0,1-1.35,1.575c-.42.375-.829.763-1.235,1.156a4.613,4.613,0,0,1-2.429.94A11.421,11.421,0,0,0,545.685,692.592Z" transform="translate(-374.858 -464.237)" fill="#f86d70"/><path d="M553.58,727.09a18.18,18.18,0,0,1,1.388,2.318C554.954,729.408,554.767,727.284,553.58,727.09Z" transform="translate(-381.264 -490.167)" opacity="0.1"/><path d="M548.5,707.9a1.652,1.652,0,0,0,2.287.184,2.908,2.908,0,0,1-2.287-.184Z" transform="translate(-377.946 -477.636)" opacity="0.1"/><path d="M537.193,691.071a.621.621,0,0,0-.146-.274,2.914,2.914,0,0,0-1.1-.979,1.52,1.52,0,0,0-1.735.493c-.163.222-.264.489-.406.725a3.2,3.2,0,0,1-1.107,1.041c-.264.163-.541.3-.791.486a3.023,3.023,0,0,0-1.093,3,4.793,4.793,0,0,1,.253,1.451,2.592,2.592,0,0,1-.451,1.041,3.245,3.245,0,0,0-.507,1.041,1.02,1.02,0,0,0,.312,1.041,1.85,1.85,0,0,1,.347.236,1.019,1.019,0,0,1,.163.253,2.491,2.491,0,0,0,1.555,1.225c.295.076.694.049.795-.236a.506.506,0,0,1,.056-.142c.1-.139.309-.059.458,0a2.8,2.8,0,0,0,1.1.316.888.888,0,0,0,.448-.052.825.825,0,0,0,.305-.264,3.243,3.243,0,0,0,.524-1.662,3.953,3.953,0,0,0,0-1.145,6.722,6.722,0,0,1-.427-1.78c.055-.611.586-1.19.67-1.843a1.409,1.409,0,0,0-.24-.968,1.473,1.473,0,0,1-.184-.285.285.285,0,0,1,.055-.312.451.451,0,0,1,.142-.069,1.187,1.187,0,0,0,.694-1.041,2.131,2.131,0,0,1,.045-.493C537.005,691.626,537.231,691.345,537.193,691.071Z" transform="translate(-365.914 -465.765)" opacity="0.1"/><path d="M536.8,691.071a.628.628,0,0,0-.149-.274,2.905,2.905,0,0,0-1.1-.979,1.52,1.52,0,0,0-1.735.493,8.244,8.244,0,0,0-.406.725,3.2,3.2,0,0,1-1.107,1.041c-.264.163-.541.3-.791.486a3.033,3.033,0,0,0-1.1,3,4.7,4.7,0,0,1,.257,1.451,2.55,2.55,0,0,1-.455,1.041,3.236,3.236,0,0,0-.5,1.041,1.02,1.02,0,0,0,.312,1.041,1.977,1.977,0,0,1,.347.236,1.012,1.012,0,0,1,.16.253,2.509,2.509,0,0,0,1.558,1.225c.295.076.694.049.795-.236a.5.5,0,0,1,.055-.142c.1-.139.309-.059.458,0a2.775,2.775,0,0,0,1.1.316.9.9,0,0,0,.451-.052.792.792,0,0,0,.3-.264,3.213,3.213,0,0,0,.524-1.662,3.839,3.839,0,0,0,0-1.145,6.867,6.867,0,0,1-.43-1.78c.052-.611.59-1.19.67-1.843a1.388,1.388,0,0,0-.239-.968,1.631,1.631,0,0,1-.18-.285.285.285,0,0,1,.055-.312.391.391,0,0,1,.142-.069,1.183,1.183,0,0,0,.694-1.041,2.357,2.357,0,0,1,.049-.493C536.609,691.626,536.834,691.345,536.8,691.071Z" transform="translate(-365.653 -465.765)" fill="#2f2e41"/><g transform="translate(166.608 223.968)" opacity="0.1"><path d="M537.6,723.448a.507.507,0,0,0-.055.142.462.462,0,0,1-.416.267c.26.024.534-.035.621-.267a.507.507,0,0,1,.056-.142.163.163,0,0,1,.069-.059A.232.232,0,0,0,537.6,723.448Z" transform="translate(-537.13 -711.704)"/><path d="M545.92,691.094a.593.593,0,0,0-.149-.274,2.849,2.849,0,0,0-1.1-.965,1.387,1.387,0,0,0-.628-.094,1.269,1.269,0,0,1,.416.08,2.848,2.848,0,0,1,1.1.965.593.593,0,0,1,.149.274c.038.274-.187.555-.264.809a2.138,2.138,0,0,0-.045.493,1.194,1.194,0,0,1-.694,1.041.389.389,0,0,0-.142.069.281.281,0,0,0-.055.312,1.477,1.477,0,0,0,.184.284,1.388,1.388,0,0,1,.239.968c-.083.652-.614,1.187-.673,1.839a6.261,6.261,0,0,0,.43,1.784,3.839,3.839,0,0,1,0,1.145,3.23,3.23,0,0,1-.521,1.662.825.825,0,0,1-.305.264.691.691,0,0,1-.222.055.934.934,0,0,0,.427-.055.827.827,0,0,0,.305-.264,3.23,3.23,0,0,0,.52-1.662,3.835,3.835,0,0,0,0-1.145,6.859,6.859,0,0,1-.43-1.784c.052-.614.59-1.187.673-1.839a1.388,1.388,0,0,0-.24-.968,1.48,1.48,0,0,1-.184-.285.281.281,0,0,1,.056-.312.388.388,0,0,1,.142-.069,1.183,1.183,0,0,0,.694-1.041,2.345,2.345,0,0,1,.049-.493C545.732,691.649,545.958,691.368,545.92,691.094Z" transform="translate(-541.381 -689.756)"/></g><path d="M542.77,763a.923.923,0,0,0,.944.26" transform="translate(-374.205 -513.616)" opacity="0.1"/><path d="M554.472,796.56a.576.576,0,0,1-.472.121" transform="translate(-381.538 -535.53)" opacity="0.1"/><path d="M220.066,785.752l4.622-2.717a11.164,11.164,0,0,0-2.363-2.828l-8.717,2.714,6.829-4.018A11.1,11.1,0,0,0,204,788.642c0,6.132,4.973,6.347,11.1,6.347s11.1-.215,11.1-6.347a11.031,11.031,0,0,0-.954-4.511Z" transform="translate(-152.99 -523.108)" fill="#f30075"/><path d="M221.243,805.084A8.669,8.669,0,0,0,219.6,803.8a7.681,7.681,0,0,0-2.7-1.315,20.365,20.365,0,0,0-2.648-.076,6.187,6.187,0,0,1-4.057-1.86,12.263,12.263,0,0,0-1.888-1.95,4.133,4.133,0,0,0-2.825-.521,6.874,6.874,0,0,0-.836.173,11.105,11.105,0,0,0-.656,3.765c0,6.131,4.973,6.347,11.1,6.347,2.977,0,5.677-.052,7.672-.8l-.347-.621A8.723,8.723,0,0,0,221.243,805.084Z" transform="translate(-152.99 -536.479)" opacity="0.1"/><path d="M1000.066,785.752l4.622-2.717a11.164,11.164,0,0,0-2.363-2.828l-8.717,2.714,6.829-4.018A11.1,11.1,0,0,0,984,788.642c0,6.132,4.973,6.347,11.1,6.347s11.1-.215,11.1-6.347a11.031,11.031,0,0,0-.954-4.511Z" transform="translate(-662.325 -523.108)" fill="#f30075"/><path d="M1001.243,805.084A8.665,8.665,0,0,0,999.6,803.8a7.68,7.68,0,0,0-2.7-1.315,20.365,20.365,0,0,0-2.648-.076,6.188,6.188,0,0,1-4.057-1.86,12.263,12.263,0,0,0-1.888-1.95,4.133,4.133,0,0,0-2.825-.521,6.872,6.872,0,0,0-.836.173,11.1,11.1,0,0,0-.656,3.765c0,6.131,4.973,6.347,11.1,6.347,2.977,0,5.677-.052,7.672-.8l-.347-.621a8.726,8.726,0,0,0-1.187-1.849Z" transform="translate(-662.325 -536.479)" opacity="0.1"/><path d="M379.8,775.48l-3.612-2.124a8.822,8.822,0,0,1,1.846-2.207l6.812,2.117-5.337-3.123a8.675,8.675,0,0,1,12.843,7.582c0,4.792-3.883,4.959-8.675,4.959S375,782.517,375,777.725a8.63,8.63,0,0,1,.746-3.519Z" transform="translate(-264.652 -517.584)" fill="#f30075"/><path d="M383.927,790.579a6.752,6.752,0,0,1,1.277-1,5.923,5.923,0,0,1,2.106-1.041,15.45,15.45,0,0,1,2.082-.059,4.858,4.858,0,0,0,3.168-1.454,9.611,9.611,0,0,1,1.475-1.527,3.227,3.227,0,0,1,2.207-.406,5.88,5.88,0,0,1,.652.135,8.613,8.613,0,0,1,.5,2.925c0,4.792-3.883,4.959-8.675,4.959a18.235,18.235,0,0,1-5.993-.628l.26-.486A6.672,6.672,0,0,1,383.927,790.579Z" transform="translate(-269.7 -528.008)" opacity="0.1"/><path d="M459.8,775.48l-3.612-2.124a8.822,8.822,0,0,1,1.846-2.207l6.812,2.117-5.337-3.123a8.675,8.675,0,0,1,12.843,7.582c0,4.792-3.883,4.959-8.675,4.959S455,782.517,455,777.725a8.63,8.63,0,0,1,.746-3.519Z" transform="translate(-316.891 -517.584)" fill="#f30075"/><path d="M463.927,790.579a6.752,6.752,0,0,1,1.277-1,5.923,5.923,0,0,1,2.106-1.041,15.449,15.449,0,0,1,2.082-.059,4.858,4.858,0,0,0,3.168-1.454,9.613,9.613,0,0,1,1.475-1.527,3.227,3.227,0,0,1,2.207-.406,5.859,5.859,0,0,1,.652.135,8.614,8.614,0,0,1,.5,2.925c0,4.792-3.883,4.959-8.675,4.959a18.235,18.235,0,0,1-5.993-.628l.26-.486A6.676,6.676,0,0,1,463.927,790.579Z" transform="translate(-321.939 -528.008)" opacity="0.1"/><path d="M750.8,775.48l-3.612-2.124a8.818,8.818,0,0,1,1.846-2.207l6.812,2.117-5.337-3.123a8.675,8.675,0,0,1,12.843,7.582c0,4.792-3.883,4.959-8.675,4.959S746,782.517,746,777.725a8.628,8.628,0,0,1,.746-3.519Z" transform="translate(-506.913 -517.584)" fill="#f30075"/><path d="M754.927,790.579a6.752,6.752,0,0,1,1.277-1,5.924,5.924,0,0,1,2.106-1.041,15.45,15.45,0,0,1,2.082-.059,4.858,4.858,0,0,0,3.168-1.454,9.611,9.611,0,0,1,1.475-1.527,3.227,3.227,0,0,1,2.207-.406,5.88,5.88,0,0,1,.652.135,8.613,8.613,0,0,1,.5,2.925c0,4.792-3.883,4.959-8.675,4.959a18.235,18.235,0,0,1-5.993-.628l.26-.486A6.676,6.676,0,0,1,754.927,790.579Z" transform="translate(-511.96 -528.008)" opacity="0.1"/><path d="M487.491,705.228a7.2,7.2,0,0,0,.951-3.64c0-3.29-2.04-5.958-4.553-5.958s-4.553,2.668-4.553,5.958a7.2,7.2,0,0,0,.951,3.64,7.451,7.451,0,0,0,0,7.287,7.443,7.443,0,0,0,0,7.287,7.451,7.451,0,0,0,0,7.287,7.187,7.187,0,0,0-.951,3.64c0,3.29,2.04,5.958,4.553,5.958s4.553-2.668,4.553-5.958a7.186,7.186,0,0,0-.951-3.64,7.45,7.45,0,0,0,0-7.287,7.443,7.443,0,0,0,0-7.287A7.45,7.45,0,0,0,487.491,705.228Z" transform="translate(-332.782 -469.624)" fill="#3f3d56"/><ellipse cx="4.553" cy="5.958" rx="4.553" ry="5.958" transform="translate(146.555 218.726)" fill="#3f3d56"/><ellipse cx="4.553" cy="5.958" rx="4.553" ry="5.958" transform="translate(146.555 211.446)" fill="#3f3d56"/><path d="M468.305,460.881A21.887,21.887,0,0,0,470,458.386l-11.951-1.964,12.933.1a21.844,21.844,0,0,0,.416-17.274l-17.35,9,16-11.76a21.8,21.8,0,1,0-36.005,24.395,21.838,21.838,0,0,0-2.485,3.977l15.522,8.064-16.552-5.552a21.823,21.823,0,0,0,3.515,20.473,21.8,21.8,0,1,0,34.27,0,21.806,21.806,0,0,0,0-26.955Z" transform="translate(-300.16 -293.311)" fill="#f30075"/><path d="M429.359,565.463a21.691,21.691,0,0,0,4.664,13.478,21.8,21.8,0,1,0,34.27,0C471.222,575.234,429.359,563.01,429.359,565.463Z" transform="translate(-300.148 -384.415)" opacity="0.1"/><path d="M674.939,684.939a9.1,9.1,0,0,0,1.2-4.608c0-4.164-2.578-7.54-5.76-7.54s-5.76,3.376-5.76,7.54a9.1,9.1,0,0,0,1.2,4.608,9.414,9.414,0,0,0,0,9.213,9.421,9.421,0,0,0,0,9.217,9.421,9.421,0,0,0,0,9.216,9.091,9.091,0,0,0-1.2,4.608c0,4.164,2.582,7.541,5.76,7.541s5.76-3.376,5.76-7.541a9.088,9.088,0,0,0-1.2-4.608,9.445,9.445,0,0,0,0-9.216,9.446,9.446,0,0,0,0-9.217,9.439,9.439,0,0,0,0-9.213Z" transform="translate(-453.771 -454.709)" fill="#3f3d56"/><ellipse cx="5.76" cy="7.54" rx="5.76" ry="7.54" transform="translate(210.848 208.868)" fill="#3f3d56"/><ellipse cx="5.76" cy="7.54" rx="5.76" ry="7.54" transform="translate(210.848 199.651)" fill="#3f3d56"/><path d="M607.964,375.717a26.877,26.877,0,0,1-2.144-3.158l15.133-2.484-16.368.121a27.635,27.635,0,0,1-.527-21.861l21.962,11.392L605.764,344.84a27.59,27.59,0,1,1,45.569,30.884,27.643,27.643,0,0,1,3.147,5.032l-19.647,10.209,20.949-7.03a27.591,27.591,0,0,1-4.449,25.907,27.59,27.59,0,1,1-43.376,0,27.591,27.591,0,0,1,0-34.118Z" transform="translate(-412.915 -231.594)" fill="#f30075"/><path d="M657.257,508.056a27.466,27.466,0,0,1-5.9,17.059,27.59,27.59,0,1,1-43.376,0C604.283,520.419,657.257,504.96,657.257,508.056Z" transform="translate(-412.933 -346.874)" opacity="0.1"/></g></svg>