<svg xmlns="http://www.w3.org/2000/svg" xmlns:xlink="http://www.w3.org/1999/xlink" width="1920" height="1080.435" viewBox="0 0 1920 1080.435"><defs><style>.a,.g,.q{fill:#f30075;}.a{opacity:0.104;}.b,.d{fill:#f2f2f2;}.c{fill:#6c63ff;}.d,.n{opacity:0.1;}.e{fill:#3f3d56;}.f{fill:#ff6584;}.h{opacity:0.2;}.i{fill:#fff;}.j{fill:#2f2e41;}.k{fill:#e6e6e6;}.l{fill:#9f616a;}.m{fill:#ffb8b8;}.o{fill:url(#a);}.p{fill:#ffb9b9;}.q{opacity:0.225;}.r{fill:none;stroke:#3f3d56;stroke-miterlimit:10;}</style><linearGradient id="a" x1="1.555" y1="0.802" x2="1.555" y2="-0.189" gradientUnits="objectBoundingBox"><stop offset="0" stop-color="#86007f"/><stop offset="0.2" stop-color="#0200f7"/><stop offset="0.4" stop-color="#02811a"/><stop offset="0.6" stop-color="#feff42"/><stop offset="0.8" stop-color="#ffa42b"/><stop offset="1" stop-color="#fa061c"/></linearGradient></defs><g transform="translate(0 -0.001)"><path class="a" d="M1045.854,123.7C323.728,132.115,97.1,669.584,93.025,1204.045h1920C2008.953,669.584,1767.978,115.294,1045.854,123.7Z" transform="translate(-93.025 -123.609)"/><g transform="translate(147 -102.313)"><circle class="b" cx="10.496" cy="10.496" r="10.496" transform="translate(651.156 225.472)"/><circle class="b" cx="4.198" cy="4.198" r="4.198" transform="translate(946.908 775.449)"/><circle class="b" cx="4.198" cy="4.198" r="4.198" transform="translate(1489.941 573.931)"/><circle class="b" cx="4.198" cy="4.198" r="4.198" transform="translate(831.546 534.047)"/><circle class="b" cx="4.198" cy="4.198" r="4.198" transform="translate(969.981 231.77)"/><rect class="b" width="4.198" height="2.099" transform="translate(523.214 649.5)"/><rect class="b" width="4.198" height="2.099" transform="translate(1324.462 741.863)"/><rect class="b" width="4.198" height="2.099" transform="translate(1074.858 420.693)"/><rect class="c" width="7.387" height="291.789" transform="translate(1146.804 889.089)"/><path class="c" d="M678.338,705.173c4.229,15.634,18.716,25.317,18.716,25.317s7.629-15.665,3.4-31.3-18.715-25.316-18.715-25.316S674.109,689.539,678.338,705.173Z" transform="translate(201.142 449.677)"/><path class="c" d="M695.816,693.6c11.605,11.3,13.023,28.664,13.023,28.664s-17.4-.95-29-12.247-13.023-28.663-13.023-28.663S684.211,682.3,695.816,693.6Z" transform="translate(189.888 457.893)"/><path class="d" d="M1064.811,701.615a6.04,6.04,0,1,0,0-12.081h-49.666a13.507,13.507,0,0,1-6.04,18.121,6.04,6.04,0,0,0,6.04,6.041h49.666a6.04,6.04,0,1,0,0-12.081Z" transform="translate(565.415 466.889)"/><path class="e" d="M1025.214,698.375c.849,32.941-19.077,24.545-43.234,24.545s-44.082,4.2-44.245-24.545c-.08-14.154,19.727-17.233,43.883-17.233S1024.849,684.225,1025.214,698.375Z" transform="translate(486.969 457.666)"/><path class="f" d="M979.844,645.477c.348-.061.692-.156,1.036-.244a7.567,7.567,0,0,0-3.285.317A9.168,9.168,0,0,0,979.844,645.477Z" transform="translate(530.78 418.132)"/><path class="f" d="M989.832,647.98c.239.453.429.932.694,1.37a4.607,4.607,0,0,0,1.5,1.516,4.618,4.618,0,0,1,1.2.841,2.739,2.739,0,0,1,.395,2.067,6.178,6.178,0,0,1-.807,2.615,3.3,3.3,0,0,1-2.057,1.518,9.255,9.255,0,0,1-10.068,12.729c-.266.176-.655.285-.934.438a21.187,21.187,0,0,0-3.3,2.094,8.451,8.451,0,0,0-1.408,1.462c.056.059.138.089.187.156a3.336,3.336,0,0,1,.525,1.378,28.949,28.949,0,0,0,.212,5.964,10.131,10.131,0,0,1-.383,2.643,1.269,1.269,0,0,1-.3.956q-.186.533-.407,1.056c.056.059.111.119.167.173a2.105,2.105,0,0,1,.588,1.934,4.258,4.258,0,0,0-.19.857,2.751,2.751,0,0,0,.309,1.019c.013.034.014.071.027.1,1.344-.209,2.689-.412,4.04-.565a19.881,19.881,0,0,1,2.005-.132,1.384,1.384,0,0,1-.085-.427,4.2,4.2,0,0,1,.191-.858,2.1,2.1,0,0,0-.588-1.934c-.056-.054-.111-.114-.167-.173q.222-.524.407-1.056a1.269,1.269,0,0,0,.3-.956,10.117,10.117,0,0,0,.384-2.643,28.933,28.933,0,0,1-.213-5.964,3.333,3.333,0,0,0-.525-1.378c-.049-.066-.131-.1-.187-.156a8.453,8.453,0,0,1,1.409-1.462,21.2,21.2,0,0,1,3.3-2.095c.279-.153.668-.263.934-.438a9.388,9.388,0,0,0,10.068-12.729,3.3,3.3,0,0,0,2.057-1.518,6.181,6.181,0,0,0,.807-2.615,2.739,2.739,0,0,0-.4-2.067,4.615,4.615,0,0,0-1.2-.841,4.6,4.6,0,0,1-1.5-1.516c-.266-.438-.456-.917-.694-1.37a5.081,5.081,0,0,0-4.39-2.909,19.01,19.01,0,0,0-2.611.521,7.932,7.932,0,0,1-1.455.1A5.867,5.867,0,0,1,989.832,647.98Z" transform="translate(527.794 418.018)"/><path class="f" d="M989.694,693.077c.1.1.206.194.312.286-.077-.113-.163-.222-.232-.338Z" transform="translate(544.079 470.726)"/><path class="f" d="M1037.038,661.391s4.6-4.785,4.51-9.478" transform="translate(596.117 425.539)"/><path class="f" d="M1017.747,641.924s-1.921-6.354-6.059-8.571" transform="translate(568.254 405.138)"/><path class="f" d="M995.747,600.924s-1.921-6.354-6.059-8.571" transform="translate(544.073 360.074)"/><path class="f" d="M1021.747,655.924s-1.921-6.354-6.058-8.571" transform="translate(572.651 420.526)"/><path class="f" d="M1018.747,606.924s-1.921-6.354-6.058-8.571" transform="translate(569.353 366.668)"/><path class="f" d="M1012.747,624.924s-1.921-6.354-6.059-8.57" transform="translate(562.759 386.453)"/><path class="f" d="M1039.038,675.391s4.6-4.785,4.51-9.477" transform="translate(598.316 440.927)"/><path class="e" d="M485.727,348.37H400.416v2.752h13.3v26.143h2.752V351.122h51.821v26.143h2.752V351.122h14.681Z" transform="translate(695.711 449.825)"/><path class="e" d="M490.525,300.014H468.509v22.015h10.206v74.183h2.752V322.029h9.057Z" transform="translate(722.561 430.758)"/><rect class="e" width="85.311" height="2.752" transform="translate(1096.295 789.961)"/><rect class="e" width="85.311" height="2.752" transform="translate(1096.295 783.082)"/><rect class="e" width="85.311" height="2.752" transform="translate(1096.295 776.202)"/><path class="e" d="M910.994,581.089h-2.752c0-130.5-106.17-236.67-236.67-236.67S434.9,450.588,434.9,581.089H432.15c0-132.018,107.4-239.422,239.422-239.422S910.994,449.071,910.994,581.089Z" transform="translate(489.227 253.934)"/><circle class="g" cx="224.974" cy="224.974" r="224.974" transform="translate(537.824 312.46)"/><path class="h" d="M544.454,192.179A224.992,224.992,0,0,1,169.581,430.285,224.993,224.993,0,1,0,544.454,192.179Z" transform="translate(385.694 194.989)"/><path class="e" d="M165.116,161.352h.618l11.125,637.839H153.373Z" transform="translate(598.3 376.082)"/><rect class="e" width="11.125" height="42.028" transform="translate(799.196 875.018) rotate(62.234)"/><path class="g" d="M182.088,0A182.088,182.088,0,1,1,0,182.088,182.088,182.088,0,0,1,182.088,0Z" transform="translate(1408.825 450.793)"/><path class="h" d="M1095.29,281.178A182.1,182.1,0,0,1,791.878,473.894,182.1,182.1,0,1,0,1095.29,281.178Z" transform="translate(631.07 230.082)"/><path class="e" d="M758.322,229.806h.5l9,516.248H748.819Z" transform="translate(833.089 403.075)"/><rect class="e" width="9.004" height="34.016" transform="translate(1620.372 906.112) rotate(62.234)"/><circle class="g" cx="28.665" cy="28.665" r="28.665" transform="translate(1024.924 732.349)"/><path class="h" d="M555.773,446.57a28.667,28.667,0,0,1-47.764,30.338,28.667,28.667,0,1,0,47.764-30.338Z" transform="translate(519.139 295.298)"/><path class="e" d="M370.387,321.7h.078l1.418,81.269h-2.992Z" transform="translate(683.281 439.31)"/><rect class="e" width="1.417" height="5.355" transform="translate(1058.225 804.028) rotate(62.234)"/><circle class="g" cx="73.384" cy="73.384" r="73.384" transform="translate(1245.081 595.241)"/><path class="h" d="M790.674,358.887a73.39,73.39,0,0,1-122.28,77.668,73.391,73.391,0,1,0,122.28-77.668Z" transform="translate(582.38 260.723)"/><path class="e" d="M561.107,255.443h.2l3.63,208.057h-7.662Z" transform="translate(757.562 413.183)"/><rect class="e" width="3.629" height="13.709" transform="translate(1330.339 778.744) rotate(62.234)"/><path class="e" d="M354.588,739.665s.95-19.91,20.429-17.6" transform="translate(458.643 403.855)"/><circle class="g" cx="9.749" cy="9.749" r="9.749" transform="translate(797.979 1105.075)"/><rect class="e" width="2.752" height="19.264" transform="translate(806.141 1131.241)"/><path class="e" d="M403.931,707.1s.95-19.91,20.429-17.6" transform="translate(478.1 391.015)"/><circle class="g" cx="9.749" cy="9.749" r="9.749" transform="translate(866.778 1059.667)"/><rect class="e" width="2.752" height="19.264" transform="translate(874.941 1085.833)"/><path class="e" d="M552.67,595.579s.755-15.814,16.226-13.975" transform="translate(536.749 348.484)"/><circle class="g" cx="7.743" cy="7.743" r="7.743" transform="translate(1077.304 913.528)"/><rect class="e" width="2.186" height="15.3" transform="translate(1083.788 934.31)"/><path class="e" d="M769.78,560.052s.755-15.814,16.226-13.975" transform="translate(622.357 334.476)"/><circle class="g" cx="7.743" cy="7.743" r="7.743" transform="translate(1380.021 863.993)"/><rect class="e" width="2.186" height="15.3" transform="translate(1386.505 884.775)"/><path class="e" d="M562.539,625.185s.755-15.814,16.226-13.976" transform="translate(540.64 360.158)"/><circle class="g" cx="7.743" cy="7.743" r="7.743" transform="translate(1091.064 954.807)"/><rect class="e" width="2.186" height="15.3" transform="translate(1097.547 975.59)"/><path class="e" d="M538.854,646.9s.755-15.814,16.226-13.976" transform="translate(531.301 368.719)"/><circle class="g" cx="7.743" cy="7.743" r="7.743" transform="translate(1058.04 985.079)"/><rect class="e" width="2.186" height="15.3" transform="translate(1064.524 1005.861)"/><path class="e" d="M803.333,578.8s.755-15.814,16.226-13.975" transform="translate(635.587 341.869)"/><circle class="g" cx="7.743" cy="7.743" r="7.743" transform="translate(1426.805 890.136)"/><rect class="e" width="2.186" height="15.3" transform="translate(1433.289 910.918)"/><path class="e" d="M483.59,603.474s.755-15.814,16.226-13.976" transform="translate(509.51 351.597)"/><circle class="g" cx="7.743" cy="7.743" r="7.743" transform="translate(980.985 924.536)"/><rect class="e" width="2.186" height="15.3" transform="translate(987.468 945.318)"/><path class="e" d="M740.174,547.223s.754-15.814,16.226-13.975" transform="translate(610.683 329.417)"/><circle class="g" cx="7.743" cy="7.743" r="7.743" transform="translate(1338.742 846.104)"/><rect class="e" width="2.186" height="15.3" transform="translate(1345.225 866.887)"/><path class="e" d="M268.731,742.625s.95-19.91,20.429-17.6" transform="translate(424.789 405.023)"/><circle class="g" cx="9.749" cy="9.749" r="9.749" transform="translate(678.267 1109.203)"/><rect class="e" width="2.752" height="19.264" transform="translate(686.43 1135.369)"/><path class="e" d="M891.441,705.125s.95-19.91,20.429-17.6" transform="translate(670.329 390.236)"/><circle class="g" cx="9.749" cy="9.749" r="9.749" transform="translate(1546.516 1056.915)"/><rect class="e" width="2.752" height="19.264" transform="translate(1554.679 1083.081)"/><path class="e" d="M883.546,755.454s.95-19.91,20.429-17.6" transform="translate(667.216 410.082)"/><circle class="g" cx="9.749" cy="9.749" r="9.749" transform="translate(1535.508 1127.091)"/><rect class="e" width="2.752" height="19.264" transform="translate(1543.671 1153.257)"/><path class="g" d="M280.091,862.739S713.528,748.532,709.4,631.573c-7.568-32.336-59.855-40.592-59.855-40.592s-123.839-16.512-56.416-56.416,251.806-30.272,251.806-30.272-189.886,30.272-105.951,46.784c67.424,4.128,154.111,22.016,154.111,22.016s176.127,37.152,200.895,127.967,4.128,160.991,4.128,160.991Z" transform="translate(427.606 319.319)"/><path class="i" d="M667.161,846.127l-1.683-2.222c4.506-3.412,8.943-6.845,13.19-10.2l1.729,2.187C676.135,839.259,671.681,842.7,667.161,846.127Zm26.245-20.774-1.781-2.146c4.361-3.623,8.626-7.264,12.675-10.821l1.841,2.094C702.073,818.055,697.788,821.713,693.406,825.353Zm25.142-22.127-1.909-2.034c4.163-3.9,8.175-7.812,11.928-11.617l1.985,1.958C726.775,795.363,722.735,799.3,718.548,803.226Zm23.506-23.9-2.075-1.863c3.823-4.259,7.44-8.525,10.749-12.678l2.181,1.737C749.566,770.719,745.914,775.027,742.054,779.327ZM762.9,753.02l-2.3-1.571c3.242-4.751,6.167-9.493,8.693-14.1l2.446,1.343C769.168,743.376,766.2,748.2,762.9,753.02Zm16.034-29.579-2.6-1.019a96.68,96.68,0,0,0,4.734-15.742l2.731.561a99.315,99.315,0,0,1-4.871,16.2Zm3.723-33.04a65.687,65.687,0,0,0-2.242-16.044l2.693-.727a68.563,68.563,0,0,1,2.338,16.725Zm-8.343-31.1a84.11,84.11,0,0,0-9.281-13.474l2.138-1.789a86.848,86.848,0,0,1,9.588,13.924Zm-20.8-25.243a151.1,151.1,0,0,0-13-10.245l1.609-2.277a153.54,153.54,0,0,1,13.243,10.436Zm-26.978-19.219c-4.562-2.681-9.482-5.357-14.623-7.952l1.255-2.489c5.195,2.621,10.167,5.325,14.78,8.036Zm-29.694-15.079c-4.854-2.157-10.024-4.327-15.367-6.453l1.032-2.59c5.376,2.138,10.58,4.323,15.468,6.494Zm-31-12.38c-4.969-1.8-10.28-3.651-15.785-5.5l.885-2.644c5.527,1.853,10.86,3.709,15.851,5.517Zm-31.695-10.662c-4.859-1.533-10.091-3.147-15.994-4.935l.809-2.669c5.913,1.791,11.155,3.408,16.024,4.943Zm-32.04-9.751c-5.641-1.687-11.02-3.3-16.055-4.85l.821-2.666c5.028,1.551,10.4,3.16,16.033,4.845ZM570.059,556.95a132.549,132.549,0,0,1-15.706-6.322l1.254-2.492a129.328,129.328,0,0,0,15.364,6.178ZM549,538.67l-1.988-1.955c2.542-2.583,7.571-5.11,15.373-7.727l.886,2.644C556,534.07,551.2,536.44,549,538.67Zm30.224-11.581-.674-2.707c4.823-1.2,10.317-2.458,16.33-3.735l.579,2.729C589.478,524.645,584.016,525.9,579.224,527.089Zm32.585-7-.523-2.74c5.138-.982,10.672-2,16.448-3.023l.487,2.745c-5.765,1.023-11.286,2.037-16.413,3.017Zm32.863-5.849-.46-2.751q7.882-1.321,16.5-2.7l.441,2.753Q652.542,512.923,644.672,514.242Z" transform="translate(534.518 319.832)"/><path class="i" d="M641.052,510l-.427-2.756q4.067-.629,8.276-1.27l.419,2.756Q645.112,509.375,641.052,510Z" transform="translate(571.43 318.723)"/><path class="e" d="M690.547,308.622l12.667-10.131c-9.84-1.086-13.884,4.281-15.538,8.529-7.688-3.192-16.057.991-16.057.991l25.344,9.2a19.179,19.179,0,0,0-6.416-8.59Z" transform="translate(583.651 236.854)"/><path class="e" d="M521.794,364.873l12.667-10.131c-9.84-1.086-13.884,4.281-15.538,8.529-7.687-3.192-16.056.991-16.056.991l25.344,9.2a19.177,19.177,0,0,0-6.416-8.59Z" transform="translate(517.11 259.033)"/><path class="e" d="M566.2,248.423l12.667-10.131c-9.84-1.086-13.884,4.281-15.538,8.529-7.688-3.192-16.057.991-16.057.991l25.344,9.2a19.179,19.179,0,0,0-6.416-8.59Z" transform="translate(534.621 213.117)"/><path class="j" d="M695.708,537.213A17.246,17.246,0,0,1,682.7,517.285c-.074.262-.145.526-.208.795a17.245,17.245,0,0,0,33.577,7.889c.063-.268.118-.536.167-.8A17.245,17.245,0,0,1,695.708,537.213Z" transform="translate(587.755 323.181)"/></g><g transform="translate(71 565.836)"><path class="k" d="M314.181,705.529s.561-11.753,12.06-10.387" transform="translate(-192.738 -238.919)"/><circle class="k" cx="5.755" cy="5.755" r="5.755" transform="translate(112.439 443.916)"/><rect class="k" width="1.625" height="11.372" transform="translate(117.258 459.362)"/><path class="k" d="M828.181,694.529s.561-11.753,12.06-10.387" transform="translate(-289.234 -236.854)"/><circle class="k" cx="5.755" cy="5.755" r="5.755" transform="translate(529.944 434.981)"/><rect class="k" width="1.625" height="11.372" transform="translate(534.762 450.427)"/><path class="e" d="M890.5,750.81c-205.416-76.621-391.682-72.539-511.767-55.622-130.1,18.327-212.65,55.233-213.469,55.6l-.6-1.836c.821-.371,83.568-37.364,213.869-55.72a1045.122,1045.122,0,0,1,512.468,55.7Z" transform="translate(-183.8 -236.646)"/><path class="e" d="M739.181,730.529s.561-11.753,12.06-10.387" transform="translate(-272.525 -243.612)"/><circle class="g" cx="5.755" cy="5.755" r="5.755" transform="translate(457.652 464.223)"/><rect class="e" width="1.625" height="11.372" transform="translate(462.471 479.669)"/><path class="e" d="M337.487,319.638a179.589,179.589,0,0,1-39.687-71.43c-3.888-13.788-6.165-29.465-.339-43.069,4.506-10.521,14.111-20.041,26.016-20.922,12.564-.93,26.512,10.7,23.821,24.009-.2.994,1.108,2.042,1.883,1.1,10.057-12.275,23.881-23.582,40.355-24.691,14.673-.987,30.087,6.345,34.361,21.251,4.452,15.525-3.229,31.95-13.986,42.929-11.932,12.178-27.465,19.775-42.126,28.069-14.425,8.161-29.1,17.584-37.968,32.01a50.868,50.868,0,0,0-7.609,22.086,39.542,39.542,0,0,0,5.255,22.837c4.168,7.507,9.322,14.351,13.085,22.1a111.879,111.879,0,0,1,8.392,24.019,113.381,113.381,0,0,1,.073,50.28c-6.916,30.17-27.1,56.723-53.952,72a111.033,111.033,0,0,1-10,5.025c-1.323.585-.178,2.527,1.137,1.945a115.705,115.705,0,0,0,61.586-66.64c11.362-32.255,7.006-69.42-11.17-98.334-4.757-7.568-10.252-14.906-11.819-23.922-1.435-8.262.332-16.88,3.821-24.417,7.471-16.141,22.278-26.633,37.235-35.292s30.927-16.155,43.6-28.162c11.281-10.689,19.6-25.942,17.65-41.92a30.684,30.684,0,0,0-9.58-19.081,36.1,36.1,0,0,0-19.3-8.7c-15.969-2.251-30.938,5.325-42.32,16.035a94.658,94.658,0,0,0-8.319,8.982l1.883,1.1c2.429-12.009-7.117-23.041-18.294-26.078-12.156-3.3-24.206,3.8-31.21,13.437-8.749,12.034-9.465,27.465-6.907,41.654,2.653,14.719,8.145,29.129,14.817,42.473a182.84,182.84,0,0,0,28.019,40.921c.975,1.077,2.564-.52,1.593-1.593Z" transform="translate(-187.162 -142.591)"/><path class="l" d="M177.179,584.47l-8.04,2.282L137.551,486.159l23.18-4Z" transform="translate(-25.823 -90.519)"/><path class="l" d="M68.331,584.609l-7.95-1.7L80.948,479.822l22.364,7.286Z" transform="translate(-11.336 -90.079)"/><path class="j" d="M338.109,760.239c2.2,1,4.045-5.222,5.9-3.4,5.194,5.1,17.654,3.96,17.654,3.96a3.247,3.247,0,0,0,2.046-4.231h0a3.247,3.247,0,0,0-2.253-2.01l-5.524-1.381-8.673-15.253-9.452-1.2-.239.39a24.372,24.372,0,0,0-2.612,19.928C335.746,759.568,336.816,759.649,338.109,760.239Z" transform="translate(-196.442 -246.747)"/><path class="j" d="M220.006,754.855c1.981,1.39,4.932-4.395,6.424-2.261,4.174,5.967,16.633,7.12,16.633,7.12a3.247,3.247,0,0,0,2.785-3.786h0A3.247,3.247,0,0,0,244,753.54l-5.178-2.367-5.74-16.581-9.074-2.9-.306.34a24.371,24.371,0,0,0-6.21,19.115C217.8,753.764,218.842,754.038,220.006,754.855Z" transform="translate(-174.558 -245.8)"/><path class="j" d="M303.259,526.249c4.233,6.51,8.337,13.086,10.152,20.568a413.95,413.95,0,0,1,9.382,55.654c-14.709,8.439-27.469,13.283-39.935,14.118-.58.039-1.158.066-1.737.087l-4.544-25.654-3.625,25.371c-1.795-.191-3.593-.463-5.4-.827-7.814-1.567-15.77-4.77-24.272-9.688a129.735,129.735,0,0,1-3.8-37.112c.7-16.7,4.475-31,8.132-42.484Z" transform="translate(-178.693 -207.232)"/><path class="l" d="M274.97,426.108l-19.982-6.794c7.229-7.077,10.181-14.846,7.194-23.579l22.38,4C279.251,409.967,272.3,416.13,274.97,426.108Z" transform="translate(-181.626 -182.73)"/><path class="k" d="M303.8,505.349c-18.177,14.459-36.682,16.126-55.644.033,7.644-24-7.951-46.568-5.679-63.6,1.417-10.629,5.838-23.795,16.117-26.856l11.04,3.373A23.386,23.386,0,0,1,285.45,434.81l1.306,5.083c6.321,6.724,8.428,15.56,6.786,26.288,1.386,3.044.75,6.883.114,10.728-.6,3.657-1.2,7.32-.068,10.3,2.444,6.41,6.381,12.248,10.212,18.14" transform="translate(-179.234 -186.332)"/><circle class="l" cx="17.984" cy="17.984" r="17.984" transform="translate(79.357 190.226)"/><path class="l" d="M357.623,512.532l-12.6-4.124.919-10.109,13.833-.307a7.456,7.456,0,0,1,7.53,8.617h0a7.456,7.456,0,0,1-9.684,5.923Z" transform="translate(-198.529 -201.927)"/><path class="h" d="M318.4,533.03c-5.208-2.442-17.06-8.6-34.182-21.075-23.579-17.185-17.582-59.146-17.582-59.146l31.467,31.212c-.6,3.657-1.2,7.32-.068,10.3C303.184,507.815,314.945,518.776,318.4,533.03Z" transform="translate(-183.685 -193.445)"/><path class="j" d="M332.365,497.82c-17.06,3.78-31.018,6.046-42.362-2-17.991-20.924-28.216-41.929-24.389-63.082a10.256,10.256,0,0,1,7.444-8.032h0a10.317,10.317,0,0,1,12.309,6.224l13.592,45.554,35.21,6.815Z" transform="translate(-183.471 -188.102)"/><path class="e" d="M312.831,566.831a8.818,8.818,0,0,1-8.592-6.894l-1.047-4.713,17.186-3.818,1.047,4.712a8.8,8.8,0,0,1-6.684,10.5h0A8.814,8.814,0,0,1,312.831,566.831Zm-8.284-10.744.8,3.6a7.667,7.667,0,1,0,14.968-3.326l-.8-3.6Z" transform="translate(-190.675 -211.955)"/><path class="j" d="M295.337,376.745s2.887-22.468-20.669-15.1c0,0-16.824-3.087-22.341,17.957l-5.587,22.059,2.723-1.482,1.269,2.775,4.412,1.117,1.888-3.747.913,4.551,36.136,3.6s-16.184-9.571-16.441-26.726l3.083,3.258Z" transform="translate(-180.077 -176.052)"/><path class="j" d="M290.65,213.266h40.225L326.1,255.54l-35.453-.88Z" transform="translate(-54.565 -40.037)"/><path class="j" d="M439.416,464.13c-12.078,4.314-4.314,47.45-4.314,47.45l10.353,50.038,9.49,68.155,15.529-2.588L465.3,573.7l-2.588-65.567,22.431,56.94,16.392,62.979,15.529-3.451-3.451-22.431c-.863-15.529-12.078-47.45-12.078-47.45l-12.941-89.724Z" transform="translate(-214.978 -195.57)"/><path class="j" d="M526.926,655.648s5.83,22.454,5.68,25.038l0,.077a5.5,5.5,0,0,1-4.259,4.955c-2.477.587-5.749,1.379-7.5,1.876-1.66.471-9.776,3.135-15.705,1.064s12.55-12.755,12.55-12.755l-1.727-21Z" transform="translate(-228.367 -231.386)"/><path class="j" d="M470.179,661.885s1.494,22.4.854,24.91-2.1,1.245-2.1,1.245-7.889.266-11.059.533c-1.719.145-10.195,1.209-15.619-1.957s15.619-10.984,15.619-10.984l1.455-20.079Z" transform="translate(-216.615 -231.507)"/><circle class="m" cx="16.392" cy="16.392" r="16.392" transform="translate(239.104 164.17)"/><path class="m" d="M308.175,235.7l3.451,24.157,14.666-6.9-3.451-18.98Z" transform="translate(-57.855 -43.926)"/><path class="k" d="M471.163,385.863l-2.887-4.677L465.124,385l-13.8,4.314-3.451,20.705c-.863,5.176,1.725,14.666,1.725,14.666s-9.49,18.98-8.627,25.882,44.862,4.314,44.862,4.314l12.941-69.018-11.215-3.451L484.1,378.1l-10.353,5.176-1.725,6.9Z" transform="translate(-216.53 -179.419)"/><path class="j" d="M494.369,339.31h0a5.1,5.1,0,0,0-5.1-5.1H464.688a6.454,6.454,0,0,0-6.454,6.454v9.909c11.777-5.965,23.869-4.916,36.134,0Z" transform="translate(-219.782 -171.18)"/><path class="g" d="M428.819,531.9c-5.944-3.481-11.976-7.2-16.1-12.718-4.31-5.759-6.007-14.26-1.748-20.057,3.578-4.87,10.509-6.447,16.344-4.877s10.651,5.764,14.356,10.538c-1.112-5.786,5.091-11.2,10.946-10.55s10.442,5.89,11.874,11.6.268,11.767-1.547,17.371A77,77,0,0,1,448.7,548.9a25.11,25.11,0,0,0-3.293-4.84C440.892,538.857,434.762,535.383,428.819,531.9Z" transform="translate(-210.445 -201.115)"/><path class="m" d="M474.923,470.5l-14.666,14.666s-12.941,17.255-6.9,20.705,13.8-16.392,13.8-16.392l18.117-12.941Z" transform="translate(-218.564 -196.767)"/><path class="m" d="M435.8,471.366l-.863,8.627s6.9,13.8,1.725,18.117-9.49-17.255-9.49-17.255L428.9,470.5Z" transform="translate(-213.951 -196.767)"/><path class="k" d="M496.537,410.951l-4.314,25.019-17.254,19.843,16.392,7.765s12.078-18.117,16.392-24.156,6.039-37.1,4.314-44-6.9-7.765-6.9-7.765l-2.588,1.725Z" transform="translate(-222.923 -181.214)"/><path class="k" d="M449.868,422.964l-6.9,18.117-6.9,18.117-12.078-.863s8.627-17.255,7.765-19.843,8.627-32.784,10.353-38.823,6.039-7.765,6.039-7.765l6.9,1.725Z" transform="translate(-213.352 -182.011)"/><path class="j" d="M492.889,376.139c-3.866,1.876-8.357,1.98-12.628,1.509a9.878,9.878,0,0,1-3.763-.8c3.4-1.972,5.243-5.83,6.329-9.61a40.547,40.547,0,0,0,1.236-6,30.562,30.562,0,0,1,1.109-5.161,15.229,15.229,0,1,0-29.775-4.519,16.322,16.322,0,0,0,2.718,8.369,14.117,14.117,0,0,0,10.752,6.337,2.379,2.379,0,0,1,1.6.686c1.435,1.44-1.071,4.339-.737,6.344.422,2.536.777,5.381-.726,7.466a8.572,8.572,0,0,1-3.107,2.393,33.092,33.092,0,0,1-15.146,3.814,16.986,16.986,0,0,0,5.761-10,16.3,16.3,0,0,0-2.045-11.11,30.072,30.072,0,0,1-1.449,11.413,13.15,13.15,0,0,1-3.621,6.034c-1.808,1.541-4.159,2.3-6.293,1.254a10.617,10.617,0,0,0,4.888-5.383,18.543,18.543,0,0,0,1.345-7.251,29.7,29.7,0,0,0-.275-6.639,18.3,18.3,0,0,1-6.824,10.125,7.268,7.268,0,0,1-3.077,1.465,3.061,3.061,0,0,1-2.953-1.039,9.945,9.945,0,0,0,6.345-8.356c.155-1.953-.267-4.013.5-5.815.8-1.873,2.677-3,4.3-4.223s3.592-3.151,3.182-5.145c-1.26-6.135-.258-13.08,4.091-17.586a23.539,23.539,0,0,1,2.639-2.285,20.2,20.2,0,0,1,5.22-3.109,8.7,8.7,0,0,1,5.969-.19c.163-1.045.441-1,1.292-1.344a9.123,9.123,0,0,1,3.476-.639c8.231.076,16.045,4.922,20.541,11.81a9.244,9.244,0,0,1,1.322,2.736,9.112,9.112,0,0,1,.2,2.4c-.075,3.943-1.031,7.845-.916,11.787s1.723,8.2,5.18,10.1C499.827,370.269,496.755,374.264,492.889,376.139Z" transform="translate(-215.645 -169.853)"/><ellipse class="m" cx="1.808" cy="2.892" rx="1.808" ry="2.892" transform="translate(268.962 179.745)"/><path class="e" d="M608.181,704.529s.561-11.753,12.06-10.387" transform="translate(-247.932 -238.731)"/><circle class="g" cx="5.755" cy="5.755" r="5.755" transform="translate(351.245 443.104)"/><rect class="e" width="1.625" height="11.372" transform="translate(356.064 458.55)"/><path class="e" d="M481.181,727.529s.561-11.753,12.06-10.387" transform="translate(-224.09 -243.049)"/><circle class="g" cx="5.755" cy="5.755" r="5.755" transform="translate(248.087 461.786)"/><rect class="e" width="1.625" height="11.372" transform="translate(252.906 477.232)"/><path class="j" d="M688.582,650.039s-3.8,13.1-6.341,16.486-4.65,8.877-3.382,9.723,3.8,10.991.423,11.414-10.991-10.991-11.414-14.8-2.114-17.332-2.114-17.332-2.959-11.836,1.691-12.682,11.836-1.268,11.836-1.268Z" transform="translate(-258.566 -228.885)"/><path class="j" d="M712.706,669.167s5.5,14.373,6.764,15.218,5.918,8.455-3.382,8.455-14.373-2.536-14.373-2.536l-2.959-3.382s0-8.877.845-10.146,0-7.609,0-7.609Z" transform="translate(-264.936 -234.063)"/><path class="j" d="M746.4,505.9s6.764,45.655.845,60.45-11.836,19.023-11.836,19.023L690.6,627.221s-13.95-7.186-12.682-11.836c0,0,2.959-1.691,3.382-2.959s5.918-1.691,5.918-1.691,2.536-2.959,2.536-4.65,21.982-31.7,29.168-33.818c0,0,3.8-4.65,3.382-5.5s1.268-3.8,1.268-3.8l-4.227-16.486-26.632-4.227s-10.991-38.891-1.691-41.85S746.4,505.9,746.4,505.9Z" transform="translate(-261.009 -202.262)"/><path class="j" d="M696.564,543.744l-.845,6.764s0,17.755.845,19.445,1.268,4.227,0,5.918-3.382,5.918-2.536,7.609-1.691,49.459,1.691,52.841,2.114,7.609,1.691,8.032.423,2.114.423,2.114,17.332,2.959,16.064,0-1.268-4.65-2.114-5.5,0-2.114,0-2.114-1.268-13.527,0-14.373,5.073-41.427,5.073-41.85,1.268-1.268,1.268-2.959,0-7.186,2.114-8.032,1.691-21.559,1.691-21.559Z" transform="translate(-264.012 -210.517)"/><path class="l" d="M730.628,357.95s-1.691,12.682-6.764,15.218-8.455,3.8-8.455,3.8l4.227,14.8,1.691,12.682h19.445L751.342,396l-3.382-13.95-1.691-2.536s-2.114-9.3-.423-12.259S730.628,357.95,730.628,357.95Z" transform="translate(-268.063 -175.637)"/><path class="k" d="M734.494,392.62l-2.959,5.5s-2.114-7.609-5.073-8.877-10.146-3.382-10.146-5.073.423-5.918-1.268-5.918-18.177,5.073-20.714,6.764-2.959,3.382-2.959,3.382l4.65,48.614s-6.764,22.827-4.65,31.7,3.8,10.145,8.877,11.414,2.114-2.959,16.909,1.268,24.1,2.959,27.477,2.959a11.829,11.829,0,0,1,6.341,2.114c.845.423.423-2.114-2.536-5.918s-1.691-10.145-1.691-10.145,3.382-10.991,1.268-15.218-5.073-9.723-2.536-11.414S751.4,429.4,751.4,429.4l9.3-32.973-19.023-13.1s.845,5.918-2.114,7.186S734.494,392.62,734.494,392.62Z" transform="translate(-263.474 -179.447)"/><path class="k" d="M771.06,400.105H773.6s4.227,7.186,4.227,12.259-2.114,33.818-2.114,33.818l-12.259,12.682-2.959-9.723-.845-21.559Z" transform="translate(-276.367 -183.551)"/><path class="k" d="M764.286,454.992s13.95-3.8,13.527,2.114-2.536,13.1-9.3,14.8-8.877-7.609-8.877-7.609S758.79,455.838,764.286,454.992Z" transform="translate(-276.356 -193.629)"/><path class="l" d="M698.181,479.21s.845,19.445,5.918,21.559l-12.259,2.959s-5.918-20.291-5.073-21.136S698.181,479.21,698.181,479.21Z" transform="translate(-262.67 -198.402)"/><path class="n" d="M693.643,396.835l-2.748-4.016s-10.146,15.641-9.3,26.209,1.691,10.991,1.691,12.682,2.114,1.691,0,3.8-5.073,5.073-3.382,6.764,2.959,1.691,2.536,3.8a27.948,27.948,0,0,0-.423,4.65s3.593,6.975,4.861,6.975,13.316,11.2,13.316,9.934-1.268-10.145-1.268-11.414-.423-5.5-1.268-6.764-.845-.845,0-2.114.845,0,.845-1.268-.423-2.959.845-3.382,2.536,0,1.691-2.114,0-3.8.423-3.8,2.536-.423,1.268-1.691,2.536-25.786,2.536-25.786S704.634,403.176,693.643,396.835Z" transform="translate(-261.303 -182.183)"/><path class="k" d="M695.48,386.574l-7.186,3.382s-10.146,15.641-9.3,26.209,1.691,10.991,1.691,12.682,2.114,1.691,0,3.8-5.073,5.073-3.382,6.764,2.959,1.691,2.536,3.8a27.948,27.948,0,0,0-.423,4.65s3.8,20.291,5.073,20.291,13.1-2.114,13.1-3.382-1.268-10.145-1.268-11.414-.423-5.5-1.268-6.764-.845-.845,0-2.114.845,0,.845-1.268-.423-2.959.845-3.382,2.536,0,1.691-2.114,0-3.8.423-3.8,2.536-.423,1.268-1.691,2.536-25.786,2.536-25.786S706.471,392.915,695.48,386.574Z" transform="translate(-260.814 -181.01)"/><circle class="l" cx="15.641" cy="15.641" r="15.641" transform="translate(458.761 162.868)"/><path class="j" d="M750.085,339.015a30.812,30.812,0,0,0,6.013,1.419c1.54.24,3.343.363,4.426-.758,1.062-1.1.891-2.937.166-4.285a41.087,41.087,0,0,0-2.757-3.662c-1.37-1.978-2.178-4.6-4.368-5.6a8.036,8.036,0,0,0-2.843-.531c-5.683-.362-11.6-.689-16.863,1.486a12.41,12.41,0,0,0-5.09,3.621,13.512,13.512,0,0,0-2.035,3.945,25.745,25.745,0,0,0,4.632,24.721c1.918-1.728,1.084-5.722,3.511-6.6.8-.289,1.7-.088,2.512-.317,2.563-.719,2.435-4.68,4.569-6.272a4.076,4.076,0,0,0,1.215-1,2.483,2.483,0,0,0,.236-1.259c.016-1.484-.681-5.254.734-6.271C745.585,336.618,748.7,338.515,750.085,339.015Z" transform="translate(-269.935 -169.514)"/><path class="o" d="M790.248,288.193C779.637,275.951,793.264,291.672,790.248,288.193Z" transform="translate(-281.34 -161.65)"/><path class="e" d="M782.1,272.1a179.589,179.589,0,0,0,41.372-70.468c4.214-13.692,6.863-29.31,1.362-43.048-4.255-10.626-13.631-20.37-25.512-21.534-12.539-1.228-26.759,10.072-24.384,23.437.177,1-1.156,2.015-1.908,1.051-9.763-12.511-23.314-24.143-39.757-25.642-14.646-1.335-30.229,5.629-34.856,20.429-4.819,15.415,2.469,32.018,12.962,43.249,11.64,12.458,26.988,20.422,41.447,29.062,14.227,8.5,28.67,18.271,37.2,32.9a50.868,50.868,0,0,1,7.082,22.261,39.542,39.542,0,0,1-5.8,22.706c-4.345,7.406-9.66,14.126-13.607,21.786a111.875,111.875,0,0,0-8.96,23.813,113.38,113.38,0,0,0-1.267,50.264c6.2,30.326,25.741,57.351,52.227,73.26a111.047,111.047,0,0,0,9.873,5.261c1.309.616.118,2.53-1.183,1.918a115.705,115.705,0,0,1-59.986-68.084c-10.593-32.516-5.356-69.566,13.5-98.041,4.935-7.452,10.6-14.658,12.384-23.634,1.631-8.225.069-16.883-3.24-24.5-7.085-16.314-21.639-27.154-36.386-36.167s-30.535-16.885-42.918-29.19c-11.024-10.954-18.982-26.4-16.649-42.327a30.684,30.684,0,0,1,10.031-18.848,36.1,36.1,0,0,1,19.5-8.244c16.018-1.871,30.8,6.058,41.927,17.036a94.661,94.661,0,0,1,8.1,9.177l-1.908,1.051c-2.143-12.063,7.662-22.866,18.908-25.637,12.231-3.013,24.108,4.377,30.882,14.174,8.461,12.238,8.81,27.683,5.916,41.806-3,14.651-8.835,28.927-15.821,42.109a182.843,182.843,0,0,1-28.983,40.244c-1,1.053-2.551-.581-1.555-1.63Z" transform="translate(-264.174 -133.5)"/><path class="l" d="M777.378,455.1a1.772,1.772,0,0,0,2.038-.92c1.943-3.884,13.368-12.62,2.3-15.627-7.4-2.01-8.558,8.5-10.2,12.672a2.014,2.014,0,0,0,1.361,2.688Z" transform="translate(-278.568 -190.722)"/><path class="p" d="M819.221,551.669h0a7.062,7.062,0,0,0,10.812-1.964l7.448-13.646-5.633-4.669-12.279,9.3a7.062,7.062,0,0,0-.349,10.976Z" transform="translate(-287.092 -208.197)"/><path class="g" d="M830.523,511.272l8.7,7.014,47.417-36.755-2.806-63.971h0a25.835,25.835,0,0,0-9.552,17.453l-8.124,36.137Z" transform="translate(-289.673 -186.828)"/><path class="p" d="M776,558.641h11.784L788.9,455.39H765.335Z" transform="translate(-143.68 -85.492)"/><path class="p" d="M740.073,563.734h11.784l1.123-109.986-23.569-1.123Z" transform="translate(-136.936 -84.973)"/><path class="j" d="M887.538,584.769l29.18,1.122,1.122-6.173,1.683,8.417,26.935-1.122c0-27.292-.587-57.449,2.806-67.9l-62.288,6.173C882.071,546.432,881.467,566.464,887.538,584.769Z" transform="translate(-299.551 -205.893)"/><path class="j" d="M949.01,741.4h0c6.3,0,11.237,2.446,10.664-3.827l-1.632-21.21a4.636,4.636,0,0,0-2.912-4.142h0q-6.734-7.894-13.468-1.683h0a11.175,11.175,0,0,0-2.433,6.394L938.316,738C938,744.119,942.879,741.4,949.01,741.4Z" transform="translate(-309.907 -241.316)"/><path class="j" d="M879.073,742.685l29.95-.793a5.077,5.077,0,0,0,4.376-5.182l.564-14.635a2.771,2.771,0,0,0-2.555-2.9l-4.605-.354c-.546-5.011-3.6-6.227-7.856-5.612L885.48,728.359l-8.875,2.485a6.062,6.062,0,0,0-4.36,6.737h0a6.062,6.062,0,0,0,6.828,5.1Z" transform="translate(-297.493 -242.303)"/><circle class="p" cx="17.396" cy="17.396" r="17.396" transform="translate(598.648 174.617)"/><path class="p" d="M912.043,402.83l29.741-8.417c-6.651-2.587-9.219-7.1-7.856-13.468h-19.64C916.812,390.536,916.823,398.363,912.043,402.83Z" transform="translate(-304.977 -179.954)"/><path class="g" d="M885.791,509.366c16.784,2.145,32.249-4.354,46.856-9.259,6.594-2.214,13.238.1,19.36-3.647-2.647-26.075-.077-55.446,5.546-86.746a7.417,7.417,0,0,0-5.043-8.387l-18.46-5.874-16.273,5.612-8.417,1.683-17.333,11.711a6.336,6.336,0,0,0-2.7,6.33,207.75,207.75,0,0,1-3.538,88.577Z" transform="translate(-300.049 -182.677)"/><path class="p" d="M779.152,390.882l5.612,14.59,5.611-8.418-7.3-7.295Z" transform="translate(-146.274 -73.171)"/><path class="j" d="M901.654,357.916c6.764-4.341,13.509-5.771,20.237-4.549a15.2,15.2,0,0,1,11.93,18.726l-.042.163,1.006-1.89A25.385,25.385,0,0,0,937.369,354h0a18.009,18.009,0,0,0-18.481-14.845l-3.785.158a18.143,18.143,0,0,0-17.291,16.26h0a2.493,2.493,0,0,0,3.843,2.339Z" transform="translate(-302.303 -172.106)"/><path class="g" d="M947.276,500.562l7.856,10.1,27.5-40.964-2.378-41.617a31.478,31.478,0,0,0-16.14-25.721h0l.561,63.971Z" transform="translate(-311.592 -183.974)"/></g><path class="q" d="M84.962,239.728a82.057,82.057,0,0,1,81.943-77.768c2.494,0,4.956.13,7.394.348a109.022,109.022,0,0,1,188.459-.089c2.056-.154,4.126-.259,6.222-.259a82.056,82.056,0,0,1,81.943,77.766" transform="translate(-52.962 195.239)"/><path class="r" d="M102.053,233.416A82.057,82.057,0,0,1,184,155.648c2.494,0,4.956.13,7.394.348a109.022,109.022,0,0,1,188.459-.089c2.056-.154,4.126-.259,6.222-.259a82.056,82.056,0,0,1,81.943,77.766" transform="translate(-52.962 195.239)"/><path class="q" d="M84.962,239.728a82.057,82.057,0,0,1,81.943-77.768c2.494,0,4.956.13,7.394.348a109.022,109.022,0,0,1,188.459-.089c2.056-.154,4.126-.259,6.222-.259a82.056,82.056,0,0,1,81.943,77.766" transform="translate(1315.038 8.239)"/><path class="r" d="M102.053,233.416A82.057,82.057,0,0,1,184,155.648c2.494,0,4.956.13,7.394.348a109.022,109.022,0,0,1,188.459-.089c2.056-.154,4.126-.259,6.222-.259a82.056,82.056,0,0,1,81.943,77.766" transform="translate(1315.038 8.239)"/></g></svg>