<svg xmlns="http://www.w3.org/2000/svg" xmlns:xlink="http://www.w3.org/1999/xlink" width="597.707" height="462.809" viewBox="0 0 597.707 462.809">
  <defs>
    <linearGradient id="linear-gradient" x1="0.5" y1="1" x2="0.5" gradientUnits="objectBoundingBox">
      <stop offset="0" stop-color="gray" stop-opacity="0.251"/>
      <stop offset="0.54" stop-color="gray" stop-opacity="0.122"/>
      <stop offset="1" stop-color="gray" stop-opacity="0.102"/>
    </linearGradient>
  </defs>
  <g id="Group_57" data-name="Group 57" transform="translate(-0.011 0.005)">
    <path id="Path_436" data-name="Path 436" d="M86.789,50.828C70.421,61.388,58.261,80.38,56.776,101.17c-2.151,30.25,17.149,57.068,37.719,77.275s44.281,38.44,56.271,65.758c13.156,30.036,8.663,68.387-11,93.787-8.459,10.934-20.24,22-18.64,36.256,1.5,13.3,15.043,21.6,27.22,20.977s23.2-7.656,33.836-14.212c38.115-23.513,79.651-43.654,123.355-44.033,46.855-.4,91.108,21.808,133.574,43.566l61.05,31.29c12.694,6.507,25.713,13.112,39.661,14.515s28.111-2.585,40.5-9.8c13.255-7.7,25.3-20.317,28.012-36.531,3.592-21.549-9.9-42.031-11.726-63.85-1.793-21.588,8-42.284,19.4-59.95s24.877-34.2,32.263-54.3c15.175-41.316.4-90.96-28.787-121.881S549.4,34.658,509.049,30.467c-15.131-1.573-30.448-1.837-45.48.644-29.931,4.95-57.387,20.5-85.8,31.9-50.787,20.35-107.548,27.412-159.017,9.213C177.32,57.593,129.646,23.185,86.789,50.828Z" transform="translate(-56.6 -29.27)" opacity="0.1"/>
    <ellipse id="Ellipse_128" data-name="Ellipse 128" cx="163.351" cy="26.95" rx="163.351" ry="26.95" transform="translate(129.256 408.903)" opacity="0.1"/>
    <path id="Path_437" data-name="Path 437" d="M598.837,288.7V67.73H364.47V355.646H598.837V327.832s.072-30.9.072-30.932C599.063,288.98,599.063,296.68,598.837,288.7Z" transform="translate(-195.135 -46.579)" fill="#a1a3b2"/>
    <rect id="Rectangle_168" data-name="Rectangle 168" width="220.936" height="271.416" transform="translate(176.1 28.401)" fill="#f49cc6"/>
    <g id="Group_55" data-name="Group 55" transform="translate(176.122 37.519)" opacity="0.2">
      <path id="Path_438" data-name="Path 438" d="M587.566,168.023V150.67c0-.346.033-.732.033-1.15a4.367,4.367,0,0,0,1.067-2.635c0-.715-.072-1.573.495-2.013.424-.33,1.029-.253,1.562-.352,1.787-.336,2.442-2.635,2.128-4.4s-1.2-3.515-1.045-5.33c.176-1.958,1.529-3.57,2.678-5.165s2.2-3.581,1.584-5.456c-.424-1.353-1.6-2.321-2.277-3.57a9.126,9.126,0,0,1-.633-5.39,21.5,21.5,0,0,0,.286-5.5,4.839,4.839,0,0,0-3.2-4.114,3.988,3.988,0,0,1-1.551-.506,3.849,3.849,0,0,1-.825-1.375c-.792-1.562-2.563-2.365-4.279-2.75-3.553-.748-6.672.77-10.148.621-2.656-.115-7.832-2.75-7.249,1.9a6.507,6.507,0,0,1-2.75,6.05c-1.705,1.144-4.235,1.832-4.466,3.85-.192,1.711,1.48,3,2.2,4.576,1.139,2.568-.451,5.5-2.2,7.7a4.906,4.906,0,0,0-1.116,1.81c-.368,1.425.66,2.805,1.683,3.85s2.2,2.2,2.2,3.68-1.188,2.712-2.084,3.932-1.458,3.108-.336,4.12c.753.677,2.134.842,2.277,1.843.088.6-.369,1.1-.737,1.612a7.172,7.172,0,0,0,2.359,10.236,11.583,11.583,0,0,0,4.065,1.029l-.319,11c-1.689.149-2.7.259-2.7.259s-2.5.434-6.556.984V139.851l-1.65-6.226-1.65-3.608-1.65-3.3-1.309-1.969-1.969,1.65,3.3,2.948,3.3,5.9v18.029l-2.948-12.458v-1.65l-2.624-1.969-1.65-1.969,1.65,4.587,2.624,3.3.319,3.6H551.5l-1.969-2.624.984,4.263h3.608l.984,3.3v7.211l-3.608-6.226-5.236-.974,5.247,1.969,3.608,6.864v9.867c-2.816.357-6.127.731-9.73,1.056l.06-.913c.654-.33-.33-1.969-.33-1.969v-1.969c3.608,3.933,6.556.985,6.556.985l-4.257-3.614h-8.2l-1.969-1.65v-1.65l-.985.33-.33.984-1.309-.33-.33-.984h-.633l.33,1.309c.33,1.309-.984,3.3-.984,3.3-.33,1.65,2.294,1.309,2.294,1.309a2.266,2.266,0,0,0,1.309,1.469v3.988c-10.962.55-22.853.3-30.976-2.359a65.472,65.472,0,0,0-35.074-1.65s-6.529,1.457-15.95,2.519l-1.353-15.95a1.282,1.282,0,0,0,1.144.028c1.017-.55.55-2.062.786-3.185.374-1.82,2.618-2.492,3.789-3.938s1.194-3.663,2.459-5.06a23.116,23.116,0,0,1,1.964-1.584,5.376,5.376,0,0,0-.627-8.162,6.759,6.759,0,0,1-1.265-.858c-1.282-1.314-.319-3.5-.55-5.324a5.182,5.182,0,0,0-2.783-3.63c-2.706-1.447-6.16-2-9.13-2.547a2.277,2.277,0,0,1-1.188,2.8,4.4,4.4,0,0,1-1.534.253,4.813,4.813,0,0,0-2.118.424,1.65,1.65,0,0,0-.9,1.8,9.76,9.76,0,0,0,.55,1c.506,1.144-.429,2.376-1.276,3.3s-1.716,2.233-1.1,3.3c.385.671,1.227.974,1.65,1.622.781,1.188-.187,2.706-1.04,3.85s-1.562,2.9-.489,3.85a4.817,4.817,0,0,0,1.369.638c3.432,1.425,3.531,6.782,6.809,8.531a9.827,9.827,0,0,1,1.248.654,3.058,3.058,0,0,1,.55.512c.055,3.768.187,13.541.083,18.024-3.443.33-7.194.594-11.088.7v-7.86c.649-.336,1.216-.908,1.9-1.21a9.459,9.459,0,0,1,3.19-.352c1.078-.077,2.293-.55,2.546-1.612a7.968,7.968,0,0,0,0-1.491,1.121,1.121,0,0,1,.77-1.15,8.247,8.247,0,0,0-.687-1.743c-.627-1.584-.242-3.449-.974-4.989a7.469,7.469,0,0,0-2.117-2.354l-1.248-1.045a19.274,19.274,0,0,0-5.022-3.366c-.5-.2-1.018-.352-1.529-.506-.352.193-.363.715-.247,1.1a1.925,1.925,0,0,1,.16,1.243,1.326,1.326,0,0,1-.919.655,13.335,13.335,0,0,0-1.688.478,1.733,1.733,0,0,0-1.1,1.271,2.959,2.959,0,0,0-2,.341c-.55.413-.632,1.452,0,1.7a3.261,3.261,0,0,0-.737,3.9c.451.836,1.276,1.48,1.49,2.4.193.819-.149,1.721.154,2.513a11,11,0,0,1,.583,1.183,8.392,8.392,0,0,0,.132,1.056,1.688,1.688,0,0,0,1.43.979,16.7,16.7,0,0,1,1.82.154c.841.187,1.6.759,2.4.99l-.55,7.75a119.484,119.484,0,0,1-13.557-.55l-.385-17.974.055-.039a.979.979,0,0,0,.253-.451c.38-1.3-.611-2.97.346-3.933.467-.468,1.216-.517,1.722-.941,1.1-.9.44-2.75,1.215-3.922a7.68,7.68,0,0,1,1.65-1.364,4.554,4.554,0,0,0,1.463-3.207,10.857,10.857,0,0,0-.511-3.57,5.1,5.1,0,0,1-.27-2.822c.314-1.023,1.287-1.738,1.65-2.75.55-1.65-.7-3.328-1.887-4.62a8.2,8.2,0,0,0-5.858-3.075c-.869-.116-1.65-.506-2.519-.605-1.65-.182-1.424.3-1.947,1.474-.435.974-2.129.445-2.8,1.271a1.65,1.65,0,0,0-.039,1.65,6.116,6.116,0,0,1,.627,1.6,7.856,7.856,0,0,1-.55,2.426,3.135,3.135,0,0,0,1.612,3.24,4.807,4.807,0,0,0-.671,5.874,9.06,9.06,0,0,1,1.182,1.837c.55,1.65-.82,3.713.159,5.181.182.275.44.5.627.77.737,1.1.258,2.558.55,3.85a3.228,3.228,0,0,0,2.414,2.3l.594,17.694q-2.2-.253-4.4-.616c-2.519-.418-4.983-.765-7.376-1.045v-8.206c.649-.336,1.216-.908,1.9-1.21a9.459,9.459,0,0,1,3.19-.352c1.078-.077,2.294-.55,2.547-1.612a7.958,7.958,0,0,0,0-1.491,1.121,1.121,0,0,1,.77-1.15,8.247,8.247,0,0,0-.687-1.743c-.627-1.584-.242-3.449-.974-4.989a7.471,7.471,0,0,0-2.079-2.376l-1.249-1.045a19.273,19.273,0,0,0-5.022-3.366c-.5-.2-1.017-.352-1.529-.506-.352.193-.363.715-.247,1.1a1.925,1.925,0,0,1,.159,1.243,1.326,1.326,0,0,1-.919.655,13.326,13.326,0,0,0-1.689.478,1.733,1.733,0,0,0-1.1,1.271,2.959,2.959,0,0,0-2,.341c-.55.413-.633,1.452,0,1.7a3.262,3.262,0,0,0-.737,3.9c.451.836,1.276,1.48,1.491,2.4.192.819-.148,1.721.154,2.513a11,11,0,0,1,.583,1.183,8.4,8.4,0,0,0,.132,1.056,1.688,1.688,0,0,0,1.43.979,16.7,16.7,0,0,1,1.821.154c.841.187,1.595.759,2.4.99l-.55,7.794c-3.13-.324-6.121-.55-8.932-.677V153.129l-.655-8.85,5.572-8.525-5.572,7.211.2-5.176.55.148c.407.11.93.187,1.177-.159s.027-1,.407-1.243a.825.825,0,0,1,.5-.077l1.8.1c.693-.93-.974-2.035-.858-3.19.077-.764.9-1.2,1.65-1.419a3.345,3.345,0,0,0,2.013-1.018c.643-.946-.028-2.294.39-3.355a7.182,7.182,0,0,1,.908-1.3,1.375,1.375,0,0,0,.187-1.49,1.958,1.958,0,0,0-.88-.578,6.3,6.3,0,0,1-3.3-3.729,1.2,1.2,0,0,1-.033-.886c.2-.4.721-.495,1.1-.693,1.281-.649,1.309-2.514.726-3.85a4.081,4.081,0,0,0-1.507-1.887,2.244,2.244,0,0,0-2.326-.082,6.492,6.492,0,0,0-.957.907,4.042,4.042,0,0,1-2.992,1.1c-.825-.044-1.821-.721-1.507-1.491s1.491-.55,2.2-1.029a2.008,2.008,0,0,0,.748-1.617c.1-1.815-.847-3.63-.429-5.4a6.8,6.8,0,0,0,.253-1.1,3.026,3.026,0,0,0-1.21-2.266,8.205,8.205,0,0,1-1.865-1.881c-.55-1.012-.594-2.261-1.848-2.684a5.3,5.3,0,0,0-3.3.314,1.377,1.377,0,0,0-.847,1.925c.286,1.067.72,2.162-1.1,1.821-.671-.121-1.513-.275-1.9.286-.3.445-.088,1.04-.033,1.579s-.346,1.243-.847,1.045c-.027.71,1.172.715,1.54,1.326a.979.979,0,0,1-.457,1.26,2.838,2.838,0,0,1-1.452.247,8.278,8.278,0,0,1-.864-1.215c-.319-.385-.984-.594-1.281-.193a1.1,1.1,0,0,0-.148.6l-.132,2.624a2,2,0,0,0,.033.627,3.354,3.354,0,0,0,.28.594,2.536,2.536,0,0,1-.407,2.789l.737.324c-.286.693-1.391.215-2.062.55-.55.253-.655.935-.688,1.524a10.688,10.688,0,0,0,.248,3.053c.248,1.023.594,2.332-.27,2.943a3.552,3.552,0,0,1-1.133.385,1.139,1.139,0,0,0-.88.732c-.088.391.413.83.715.55l-.253,1.529a1.848,1.848,0,0,0,1.006.088c.209.99-.841,1.727-1.688,2.277s-1.711,1.65-1.1,2.448c.22.281.589.44.737.764a2.316,2.316,0,0,1,.083.869c.072,1.4,1.733,2.31,1.831,3.707,1.315.148,2.112-1.326,2.954-2.349a.511.511,0,0,1,.347-.231.55.55,0,0,1,.324.159l1.056.858a5.248,5.248,0,0,0,.116-2.145,9.749,9.749,0,0,1,1.523.066l-.225,3.058V150.8l.61,17.4a112.581,112.581,0,0,0-11.264.792V176.2H597.746v-6.842A42.82,42.82,0,0,0,587.566,168.023ZM398.915,145.263l-1.133-8.1.88.242ZM388.1,150.835V131.447a9.762,9.762,0,0,1,1.766.462,3.327,3.327,0,0,1,.946.49,2.046,2.046,0,0,1,.2.176l.039,1.21-.655,15.736v18.651h-1.38Zm4.593,17.336V133.466a1.9,1.9,0,0,0,1.424-.6,3.481,3.481,0,0,0,1.177,1.936,1.65,1.65,0,0,0-.429,1.568l1.986.55,1.408,9.35.66,7.189-.908,14.806C396.165,168.2,394.361,168.171,392.689,168.171Zm151.773,2-.11,1.331.55-.049-.891.077-.369-2.03Zm-2.294-1.65.654,1.309v1.788c-1.485.121-3.008.225-4.554.319l.622-3.416Zm-4.708-.314a2.42,2.42,0,0,0,.446,0l-.314,3.784-.55.033Zm42.73-19.25a16.4,16.4,0,0,1,1.474,1.1v17.875c-1.012,0-2.018.039-3.008.072l-.7-19.151.033-.027a2.057,2.057,0,0,1,2.2.148Zm-3.267,2.783c.236-.643.258-1.419.478-2.052v18.381l-1.969.088V153.249a2.662,2.662,0,0,0,1.491-1.49Zm-6.732,2.129c.27-.8.814-1.485,1.6-1.353a3.586,3.586,0,0,1,1.166.643,2.4,2.4,0,0,0,.847.314v14.806c-1.293.077-2.508.159-3.608.242Zm13.112,14.1v-17.05a4.471,4.471,0,0,0,1.386.116c-.044.418-.071.655-.071.655l.891,16.313c-.732-.049-1.469-.055-2.206-.049Z" transform="translate(-376.81 -97.49)" fill="#f30075"/>
      <path id="Path_439" data-name="Path 439" d="M487,181.83Z" transform="translate(-426.395 -135.443)" fill="#f30075"/>
      <path id="Path_440" data-name="Path 440" d="M486.78,181.82l.1.033h0Z" transform="translate(-426.296 -135.438)" fill="#f30075"/>
      <path id="Path_441" data-name="Path 441" d="M489.818,182.309l-2.667-.429A6.27,6.27,0,0,0,489.818,182.309Z" transform="translate(-426.463 -135.465)" fill="#f30075"/>
      <path id="Path_442" data-name="Path 442" d="M434.33,177l.1.033h0Z" transform="translate(-402.694 -133.269)" fill="#f30075"/>
      <path id="Path_443" data-name="Path 443" d="M437.367,177.539l-2.668-.429A6.27,6.27,0,0,0,437.367,177.539Z" transform="translate(-402.86 -133.319)" fill="#f30075"/>
      <path id="Path_444" data-name="Path 444" d="M434.58,177.06Z" transform="translate(-402.806 -133.296)" fill="#f30075"/>
    </g>
    <g id="Group_56" data-name="Group 56" transform="translate(176.111 198.912)" opacity="0.2">
      <path id="Path_445" data-name="Path 445" d="M731.39,481Z" transform="translate(-536.359 -431.461)" fill="#f30075"/>
      <path id="Path_446" data-name="Path 446" d="M731.13,481l.1.033h0Z" transform="translate(-536.242 -431.461)" fill="#f30075"/>
      <path id="Path_447" data-name="Path 447" d="M734.177,481.5l-2.667-.429a6.27,6.27,0,0,0,2.667.429Z" transform="translate(-536.413 -431.493)" fill="#f30075"/>
      <path id="Path_448" data-name="Path 448" d="M678.69,476.24l.1.033h0Z" transform="translate(-512.644 -429.319)" fill="#f30075"/>
      <path id="Path_449" data-name="Path 449" d="M678.94,476.25Z" transform="translate(-512.756 -429.324)" fill="#f30075"/>
      <path id="Path_450" data-name="Path 450" d="M681.728,476.729l-2.668-.429A6.27,6.27,0,0,0,681.728,476.729Z" transform="translate(-512.81 -429.346)" fill="#f30075"/>
      <path id="Path_451" data-name="Path 451" d="M588.783,451.221c1.018-.55.55-2.062.786-3.185.374-1.82,2.618-2.492,3.79-3.938s1.194-3.663,2.458-5.06a23.145,23.145,0,0,1,1.964-1.584,5.376,5.376,0,0,0-.627-8.162,6.763,6.763,0,0,1-1.265-.858c-1.281-1.315-.319-3.5-.55-5.324a5.182,5.182,0,0,0-2.783-3.63c-2.679-1.48-6.133-2-9.1-2.552a2.277,2.277,0,0,1-1.188,2.8,4.4,4.4,0,0,1-1.534.253,4.813,4.813,0,0,0-2.117.424,1.65,1.65,0,0,0-.9,1.8,9.757,9.757,0,0,0,.55,1c.506,1.144-.429,2.376-1.276,3.3s-1.716,2.233-1.1,3.3c.385.671,1.227.974,1.65,1.622.781,1.188-.187,2.706-1.039,3.85s-1.562,2.9-.49,3.85a4.821,4.821,0,0,0,1.37.638c3.432,1.425,3.531,6.782,6.809,8.531a9.831,9.831,0,0,1,1.248.654,3.061,3.061,0,0,1,.55.512c.049,3.448.165,11.935.1,16.786l-8.651-.281-1.969-.088v-5.858a9.275,9.275,0,0,1,1.408-.913,9.46,9.46,0,0,1,3.19-.352c1.078-.077,2.294-.55,2.547-1.612a7.969,7.969,0,0,0,0-1.491,1.121,1.121,0,0,1,.77-1.149,8.247,8.247,0,0,0-.688-1.744c-.627-1.584-.242-3.449-.974-4.989a7.471,7.471,0,0,0-2.145-2.348l-1.248-1.045a19.273,19.273,0,0,0-5.022-3.366c-.5-.2-1.018-.352-1.529-.506-.352.193-.363.715-.247,1.1a1.926,1.926,0,0,1,.16,1.243,1.326,1.326,0,0,1-.919.654,13.333,13.333,0,0,0-1.689.479,1.733,1.733,0,0,0-1.1,1.271,2.959,2.959,0,0,0-2,.341c-.55.412-.633,1.452,0,1.7a3.262,3.262,0,0,0-.737,3.9c.451.836,1.276,1.479,1.491,2.4.193.82-.149,1.721.154,2.514a11,11,0,0,1,.583,1.182,8.368,8.368,0,0,0,.132,1.056,1.689,1.689,0,0,0,1.43.979,16.656,16.656,0,0,1,1.82.154c.979.214,1.848.957,2.8,1.1l-.357,5.192-14.2-.638-.33-15.4.055-.038a.981.981,0,0,0,.253-.451c.38-1.3-.611-2.97.346-3.932.468-.468,1.216-.517,1.721-.94,1.1-.9.44-2.75,1.216-3.922a7.683,7.683,0,0,1,1.65-1.364,4.554,4.554,0,0,0,1.463-3.206,10.858,10.858,0,0,0-.512-3.57,5.1,5.1,0,0,1-.269-2.822c.313-1.023,1.287-1.738,1.65-2.75.55-1.65-.7-3.327-1.886-4.62a8.2,8.2,0,0,0-5.858-3.075c-.869-.115-1.65-.506-2.519-.605-1.65-.181-1.425.3-1.947,1.474-.435.974-2.128.445-2.8,1.271a1.65,1.65,0,0,0-.039,1.65,6.116,6.116,0,0,1,.627,1.595,7.856,7.856,0,0,1-.55,2.426,3.135,3.135,0,0,0,1.612,3.24,4.807,4.807,0,0,0-.638,5.857,9.058,9.058,0,0,1,1.183,1.837c.55,1.65-.82,3.713.159,5.181.182.275.44.5.627.77.737,1.1.258,2.558.55,3.85a3.229,3.229,0,0,0,2.415,2.3l.512,15.219-12.194-.55v-6.672c.875-.236,1.54-1.028,2.392-1.408a9.456,9.456,0,0,1,3.19-.352c1.078-.077,2.294-.55,2.547-1.612a7.963,7.963,0,0,0,0-1.491,1.121,1.121,0,0,1,.77-1.149,8.25,8.25,0,0,0-.687-1.744c-.627-1.584-.242-3.448-.974-4.989a7.47,7.47,0,0,0-2.118-2.354l-1.248-1.045a19.275,19.275,0,0,0-5.022-3.366c-.5-.2-1.018-.352-1.529-.506-.352.193-.363.715-.247,1.1a1.924,1.924,0,0,1,.159,1.243,1.325,1.325,0,0,1-.918.654,13.333,13.333,0,0,0-1.689.479,1.732,1.732,0,0,0-1.1,1.271,2.959,2.959,0,0,0-2,.341c-.55.413-.632,1.452,0,1.7a3.262,3.262,0,0,0-.737,3.9c.451.836,1.276,1.479,1.491,2.4.193.82-.148,1.722.154,2.513a11,11,0,0,1,.583,1.183,8.4,8.4,0,0,0,.132,1.056,1.689,1.689,0,0,0,1.43.979,16.7,16.7,0,0,1,1.82.154,9.267,9.267,0,0,1,1.776.748L543.3,464.4l-8.377-.374v-14.3l-.654-8.85,5.572-8.525-5.572,7.211.2-5.176.55.148c.407.11.93.187,1.177-.159s.027-1,.407-1.243a.825.825,0,0,1,.5-.077l1.8.1c.693-.93-.974-2.035-.858-3.19.077-.765.9-1.2,1.65-1.419a3.344,3.344,0,0,0,2.013-1.018c.643-.946-.027-2.294.391-3.355a7.181,7.181,0,0,1,.9-1.309,1.375,1.375,0,0,0,.187-1.49,1.958,1.958,0,0,0-.88-.578,6.3,6.3,0,0,1-3.3-3.729,1.2,1.2,0,0,1-.033-.885c.2-.4.72-.495,1.1-.693,1.281-.649,1.309-2.514.726-3.85a4.082,4.082,0,0,0-1.507-1.887,2.244,2.244,0,0,0-2.327-.082,6.491,6.491,0,0,0-.957.907,4.043,4.043,0,0,1-2.992,1.1c-.825-.044-1.82-.721-1.507-1.491s1.491-.55,2.2-1.028a2.008,2.008,0,0,0,.748-1.617c.1-1.815-.847-3.63-.429-5.4a6.8,6.8,0,0,0,.253-1.1,3.025,3.025,0,0,0-1.21-2.266,8.206,8.206,0,0,1-1.865-1.881c-.55-1.012-.594-2.26-1.848-2.684a5.3,5.3,0,0,0-3.3.314,1.377,1.377,0,0,0-.847,1.925c.286,1.067.721,2.161-1.1,1.82-.671-.121-1.513-.275-1.9.286-.3.445-.088,1.039-.033,1.578s-.346,1.243-.847,1.045c-.028.709,1.172.715,1.54,1.325a.979.979,0,0,1-.457,1.26,2.839,2.839,0,0,1-1.452.247,8.275,8.275,0,0,1-.864-1.216c-.319-.385-.984-.594-1.281-.193a1.1,1.1,0,0,0-.149.6l-.132,2.623a1.994,1.994,0,0,0,.033.627,3.355,3.355,0,0,0,.28.594,2.536,2.536,0,0,1-.407,2.789l.737.325c-.286.693-1.391.214-2.062.55-.55.253-.654.935-.687,1.523a10.685,10.685,0,0,0,.247,3.052c.248,1.023.594,2.332-.269,2.943a3.551,3.551,0,0,1-1.133.385,1.138,1.138,0,0,0-.88.732c-.088.391.412.831.715.55l-.253,1.529a1.848,1.848,0,0,0,1.006.088c.209.99-.841,1.727-1.688,2.277s-1.711,1.65-1.1,2.448c.22.281.589.44.737.764a2.309,2.309,0,0,1,.083.869c.072,1.4,1.733,2.31,1.831,3.707,1.315.148,2.112-1.326,2.954-2.349a.512.512,0,0,1,.347-.231.55.55,0,0,1,.324.159l1.056.858a5.247,5.247,0,0,0,.115-2.145,9.737,9.737,0,0,1,1.523.066L521.832,431v16.39l.594,16.984c-8.25,1.529-27.709,4.587-38.126,1.534a78.647,78.647,0,0,0-18.293-2.937l-4.4-35.932a4.4,4.4,0,0,0,2.233-2.2c.357-.693.7-1.513,1.441-1.766a2.854,2.854,0,0,1,1.65.165,10.45,10.45,0,0,0,6.886-.154c4.125-1.744,5.935-6.49,7.315-10.747.462-1.424.8-3.267-.385-4.169-.66-.5-1.65-.55-2.161-1.182a3.47,3.47,0,0,1-.506-1.738,6.6,6.6,0,0,0-5.968-5.423c-1.381-3.493-4.664-5.962-8.2-7.238a27.656,27.656,0,0,0-11-1.617c-.38,4.059-7.32,8.976.132,10.791a4.191,4.191,0,0,0-3.718,3.3,4.1,4.1,0,0,0,2.53,4.4l-2.646,6.529a5.5,5.5,0,0,0-.55,2.024c0,1.358.974,2.491,1.892,3.492,1.842,2,3.762,4.054,6.242,5.165l3.734,36.3c-.962.033-1.5.077-1.5.077s-1.1.275-3.042.7l-.781-5.693c1.568-2.37.908-5.8-1.1-7.86a3.85,3.85,0,0,0-2.09-1.237c-1.771-.275-3.223,1.3-4.312,2.75l.154-.088a2.893,2.893,0,0,0-.627,1.749,7.306,7.306,0,0,0,1.1,3.3,2.2,2.2,0,0,0,.935,1.1c.841.374,2.024-.335,2.673.325a.941.941,0,0,1,.066.088l.979,6.265c-2.315.49-5.17,1.061-8.338,1.65l-2.624-17.5.231.1a3.59,3.59,0,0,0,3.724-.2,8.448,8.448,0,0,0,1.1-1.523c1.023-1.43,2.75-2.2,3.982-3.427s1.947-3.476.638-4.653a3.19,3.19,0,0,1-.732-.687,1.946,1.946,0,0,1-.154-1.018,12.877,12.877,0,0,0-.55-3.85,4.949,4.949,0,0,0-1.381-2.437,2.277,2.277,0,0,0-2.623-.335c.192-.127-3.1-4.312-4.18-4.23-.836.066-2.524,2.513-3.658,3.179-1.265.742-7.53,2.024-3.932,4.031-.842,1.491-3.542,3.124-2.953,5.132.209.72.841,1.237,1.166,1.914.688,1.43-.138,3.075-.55,4.6s-.033,3.707,1.546,3.85c-.946.049-1.447,1.292-1.1,2.167a3.575,3.575,0,0,0,2.14,1.744,8.634,8.634,0,0,1,2.541,1.237l1.1-1.821,2.3,14.372c-5.187.836-10.9,1.578-16.335,1.908.825-2.959-1.1-20.389-2.943-34.975,2.552.842,3.5-4.158,6.188-4.537.957-.138,1.886.385,2.849.451,2.2.154,3.888-2.052,4.169-4.213s-.429-4.312-.809-6.457-.363-4.587,1.1-6.215c2.508.418,4.516-2.547,4.169-5.066s-2.2-4.543-3.938-6.385l-6.682-7.211c.55.55-6.771,3.212-7.376,3.328a26.8,26.8,0,0,1-8.25.165c-1.777-.226-3.449-1.232-5.082-.033-1.776,1.3-1.9,4.114.363,4.873-.324,2-2.37,3.157-2.7,5.164-.5,3.086,4.015,5.819,2.618,8.613a11.457,11.457,0,0,0-6.05,4.174l-4.653.858a2.1,2.1,0,0,0-1.1.413c-.77.7-.126,1.974.589,2.75a21.494,21.494,0,0,0,12.276,6.5,7.59,7.59,0,0,1,2.717.715c.456.269.863.654,1.3.935v35.75l3.52.462-2.145-35.86c1.436-.159,2.75-1.788,4.18-1.386a2.2,2.2,0,0,1,.9.55c0,16.462-.875,36.746-.875,36.746h0c-1.6,0-3.13-.055-4.593-.165-5.275-.407-10.863-.55-16.06-.583l.589-4.884a9.4,9.4,0,0,0-.308-3.756l-1.1-3.729h.968c1.65,1.969,1.474,12.293,1.474,12.293h.984V457.436l.33-4.917s2.623-5.572,3.608-1.309,3.608,2.294,3.608,2.294c.984-2.624-.984-6.226-.984-6.226a12.5,12.5,0,0,0,.06-3.421c1.012.06,5.1,0,5.676-4.279,0,0-3.608,3.608-4.587,2.948,0,0,2.623-2.294,2.294-2.948s-3.933.985-3.933.985v.984l-2.623-.655a76.242,76.242,0,0,0-6.886-3.3s3.3,3.932,6.226,4.263l.451,1.1a14.774,14.774,0,0,0-2.58-.962c-1.309-.33.984,1.65.984,1.65H401.3s-2.558-1.287-6.8.677-3.608,0-7.211,0-4.587,3.608-4.587,3.608c-.853,3.443,2.448,9.042,2.448,9.042l-.165,11.154,1.8-.336-.33-11.8h.984l1.969,4.587-.737,7.552h0c-7,.165-11.891.484-11.891.484v4.263H597.726V466.61l-8.8-.286-1.281-15.136a1.281,1.281,0,0,0,1.138.033Zm-198.4,13.585.11-.6a11.611,11.611,0,0,0-1.749-8.58h7.276l1.232,5.247L396.447,468c-1.854,0-3.647,0-5.341.05h0ZM533.3,441.86l-1.133-8.1.88.242Zm-4.8-12.392a3.482,3.482,0,0,0,1.177,1.936,1.65,1.65,0,0,0-.429,1.568l1.985.55,1.408,9.35.655,7.211-.853,13.882-5.379-.242v-33.66a1.9,1.9,0,0,0,1.436-.594Zm-6.017,17.969V428.05a9.764,9.764,0,0,1,1.766.462,3.33,3.33,0,0,1,.946.49,2.054,2.054,0,0,1,.2.176l.039,1.21-.655,15.736v17.842l-1.408.275Z" transform="translate(-376.79 -390.93)" fill="#f30075"/>
    </g>
    <path id="Path_452" data-name="Path 452" d="M420.237,270.768c2.415.176,4.9.391,7.97.385,2.75,0,5.033-.187,7.552-.286,5.154-.2,11.1-.066,16.654-.143,3.575-.05,7.117-.187,10.676-.132,2.437.038,4.593.165,6.925.242a67.258,67.258,0,0,0,6.991-.072l2.656,1.194a3.8,3.8,0,0,0,1.342.319,23.032,23.032,0,0,0,3.333.06c.451.429-3.245.853-7.849.908-3.1.038-6.248-.077-9.35-.027-3.537.055-6.276.308-9.526.451-2.953.126-6.38.16-9.554.088-3.63-.083-6.765-.286-10.2-.423-8.305-.324-18.15-.22-26.109-.61-.649-.033-1.315-.072-1.65-.132-.622-.1-.055-.236.077-.352.248-.226-1.1-.434-1.969-.649s-1.138-.49.737-.633A57.59,57.59,0,0,1,420.237,270.768Z" transform="translate(-214.514 -137.856)" fill="#f30075" opacity="0.2"/>
    <path id="Path_453" data-name="Path 453" d="M613.927,360.76c2.414.176,4.9.39,7.97.385,2.75,0,5.033-.187,7.552-.286,5.154-.2,11.1-.066,16.654-.143,3.575-.049,7.117-.187,10.676-.132,2.436.039,4.592.165,6.925.242a67.24,67.24,0,0,0,6.991-.071l2.657,1.193a3.8,3.8,0,0,0,1.342.319,23.024,23.024,0,0,0,3.333.06c.451.429-3.245.853-7.849.908-3.1.038-6.248-.077-9.35-.027-3.537.055-6.276.308-9.526.451-2.954.126-6.38.16-9.554.088-3.63-.083-6.765-.286-10.2-.424-8.305-.324-18.15-.22-26.109-.61-.649-.033-1.314-.072-1.65-.132-.622-.1-.055-.236.077-.352.248-.226-1.1-.434-1.969-.649s-1.139-.49.737-.633A58.028,58.028,0,0,1,613.927,360.76Z" transform="translate(-301.674 -178.353)" fill="#f30075" opacity="0.2"/>
    <path id="Path_454" data-name="Path 454" d="M673.413,286.026a21.68,21.68,0,0,0,3.79.413c1.3,0,2.392-.2,3.591-.3,2.448-.22,5.28-.072,7.915-.154,1.7-.049,3.383-.2,5.071-.138,1.161.044,2.2.176,3.3.259a14.3,14.3,0,0,0,3.3-.077l1.265,1.271a1.138,1.138,0,0,0,.638.341,4.905,4.905,0,0,0,1.584.066c.215.457-1.54.913-3.729.968-1.474.039-2.97-.082-4.433-.027-1.683.06-2.981.33-4.527.484a32.026,32.026,0,0,1-4.537.094c-1.727-.088-3.212-.308-4.851-.451-3.949-.347-8.63-.231-12.408-.655a3.923,3.923,0,0,1-.792-.138c-.292-.115,0-.253.033-.38.115-.242-.523-.467-.935-.693s-.55-.523.352-.677A12.251,12.251,0,0,1,673.413,286.026Z" transform="translate(-331.438 -144.716)" fill="#f30075" opacity="0.2"/>
    <path id="Path_455" data-name="Path 455" d="M495.212,346.339c1.15,0,2.332.06,3.79.06,1.3,0,2.393-.027,3.592-.044,2.448-.033,5.28,0,7.914,0,1.7,0,3.383-.027,5.071,0,1.161,0,2.2,0,3.3.039s2.481,0,3.3,0l1.265.182a5.131,5.131,0,0,0,.638.049h1.584a23.936,23.936,0,0,1-3.729.138H517.5c-1.683,0-2.981.05-4.526.072h-4.538c-1.727,0-3.212-.044-4.851-.066-3.949-.049-8.63-.033-12.408-.093h-.792c-.292,0,0-.039.033-.055a4.184,4.184,0,0,0-.935-.1c-.418-.033-.55-.077.352-.1C491.824,346.323,492.643,346.284,495.212,346.339Z" transform="translate(-251.247 -171.941)" fill="#6c63ff" opacity="0.2"/>
    <path id="Path_456" data-name="Path 456" d="M585.9,264.7c.6,0,1.221.06,1.985.06s1.254-.027,1.881-.044c1.281-.033,2.75,0,4.147,0,.891,0,1.771-.027,2.657,0,.6,0,1.144,0,1.727.038s1.3,0,1.738,0l.66.182a1.451,1.451,0,0,0,.335.049h.831a6.71,6.71,0,0,1-1.958.138h-2.321c-.88,0-1.562.049-2.371.072s-1.589,0-2.381,0c-.9,0-1.683-.044-2.541-.066-2.068-.049-4.521-.033-6.507-.094h-.412c-.154,0,0-.038,0-.055a2.839,2.839,0,0,0-.49-.1c-.214-.033-.286-.077.182-.1A23.355,23.355,0,0,1,585.9,264.7Z" transform="translate(-293.346 -135.21)" fill="#6c63ff" opacity="0.2"/>
    <path id="Path_457" data-name="Path 457" d="M593.274,328.677c-2.717-8.03-7.661-23.452-7.442-28.793.154-3.7-2.711-8.877-5.6-13.118l1.65-4.51-.192-.347.192-.55s-2.2-3.812-2.486-6.221a1.928,1.928,0,0,1,.044-.242c.093-.308.06-.467-.061-.55a1.988,1.988,0,0,1,.061-.357c.61-2.057-4.279,2.349-4.279,2.349l.237.671-.237.209.55,1.5c-1.067-.594-2.3-1.271-3.663-1.986a5.846,5.846,0,0,0,.7-3.3,9.559,9.559,0,0,0-1.237-4.95c-1.331-2.469-3.333-4.576-4.538-7.106a3.7,3.7,0,0,1-.236-.611.975.975,0,0,1,.088-.176c.226-.363.671-.55,1-.814a2.6,2.6,0,0,0,.7-2.332,5.874,5.874,0,0,0-.165-1.886,34.726,34.726,0,0,0-4.235-10.4,18.782,18.782,0,0,1-2.475-4.774c-.55-2-.181-4.136-.649-6.149a15.791,15.791,0,0,0-3.3-5.852l-10.824-14.152a7.7,7.7,0,0,0-1.732-1.815c-2.035-1.37-4.516-.55-6.567.314-2.387.99-3.465-.1-5.94,0a3.4,3.4,0,0,0-3.063,1.826A15.173,15.173,0,0,0,529.2,217c-.4,1.782-2.112,2.877-3.471,4.208a17.864,17.864,0,0,0-6.336,13.585,17.6,17.6,0,0,0,.473,4.037c-2.057,3.157-4.1,6.287-3.916,9.9a8.8,8.8,0,0,0,0,1.023c.044.693.176,1.391.225,2.079a3.818,3.818,0,0,1-.11.7c-.622,2.3-3.328,3.3-5.55,4.356a21.764,21.764,0,0,0-11.853,14.74c-1.875.885-3.619,1.716-5.1,2.442l.369-.325-4.043-2.057s-1.831,6.171-4.279,7.64a1.259,1.259,0,0,0-.478,1.49c-.38,1.26,1.276,3.614,2.75,5.374-1.65,3.2-3.13,6.6-3.482,9.29-.919,7.051-4.587,17.919-4.587,17.919s-7.029,11.16,0,23.2,18.645,4.994,18.645,4.994-.963,5.539-1.98,11c-1.1,5.154-1.925,9.51-1.925,9.51h0c-1.1,5.588-1.909,15.356-1.909,15.356s-3.361,41.124-5.2,43.769c-.643.93,3.916,3.7,12.546,6.3q.225.742.467,1.562c1.953,6.749,4.4,17.4,3.647,26.208,0,0,.61,4.7-1.221,14.1s-2.14,36.421,2.14,49.055v11.847c-.742.418-1.474,1.8-.765,6.05l.919,4.114s-3.058-5.583-7.029,4.4,10.4,17.6,17.116,18.211a16.848,16.848,0,0,0,4.158-.088,3.5,3.5,0,0,0,2.756-4.642l-.55-1.441s2.75-8.8-.308-12.337c0,0,3.977-12.045,1.832-13.514,0,0-.5-.066-1.458.753-.039-.2-.083-.451-.132-.765-.423-2.524-1.2-8.421.215-11.149,1.832-3.526,3.36-23.2,3.36-23.2l.611-22.033,3.361-12.348s2.14-7.931,1.221-14.394c-.55-3.949.363-9.9,1.166-13.882.1-.517.2-1,.3-1.446,2.943.137,6,.2,9.174.165.1.457.2.946.3,1.469h.154c.792,4,1.677,9.807,1.128,13.7-.919,6.463,1.221,14.394,1.221,14.394l3.361,12.337.611,22.033s1.529,19.679,3.361,23.2c1.441,2.75.616,8.8.2,11.27l-.044.253c-.05.275-.088.484-.115.622-1.128-1.062-1.716-.984-1.716-.984-2.14,1.469,1.831,13.514,1.831,13.514-3.058,3.526-.308,12.337-.308,12.337l-.55,1.441a3.5,3.5,0,0,0,2.8,4.642,16.846,16.846,0,0,0,4.158.088c6.727-.589,21.093-8.25,17.116-18.211s-7.029-4.4-7.029-4.4l.919-4.114c.61-3.674.154-5.214-.457-5.836v-12.1c4.279-12.65,3.977-39.655,2.14-49.055s-1.221-14.1-1.221-14.1c-.687-7.931,1.238-17.347,3.053-24.068.148-.55.3-1.1.445-1.611q4.95-.946,10.1-2.2s-3.669-20.856,0-27.61c2.943-5.418-7.282-36.13-11.451-48.1h0l-1.034-4.516c2.3.858,10.593,3.3,17.105-3.481,1.76-1.826,3.13-3.339,4.2-4.587A10.664,10.664,0,0,0,593.274,328.677Zm-23.892,18.359-.055-.154.121.055Z" transform="translate(-245.634 -111.357)" fill="url(#linear-gradient)"/>
    <path id="Path_458" data-name="Path 458" d="M550.615,607.168c-.77,4-1.65,9.9-1.1,13.838.88,6.441-1.172,14.35-1.172,14.35l-3.223,12.3-.583,21.962s-1.463,19.619-3.223,23.133c-1.364,2.723-.616,8.6-.209,11.116.115.737.209,1.183.209,1.183-2.343,17.567-16.1,1.171-16.1,1.171V691.28c-4.1-12.59-3.806-39.529-2.052-48.9s1.172-14.053,1.172-14.053c.732-8.8-1.65-19.4-3.492-26.125-1.1-4.037-2.068-6.672-2.068-6.672l32.8,7.32S551.1,604.627,550.615,607.168Z" transform="translate(-264.57 -284.087)" fill="#636e7e"/>
    <path id="Path_459" data-name="Path 459" d="M546.554,792.19c-2.343,17.567-16.1,1.172-16.1,1.172v-4a1.254,1.254,0,0,1,1.023-.094,4.583,4.583,0,0,0,1.843,5.208,8.079,8.079,0,0,0,11.55-1.755,11.35,11.35,0,0,1,1.458-1.71C546.461,791.745,546.554,792.19,546.554,792.19Z" transform="translate(-269.826 -371.236)" opacity="0.1"/>
    <path id="Path_460" data-name="Path 460" d="M626.944,789.452v3.905s-13.75,16.4-16.1-1.172c0,0,.077-.4.193-1.062a12.048,12.048,0,0,1,1.326,1.589,8.08,8.08,0,0,0,11.55,1.755,4.6,4.6,0,0,0,1.843-5.208A1.248,1.248,0,0,1,626.944,789.452Z" transform="translate(-306.001 -371.232)" opacity="0.1"/>
    <path id="Path_461" data-name="Path 461" d="M525.551,790.864s-2.926-1.172-1.755,6.149l.88,4.1s-2.926-5.566-6.732,4.4,9.955,17.567,16.4,18.15a15.515,15.515,0,0,0,3.982-.088A3.492,3.492,0,0,0,541,818.958l-.511-1.436s2.634-8.8-.292-12.3c0,0,3.806-12.007,1.755-13.47,0,0-1.028-.149-2.981,2.579a8.08,8.08,0,0,1-11.55,1.755A4.6,4.6,0,0,1,525.551,790.864Z" transform="translate(-263.904 -371.956)" fill="#63667e"/>
    <path id="Path_462" data-name="Path 462" d="M622.313,604.331c-1.738,6.7-3.581,16.088-2.921,23.991,0,0-.583,4.686,1.172,14.053s2.052,36.3-2.052,48.9v14.933s-13.75,16.4-16.1-1.172c0,0,.061-.3.149-.808l.044-.253c.4-2.448,1.193-8.47-.193-11.237-1.755-3.514-3.223-23.133-3.223-23.133l-.583-21.962-3.223-12.3s-2.052-7.9-1.172-14.35c.55-3.85-.325-9.658-1.1-13.651-.506-2.646-.968-4.5-.968-4.5l32.8-7.32S623.683,599.117,622.313,604.331Z" transform="translate(-297.586 -284.083)" fill="#636e7e"/>
    <path id="Path_463" data-name="Path 463" d="M626.944,789.994v3.614s-13.75,16.4-16.1-1.172c0,0,.061-.3.148-.808a11.978,11.978,0,0,1,1.37,1.65,8.08,8.08,0,0,0,11.55,1.755,4.6,4.6,0,0,0,1.843-5.208,1.248,1.248,0,0,1,1.193.17Z" transform="translate(-306.001 -371.482)" opacity="0.1"/>
    <path id="Path_464" data-name="Path 464" d="M623.8,790.864s2.926-1.172,1.755,6.149l-.88,4.1s2.926-5.566,6.732,4.4-9.955,17.567-16.4,18.15a15.516,15.516,0,0,1-3.982-.088,3.492,3.492,0,0,1-2.678-4.625l.511-1.435s-2.635-8.8.292-12.3c0,0-3.806-12.007-1.755-13.47,0,0,1.029-.149,2.981,2.579a8.08,8.08,0,0,0,11.55,1.755C623.535,794.813,624.509,793.108,623.8,790.864Z" transform="translate(-304.181 -371.956)" fill="#63667e"/>
    <path id="Path_465" data-name="Path 465" d="M518.74,595.54l32.8,7.321s-.44,1.771-.93,4.317a125.96,125.96,0,0,1-29.794-4.95C519.686,598.174,518.74,595.54,518.74,595.54Z" transform="translate(-264.556 -284.092)" opacity="0.1"/>
    <path id="Path_466" data-name="Path 466" d="M624.731,595.54s-1.287,3.586-2.64,8.8a162.471,162.471,0,0,1-29.183,3c-.506-2.646-.968-4.5-.968-4.5Z" transform="translate(-297.496 -284.092)" opacity="0.1"/>
    <path id="Path_467" data-name="Path 467" d="M497.527,330.95s-8.2,12.007-9.075,19.03-4.4,17.859-4.4,17.859-6.732,11.127,0,23.133,17.875,4.983,17.875,4.983-2.343,14.053-3.515,19.327-2.052,16.4-2.052,16.4-3.223,40.992-4.978,43.626,36.894,20.2,91.064,6.149c0,0-3.515-20.79,0-27.5s-12.59-52.707-12.59-52.707,9.664,4.686,16.984-3.223c1.683-1.82,3-3.328,4.021-4.576A10.967,10.967,0,0,0,592.8,383.1c-2.6-8-7.342-23.381-7.15-28.7.292-7.321-10.835-20.5-10.835-20.5Z" transform="translate(-247.6 -165.027)" fill="#e29d9d"/>
    <path id="Path_468" data-name="Path 468" d="M546.4,310.335a37.95,37.95,0,0,0-27.5,2.046c-7.766,3.7-16.1,7.777-17.166,8.69a1.908,1.908,0,0,0,0,3.223l23.133,2.635h45.969l17.567-1.463s-16.1-10.247-24.3-10.835C560.216,314.35,552.956,312.354,546.4,310.335Z" transform="translate(-256.493 -155)" fill="#f1c0c0"/>
    <path id="Path_469" data-name="Path 469" d="M639.771,420.151l-2.052-9.075a88.451,88.451,0,0,1,3.223-16.984c2.635-8.8-.583-21.082-.583-21.082" transform="translate(-318.097 -183.954)" opacity="0.1"/>
    <path id="Path_470" data-name="Path 470" d="M518.362,373s-1.755,6.732,0,10.544,0,12.007,0,12.007-.583,13.47.88,17.859" transform="translate(-264.035 -183.949)" opacity="0.1"/>
    <path id="Path_471" data-name="Path 471" d="M530.528,392.7s-3.806,9.955-5.566,12.3-3.806,12.3-5.858,14.35-6.375,25.982-6.375,25.982,11.935,9.158,17.793,16.77,37.186-2.052,37.186-2.052,2.343-11.127,6.149-12.881c1.369-.633,1.523-1.414,1.166-2.161a34.067,34.067,0,0,1-3.339-12.139c-.885-11.143-3.635-28.991-12.172-36.944Z" transform="translate(-261.852 -192.814)" opacity="0.1"/>
    <path id="Path_472" data-name="Path 472" d="M530,390.58s-3.806,9.955-5.566,12.3-3.806,12.3-5.858,14.35S512.2,443.21,512.2,443.21s11.935,9.158,17.793,16.77,37.191-2.068,37.191-2.068,2.343-11.127,6.149-12.881c1.37-.633,1.523-1.413,1.166-2.161a34.065,34.065,0,0,1-3.339-12.139c-.885-11.143-3.635-28.991-12.172-36.944Z" transform="translate(-261.613 -191.86)" fill="#f30075"/>
    <circle id="Ellipse_129" data-name="Ellipse 129" cx="5.269" cy="5.269" r="5.269" transform="translate(275.26 252.449)" opacity="0.1"/>
    <path id="Path_473" data-name="Path 473" d="M554.857,395.37s-7.321,8.8-2.926,15.813l2.051.88s1.172-15.224,2.635-16.1Z" transform="translate(-278.86 -194.016)" opacity="0.1"/>
    <path id="Path_474" data-name="Path 474" d="M569.2,395.37s-2.052,16.1-.583,17.567c0,0,5.566,1.172,6.149-.88,0,0-3.223-13.75-2.343-15.521Z" transform="translate(-286.762 -194.016)" opacity="0.1"/>
    <path id="Path_475" data-name="Path 475" d="M582.89,397.76s2.343,12.007,4.4,9.955-1.463-9.955-1.463-9.955Z" transform="translate(-293.424 -195.091)" opacity="0.1"/>
    <path id="Path_476" data-name="Path 476" d="M526.4,365.3s17.567,3.515,26.95.583,33.385-27.143,33.385-27.143l1.755-5.071s-2.953-5.269-2.359-7.31-4.1,2.343-4.1,2.343l.808,2.4s-75.768,4.334-83.381-.644l4.752-4.4-3.85-2.052s-1.755,6.149-4.1,7.612,4.1,8.2,4.1,8.2S517.621,364.155,526.4,365.3Z" transform="translate(-254.214 -161.904)" opacity="0.1"/>
    <path id="Path_477" data-name="Path 477" d="M526.418,363.705s17.567,3.515,26.95.583,33.385-27.143,33.385-27.143l1.755-5.071s-2.926-5.269-2.343-7.321-4.1,2.343-4.1,2.343l.808,2.4s-75.768,4.334-83.381-.644l4.752-4.4L500.4,322.4s-1.755,6.149-4.1,7.612,4.1,8.2,4.1,8.2S517.635,362.534,526.418,363.705Z" transform="translate(-254.228 -161.18)" fill="#e29d9d"/>
    <path id="Path_478" data-name="Path 478" d="M506.76,341.463s3.223-1.172,11.418,1.172,18.15,0,18.15,0,44.215-.88,47.729-.292,9.35-2.343,9.35-2.343" transform="translate(-259.165 -169.1)" opacity="0.1"/>
    <path id="Path_479" data-name="Path 479" d="M619.09,403.35s4.977,33.963,13.2,43.923C632.241,447.273,621.725,411.842,619.09,403.35Z" transform="translate(-309.714 -197.607)" opacity="0.1"/>
    <circle id="Ellipse_130" data-name="Ellipse 130" cx="18.156" cy="18.156" r="18.156" transform="translate(274.38 106.336)" fill="#765656"/>
    <path id="Path_480" data-name="Path 480" d="M551.592,216.367a3.258,3.258,0,0,0-2.937,1.82,15.841,15.841,0,0,0-.358,2.442c-.55,2.415-3.366,3.57-4.521,5.753s-.44,4.664-.611,7.04c-.484,6.886-8,12.062-7.552,18.953a11.63,11.63,0,0,1,.1,3.647c-.594,2.294-3.19,3.3-5.313,4.345A21.505,21.505,0,0,0,518.8,276.549a8.4,8.4,0,0,0,.55,4.95,3.972,3.972,0,0,0,4.131,2.255c2.453-.55,3.3-3.779,5.5-5.016,1,1.5.605,3.5,1.1,5.231.55,1.831,2.486,3.328,4.345,2.866s2.717-3.3,1.15-4.4c2.046.248,3.393,2.332,3.823,4.351s.237,4.13.715,6.138a9.686,9.686,0,0,0,9.9,7.15,5.539,5.539,0,0,1,1.925,0,5.3,5.3,0,0,1,1.65.968,11.214,11.214,0,0,0,7.958,2.035,2.651,2.651,0,0,1,2.255-2.013,7.782,7.782,0,0,1,3.19.335l4.9,1.215c1.425.352,3.261.55,4.065-.665.594-.913.258-2.156.677-3.163.682-1.65,2.909-1.881,4.691-1.722s3.9.3,5.01-1.1.363-3.663-.654-5.247-2.294-3.3-1.936-5.154c.5-2.607,3.768-3.559,5.324-5.7,1.65-2.244,1.1-5.429-.187-7.893s-3.19-4.565-4.351-7.084a1.815,1.815,0,0,1-.143-1.65,3.872,3.872,0,0,1,.957-.809c.885-.781.765-2.2.512-3.328a35.426,35.426,0,0,0-4.1-10.4,19.046,19.046,0,0,1-2.371-4.758c-.506-2-.176-4.12-.622-6.133a16.039,16.039,0,0,0-3.151-5.836l-10.367-14.108a7.582,7.582,0,0,0-1.65-1.809c-1.953-1.364-4.323-.55-6.287.308C555,217.346,553.968,216.246,551.592,216.367Z" transform="translate(-264.524 -112.996)" opacity="0.1"/>
    <path id="Path_481" data-name="Path 481" d="M551.592,214.776a3.258,3.258,0,0,0-2.937,1.821,15.847,15.847,0,0,0-.358,2.442c-.55,2.414-3.366,3.57-4.521,5.753s-.44,4.664-.61,7.04c-.484,6.886-8,12.062-7.552,18.953a11.632,11.632,0,0,1,.1,3.646c-.594,2.294-3.19,3.3-5.313,4.345A21.505,21.505,0,0,0,518.8,274.936a8.4,8.4,0,0,0,.55,4.95,3.972,3.972,0,0,0,4.131,2.255c2.453-.55,3.3-3.779,5.5-5.016,1,1.5.6,3.5,1.1,5.231.55,1.831,2.486,3.327,4.345,2.866s2.717-3.3,1.15-4.4c2.046.247,3.394,2.332,3.823,4.351s.236,4.131.715,6.138a9.685,9.685,0,0,0,9.9,7.15,5.538,5.538,0,0,1,1.925,0,5.3,5.3,0,0,1,1.65.968,11.215,11.215,0,0,0,7.959,2.035,2.651,2.651,0,0,1,2.255-2.013,7.783,7.783,0,0,1,3.19.335l4.9,1.216c1.424.352,3.261.55,4.065-.665.594-.913.259-2.156.676-3.163.682-1.65,2.91-1.881,4.692-1.722s3.905.3,5.011-1.1.363-3.663-.655-5.247-2.294-3.3-1.936-5.154c.5-2.607,3.767-3.559,5.324-5.7,1.65-2.244,1.1-5.428-.187-7.893s-3.19-4.565-4.35-7.084a1.815,1.815,0,0,1-.143-1.65,3.872,3.872,0,0,1,.957-.809c.886-.781.765-2.2.511-3.328a35.422,35.422,0,0,0-4.053-10.368,19.044,19.044,0,0,1-2.37-4.758c-.506-2-.176-4.12-.622-6.133a16.039,16.039,0,0,0-3.152-5.836l-10.368-14.108a7.579,7.579,0,0,0-1.65-1.81c-1.953-1.364-4.323-.55-6.287.308C555,215.761,553.968,214.672,551.592,214.776Z" transform="translate(-264.524 -112.285)" fill="#896363"/>
    <path id="Path_482" data-name="Path 482" d="M546.957,293.42s-7.9,1.172-10.835,8.2-6.732,8.492-6.732,8.492" transform="translate(-269.349 -148.139)" opacity="0.1"/>
    <path id="Path_483" data-name="Path 483" d="M578.254,231.13s4.4,9.955.292,16.693-1.755,19.03-1.755,19.03" transform="translate(-290.377 -120.108)" opacity="0.1"/>
    <path id="Path_484" data-name="Path 484" d="M571.468,317.759s-4.4-1.754-2.635,5.566a21.091,21.091,0,0,1-.583,12.59" transform="translate(-286.836 -159.008)" opacity="0.1"/>
    <path id="Path_485" data-name="Path 485" d="M592.738,315.779s-7.9-.3-5.126,9.955-.732,15.23-.732,15.23" transform="translate(-295.219 -158.2)" opacity="0.1"/>
    <path id="Path_486" data-name="Path 486" d="M597.53,227.4s7.612,7.9,7.029,12.881-.291,22.55,0,23.425" transform="translate(-300.012 -118.43)" opacity="0.1"/>
    <path id="Path_487" data-name="Path 487" d="M615.63,317.37s5.269,5.566,4.4,10.247,0,14.053,0,14.053" transform="translate(-308.156 -158.916)" opacity="0.1"/>
    <path id="Path_488" data-name="Path 488" d="M625.74,272.12s3.806,7.029,2.926,13.2" transform="translate(-312.706 -138.554)" opacity="0.1"/>
    <path id="Path_489" data-name="Path 489" d="M531.89,421.13s12.1,24.332,43.131,2.376" transform="translate(-270.474 -205.608)" fill="none" stroke="#000" stroke-miterlimit="10" stroke-width="2" opacity="0.1"/>
    <path id="Path_490" data-name="Path 490" d="M625.74,485.6" transform="translate(-312.706 -234.619)" fill="none" stroke="#000" stroke-miterlimit="10" stroke-width="2"/>
    <path id="Path_491" data-name="Path 491" d="M568.61,443.874l9.955-15.224,1.182,5.2-11,11.231" transform="translate(-255.867 -192.893)" fill="#636e7e"/>
    <path id="Path_492" data-name="Path 492" d="M580,536.71s9.35,22.55,0,41.861" transform="translate(-292.123 -257.618)" opacity="0.1"/>
    <rect id="Rectangle_169" data-name="Rectangle 169" width="31.35" height="8.8" transform="translate(374.007 315.953)" fill="#a1a3b2"/>
  </g>
</svg>
