<svg xmlns="http://www.w3.org/2000/svg" xmlns:xlink="http://www.w3.org/1999/xlink" width="408.839" height="385.094" viewBox="0 0 408.839 385.094"><defs><linearGradient id="a" x1="0.5" y1="1" x2="0.5" gradientUnits="objectBoundingBox"><stop offset="0" stop-color="gray" stop-opacity="0.251"/><stop offset="0.54" stop-color="gray" stop-opacity="0.122"/><stop offset="1" stop-color="gray" stop-opacity="0.102"/></linearGradient><linearGradient id="b" x1="0.5" y1="1.001" x2="0.5" y2="0" xlink:href="#a"/><radialGradient id="c" cx="0.5" cy="0.499" r="0.526" gradientTransform="matrix(-0.907, 0, 0, 1, 0.954, 0)" gradientUnits="objectBoundingBox"><stop offset="0" stop-color="#fff"/><stop offset="1"/></radialGradient><radialGradient id="d" cx="0.5" cy="0.499" r="0.526" gradientTransform="translate(-119.921) scale(0.907 1)" xlink:href="#c"/></defs><g transform="translate(0)"><path d="M452.143,58.592C438.273,46.246,416.5,43.715,396.68,44.7c-62.248,3.091-118.437,33.144-167.066,67.139-17.6,12.3-34.92,25.566-46.34,42.513-23.268,34.493-16.354,82.282,15.974,110.7,11,9.668,24.336,17.095,38.026,23.652,24.341,11.686,50.6,21.064,78.226,23.742,19.7,1.9,39.645.356,59.228-2.3,54.745-7.427,108.455-23.837,153.471-51.915,19.749-12.313,38.358-27.622,46.5-47.542s2.93-45.163-17.232-56.953c-8.338-4.877-18.31-7.08-28.068-9.146-14.369-3.044-28.966-6.045-41.934-12.237-13.391-6.391-29.246-18.752-26.591-32.9C463.715,84.272,465.994,70.938,452.143,58.592Z" transform="translate(-169.535 -44.507)" fill="#f30075" opacity="0.1"/><path d="M644.13,191.632s5.024-2.037,21.007,5.29,17.978,6.4,22.114,5.3,6.444-1.387,10.879-7.507c0,0,3.129-16.957,6.173-19.588s15.893,1.5,15.893,1.5,15.428,3.538,18.367-17.095c0,0-2.085-15.537.755-20.3,0,0-5.736,2.469-15.2-1.52s-17.033,4.3-17.033,4.3-2.374,6.173-2.137,9.858-1.263,5.067-5.774,3.286c0,0-2.217-3.153.921-8.367s5.38-9.093,4.506-13.139-3.4-9.663-11.491-12.47-19.089-3.324-24.365-5.541S662.174,112,662.174,112s3.248,3.253-4.4,17.047S655,148.824,655,148.824s4.069,9.7,22.038,8.913c0,0,17.313.632,7.873,7.973,0,0-6.045-1.23-15.081-4.1s-15.561,8.984-17.18,17.232S644.13,191.632,644.13,191.632Z" transform="translate(-555.839 -79.951)" fill="#f30075"/><path d="M767,133.968l-.1-.028c-.693,2.631,7.042,13.21,13.656,21.62l.076-.062C771.31,143.655,766.462,136.006,767,133.968Z" transform="translate(-655.436 -91.473)" fill="#444053"/><path d="M727.483,179l-.043.1c5.285,6.714,11.928,14.72,17.246,20.67.508.565,1.011,1.159,1.5,1.766l.152-.123c-.475-.608-.992-1.206-1.5-1.771C739.52,193.72,732.773,185.719,727.483,179Z" transform="translate(-602.415 -115.136)" fill="#444053"/><path d="M701.954,225.89l-.1.18c9.677,12.085,10.318,30.865,10.342,31.012l2.042-2.374C714.21,254.557,711.7,238.06,701.954,225.89Z" transform="translate(-558.164 -139.76)" fill="#444053"/><path d="M662.33,222.081s11.4-5.936,20.3-3.8,28.942-7.55,28.942-7.55,8.5-3.452,10.209-7.389c0,0,5.836-6.173,6.173-9.359s6.011-11.216,9.715-11.525" transform="translate(-562.838 -116.953)" fill="none" stroke="#444053" stroke-miterlimit="10" stroke-width="1"/><path d="M806.666,268.656s5.746-3.875,5.076-8.386" transform="translate(-705.497 -157.815)" fill="none" stroke="#444053" stroke-miterlimit="10" stroke-width="1"/><path d="M779.91,272.222s8.22-2.982,9.022-14.682" transform="translate(-669.929 -156.381)" fill="none" stroke="#444053" stroke-miterlimit="10" stroke-width="1"/><path d="M758.833,275.042a18.391,18.391,0,0,0,5.247-17.9" transform="translate(-635.599 -156.171)" fill="none" stroke="#444053" stroke-miterlimit="10" stroke-width="1"/><path d="M732.142,268.116s5.223-10.969.575-18.106" transform="translate(-592.957 -152.427)" fill="none" stroke="#444053" stroke-miterlimit="10" stroke-width="1"/><path d="M811.024,250.67s5.94,1.9,4.668,5.014" transform="translate(-711.641 -152.774)" fill="none" stroke="#444053" stroke-miterlimit="10" stroke-width="1"/><path d="M788.99,228s7.954,2.521,8.139,13.771" transform="translate(-682.437 -140.869)" fill="none" stroke="#444053" stroke-miterlimit="10" stroke-width="1"/><path d="M768.581,222.48s7.241,8.937,6.71,17.057" transform="translate(-650.936 -137.97)" fill="none" stroke="#444053" stroke-miterlimit="10" stroke-width="1"/><path d="M742.69,229.86s7.189,6.876,6.273,10.7" transform="translate(-612.366 -141.845)" fill="none" stroke="#444053" stroke-miterlimit="10" stroke-width="1"/><path d="M730.75,223.637s6.743,1.206,7.688-1.007" transform="translate(-596.091 -138.048)" fill="none" stroke="#444053" stroke-miterlimit="10" stroke-width="1"/><path d="M732.764,207.61s-3.4,4.511-4.274,3.5" transform="translate(-589.343 -130.161)" fill="none" stroke="#444053" stroke-miterlimit="10" stroke-width="1"/><path d="M755.71,197.294s17,1.235,20.846-3.894" transform="translate(-646.061 -122.698)" fill="none" stroke="#444053" stroke-miterlimit="10" stroke-width="1"/><path d="M734.771,159.73S726.8,176.848,721,179.028" transform="translate(-587.794 -105.016)" fill="none" stroke="#444053" stroke-miterlimit="10" stroke-width="1"/><path d="M749.544,142.56s-4.9,15.746-10.964,20.661" transform="translate(-610.915 -96)" fill="none" stroke="#444053" stroke-miterlimit="10" stroke-width="1"/><path d="M771.11,174.156s12.925,5.546,20.684-.066" transform="translate(-668.612 -112.558)" fill="none" stroke="#444053" stroke-miterlimit="10" stroke-width="0.75"/><path d="M769.753,135.49s-2.953,11.572-6.933,14.369" transform="translate(-642.634 -92.287)" fill="none" stroke="#444053" stroke-miterlimit="10" stroke-width="0.75"/><path d="M789.56,146.92s7.265,2.754,9.972.646" transform="translate(-685.111 -98.289)" fill="none" stroke="#444053" stroke-miterlimit="10" stroke-width="0.75"/><path d="M709.6,215.57s0,10.091,2.745,10.808" transform="translate(-559.954 -134.341)" fill="none" stroke="#444053" stroke-miterlimit="10" stroke-width="1"/><path d="M684.031,237.906s-10.921.95-15.941-4.7" transform="translate(-511.93 -143.605)" fill="none" stroke="#444053" stroke-miterlimit="10" stroke-width="1"/><path d="M688.56,190.47s2.64,10.233,9.924,12.992" transform="translate(-536.103 -121.16)" fill="none" stroke="#444053" stroke-miterlimit="10" stroke-width="1"/><path d="M668.674,215.81a14.29,14.29,0,0,1-14.364-4.15" transform="translate(-490.03 -132.288)" fill="none" stroke="#444053" stroke-miterlimit="10" stroke-width="1"/><path d="M679.89,171.94s.727,8.69,5.451,12.759" transform="translate(-518.843 -111.429)" fill="none" stroke="#444053" stroke-miterlimit="10" stroke-width="1"/><path d="M662.836,190.247s-6.406.043-7.906-2.047" transform="translate(-484.486 -119.967)" fill="none" stroke="#444053" stroke-miterlimit="10" stroke-width="1"/><ellipse cx="178.543" cy="34.664" rx="178.543" ry="34.664" transform="translate(28.73 315.766)" fill="#f30075" opacity="0.1"/><path d="M428.83,434.715l.052,1.847,3.21,113.261h5.394l-2.64-113.261-.052-2.132Z" transform="translate(-232.279 -228.145)" fill="#504f60"/><path d="M428.83,434.715l.052,1.847,3.21,113.261h5.394l-2.64-113.261-.052-2.132Z" transform="translate(-232.279 -228.145)" opacity="0.1"/><path d="M371.14,631.124l4.036-.01,60.04-.128,3.2,0-1.7-5.252H371.563Z" transform="translate(-205.815 -328.607)" fill="#504f60"/><path d="M434.39,434.715l.052,1.847h5.964l-.052-2.132Z" transform="translate(-237.839 -228.145)" opacity="0.1"/><rect width="10.005" height="3.766" transform="translate(194.281 203.802)" fill="#504f60"/><path d="M371.14,625.73l.532,5.257,3.2,0-1.7-5.252Z" transform="translate(-142.271 -328.607)" opacity="0.1"/><path d="M355.9,429.05l.161,1.633,13.32,131.362,6.1-.29L361.451,430.683l-.157-1.491Z" transform="translate(-135.644 -225.32)" fill="#504f60"/><path d="M503.16,631.124l4.036-.01.551-5.385h-4.164Z" transform="translate(-337.835 -328.607)" opacity="0.1"/><path d="M485.02,561.756l6.107.29,13.315-131.362.166-1.633-5.394.142-.157,1.491Z" transform="translate(-326.082 -225.32)" fill="#504f60"/><rect width="134.553" height="129.016" transform="translate(132.964 74.216)" fill="#fff"/><rect width="134.553" height="129.016" transform="translate(132.964 74.216)" fill="#fff"/><path d="M603.3,106.912v31.15h5.247v-31.15a2.626,2.626,0,1,0-5.247,0Z" transform="translate(-405.678 -75.841)" fill="#504f60"/><rect width="5.252" height="2.835" transform="translate(197.615 59.386)" opacity="0.1"/><path d="M599,172.637v10.29h9.35v-10.29a1.277,1.277,0,0,0-1.277-1.277h-6.8A1.282,1.282,0,0,0,599,172.637Z" transform="translate(-403.441 -111.124)" fill="#504f60"/><ellipse cx="1.985" cy="1.985" rx="1.985" ry="1.985" transform="translate(198.256 64.78)" opacity="0.1"/><ellipse cx="1.985" cy="1.985" rx="1.985" ry="1.985" transform="translate(198.256 64.353)" fill="#3f3d56"/><rect width="9.369" height="1.277" transform="translate(195.554 70.526)" opacity="0.1"/><rect width="17.033" height="2.84" transform="translate(191.727 72.231)" opacity="0.1"/><rect width="17.033" height="2.84" transform="translate(191.727 71.376)" fill="#504f60"/><path d="M434.852,421H363.317a3.087,3.087,0,0,0-3.087,3.087v.674h77.709v-.674A3.087,3.087,0,0,0,434.852,421Z" transform="translate(-200.157 -221.092)" opacity="0.1"/><path d="M390.844,429.192l-5.394-.142.161,1.633H391Z" transform="translate(-165.195 -225.32)" opacity="0.1"/><rect width="10.005" height="1.562" transform="translate(194.281 203.802)" opacity="0.1"/><path d="M485.02,430.683H490.4l.166-1.633-5.394.142Z" transform="translate(-312.045 -225.32)" opacity="0.1"/><path d="M434.852,422.77H363.317a3.087,3.087,0,0,0-3.087,3.086v.674h77.709v-.674a3.086,3.086,0,0,0-3.086-3.086Z" transform="translate(-200.157 -222.022)" fill="#504f60"/><path d="M562.575,222.5c-4.169-5.266-10.708-6.334-16.662-5.917-18.7,1.315-35.58,14.112-50.182,28.586-5.285,5.223-10.489,10.884-13.923,18.1-6.985,14.687-4.91,35.034,4.8,47.133a51.431,51.431,0,0,0,11.425,10.072c7.308,4.976,15.2,8.965,23.5,10.1a54.893,54.893,0,0,0,17.793-.978c16.434-3.163,32.57-10.148,46.093-22.1,5.936-5.223,11.525-11.757,13.97-20.238s.878-19.231-5.176-24.251c-2.507-2.08-5.5-3.015-8.433-3.9-4.316-1.292-8.7-2.574-12.6-5.223-4.022-2.726-8.785-7.987-7.987-14.013C566.051,233.427,566.734,227.753,562.575,222.5Z" transform="translate(-337.979 -134.828)" fill="#f30075" opacity="0.05"/><path d="M311.106,247.742l38.838,10.3,1.391,4.7a17.746,17.746,0,0,0,4.858-1.216c.75-.313,3.324-1.9,5.47-2.773a6.933,6.933,0,0,0-.864-3.22c-2-3.542-4.877-6.928-4.777-10.964a28.994,28.994,0,0,1,.684-4.274,41.791,41.791,0,0,0,.389-7.75c0-1.358-.033-2.711-.047-4.065-.218.081-.442.161-.679.233-.347.109-.655.214-.95.323v.076a2.763,2.763,0,0,1,.095.684c-3.6,1.387-3.324,2.735-3.324,2.735l-.342.071a8.722,8.722,0,0,1,.413-5.7l.19-.038a6.743,6.743,0,0,1,3.433-3.4c.385-.185.746-.375,1.083-.565q-.052-4.4-.095-8.8a9.856,9.856,0,0,1,.261-2.963,13.007,13.007,0,0,1,1.529-2.878c.57-.95,1.087-1.9,1.686-2.849a12.649,12.649,0,0,0-1.733-1.5c-.351-.256-.712-.5-1.073-.75l-.546-.375c-.546-.375-1.087-.755-1.6-1.163a10.371,10.371,0,0,1-1.4-1.339,7.431,7.431,0,0,1-.594-.817l-.095-.142a7.937,7.937,0,0,1-.475-.841c-.028-.052-.047-.1-.071-.157a9.434,9.434,0,0,1-.356-.921h0a9.955,9.955,0,0,1-.261-.983.892.892,0,0,0-.024-.109c-.066-.332-.119-.669-.161-1.007V195.2a16.9,16.9,0,0,1,0-3.324h0c.052-.56.119-1.121.209-1.667.565-3.481,1.686-6.933,1.425-10.447a3.574,3.574,0,0,0-.052-.446h0a34.952,34.952,0,0,0-1.69-6.7c-.057-.19-.119-.375-.176-.565-.029-.085-.052-.171-.081-.256-.086-.28-.166-.56-.247-.841v-.038a14.971,14.971,0,0,1-.693-6.372h0a9.249,9.249,0,0,1,.3-1.353c.926-2.9,3.324-5.1,5.7-7.066,4.2-3.5,8.675-6.824,13.8-8.823a24.141,24.141,0,0,1,14.131-1.173c4.8,1.059,9.5.784,14.2,2.783,1.577.674,3.215,1.61,3.837,3.181a10.768,10.768,0,0,1,.408,3.129,10.85,10.85,0,0,0,3.082,6.686c1.277,1.287,2.849,2.246,4.112,3.561a8.957,8.957,0,0,1,2.246,4.274h0a7.85,7.85,0,0,1,.138,2.4v.024a2.877,2.877,0,0,1-.081.532v.066c-.033.171-.076.337-.119.5a.555.555,0,0,0,0,.085c-.047.161-.1.323-.166.475l-.029.095a5.828,5.828,0,0,1-.252.556c-.475.916-1.125,1.724-1.619,2.621-.119.218-.228.437-.323.66a11.565,11.565,0,0,0-.793,2.825c-.076.475-.133.978-.18,1.467-.024.247-.043.475-.062.736a51.938,51.938,0,0,0,.28,10.271c.1.841.228,1.69.313,2.536h0a4.035,4.035,0,0,0,.038.413,5.324,5.324,0,0,1,3.025,2.778,10.062,10.062,0,0,1,.432,3.438,9,9,0,0,0,1.382,4.934,3.933,3.933,0,0,1,2.018,3.219,19.31,19.31,0,0,1,.252,3.267c0,1.372-.038,2.773-.147,4.164h0c.09.166.176.342.256.522a.093.093,0,0,0,.038.09c.066.157.128.313.19.475,0,.029.024.057.033.09.071.185.133.375.195.565h0c.057.18.109.366.157.551l.029.119c.043.166.081.328.119.475v.066c.038.18.071.356.1.527a.8.8,0,0,0,0,.1,2.549,2.549,0,0,0,.062.389v.123c.024.152.038.3.052.437a2.357,2.357,0,0,0,.029.337,7.444,7.444,0,0,0,.394,2.336,8.064,8.064,0,0,0,.522.978c.062.109.123.218.176.328a5.585,5.585,0,0,1,.475,1.482,7.065,7.065,0,0,1,.109.774c.047.522.057,1.059.052,1.591v2.407a16.219,16.219,0,0,0,.228,1.785q.081.442.171.883c.062.294.128.589.195.883q.4,1.823.8,3.652c.271,1.216.541,2.431.822,3.642.56,2.431,1.14,4.853,1.766,7.265a18.54,18.54,0,0,1,.413,1.861,6.266,6.266,0,0,1,.043,1.857,3.706,3.706,0,0,1-.361,1.168c-.095.19-.214.375-.323.56a4.334,4.334,0,0,0-.3.57,8.684,8.684,0,0,0-.252,2.635,3.485,3.485,0,0,1-.166.86,2.773,2.773,0,0,1-2.374,1.771,2.3,2.3,0,0,1-.4,0l-.37.878a5.851,5.851,0,0,1-1.553,2.431,4.126,4.126,0,0,1-3.4.608,11.993,11.993,0,0,1-3.253-1.425c-2.455-1.368-4.915-2.74-7.336-4.169a5.3,5.3,0,0,0-1.111,1.657,1.52,1.52,0,0,0-.081.551,2.962,2.962,0,0,0,.337,1.064c.594,1.263,1.178,2.526,1.762,3.8,4.088,8.794,3.134,19.037,2.274,28.662-.37,4.069-1,8.106-1.339,12.175-.855,10.1,0,20.29-1.159,30.352-.632,5.423-1.861,10.76-2.7,16.145a113.753,113.753,0,0,0-1.311,14.863c-.475-.142-.926-.266-1.391-.38l-.508-.123c-.351-.081-.7-.147-1.054-.214s-.641-.109-.95-.157h0a32.387,32.387,0,0,0-6.51-.266l-.869.071c-.081.674-.161,1.33-.223,1.937a4.58,4.58,0,0,1-.047.475,86.767,86.767,0,0,1-1.14,8.652,7.018,7.018,0,0,0-.171,2.374,6.863,6.863,0,0,0,2.089,3.324c2.574,2.64,5.314,5.176,7.265,8.286,2.331,3.713,3.409,8.03,4.449,12.265a186.7,186.7,0,0,1,3.993,18.994,3.383,3.383,0,0,1,0,1.178.768.768,0,0,1,.047.085c1.073,1.795,2.574,3.371,3.238,5.38a13.805,13.805,0,0,1,.475,4.074q.062,3.561.133,7.123c.1,5.162.18,10.418-1.368,15.352a12.418,12.418,0,0,1-2.488,4.7,6.553,6.553,0,0,1-4.748,2.255,8.383,8.383,0,0,1-2.218-.38l-.361-.114a6.372,6.372,0,0,1-.161,3.186,2.237,2.237,0,0,1-.565.988,2.519,2.519,0,0,1-.826.475c-4.649,1.8-9.972.233-14.877,1.1-5.722,1-10.551,5.223-16.34,5.7a4.985,4.985,0,0,1-3.538-.765,3.642,3.642,0,0,1-1.144-3.49,4.02,4.02,0,0,1,.233-.764,4.948,4.948,0,0,1,3.913-2.944,18.434,18.434,0,0,0,12.954-8.362,23.032,23.032,0,0,0,3-12.906,69.4,69.4,0,0,0-2.142-13.234q-3.011-13.134-6.031-26.264a94.894,94.894,0,0,1-1.9-10.01c-.2-1.719-.3-3.452-.356-5.19-.147-.256-.29-.513-.432-.774a34.581,34.581,0,0,1-3.989-9.886,38.724,38.724,0,0,1-.475-5.641v-.475c-.024-.646-.047-1.3-.076-1.942a2.689,2.689,0,0,1-.475-.028c-5.489-.565-10.143-5.252-15.641-4.777-.475.394-.831-.361-1.111-.893-2.811-5.295-1.534-11.672-.437-17.541a223.766,223.766,0,0,0,3.775-48.121c-.209-6.961-.66-14.245.665-20.988l-35.884-11.871Zm18.434,9.022c0,.556.717,1.026,1.719,1.206a7.017,7.017,0,0,0-.076-1.268,1.653,1.653,0,0,1,.475-1.2c-1.206.1-2.127.627-2.127,1.254Zm3.884-1.125a1.686,1.686,0,0,1,.361,1.054,1.6,1.6,0,0,0,0,.774,1.592,1.592,0,0,1-.029.3c.612-.237,1.016-.6,1.016-1.011S334.25,255.862,333.424,255.638Zm75.263-11.767-.062.233h.442Zm-13.448,213.3a53.96,53.96,0,0,0,.746-11.658q-.038-4.82-.081-9.644a23.033,23.033,0,0,0-.256-3.922c-.123-.689-.309-1.372-.446-2.056a24.934,24.934,0,0,0-1.928-3.8v.047c.3,5.655,1.349,11.525.332,17.071a24.294,24.294,0,0,0,1.634,13.96ZM355.7,271.456c.123-.209.252-.408.38-.613-.722.214-1.425.423-2.17.627l.646,2.189C354.906,272.913,355.267,272.177,355.7,271.456Z" transform="translate(-82.455 -97.584)" fill="url(#a)"/><path d="M383.284,151.469c1.539.67,3.134,1.6,3.742,3.172a10.79,10.79,0,0,1,.394,3.11,10.893,10.893,0,0,0,3.006,6.648c1.244,1.282,2.792,2.241,4,3.547,2.2,2.374,3.1,6.078,1.667,8.984-.446.912-1.1,1.714-1.576,2.612a13.823,13.823,0,0,0-1.32,5.665,52.99,52.99,0,0,0,.266,10.228c.271,2.17.67,4.392.161,6.52A14.248,14.248,0,0,1,391.6,206.2c-2.327,3.656-5.029,7.184-8.623,9.611a26.215,26.215,0,0,1-12.64,4.05,67.586,67.586,0,0,1-13.386-.622c-3.324-.4-7.208-1.23-8.628-4.274-.788-1.7-.584-3.732-1.325-5.456-1.334-3.11-5.181-4.274-7.332-6.857-2.241-2.7-2.336-6.586-1.785-10.053s1.643-6.909,1.387-10.413c-.408-5.627-4.274-11.116-2.574-16.506.9-2.892,3.239-5.071,5.546-7.037,4.093-3.49,8.448-6.8,13.448-8.785a23.016,23.016,0,0,1,13.771-1.173C374.124,149.755,378.72,149.494,383.284,151.469Z" transform="translate(-67.123 -98.926)" fill="#2f2e41"/><g transform="translate(269.162 68.104)" opacity="0.08"><path d="M336.245,214.027a51.961,51.961,0,0,1,.1-5.371,13.858,13.858,0,0,1,1.32-5.665c.475-.9,1.13-1.7,1.577-2.607a6.58,6.58,0,0,0,.522-1.515,7.3,7.3,0,0,1-.522,4.72c-.446.912-1.1,1.714-1.577,2.612a13.822,13.822,0,0,0-1.32,5.665C336.273,212.584,336.245,213.305,336.245,214.027Z" transform="translate(-279.412 -193.675)"/><path d="M460.31,199.891a16.718,16.718,0,0,1-.047,2.759c-.522-5-3.552-9.9-2.825-14.72C457.954,191.862,460.025,195.841,460.31,199.891Z" transform="translate(-457.325 -187.93)"/><path d="M344.47,250.48c2.151,2.607,6,3.747,7.332,6.852.741,1.728.536,3.756,1.325,5.461,1.425,3.044,5.29,3.875,8.628,4.274a67.209,67.209,0,0,0,13.386.622,26.249,26.249,0,0,0,12.641-4.05c3.595-2.426,6.3-5.955,8.623-9.616a14.244,14.244,0,0,0,2.023-4.24,7.4,7.4,0,0,0,.147-.788,11.979,11.979,0,0,1-.147,3.993,14.246,14.246,0,0,1-2.023,4.245c-2.327,3.656-5.029,7.184-8.623,9.611a26.215,26.215,0,0,1-12.641,4.05,67.579,67.579,0,0,1-13.386-.622c-3.324-.4-7.208-1.23-8.628-4.274-.788-1.7-.584-3.732-1.325-5.456-1.334-3.11-5.181-4.274-7.332-6.857-1.9-2.279-2.251-5.4-1.99-8.4a9.454,9.454,0,0,0,1.99,5.19Z" transform="translate(-341.087 -218.053)"/></g><path d="M372.645,258.25a9.835,9.835,0,0,0,6.838,3.02,17.032,17.032,0,0,0,7.446-1.548,27.508,27.508,0,0,0,16.183-21.4,4.5,4.5,0,0,0-.09-2.123c-.688-1.937-3.248-2.251-4.967-3.4a7.564,7.564,0,0,1-2.882-4.7c-.114-.5-.209-1-.285-1.505-.2-1.353-.3-2.726-.541-4.074a4.326,4.326,0,0,0-.655-1.828,4.041,4.041,0,0,0-1.724-1.244c-4.013-1.743-9.241-.95-13.229.56-1.334.508-1.078.66-.57,1.971a26.3,26.3,0,0,1,.85,2.55c.071.242.138.475.2.731a28.494,28.494,0,0,1,.874,6.824,11.059,11.059,0,0,1-1.4,6.088c-1.838,2.806-5.575,3.989-7.246,6.9a9.773,9.773,0,0,0-1.087,3.732C369.957,252.119,370.418,255.757,372.645,258.25Z" transform="translate(-89.657 -135.861)" fill="#fbbebe"/><path d="M356.443,739.427a14,14,0,0,1,.475,4.055l.133,7.123c.095,5.138.176,10.375-1.339,15.285a12.383,12.383,0,0,1-2.422,4.682,6.315,6.315,0,0,1-4.635,2.246,8.01,8.01,0,0,1-2.161-.385,5.472,5.472,0,0,1-3.291-2.08c-.916-1.51-.408-3.428-.043-5.157a54.529,54.529,0,0,0,.75-11.743l-.081-9.606a23.272,23.272,0,0,0-.247-3.9c-.185-1.03-.508-2.042-.589-3.082a3.323,3.323,0,0,1,.537-2.3,3.2,3.2,0,0,1,1.762-1.031c1.22-.313,2.5-.233,3.751-.423a5.363,5.363,0,0,0,1.614-.475c.3-.147.95-.826,1.263-.821.617,0,1.021,1.7,1.363,2.279C354.335,735.851,355.8,737.423,356.443,739.427Z" transform="translate(-30.477 -405.446)" fill="#fbbebe"/><path d="M372.964,603.736c3.381,10.1,1.083,21.235,2.308,31.853a95,95,0,0,0,1.866,9.972l5.874,26.155A70.309,70.309,0,0,1,385.1,684.9a23.561,23.561,0,0,1-2.925,12.854,17.93,17.93,0,0,1-12.617,8.329,4.839,4.839,0,0,0-3.8,2.935,4.169,4.169,0,0,0-.223.76,3.666,3.666,0,0,0,1.116,3.476,4.805,4.805,0,0,0,3.443.765c5.641-.475,10.347-4.691,15.922-5.7,4.8-.859,9.972.708,14.492-1.092a2.456,2.456,0,0,0,.8-.475,2.222,2.222,0,0,0,.551-.978c1.064-3.324-1.121-6.686-2.564-9.858a24.655,24.655,0,0,1-1.823-14.473c.988-5.527-.033-11.368-.328-17a102.878,102.878,0,0,0-2.127-15.518,51.882,51.882,0,0,0-2.7-10.109c-.831-1.9-1.928-3.709-2.8-5.6a51.761,51.761,0,0,1-3.239-11.073c-1.6-7.6-3.162-15.257-3.162-23.016a23.792,23.792,0,0,0-8.732,1.638A2.445,2.445,0,0,0,372.964,603.736Z" transform="translate(-86.339 -335.763)" fill="#fbbebe"/><path d="M372.964,603.736c3.381,10.1,1.083,21.235,2.308,31.853a95,95,0,0,0,1.866,9.972l5.874,26.155A70.309,70.309,0,0,1,385.1,684.9a23.561,23.561,0,0,1-2.925,12.854,17.93,17.93,0,0,1-12.617,8.329,4.839,4.839,0,0,0-3.8,2.935,4.169,4.169,0,0,0-.223.76,3.666,3.666,0,0,0,1.116,3.476,4.805,4.805,0,0,0,3.443.765c5.641-.475,10.347-4.691,15.922-5.7,4.8-.859,9.972.708,14.492-1.092a2.456,2.456,0,0,0,.8-.475,2.222,2.222,0,0,0,.551-.978c1.064-3.324-1.121-6.686-2.564-9.858a24.655,24.655,0,0,1-1.823-14.473c.988-5.527-.033-11.368-.328-17a102.878,102.878,0,0,0-2.127-15.518,51.882,51.882,0,0,0-2.7-10.109c-.831-1.9-1.928-3.709-2.8-5.6a51.761,51.761,0,0,1-3.239-11.073c-1.6-7.6-3.162-15.257-3.162-23.016a23.792,23.792,0,0,0-8.732,1.638A2.445,2.445,0,0,0,372.964,603.736Z" transform="translate(-86.339 -335.763)" opacity="0.08"/><path d="M350.67,597.049q.285,7.36.546,14.72v.475a38.984,38.984,0,0,0,.475,5.617,34.671,34.671,0,0,0,3.884,9.853,22.076,22.076,0,0,0,1.7,2.849c.56.76,1.211,1.453,1.733,2.232,1.353,2.023,1.771,4.5,2.564,6.8,3.623,10.485,14.929,16.81,18.719,27.228a60.041,60.041,0,0,0,8.4-3.034,1.971,1.971,0,0,0,1.467-2.578,190.148,190.148,0,0,0-3.884-18.923c-1.011-4.221-2.066-8.514-4.335-12.218-1.9-3.1-4.573-5.622-7.08-8.253a6.651,6.651,0,0,1-2.032-3.281,6.945,6.945,0,0,1,.166-2.374q.769-4.274,1.111-8.619a1.736,1.736,0,0,1,.043-.475c.214-2.18.731-5.014.256-7.052-.859-3.7-8.072-4.464-11.23-4.539A54.645,54.645,0,0,0,350.67,597.049Z" transform="translate(-67.44 -333.844)" fill="#fbbebe"/><path d="M468.622,387.691c-4.791,2.037-10.28,1.453-15.366.309s-10.119-2.806-15.328-2.849c-1.458,0-3.291.432-3.542,1.871a3.351,3.351,0,0,0,.641,2.151,8.522,8.522,0,0,0,2.65,3.253,12.188,12.188,0,0,0,3.1,1.064c1.971.56,3.8,1.539,5.7,2.289a51.153,51.153,0,0,0,10.081,2.5,19.237,19.237,0,0,0,4.853.442,17.625,17.625,0,0,0,3.21-.641q4.63-1.254,9.155-2.849a2.249,2.249,0,0,0,1.5-1.083,2.512,2.512,0,0,0,.071-1.13,13.817,13.817,0,0,1,.4-4.544c.195-.741,1.719-3.386,1.206-3.922C475.764,383.3,469.819,387.183,468.622,387.691Z" transform="translate(-193.963 -222.951)" fill="#fbbebe"/><path d="M468.622,387.691c-4.791,2.037-10.28,1.453-15.366.309s-10.119-2.806-15.328-2.849c-1.458,0-3.291.432-3.542,1.871a3.351,3.351,0,0,0,.641,2.151,8.522,8.522,0,0,0,2.65,3.253,12.188,12.188,0,0,0,3.1,1.064c1.971.56,3.8,1.539,5.7,2.289a51.153,51.153,0,0,0,10.081,2.5,19.237,19.237,0,0,0,4.853.442,17.625,17.625,0,0,0,3.21-.641q4.63-1.254,9.155-2.849a2.249,2.249,0,0,0,1.5-1.083,2.512,2.512,0,0,0,.071-1.13,13.817,13.817,0,0,1,.4-4.544c.195-.741,1.719-3.386,1.206-3.922C475.764,383.3,469.819,387.183,468.622,387.691Z" transform="translate(-193.963 -222.951)" opacity="0.08"/><path d="M388.139,221.985a26.3,26.3,0,0,1,.85,2.55,15.727,15.727,0,0,0,15.869,2.066c-.2-1.353-.3-2.726-.541-4.074a4.326,4.326,0,0,0-.655-1.828,4.041,4.041,0,0,0-1.724-1.244c-4.012-1.743-9.24-.95-13.229.56C387.375,220.523,387.636,220.675,388.139,221.985Z" transform="translate(-99.629 -135.861)" opacity="0.1"/><ellipse cx="15.713" cy="15.713" rx="15.713" ry="15.713" transform="translate(283.32 59.942)" fill="#fbbebe"/><path d="M383.611,597.041q.285,7.36.546,14.72a22.136,22.136,0,0,0,7.45-1.315,79.049,79.049,0,0,1,15.508-3.4c.214-2.18.731-5.014.257-7.052-.859-3.7-8.072-4.464-11.23-4.54A55.235,55.235,0,0,0,383.611,597.041Z" transform="translate(-100.381 -333.836)" opacity="0.08"/><path d="M329.616,414.491c.275.532.636,1.282,1.083.893,5.356-.475,9.891,4.193,15.238,4.749,2.7.28,5.39-.508,7.982-1.277,8.718-2.583,18.073-5.086,26.729-2.341a116.12,116.12,0,0,1,1.277-14.8c.817-5.37,2.013-10.689,2.631-16.088,1.149-10.024.294-20.176,1.13-30.229.332-4.055.95-8.072,1.3-12.128.84-9.587,1.771-19.792-2.213-28.553q-.855-1.9-1.719-3.775a2.954,2.954,0,0,1-.328-1.059,1.609,1.609,0,0,1,.076-.551c.233-.8,1-1.425,1.463-2.175a6.879,6.879,0,0,0,.584-4.24c-.052-.612-.214-1.116-.256-1.728a22.967,22.967,0,0,0,3.371-7.716c.84-3.134,1.372-6.42,2.3-9.525,1.5-4.986,4.055-9.625,5.309-14.678a35.591,35.591,0,0,0,.727-8.072,20.252,20.252,0,0,0-.242-3.257,3.934,3.934,0,0,0-1.971-3.205,9.155,9.155,0,0,1-1.344-4.915,10.591,10.591,0,0,0-.418-3.424c-.85-2.146-3.324-3.163-5.594-3.5s-4.687-.256-6.786-1.22A14.4,14.4,0,0,1,377.7,240.3a80.091,80.091,0,0,1-7.764-5.879.475.475,0,0,0-.214-.123.481.481,0,0,0-.29.142c-1.975,1.757-3.941,3.514-5.917,5.266-1.078.95-2.156,1.9-3.148,2.958a25.694,25.694,0,0,0-3.661,4.915,23.084,23.084,0,0,0-1.292,2.5,26.366,26.366,0,0,0-1.448,4.107,20.627,20.627,0,0,0-.475,2.251c-.09.546-.166,1.1-.218,1.657q-.038.275-.057.556a2.375,2.375,0,0,1-.916-.4,1.862,1.862,0,0,1-.651-.826,4.188,4.188,0,0,1-.252-.95,9.834,9.834,0,0,1-.095-1.244c0-.475-.033-.992-.033-1.486a13.4,13.4,0,0,1,.242-2.578c.318-1.557,1.007-3.015,1.424-4.549a6.231,6.231,0,0,0-.228-4.649c-.294-.527-.84-1.04-1.425-.916a1.534,1.534,0,0,0-.95.95,4.853,4.853,0,0,0-.4,1.99c0,.332,0,.6-.3.769a5.018,5.018,0,0,1-2.574,3.69,30.032,30.032,0,0,0-3.946,2.493c-1.482,1.311-2.3,3.181-3.324,4.872a13.17,13.17,0,0,0-1.486,2.849,10.077,10.077,0,0,0-.256,2.949q.09,9.2.2,18.386a42.312,42.312,0,0,1-.38,7.721,28.875,28.875,0,0,0-.665,4.274c-.1,4.017,2.707,7.393,4.654,10.922,1.424,2.55.9,5.774-.351,8.419s-3.148,4.905-4.606,7.431c-5.162,8.946-4.316,19.944-4.013,30.291a228.094,228.094,0,0,1-3.69,47.974C328.121,402.866,326.876,409.22,329.616,414.491Z" transform="translate(-62.693 -144.177)" fill="#3f3d56"/><path d="M352.418,269.609a14.13,14.13,0,0,1,1.553.109v1.425a14.642,14.642,0,0,0-1.757.123c-.323.038-.651.081-.973.152a7.122,7.122,0,0,0-2.849,1.163c-1.6,1.135-2.536,3.386-1.629,5.114l.594.247a3.157,3.157,0,0,0-.071,2c.28.622,1.206.983,1.662.475.513-.584.052-1.757.741-2.118a.95.95,0,0,1,1.2.475,2.46,2.46,0,0,1,.128,1.425c-.475,3.756-2.27,7.3-2.336,11.092-.024,1.22-.047,2.664.807,3.528q2.455,2.507,4.929,5.019c3.068,3.124,6.14,6.254,9.378,9.2a116.44,116.44,0,0,0,16.145,12.313c.6.385,1.211.755,1.819,1.13.233-.8,1-1.425,1.463-2.175a6.879,6.879,0,0,0,.584-4.24c-.052-.613-.214-1.116-.256-1.728a22.97,22.97,0,0,0,3.371-7.716h-.641a19.6,19.6,0,0,1-6.615-1.676,47.85,47.85,0,0,1-5.608-2.4,41.076,41.076,0,0,1-7.6-5.489,9.112,9.112,0,0,0-5.124-2.583c-1.149-1.182-2.925-1.847-3.519-3.386a5.285,5.285,0,0,1-.081-2.654,51,51,0,0,1,1.334-6.173,43.433,43.433,0,0,0,.646-4.786,22.993,22.993,0,0,0,.551-5.456c-.209-3.433-1.942-6.553-3.633-9.544-.337-.575-.665-1.159-.988-1.743-.271-.475-.546-.95-.817-1.425a1.458,1.458,0,0,0-1.173,1.382,4.274,4.274,0,0,0,.437,1.9c.09.218.171.437.261.655.769,1.933,1.548,3.865,2.317,5.8a24.5,24.5,0,0,0-3.766-1.7,10.479,10.479,0,0,0-1.676-.385,6.749,6.749,0,0,0-1.03-.062,5.365,5.365,0,0,0-4.274,1.847c-.38.475-.636,1.211-.233,1.667a22.115,22.115,0,0,1,4.63-.784A14.684,14.684,0,0,1,352.418,269.609Z" transform="translate(-61.633 -157.311)" opacity="0.08"/><path d="M487.906,372.781l7.056,24.369L455.2,383.684,450.07,362.52Zm-17.313,0c1.424,0,2.564-.575,2.564-1.282s-1.149-1.282-2.564-1.282-2.569.575-2.569,1.282,1.149,1.282,2.569,1.282Z" transform="translate(-219.335 -211.512)" fill="#464353"/><ellipse cx="16.995" cy="8.338" rx="16.995" ry="8.338" transform="translate(280.433 57.696)" fill="#2f2e41"/><ellipse cx="2.246" cy="0.641" rx="2.246" ry="0.641" transform="translate(260.556 165.439)" fill="#6c63ff" opacity="0.9"/><ellipse cx="2.246" cy="0.641" rx="2.246" ry="0.641" transform="translate(263.12 168.644)" fill="#fbbebe" opacity="0.9"/><ellipse cx="2.246" cy="0.641" rx="2.246" ry="0.641" transform="translate(246.443 164.152)" fill="#fbbebe" opacity="0.9"/><ellipse cx="2.246" cy="0.641" rx="2.246" ry="0.641" transform="translate(261.197 168.644)" fill="#fbbebe" opacity="0.9"/><ellipse cx="2.246" cy="0.641" rx="2.246" ry="0.641" transform="translate(265.043 168.003)" fill="#fbbebe" opacity="0.9"/><ellipse cx="2.246" cy="0.641" rx="2.246" ry="0.641" transform="translate(265.043 169.926)" fill="#fbbebe" opacity="0.9"/><ellipse cx="2.246" cy="0.641" rx="2.246" ry="0.641" transform="translate(259.915 167.362)" fill="#fbbebe" opacity="0.9"/><ellipse cx="2.246" cy="0.641" rx="2.246" ry="0.641" transform="translate(263.761 166.08)" fill="#fbbebe" opacity="0.9"/><ellipse cx="2.246" cy="0.641" rx="2.246" ry="0.641" transform="translate(259.269 168.003)" fill="#6c63ff" opacity="0.9"/><ellipse cx="2.246" cy="0.641" rx="2.246" ry="0.641" transform="translate(257.987 164.793)" fill="#6c63ff" opacity="0.9"/><ellipse cx="2.246" cy="0.641" rx="2.246" ry="0.641" transform="translate(257.987 166.08)" fill="#6c63ff" opacity="0.9"/><ellipse cx="2.246" cy="0.641" rx="2.246" ry="0.641" transform="translate(257.346 168.003)" fill="#6c63ff" opacity="0.9"/><ellipse cx="2.246" cy="0.641" rx="2.246" ry="0.641" transform="translate(250.935 165.439)" fill="#6c63ff" opacity="0.9"/><ellipse cx="2.246" cy="0.641" rx="2.246" ry="0.641" transform="translate(248.371 164.793)" fill="#6c63ff" opacity="0.9"/><ellipse cx="2.246" cy="0.641" rx="2.246" ry="0.641" transform="translate(248.371 166.08)" fill="#6c63ff" opacity="0.9"/><ellipse cx="2.246" cy="0.641" rx="2.246" ry="0.641" transform="translate(251.576 168.003)" fill="#6c63ff" opacity="0.9"/><ellipse cx="2.246" cy="0.641" rx="2.246" ry="0.641" transform="translate(250.935 168.003)" fill="#6c63ff" opacity="0.9"/><ellipse cx="2.246" cy="0.641" rx="2.246" ry="0.641" transform="translate(251.576 168.003)" fill="#6c63ff" opacity="0.9"/><ellipse cx="2.246" cy="0.641" rx="2.246" ry="0.641" transform="translate(253.5 168.003)" fill="#6c63ff" opacity="0.9"/><ellipse cx="2.246" cy="0.641" rx="2.246" ry="0.641" transform="translate(256.064 165.439)" fill="#6c63ff" opacity="0.9"/><ellipse cx="2.246" cy="0.641" rx="2.246" ry="0.641" transform="translate(255.423 166.721)" fill="#6c63ff" opacity="0.9"/><ellipse cx="2.246" cy="0.641" rx="2.246" ry="0.641" transform="translate(253.5 164.793)" fill="#3f3d56" opacity="0.9"/><ellipse cx="2.246" cy="0.641" rx="2.246" ry="0.641" transform="translate(253.5 166.08)" fill="#6c63ff" opacity="0.9"/><ellipse cx="2.246" cy="0.641" rx="2.246" ry="0.641" transform="translate(254.141 166.721)" fill="#f86d70"/><ellipse cx="2.246" cy="0.641" rx="2.246" ry="0.641" transform="translate(251.576 166.721)" fill="#6c63ff" opacity="0.9"/><ellipse cx="2.246" cy="0.641" rx="2.246" ry="0.641" transform="translate(250.294 169.285)" fill="#6c63ff" opacity="0.9"/><ellipse cx="2.246" cy="0.641" rx="2.246" ry="0.641" transform="translate(249.012 166.08)" fill="#6c63ff" opacity="0.9"/><ellipse cx="2.246" cy="0.641" rx="2.246" ry="0.641" transform="translate(249.012 167.362)" fill="#6c63ff" opacity="0.9"/><ellipse cx="2.246" cy="0.641" rx="2.246" ry="0.641" transform="translate(248.371 169.285)" fill="#6c63ff" opacity="0.9"/><ellipse cx="2.246" cy="0.641" rx="2.246" ry="0.641" transform="translate(241.956 166.721)" fill="#6c63ff" opacity="0.9"/><ellipse cx="2.246" cy="0.641" rx="2.246" ry="0.641" transform="translate(239.392 166.08)" fill="#6c63ff" opacity="0.9"/><ellipse cx="2.246" cy="0.641" rx="2.246" ry="0.641" transform="translate(239.392 167.362)" fill="#a1616a" opacity="0.9"/><ellipse cx="2.246" cy="0.641" rx="2.246" ry="0.641" transform="translate(242.597 169.285)" fill="#6c63ff" opacity="0.9"/><ellipse cx="2.246" cy="0.641" rx="2.246" ry="0.641" transform="translate(241.956 169.285)" fill="#6c63ff" opacity="0.9"/><ellipse cx="2.246" cy="0.641" rx="2.246" ry="0.641" transform="translate(242.597 169.285)" fill="#6c63ff" opacity="0.9"/><ellipse cx="2.246" cy="0.641" rx="2.246" ry="0.641" transform="translate(244.52 169.285)" fill="#f86d70"/><ellipse cx="2.246" cy="0.641" rx="2.246" ry="0.641" transform="translate(247.084 166.721)" fill="#6c63ff" opacity="0.9"/><ellipse cx="2.246" cy="0.641" rx="2.246" ry="0.641" transform="translate(246.443 168.003)" fill="#6c63ff" opacity="0.9"/><ellipse cx="2.246" cy="0.641" rx="2.246" ry="0.641" transform="translate(244.52 166.08)" fill="#a1616a" opacity="0.9"/><ellipse cx="2.246" cy="0.641" rx="2.246" ry="0.641" transform="translate(244.52 167.362)" fill="#f86d70"/><ellipse cx="2.246" cy="0.641" rx="2.246" ry="0.641" transform="translate(245.161 168.003)" fill="#f86d70"/><ellipse cx="2.246" cy="0.641" rx="2.246" ry="0.641" transform="translate(271.42 174.24) rotate(-169.37)" fill="#6c63ff" opacity="0.9"/><ellipse cx="2.246" cy="0.641" rx="2.246" ry="0.641" transform="translate(269.69 176.526) rotate(-169.37)" fill="#6c63ff" opacity="0.9"/><ellipse cx="2.246" cy="0.641" rx="2.246" ry="0.641" transform="translate(269.02 173.141) rotate(-169.37)" fill="#6c63ff" opacity="0.9"/><ellipse cx="2.238" cy="0.639" rx="2.238" ry="0.639" transform="translate(270.281 174.827) rotate(-169.592)" fill="#6c63ff" opacity="0.9"/><ellipse cx="2.246" cy="0.641" rx="2.246" ry="0.641" transform="translate(267.797 176.174) rotate(-169.37)" fill="#6c63ff" opacity="0.9"/><ellipse cx="2.246" cy="0.641" rx="2.246" ry="0.641" transform="translate(261.967 172.465) rotate(-169.37)" fill="#6c63ff" opacity="0.9"/><ellipse cx="2.246" cy="0.641" rx="2.246" ry="0.641" transform="translate(259.562 171.366) rotate(-169.37)" fill="#6c63ff" opacity="0.9"/><ellipse cx="2.246" cy="0.641" rx="2.246" ry="0.641" transform="translate(259.328 172.625) rotate(-169.37)" fill="#6c63ff" opacity="0.9"/><ellipse cx="2.246" cy="0.641" rx="2.246" ry="0.641" transform="translate(262.123 175.107) rotate(-169.37)" fill="#6c63ff" opacity="0.9"/><ellipse cx="2.246" cy="0.641" rx="2.246" ry="0.641" transform="translate(261.496 174.989) rotate(-169.37)" fill="#6c63ff" opacity="0.9"/><ellipse cx="2.246" cy="0.641" rx="2.246" ry="0.641" transform="translate(262.123 175.107) rotate(-169.37)" fill="#6c63ff" opacity="0.9"/><ellipse cx="2.246" cy="0.641" rx="2.246" ry="0.641" transform="translate(264.014 175.459) rotate(-169.37)" fill="#6c63ff" opacity="0.9"/><ellipse cx="2.246" cy="0.641" rx="2.246" ry="0.641" transform="translate(267.009 173.416) rotate(-169.37)" fill="#3f3d56" opacity="0.9"/><ellipse cx="2.246" cy="0.641" rx="2.246" ry="0.641" transform="translate(266.14 174.552) rotate(-169.37)" fill="#6c63ff" opacity="0.9"/><ellipse cx="2.246" cy="0.641" rx="2.246" ry="0.641" transform="translate(264.605 172.308) rotate(-169.37)" fill="#3f3d56" opacity="0.9"/><ellipse cx="2.246" cy="0.641" rx="2.246" ry="0.641" transform="translate(264.371 173.573) rotate(-169.37)" fill="#6c63ff" opacity="0.9"/><ellipse cx="2.246" cy="0.641" rx="2.246" ry="0.641" transform="translate(264.879 174.324) rotate(-169.37)" fill="#3f3d56" opacity="0.9"/><ellipse cx="2.246" cy="0.641" rx="2.246" ry="0.641" transform="translate(262.361 173.848) rotate(-169.37)" fill="#6c63ff" opacity="0.9"/><ellipse cx="2.246" cy="0.641" rx="2.246" ry="0.641" transform="translate(260.625 176.129) rotate(-169.37)" fill="#6c63ff" opacity="0.9"/><ellipse cx="2.246" cy="0.641" rx="2.246" ry="0.641" transform="translate(259.956 172.74) rotate(-169.37)" fill="#6c63ff" opacity="0.9"/><ellipse cx="2.246" cy="0.641" rx="2.246" ry="0.641" transform="translate(259.723 174.004) rotate(-169.37)" fill="#6c63ff" opacity="0.9"/><ellipse cx="2.246" cy="0.641" rx="2.246" ry="0.641" transform="translate(258.738 175.777) rotate(-169.37)" fill="#6c63ff" opacity="0.9"/><ellipse cx="2.246" cy="0.641" rx="2.246" ry="0.641" transform="translate(252.907 172.073) rotate(-169.37)" fill="#6c63ff" opacity="0.9"/><ellipse cx="2.246" cy="0.641" rx="2.246" ry="0.641" transform="translate(250.502 170.969) rotate(-169.37)" fill="#6c63ff" opacity="0.9"/><ellipse cx="2.246" cy="0.641" rx="2.246" ry="0.641" transform="translate(250.264 172.229) rotate(-169.37)" fill="#a1616a" opacity="0.9"/><ellipse cx="2.246" cy="0.641" rx="2.246" ry="0.641" transform="translate(253.063 174.711) rotate(-169.37)" fill="#6c63ff" opacity="0.9"/><ellipse cx="2.246" cy="0.641" rx="2.246" ry="0.641" transform="translate(252.431 174.591) rotate(-169.37)" fill="#6c63ff" opacity="0.9"/><ellipse cx="2.246" cy="0.641" rx="2.246" ry="0.641" transform="translate(253.063 174.711) rotate(-169.37)" fill="#6c63ff" opacity="0.9"/><ellipse cx="2.246" cy="0.641" rx="2.246" ry="0.641" transform="translate(254.955 175.067) rotate(-169.37)" fill="#6c63ff" opacity="0.9"/><ellipse cx="2.238" cy="0.639" rx="2.238" ry="0.639" transform="translate(259.473 173.499) rotate(-169.592)" fill="#a1616a" opacity="0.9"/><ellipse cx="2.246" cy="0.641" rx="2.246" ry="0.641" transform="translate(257.08 174.16) rotate(-169.37)" fill="#6c63ff" opacity="0.9"/><path d="M411.388,226.25l.475.475s-21.553,33.714-26.326,37.3l-1.467-1.187S389.578,252.723,411.388,226.25Z" transform="translate(-104.895 -139.949)" fill="#2f2e41"/><path d="M438.743,304.034s1.135-2.051,1.572-1.643,1.842,1.358,1.657,1.657-1.425,1.942-1.425,1.942a2.406,2.406,0,0,1-2.122-1.463Z" transform="translate(-160.831 -179.907)" fill="#464353"/><path d="M441.541,317.159l.242-.057s-.19-1.1,2.408-2.227a14.68,14.68,0,0,1,1.453-.537c3.989-1.258,5.546-4.022,4.749-6a1.647,1.647,0,0,0-.076-.195l-1.662-1.306-.195.166a16.732,16.732,0,0,1-3.276,2.084,6.648,6.648,0,0,0-3.352,3.409A8.024,8.024,0,0,0,441.541,317.159Z" transform="translate(-170.814 -182.272)" fill="#fdd8d8" opacity="0.9"/><path d="M451.822,307.58s-.565,1.235-3.538,2.692-3.6,5.7-3.6,5.7,1.548-3.927,3.927-4.649,3.433-3.519,3.433-3.519Z" transform="translate(-173.853 -182.66)" fill="none" stroke="#2f2e41" stroke-miterlimit="10" stroke-width="0.25" opacity="0.2"/><path d="M451.063,308.61a3.9,3.9,0,0,1-1.814,3.143c-1.947,1.477-5.646,3.861-5.727,4.981a12.385,12.385,0,0,1,3.324-2.474c1.543-.617,3.647-1.866,3.884-3.025,0,0,.855-1.814.6-2.521Z" transform="translate(-172.643 -183.201)" fill="none" stroke="#2f2e41" stroke-miterlimit="10" stroke-width="0.25" opacity="0.2"/><path d="M450.552,309.39s.8,1.6-1.149,3.837a8.333,8.333,0,0,1-3.3,1.871,8.025,8.025,0,0,0-3.514,2.431" transform="translate(-171.535 -183.611)" fill="none" stroke="#2f2e41" stroke-miterlimit="10" stroke-width="0.25" opacity="0.2"/><ellipse cx="2.246" cy="0.641" rx="2.246" ry="0.641" transform="translate(255.545 171.916) rotate(-169.37)" fill="#3f3d56" opacity="0.9"/><ellipse cx="2.246" cy="0.641" rx="2.246" ry="0.641" transform="translate(255.308 173.171) rotate(-169.37)" fill="#6c63ff" opacity="0.9"/><ellipse cx="2.246" cy="0.641" rx="2.246" ry="0.641" transform="translate(255.82 173.922) rotate(-169.37)" fill="#6c63ff" opacity="0.9"/><path d="M324.419,302.3a9.426,9.426,0,0,0,.408,2.664c.185.451.475.859.684,1.3.926,1.9.518,4.126.646,6.23a24.309,24.309,0,0,0,.579,3.538c1.04,4.843,2.08,9.692,3.324,14.5.408,1.61.822,3.381.09,4.867-.19.385-.446.731-.6,1.13-.437,1.092-.033,2.374-.413,3.481a2.678,2.678,0,0,1-2.759,1.752c-.266-4.544-2.4-8.789-5-12.531a16.265,16.265,0,0,0-4.445-4.663,12.03,12.03,0,0,1-2.621-1.781A6.116,6.116,0,0,1,313,319.655c-1.254-7.018,1.752-14.075,5.223-20.309.722-1.3,2.251-4.179,3.775-3.091S324.244,300.552,324.419,302.3Z" transform="translate(10.298 -176.586)" fill="#3f3d56"/><path d="M385.36,187.931c8.5,0,15.537-3.058,16.8-7.051a4.2,4.2,0,0,1,.2,1.282c0,4.6-7.6,8.334-16.995,8.334s-16.99-3.732-16.99-8.334a4.2,4.2,0,0,1,.2-1.282C369.828,184.873,376.865,187.931,385.36,187.931Z" transform="translate(-87.932 -116.123)" opacity="0.1"/><g transform="translate(282.575 90.15)" opacity="0.1"><path d="M343.624,304.147c.161-.4.418-.746.608-1.13.731-1.486.318-3.257-.1-4.867-1.22-4.805-2.26-9.654-3.324-14.5a23.666,23.666,0,0,1-.575-3.538c-.128-2.1.275-4.34-.646-6.23-.218-.442-.5-.85-.684-1.3a9.261,9.261,0,0,1-.408-2.664,13.469,13.469,0,0,0-1.249-4.53c.1-1.387.124-2.783.143-4.15a19.727,19.727,0,0,0-.247-3.257,3.919,3.919,0,0,0-1.966-3.205,9.373,9.373,0,0,1-1.349-4.915,10.462,10.462,0,0,0-.418-3.424c-.845-2.146-3.324-3.162-5.589-3.5s-4.687-.256-6.786-1.22a14.4,14.4,0,0,1-2.251-1.372c-2.047-1.425-4.1-2.849-6.035-4.421l1.615-1.425c.085-.071.18-.157.29-.142a.475.475,0,0,1,.214.123,80.088,80.088,0,0,0,7.792,5.879,14.4,14.4,0,0,0,2.251,1.372c2.1.95,4.5.878,6.786,1.22s4.748,1.353,5.594,3.5a10.337,10.337,0,0,1,.418,3.424,9.144,9.144,0,0,0,1.344,4.915A3.934,3.934,0,0,1,341.026,258a20.251,20.251,0,0,1,.223,3.257c0,1.368-.038,2.764-.142,4.15a13.363,13.363,0,0,1,1.249,4.53,9.425,9.425,0,0,0,.408,2.664c.185.451.475.859.684,1.3.926,1.9.518,4.126.646,6.23a24.309,24.309,0,0,0,.579,3.538c1.04,4.843,2.08,9.692,3.324,14.5.408,1.61.821,3.381.09,4.867-.19.385-.446.731-.6,1.13-.437,1.092-.033,2.374-.413,3.481a2.678,2.678,0,0,1-2.759,1.752,18.433,18.433,0,0,0-.855-4.483A2.925,2.925,0,0,1,343.624,304.147Z" transform="translate(-290.232 -234.357)"/><path d="M423.434,256.177c-.242.475-.475.95-.684,1.425a25.884,25.884,0,0,0-1.448,4.107,20.635,20.635,0,0,0-.475,2.251c-.09.546-.166,1.1-.218,1.657q-.033.275-.057.556a2.375,2.375,0,0,1-.916-.4,1.866,1.866,0,0,1-.651-.84,4.454,4.454,0,0,1-.247-.95,9.837,9.837,0,0,1-.1-1.244c0-.475-.029-.992-.029-1.486a13.4,13.4,0,0,1,.242-2.578c.313-1.557,1.007-3.015,1.425-4.549.033-.109.057-.228.085-.342a3.546,3.546,0,0,0,.437-1.491c.294-.166.313-.437.3-.769a4.854,4.854,0,0,1,.4-1.99,1.534,1.534,0,0,1,.95-.95c.594-.123,1.14.389,1.425.916a6.21,6.21,0,0,1,.228,4.649C423.923,254.819,423.676,255.5,423.434,256.177Z" transform="translate(-416.449 -241.816)"/><path d="M346.806,464.793c.812-5.371,2.013-10.689,2.631-16.088,1.144-10.024.294-20.176,1.125-30.229.337-4.055.95-8.072,1.3-12.128.841-9.587,1.771-19.792-2.208-28.553-.575-1.263-1.144-2.521-1.719-3.775a2.953,2.953,0,0,1-.328-1.059,1.506,1.506,0,0,1,.076-.551c.233-.8,1-1.425,1.463-2.175a6.913,6.913,0,0,0,.584-4.24c-.052-.613-.214-1.116-.256-1.729a22.967,22.967,0,0,0,3.371-7.716c.19-.712.366-1.424.532-2.151.475.285.95.537,1.425.826a11.044,11.044,0,0,1,1.857,1.5,22.616,22.616,0,0,1-3.324,7.545c.043.613.2,1.116.256,1.729a6.879,6.879,0,0,1-.584,4.24,9.99,9.99,0,0,0-1.463,2.175,1.609,1.609,0,0,0-.076.551,2.953,2.953,0,0,0,.328,1.059l1.719,3.775c3.984,8.761,3.053,18.965,2.213,28.553-.361,4.05-.95,8.072-1.3,12.128-.836,10.053,0,20.2-1.13,30.229-.617,5.4-1.814,10.717-2.631,16.088a116.131,116.131,0,0,0-1.277,14.8,24.858,24.858,0,0,0-3.8-.869A115.1,115.1,0,0,1,346.806,464.793Z" transform="translate(-313.994 -297.398)"/><path d="M387.125,619.1c6.648-1.966,13.633-3.875,20.418-3.471-5.556.313-11.187,1.9-16.572,3.471-2.593.769-5.28,1.557-7.982,1.277a4.661,4.661,0,0,1-.67-.1A34.946,34.946,0,0,0,387.125,619.1Z" transform="translate(-382.32 -434.555)"/></g><path d="M371.77,316.157l-2.089,5.052a5.837,5.837,0,0,1-1.515,2.422,3.927,3.927,0,0,1-3.324.608,11.673,11.673,0,0,1-3.167-1.425c-3.167-1.8-6.334-3.6-9.416-5.556a117.438,117.438,0,0,1-16.145-12.313c-3.238-2.944-6.311-6.073-9.378-9.2l-4.91-5.019c-.855-.864-.826-2.312-.807-3.528.066-3.8,1.9-7.332,2.341-11.092a2.5,2.5,0,0,0-.128-1.424.95.95,0,0,0-1.206-.475c-.689.356-.228,1.534-.741,2.118-.475.508-1.382.157-1.657-.475a3.09,3.09,0,0,1,.066-2l-.594-.247c-.907-1.728.033-3.984,1.629-5.119a9.856,9.856,0,0,1,5.594-1.424v-1.425a21.927,21.927,0,0,0-8.3.7c-.408-.475-.147-1.187.233-1.667a5.746,5.746,0,0,1,5.3-1.785,17.078,17.078,0,0,1,5.442,2.08l-2.578-6.463a4.239,4.239,0,0,1-.432-1.9,1.453,1.453,0,0,1,1.168-1.382l1.8,3.186c1.69,2.987,3.424,6.111,3.633,9.535a22.552,22.552,0,0,1-.551,5.461c-.3,1.629-.195,3.191-.646,4.786a49.875,49.875,0,0,0-1.334,6.173,5.223,5.223,0,0,0,.085,2.654c.589,1.538,2.374,2.208,3.514,3.39a9.187,9.187,0,0,1,5.124,2.583,41.065,41.065,0,0,0,7.6,5.489,49.509,49.509,0,0,0,5.608,2.4,19.767,19.767,0,0,0,6.615,1.676c1.7,0,3.462-.385,5.086.128,2.445.764,3.8,3.324,4.891,5.622l1.809,3.8A27.984,27.984,0,0,1,371.77,316.157Z" transform="translate(-33.344 -155.163)" fill="#fbbebe"/><path d="M322.641,359.277a16.28,16.28,0,0,0-4.573-4.748c-.351-.218-.712-.418-1.068-.622a12.453,12.453,0,0,1,4.307.152c2.512.788,3.9,3.39,5.033,5.76l1.871,3.879a28.584,28.584,0,0,1,1.425,4.131l-1.781,4.274h-.043C327.518,367.449,325.319,363.109,322.641,359.277Z" transform="translate(9.18 -206.93)" fill="#3f3d56"/><ellipse cx="1.282" cy="1.539" rx="1.282" ry="1.539" transform="translate(250.294 158.382)" fill="#fbbebe"/><ellipse cx="1.282" cy="1.539" rx="1.282" ry="1.539" transform="translate(250.294 159.152)" fill="#fbbebe"/><path d="M453.737,324.42l.328-.066s-.256-1.344,3.248-2.721a2.936,2.936,0,0,0-.095-.684,2.478,2.478,0,0,0-.166-.532,2.416,2.416,0,0,0-.252-.475,2.621,2.621,0,0,0-.793-.864,2.27,2.27,0,0,0-.712-.332,2.036,2.036,0,0,0-.57-.076,2.7,2.7,0,0,0-.589.076A9,9,0,0,0,453.737,324.42Z" transform="translate(-183.299 -188.484)" fill="#6c63ff" opacity="0.9"/><path d="M280.519,705s-2.954,3.86,1.363,9.692,7.873,10.75,6.434,14.388c0,0-6.51-10.827-11.809-10.979S274.7,711.515,280.519,705Z" transform="translate(70.643 -391.366)" fill="#f30075"/><path d="M280.873,705a4.751,4.751,0,0,0-.6,1.211c-5.171,6.078-7.925,11.748-2.958,11.871,4.63.128,10.186,8.41,11.515,10.5a4.354,4.354,0,0,1-.157.475s-6.51-10.827-11.809-10.979S275.056,711.515,280.873,705Z" transform="translate(70.289 -391.366)" opacity="0.1"/><path d="M301.1,714.415c0,1.358.152,2.46.342,2.46s.337-1.1.337-2.46-.19-.722-.375-.722S301.1,713.052,301.1,714.415Z" transform="translate(44.586 -395.852)" fill="#ffd037"/><path d="M302.32,717.761c1.192.651,2.237,1.045,2.322.878s-.8-.826-1.994-1.477-.722-.176-.812,0S301.133,717.11,302.32,717.761Z" transform="translate(41.481 -397.579)" fill="#ffd037"/><path d="M252.3,705s2.954,3.86-1.363,9.692-7.873,10.75-6.434,14.388c0,0,6.51-10.827,11.809-10.979S258.129,711.515,252.3,705Z" transform="translate(114.472 -391.366)" fill="#f30075"/><path d="M252.129,705a4.749,4.749,0,0,1,.6,1.211c5.171,6.078,7.925,11.748,2.958,11.871-4.63.128-10.185,8.41-11.515,10.5a4.343,4.343,0,0,0,.157.475s6.51-10.827,11.809-10.979S257.961,711.515,252.129,705Z" transform="translate(114.64 -391.366)" opacity="0.1"/><path d="M247.249,714.415c0,1.358-.152,2.46-.342,2.46s-.337-1.1-.337-2.46.19-.722.375-.722S247.249,713.052,247.249,714.415Z" transform="translate(125.01 -395.852)" fill="#ffd037"/><path d="M243.4,717.761c-1.192.651-2.232,1.045-2.322.878s.8-.826,1.994-1.477.722-.176.812,0S244.6,717.11,243.4,717.761Z" transform="translate(130.741 -397.579)" fill="#ffd037"/><path d="M279.266,749.715s-8.253-.252-10.741-2.027-12.7-3.884-13.319-1.045-12.4,14.132-3.082,14.208,21.653-1.453,24.137-2.963S279.266,749.715,279.266,749.715Z" transform="translate(92.052 -412.505)" fill="#a8a8a8"/><path d="M251.957,764.767c9.316.076,21.653-1.453,24.137-2.963,1.9-1.154,2.645-5.29,2.9-7.194h.275s-.522,6.648-3.006,8.172-14.82,3.039-24.136,2.963c-2.692,0-3.623-.978-3.571-2.4C248.927,764.226,249.953,764.767,251.957,764.767Z" transform="translate(92.054 -417.419)" opacity="0.2"/><path d="M734.971,670.941s5.276-17.916-.988-31.1a28.3,28.3,0,0,1-2.289-17.755,47.656,47.656,0,0,1,2.512-8.334" transform="translate(-594.898 -343.446)" fill="none" stroke="#535461" stroke-miterlimit="10" stroke-width="2"/><path d="M728.61,591.951c0,2.2,3.974,8.547,3.974,8.547s3.979-6.368,3.979-8.547a3.979,3.979,0,0,0-7.953,0Z" transform="translate(-593.2 -329.981)" fill="#6c63ff"/><path d="M743.009,615.032c1.192,1.842,7.992,5.024,7.992,5.024s-.124-7.5-1.315-9.345a3.976,3.976,0,0,0-6.676,4.321Z" transform="translate(-614.171 -340.896)" fill="#6c63ff"/><path d="M740.917,657.263c1.956.988,9.435.3,9.435.3s-3.9-6.415-5.855-7.408a3.986,3.986,0,0,0-3.58,7.123Z" transform="translate(-611.789 -362.343)" fill="#6c63ff"/><path d="M732.826,690.668c1.766,1.306,9.25,1.9,9.25,1.9s-2.754-6.98-4.521-8.286a3.981,3.981,0,0,0-4.748,6.391Z" transform="translate(-599.943 -380.073)" fill="#6c63ff"/><path d="M731.168,625.748c-1.576,1.529-8.913,3.115-8.913,3.115s1.8-7.289,3.371-8.818a3.974,3.974,0,1,1,5.542,5.7Z" transform="translate(-585.991 -346.161)" fill="#6c63ff"/><path d="M721.046,663.729c-1.961.988-9.435.3-9.435.3s3.894-6.415,5.855-7.408a3.979,3.979,0,0,1,3.58,7.1Z" transform="translate(-571.694 -365.765)" fill="#6c63ff"/><path d="M718.477,702.9c-1.762,1.306-9.245,1.9-9.245,1.9s2.754-6.985,4.521-8.291a3.983,3.983,0,1,1,4.748,6.4Z" transform="translate(-567.544 -386.496)" fill="#6c63ff"/><path d="M728.61,591.951c0,2.2,3.974,8.547,3.974,8.547s3.979-6.368,3.979-8.547a3.979,3.979,0,0,0-7.953,0Z" transform="translate(-593.2 -329.981)" fill="#f30075"/><path d="M743.009,615.032c1.192,1.842,7.992,5.024,7.992,5.024s-.124-7.5-1.315-9.345a3.976,3.976,0,0,0-6.676,4.321Z" transform="translate(-614.171 -340.896)" fill="#f30075"/><path d="M740.917,657.263c1.956.988,9.435.3,9.435.3s-3.9-6.415-5.855-7.408a3.986,3.986,0,0,0-3.58,7.123Z" transform="translate(-611.789 -362.343)" fill="#f30075"/><path d="M732.826,690.668c1.766,1.306,9.25,1.9,9.25,1.9s-2.754-6.98-4.521-8.286a3.981,3.981,0,0,0-4.748,6.391Z" transform="translate(-599.943 -380.073)" fill="#f30075"/><path d="M731.168,625.748c-1.576,1.529-8.913,3.115-8.913,3.115s1.8-7.289,3.371-8.818a3.974,3.974,0,1,1,5.542,5.7Z" transform="translate(-585.991 -346.161)" fill="#f30075"/><path d="M721.046,663.729c-1.961.988-9.435.3-9.435.3s3.894-6.415,5.855-7.408a3.979,3.979,0,0,1,3.58,7.1Z" transform="translate(-571.694 -365.765)" fill="#f30075"/><path d="M718.477,702.9c-1.762,1.306-9.245,1.9-9.245,1.9s2.754-6.985,4.521-8.291a3.983,3.983,0,1,1,4.748,6.4Z" transform="translate(-567.544 -386.496)" fill="#f30075"/><path d="M734.5,724.881s-6.429-1.277-8.139-2.977-9.426-4.677-10.285-2.55-11.562,9.354-4.274,10.632,17.137,1.7,19.279.85S734.5,724.881,734.5,724.881Z" transform="translate(-581.949 -398.516)" fill="#a8a8a8"/><path d="M711.789,736.059c7.284,1.277,17.137,1.7,19.279.855,1.629-.651,2.764-3.761,3.215-5.223l.214.043s-1.287,5.1-3.428,5.955-11.995.427-19.279-.85c-2.1-.371-2.7-1.235-2.474-2.327C709.5,735.237,710.227,735.788,711.789,736.059Z" transform="translate(-581.95 -405.382)" opacity="0.2"/><g transform="translate(165.942 88.523)" opacity="0.75"><path d="M544.483,324.931a5.147,5.147,0,0,0,.28-.722,6.7,6.7,0,0,0-.043-1.766,6.235,6.235,0,0,1,.138-1.22c.28-1.534.556-3.072.836-4.611.128-.708.256-1.425.318-2.132s.052-1.472.066-2.208c.033-2.374.475-4.749.546-7.146.052-1.239.147-2.479.247-3.718.176-2.127.361-4.274.736-6.353.294-1.667,1.13-3.224,1.149-4.915,0-.878,0-1.757.024-2.635a5.055,5.055,0,0,1,.351-2.213,4.863,4.863,0,0,1,1.3-1.486q2.241-1.937,4.644-3.68a2.849,2.849,0,0,1-1.453-.109.95.95,0,0,1-.556-1.2,1.2,1.2,0,0,1,.736-.532,6.736,6.736,0,0,1,1.767-.285,6.493,6.493,0,0,1-.128-.689c-.313-2.45.917-4.853.912-7.322,0-2.545-1.292-4.877-2.037-7.308a17.655,17.655,0,0,1,.522-11.743c.8-1.975,1.975-3.832,2.374-5.926.309-1.643.114-3.324.394-4.991.7-4.193,4.44-7.417,8.547-8.547a21.454,21.454,0,0,1,9.578,0c2.74.508,5.223-.613,7.977-.252a4.33,4.33,0,0,1,2.882,1.32,15.637,15.637,0,0,1,.95,1.61c1.22,1.9,3.642,2.55,5.655,3.59a10.95,10.95,0,0,1,5.95,7.954c.423,3.162-.822,6.3-1.011,9.5-.242,4.065,1.235,8.006,2.484,11.871a9.276,9.276,0,0,1,.622,3.324,8.935,8.935,0,0,1-.513,2.27c-.394,1.2-.84,2.374-1.349,3.538a11.782,11.782,0,0,0,2.954.774,7.564,7.564,0,0,1,3.039.6,3.548,3.548,0,0,1,1.054,1.007,5.532,5.532,0,0,1,.95,4.174,1.3,1.3,0,0,1,.6,1.111c.024.442-.076.879-.095,1.32a8.337,8.337,0,0,0,.475,2.441,20.7,20.7,0,0,1,.541,8.291c-.608,4.435-.727,8.837-.921,13.3-.128,2.93.114,5.893-.37,8.789a4.191,4.191,0,0,1-1.225,2.6,5.34,5.34,0,0,0-.551.427,3.56,3.56,0,0,0-.584,1.738,3.742,3.742,0,0,1-3.856,2.749h0c.318.95.632,1.828.95,2.74h-48.8c.029-.114.057-.228.081-.342a5.133,5.133,0,0,0,.033-1.453c-.408.475-.337,1.173-.446,1.795h-9.165A7.9,7.9,0,0,1,544.483,324.931Z" transform="translate(-544.023 -230.93)" fill="url(#b)"/><path d="M591.293,232.454a4.258,4.258,0,0,1,2.849,1.315,14.953,14.953,0,0,1,.95,1.6c1.211,1.9,3.618,2.531,5.613,3.566a10.862,10.862,0,0,1,5.907,7.9c.423,3.143-.812,6.258-1,9.421-.237,4.036,1.225,7.954,2.464,11.8a9.251,9.251,0,0,1,.622,3.324,8.827,8.827,0,0,1-.513,2.256,29.9,29.9,0,0,1-4.981,9.63,16.787,16.787,0,0,1-8.941,5.9,25.58,25.58,0,0,1-4.929.522q-3.8.142-7.6.142a21.758,21.758,0,0,1-4.16-.28c-2.9-.565-5.456-2.2-7.935-3.8-2.849-1.852-5.983-4.126-6.415-7.5-.309-2.431.907-4.82.907-7.275s-1.282-4.844-2.023-7.256a17.571,17.571,0,0,1,.522-11.691c.8-1.966,1.961-3.8,2.374-5.893.309-1.629.119-3.324.394-4.957.7-4.164,4.407-7.365,8.481-8.471a21.234,21.234,0,0,1,9.5,0C586.069,233.209,588.572,232.088,591.293,232.454Z" transform="translate(-551.852 -231.58)" fill="#3f3d56"/><path d="M602.213,298.167a10.252,10.252,0,0,0,1.277,7.726,12.429,12.429,0,0,0,2.749,2.873,17.593,17.593,0,0,0,5.423,3,10.921,10.921,0,0,1-4.169,2.028,19.839,19.839,0,0,1-3.557.432,101.145,101.145,0,0,1-17.982-.651,11.892,11.892,0,0,1-5.7-1.8.808.808,0,0,1-.318-.375c-.114-.394.356-.693.745-.826,1.9-.66,3.994-1.035,5.656-2.2,2.545-1.79,3.609-5.071,3.837-8.172s-.218-6.23.086-9.331q6.173-.09,12.346.361c.475.033,2.526-.081,2.773.313s-.874,1.538-1.159,1.971A13.685,13.685,0,0,0,602.213,298.167Z" transform="translate(-563.636 -262.396)" fill="#fbbebe"/><ellipse cx="14.041" cy="14.041" rx="14.041" ry="14.041" transform="translate(18.842 7.778)" opacity="0.1"/><ellipse cx="14.041" cy="14.041" rx="14.041" ry="14.041" transform="translate(18.842 7.28)" fill="#fbbebe"/><path d="M568,350.99a42.842,42.842,0,0,1,1.387,14.388c-.323,3.191-1.425,6.648-1.5,9.915H602.7V363.725a64.179,64.179,0,0,1,.242-6.824,49.887,49.887,0,0,1,2.783-11.809l.3-.836h0a.093.093,0,0,1,.038-.09c.1-.285.209-.565.313-.85,1.7-4.5,3.633-9.174,2.7-13.856a12,12,0,0,0-5.784-8.03,6.52,6.52,0,0,0-3-.921c-1.809-.029-3.438,1.035-4.948,2.042-.717.475-1.425.95-2.18,1.425a24.038,24.038,0,0,1-5.584,2.669,11.168,11.168,0,0,1-8.547-.532,10.008,10.008,0,0,1-1.425-.978,16.266,16.266,0,0,1-2.346-2.469c-.684,1.33-2.165,1.9-3.4,2.73a10.617,10.617,0,0,0-3.718,4.962,27.363,27.363,0,0,0-1.424,6.116,31.845,31.845,0,0,0-.408,6.173A48.541,48.541,0,0,0,568,350.99Z" transform="translate(-554.835 -277.972)" fill="#3f3d56"/><path d="M545.154,373.679h23.823c-.318-.912-.627-1.8-.95-2.726h.043a3.709,3.709,0,0,0,3.827-2.735,3.524,3.524,0,0,1,.584-1.724,4.753,4.753,0,0,1,.541-.423,3.982,3.982,0,0,0,1.216-2.588c.475-2.878.247-5.817.37-8.732.195-4.445.313-8.823.917-13.229a20.585,20.585,0,0,0-.537-8.234,8.242,8.242,0,0,1-.475-2.426c0-.437.119-.874.095-1.311a1.277,1.277,0,0,0-.6-1.1,5.513,5.513,0,0,0-.95-4.15,3.631,3.631,0,0,0-1.049-1,7.629,7.629,0,0,0-3.015-.6c-4.8-.541-8.595-4.748-13.4-5.223a18.113,18.113,0,0,0-3.248.076c-1.766.147-2.412,2.374-2.821,4.112-.057.228-.1.475-.152.684-.9,4.274-.736,8.737-.736,13.13a11.1,11.1,0,0,1-.408,2.981,38.536,38.536,0,0,0-.95,8.169,185.034,185.034,0,0,1-1.928,19.155,35.092,35.092,0,0,0-.442,3.59A21.741,21.741,0,0,0,545.154,373.679Z" transform="translate(-511.06 -276.359)" fill="#f30075"/><path d="M583.5,358.586a13.654,13.654,0,0,0-1.387,1.876c-.19.313-.347.769-.067,1.007a.831.831,0,0,0,.513.142l3.324.142a3.869,3.869,0,0,0,1.5-.138,3.8,3.8,0,0,0,1.557-1.391l1.481-1.937a4.381,4.381,0,0,0,.95-1.671,1.5,1.5,0,0,0-.665-1.662,2.208,2.208,0,0,0-1.634.114,13.57,13.57,0,0,0-3.091,1.154,12.764,12.764,0,0,0-2.483,2.365Z" transform="translate(-544.335 -296.006)" fill="#f86d70"/><path d="M583.5,358.586a13.654,13.654,0,0,0-1.387,1.876c-.19.313-.347.769-.067,1.007a.831.831,0,0,0,.513.142l3.324.142a3.869,3.869,0,0,0,1.5-.138,3.8,3.8,0,0,0,1.557-1.391l1.481-1.937a4.381,4.381,0,0,0,.95-1.671,1.5,1.5,0,0,0-.665-1.662,2.208,2.208,0,0,0-1.634.114,13.57,13.57,0,0,0-3.091,1.154,12.764,12.764,0,0,0-2.483,2.365Z" transform="translate(-544.335 -296.006)" opacity="0.1"/><path d="M579.814,329.812a47.565,47.565,0,0,0-1.676-6.429,15.049,15.049,0,0,1-.84-3.125c-.09-.841,0-1.69-.086-2.531-.067-.727-.242-1.425-.351-2.156a10.83,10.83,0,0,1,.261-4.383c.3-1.135,0-2.517.741-3.438.294-.375.689-.66,1-1.026a1.424,1.424,0,0,0,.375-1.315,8.29,8.29,0,0,1-3.153.1,2.071,2.071,0,0,1-.883-.309.831.831,0,0,1-.37-.8,1.158,1.158,0,0,1,.6-.689,7.394,7.394,0,0,1,6.282-.7.366.366,0,0,0-.157-.446,1.346,1.346,0,0,0-.475-.157,3.276,3.276,0,0,1-2.341-2.032.692.692,0,0,1-.047-.446c.124-.347.617-.328.974-.237l1.937.475a4.553,4.553,0,0,1,1.083.366,4.457,4.457,0,0,1,1.106.95,12.394,12.394,0,0,1,2.612,3.614c.252.627.4,1.292.66,1.9a2.925,2.925,0,0,0,1.273,1.524,1.648,1.648,0,0,1,.831,1.747,4.888,4.888,0,0,1-.883,1.9,23.2,23.2,0,0,1-2.436,3.167,8.834,8.834,0,0,0-1.662,2.037c-.275.56-.394,1.187-.636,1.757a3.854,3.854,0,0,0-.309.836,2.14,2.14,0,0,0,0,.627c.4,3.158,2.745,5.731,3.618,8.789a.859.859,0,0,1-.475,1.125,18.953,18.953,0,0,1-5.812,2.593A21.947,21.947,0,0,1,579.814,329.812Z" transform="translate(-538.749 -267.009)" opacity="0.1"/><path d="M579.28,329.513a47.57,47.57,0,0,0-1.676-6.429,14.761,14.761,0,0,1-.841-3.125c-.09-.84,0-1.69-.085-2.531-.067-.727-.242-1.425-.351-2.156a10.834,10.834,0,0,1,.261-4.383c.3-1.135,0-2.517.741-3.438.294-.375.689-.66,1-1.026a1.425,1.425,0,0,0,.375-1.315,8.289,8.289,0,0,1-3.153.1,2.07,2.07,0,0,1-.883-.309.845.845,0,0,1-.375-.8,1.182,1.182,0,0,1,.608-.688,7.393,7.393,0,0,1,6.282-.7.366.366,0,0,0-.157-.446,1.34,1.34,0,0,0-.475-.157,3.277,3.277,0,0,1-2.336-2.032.684.684,0,0,1-.047-.442c.124-.351.617-.332.95-.242l1.932.475a4.509,4.509,0,0,1,1.088.366,4.459,4.459,0,0,1,1.106.95,12.394,12.394,0,0,1,2.612,3.614c.252.627.4,1.292.66,1.9a2.925,2.925,0,0,0,1.273,1.524,1.657,1.657,0,0,1,.831,1.747,4.891,4.891,0,0,1-.883,1.9,23.58,23.58,0,0,1-2.436,3.167,8.836,8.836,0,0,0-1.662,2.037c-.275.56-.394,1.187-.636,1.762a3.724,3.724,0,0,0-.309.831,2.132,2.132,0,0,0,0,.627c.4,3.158,2.745,5.731,3.618,8.789a.859.859,0,0,1-.475,1.125,18.957,18.957,0,0,1-5.812,2.593A21.94,21.94,0,0,1,579.28,329.513Z" transform="translate(-537.94 -266.852)" fill="#fbbebe"/><path d="M581.4,359.658a.347.347,0,0,0-.161.147.356.356,0,0,0,0,.252,20.887,20.887,0,0,0,1.833,4.036q2.265-1.244,4.421-2.664a2.375,2.375,0,0,0,.888-.836C590.5,356.5,582.81,358.837,581.4,359.658Z" transform="translate(-541.337 -297.79)" fill="#3f3d56"/><path d="M562.96,360.884c.5.665,1.073,1.263,1.567,1.933a30.219,30.219,0,0,1,2.161,3.9,26.771,26.771,0,0,0,3.281,4.848c1.277,1.5,2.806,3.039,2.949,5a1.568,1.568,0,0,0,.176.812,2.946,2.946,0,0,0,.579.475.479.479,0,0,1,.109.67c.731.076,1.035.95,1.177,1.676l.323,1.662a6.548,6.548,0,0,1,.157,1.325,5.49,5.49,0,0,1-.432,1.747,28.285,28.285,0,0,1-3,5.793,5.536,5.536,0,0,1-2.218,2.146,6.11,6.11,0,0,1-2.849.266c-1.353-.085-2.925-.3-3.6-1.477-.427-.746-.361-1.709-.826-2.431a8.3,8.3,0,0,0-.893-.983,6.349,6.349,0,0,1-1.1-2.165,80.969,80.969,0,0,1-2.963-10.8,17.451,17.451,0,0,0-.973-3.623,20.306,20.306,0,0,0-1.8-2.977c-1.2-1.819-1.382-3.4-2.213-5.409,1.833-.427,2.678-1.643,4.24-2.673,1.472-.973,3.651-3.044,5.223-3.8C562.552,358.1,562.119,359.744,562.96,360.884Z" transform="translate(-514.426 -297.031)" opacity="0.1"/><path d="M560.339,358.784c.475.665,1.073,1.268,1.562,1.937a29.588,29.588,0,0,1,2.161,3.894,26.635,26.635,0,0,0,3.281,4.853c1.282,1.5,2.806,3.034,2.949,5a1.589,1.589,0,0,0,.176.807,3.425,3.425,0,0,0,.584.475.479.479,0,0,1,.109.665c.731.081,1.035.95,1.173,1.681l.323,1.662a5.935,5.935,0,0,1,.157,1.32,5.4,5.4,0,0,1-.432,1.752,28.384,28.384,0,0,1-3,5.793,5.546,5.546,0,0,1-2.222,2.146,6.111,6.111,0,0,1-2.849.266c-1.349-.085-2.925-.3-3.595-1.477-.427-.75-.361-1.709-.826-2.436a9.643,9.643,0,0,0-.893-.978,6.361,6.361,0,0,1-1.1-2.165,81.139,81.139,0,0,1-2.958-10.8,17.578,17.578,0,0,0-.95-3.628,20.667,20.667,0,0,0-1.8-2.973c-1.206-1.819-1.135-2.9-1.966-4.915,1.833-.423,2.431-2.137,3.993-3.167,1.472-.973,3.647-3.044,5.223-3.8C559.926,356,559.494,357.654,560.339,358.784Z" transform="translate(-510.684 -295.928)" opacity="0.1"/><path d="M562.746,359.828c.475.665,1.073,1.268,1.562,1.933a29.4,29.4,0,0,1,2.161,3.9,26.449,26.449,0,0,0,3.281,4.848c1.282,1.505,2.806,3.039,2.949,5a1.6,1.6,0,0,0,.176.812,3.659,3.659,0,0,0,.584.475.479.479,0,0,1,.109.665c.731.076,1.035.95,1.173,1.681l.323,1.662a5.9,5.9,0,0,1,.157,1.32,5.5,5.5,0,0,1-.427,1.752,28.486,28.486,0,0,1-3,5.789,5.529,5.529,0,0,1-2.222,2.151,6.172,6.172,0,0,1-2.849.266c-1.349-.085-2.925-.3-3.594-1.477-.427-.75-.361-1.714-.826-2.436a9.736,9.736,0,0,0-.893-.983,6.374,6.374,0,0,1-1.1-2.16,80.989,80.989,0,0,1-2.958-10.808,17.515,17.515,0,0,0-.95-3.623,20.661,20.661,0,0,0-1.8-2.973,33.933,33.933,0,0,1-3.063-5.774,15.786,15.786,0,0,0,5.09-2.312c1.472-.95,3.647-3.044,5.223-3.8C562.333,357.041,561.906,358.713,562.746,359.828Z" transform="translate(-513.713 -296.474)" fill="#f30075"/><ellipse cx="0.992" cy="0.992" rx="0.992" ry="0.992" transform="translate(43.325 63.824)" fill="#3f3d56"/><ellipse cx="0.992" cy="0.992" rx="0.992" ry="0.992" transform="translate(46.431 68.673)" fill="#3f3d56"/><ellipse cx="0.992" cy="0.992" rx="0.992" ry="0.992" transform="translate(49.66 73.644)" fill="#3f3d56"/><path d="M630.817,377.361h9.089c.109-.617.038-1.315.442-1.79a5.276,5.276,0,0,1-.033,1.448c-.024.114-.052.228-.081.342h11.558a18.431,18.431,0,0,0-.413-4.335,40.158,40.158,0,0,1-.66-6.306c-.057-2.616.138-5.223.152-7.84a56.985,56.985,0,0,0-.5-7.74,24.474,24.474,0,0,1-.394-7.123c.432-2.626.8-5.285,1.135-7.925a8.839,8.839,0,0,1,.332-1.724,11.263,11.263,0,0,1,.475-1.154,17.766,17.766,0,0,0,1.539-6.045c.066-.788,1.182-1.5,1.168-2.3-1.519-.309-4.231-.689-5.7-.161s-2.55,1.823-4.022,2.313-3.03.133-4.459.612a1.188,1.188,0,0,0-.736.522.95.95,0,0,0,.556,1.192,2.777,2.777,0,0,0,1.424.109q-2.374,1.733-4.606,3.656a4.855,4.855,0,0,0-1.292,1.477,5.059,5.059,0,0,0-.351,2.2c0,.874,0,1.743-.024,2.616,0,1.681-.845,3.229-1.14,4.881-.37,2.089-.556,4.2-.726,6.315-.1,1.23-.195,2.46-.247,3.694-.095,2.374-.508,4.748-.546,7.1,0,.731,0,1.467-.066,2.194a21.379,21.379,0,0,1-.313,2.122c-.275,1.524-.551,3.053-.831,4.578a6.164,6.164,0,0,0-.133,1.211,6.828,6.828,0,0,1,.043,1.757,5.084,5.084,0,0,1-.28.717A7.955,7.955,0,0,0,630.817,377.361Z" transform="translate(-630.746 -280.041)" fill="#f30075"/><ellipse cx="13.424" cy="5.219" rx="13.424" ry="5.219" transform="translate(18.899 5.105)" fill="#3f3d56"/><path d="M620.943,263.289c4.217-1.657,5.869,1.956,5.869,1.956,1.624,4.331-1.425,6.866-3.257,7.954a4.517,4.517,0,0,1-2.3.632,4.418,4.418,0,0,1-1.714-.337,7.384,7.384,0,0,1-4.62-5.7C614.167,261.936,620.943,263.289,620.943,263.289Zm-4.4,4.606a6.173,6.173,0,0,0,3.756,4.748,3.59,3.59,0,0,0,3.262-.247c1.5-.9,3.97-3.02,2.65-6.624a3.5,3.5,0,0,0-4.749-1.629C621.442,264.134,615.934,263,616.546,267.9Z" transform="translate(-595.838 -247.695)" fill="#f30075"/><path d="M621.244,265.15s-5.508-1.13-4.9,3.761a6.173,6.173,0,0,0,3.756,4.748,3.585,3.585,0,0,0,1.391.28h0a3.571,3.571,0,0,0,1.871-.527c1.5-.9,3.97-3.02,2.65-6.624A3.515,3.515,0,0,0,621.244,265.15Z" transform="translate(-595.64 -248.71)" fill="#3f3d56"/><path d="M621.244,265.15s-5.508-1.13-4.9,3.761a6.173,6.173,0,0,0,3.756,4.748,3.585,3.585,0,0,0,1.391.28h0a3.571,3.571,0,0,0,1.871-.527c1.5-.9,3.97-3.02,2.65-6.624A3.515,3.515,0,0,0,621.244,265.15Z" transform="translate(-595.64 -248.71)" opacity="0.1" fill="url(#c)"/><path d="M594.354,267.815a7.384,7.384,0,0,1-4.62,5.7,4.415,4.415,0,0,1-1.714.337,4.515,4.515,0,0,1-2.3-.631c-1.843-1.088-4.882-3.623-3.258-7.954,0,0,1.652-3.614,5.869-1.956C588.329,263.3,595.1,261.946,594.354,267.815Zm-6.524-3.671a3.482,3.482,0,0,0-4.749,1.629c-1.32,3.6,1.154,5.7,2.65,6.624a3.59,3.59,0,0,0,3.262.247,6.173,6.173,0,0,0,3.756-4.748C593.338,263.015,587.83,264.145,587.83,264.145Z" transform="translate(-547.373 -247.705)" fill="#f30075"/><path d="M590.6,265.15s5.508-1.13,4.9,3.761a6.173,6.173,0,0,1-3.756,4.748,3.585,3.585,0,0,1-1.391.28h0a3.571,3.571,0,0,1-1.871-.527c-1.5-.9-3.97-3.02-2.65-6.624A3.515,3.515,0,0,1,590.6,265.15Z" transform="translate(-550.14 -248.71)" fill="#3f3d56"/><path d="M590.6,265.15s5.508-1.13,4.9,3.761a6.173,6.173,0,0,1-3.756,4.748,3.585,3.585,0,0,1-1.391.28h0a3.571,3.571,0,0,1-1.871-.527c-1.5-.9-3.97-3.02-2.65-6.624A3.515,3.515,0,0,1,590.6,265.15Z" transform="translate(-550.14 -248.71)" opacity="0.1" fill="url(#d)"/></g></g></svg>