<svg xmlns="http://www.w3.org/2000/svg" width="1790" height="762.063" viewBox="0 0 1790 762.063">
  <g id="Group_102" data-name="Group 102" transform="translate(-130)">
    <g id="Group_101" data-name="Group 101">
      <g id="Group_100" data-name="Group 100" transform="translate(130)">
        <path id="Path_819" data-name="Path 819" d="M1790-.5V761.563H1471.44q-6.757,0-13.514-.069l-3.222-.035q-5.482-.052-10.964-.172-16.781-.31-33.5-.989c-186.324-7.448-367.756-48.977-530.81-119.838C490.445,471.392,0,546.794,0,546.794V-.5Z" transform="translate(0 0.5)" fill="rgba(243,0,117,0.03)"/>
        <path id="Path_820" data-name="Path 820" d="M252.36,0,188.27,44,117.04,92.9l-7.64,5.25L51,138.24,0,173.25V82.56L23,66.77l4.89-3.36L51,47.55,56.16,44l64.1-44Z" fill="rgba(243,0,117,0.03)" opacity="0.1"/>
        <path id="Path_821" data-name="Path 821" d="M425,0,324,69.34,227.04,135.9l-7.64,5.25L212.33,146,0,291.76v-90.7L80.22,146,133,109.77l4.89-3.36L228.8,44,292.9,0Z" fill="rgba(243,0,117,0.03)" opacity="0.1"/>
        <path id="Path_822" data-name="Path 822" d="M1148,333.5H778V86.5h370Zm-368-2h366V88.5H780Z" transform="translate(590 84.885)" fill="rgba(243,0,117,0.03)"/>
        <rect id="Rectangle_307" data-name="Rectangle 307" width="44" height="116" transform="translate(1299 226)" fill="rgba(243,0,117,0.03)"/>
        <rect id="Rectangle_308" data-name="Rectangle 308" width="44" height="71" transform="translate(1420 275)" fill="rgba(243,0,117,0.03)"/>
        <rect id="Rectangle_309" data-name="Rectangle 309" width="44" height="164" transform="translate(1408 172)" fill="rgba(243,0,117,0.03)"/>
        <circle id="Ellipse_158" data-name="Ellipse 158" cx="22" cy="22" r="22" transform="translate(1420 196)" fill="rgba(243,0,117,0.03)"/>
        <path id="Path_823" data-name="Path 823" d="M325,146.5H50V42.5H325Zm-273-2H323V44.5H52Z" transform="translate(0 0.5)" fill="rgba(243,0,117,0.03)"/>
        <path id="Path_824" data-name="Path 824" d="M630,320.5H480v-73H630Zm-148-2H628v-69H482Z" transform="translate(269.714 42.14)" fill="rgba(243,0,117,0.03)"/>
        <path id="Path_825" data-name="Path 825" d="M161.5,72.5l52,23-52,22Z" transform="translate(248.749)" fill="rgba(243,0,117,0.03)"/>
        <circle id="Ellipse_159" data-name="Ellipse 159" cx="11" cy="11" r="11" transform="translate(765.433 315.768)" fill="rgba(243,0,117,0.03)"/>
        <circle id="Ellipse_160" data-name="Ellipse 160" cx="11" cy="11" r="11" transform="translate(816.462 315.768)" fill="rgba(243,0,117,0.03)"/>
        <circle id="Ellipse_161" data-name="Ellipse 161" cx="11" cy="11" r="11" transform="translate(867.491 315.768)" fill="rgba(243,0,117,0.03)"/>
        <path id="Path_826" data-name="Path 826" d="M553.257,168.361l-10.2,13.043c-16.26-23.07-35.729-41.771-57.928-55.594A188.158,188.158,0,0,0,424.483,101.5c-37.035-7.858-65.6-2.558-65.881-2.5l.686,3.584c.277-.053,28.115-5.217,64.438,2.489,32.9,6.98,79.478,26.265,116.212,78.248L523.855,186.8c10.121,3.06,22.509,10.468,31.272,17.2C552.876,193.183,551.6,178.8,553.257,168.361Z" transform="translate(210.842 -23.308)" fill="rgba(243,0,117,0.03)"/>
        <path id="Path_827" data-name="Path 827" d="M830.743,386.757c-.221.176-22.564,17.77-58.336,27.841-32.334,9.1-82.482,13.687-139.129-15.183l12.611-10.564c-10.382,2-24.794,1.216-35.684-.668,7.028,8.531,14.848,20.663,18.248,30.675l2.954-16.295c25.132,12.846,51.068,20.332,77.15,22.229q6.711.489,13.439.488a189.388,189.388,0,0,0,51.552-7.212c36.434-10.289,59.244-28.279,59.471-28.459Z" transform="translate(368.426 61.932)" fill="rgba(243,0,117,0.03)"/>
        <path id="Path_828" data-name="Path 828" d="M278.257,361.757c.221.176,22.564,17.77,58.336,27.841,32.334,9.1,82.482,13.687,139.129-15.183L463.11,363.851c10.382,2,24.794,1.216,35.684-.668-7.028,8.531-14.848,20.663-18.248,30.675l-2.954-16.295c-25.132,12.846-51.068,20.332-77.15,22.229q-6.711.489-13.439.488a189.387,189.387,0,0,1-51.552-7.213c-36.434-10.289-59.244-28.279-59.47-28.459Z" transform="translate(166.63 57.966)" fill="rgba(243,0,117,0.03)"/>
        <path id="Path_829" data-name="Path 829" d="M227.5,408.211H73.5v-154h154ZM75.639,406.073H225.361V256.35H75.639Z" transform="translate(0 50.072)" fill="rgba(243,0,117,0.03)"/>
        <rect id="Rectangle_310" data-name="Rectangle 310" width="94.111" height="8.584" transform="translate(103.444 349.35)" fill="rgba(243,0,117,0.03)"/>
        <rect id="Rectangle_311" data-name="Rectangle 311" width="94.111" height="8.584" transform="translate(103.444 376.983)" fill="rgba(243,0,117,0.03)"/>
        <rect id="Rectangle_312" data-name="Rectangle 312" width="94.111" height="8.584" transform="translate(103.444 404.616)" fill="rgba(243,0,117,0.03)"/>
        <path id="Path_830" data-name="Path 830" d="M685.9,109.635a12,12,0,1,1,12,12,12,12,0,0,1-12-12Zm2,0a10,10,0,1,0,10-10,10,10,0,0,0-10,10Z" transform="translate(344.114 51.871)" fill="rgba(243,0,117,0.03)"/>
        <path id="Path_831" data-name="Path 831" d="M825.581,550.372l-17.664-18.938,18.938-17.664,17.664,18.938Zm-14.848-18.84,14.946,16.024L841.7,532.61l-14.946-16.024Z" transform="translate(409.723 81.83)" fill="rgba(243,0,117,0.03)"/>
        <path id="Path_832" data-name="Path 832" d="M357.581,222.372l-17.664-18.938,18.938-17.664,17.664,18.938Zm-14.848-18.84,14.946,16.024L373.7,204.61l-14.946-16.024Z" transform="translate(172.384 29.958)" fill="rgba(243,0,117,0.03)"/>
        <circle id="Ellipse_162" data-name="Ellipse 162" cx="66.944" cy="66.944" r="66.944" transform="translate(1301.341 375.697)" fill="rgba(243,0,117,0.03)"/>
        <path id="Path_833" data-name="Path 833" d="M1093.68,662.5H986.44q-4.53,0-9.06-.06l-2.16-.03q-3.675-.045-7.35-.15l-2.38-9.41,4.76-.81,5.72-.97,54.88-9.32,45.7-7.76a9.829,9.829,0,0,1,4.3.21,10.008,10.008,0,0,1,7.37,8.92C1088.68,649.35,1090.06,656.96,1093.68,662.5Z" transform="translate(590 99.562)" fill="rgba(243,0,117,0.03)"/>
        <circle id="Ellipse_163" data-name="Ellipse 163" cx="43.99" cy="43.99" r="43.99" transform="translate(1271.666 426.632)" fill="rgba(243,0,117,0.03)"/>
        <path id="Path_834" data-name="Path 834" d="M992.111,446.784s15.435,39.359,3.087,46.305-18.522,7.718-18.522,7.718l-13.12,22.381-7.718,23.153,61.74,2.315,43.218-68.686s-20.837-10.8-31.642-57.11Z" transform="translate(357.607 78.569)" fill="rgba(243,0,117,0.03)"/>
        <path id="Path_835" data-name="Path 835" d="M1072.76,481.127s-7.85-5.158-15.116-3.351a56.168,56.168,0,0,0-10.352,3.35s-40.131,54.795-61.74,56.338c0,0-28.555,7.718-21.609-3.859s22.165-35.942,22.165-35.942-27.567,6.615-27.567,15.876-5.4,26.24-5.4,26.24-26.24,26.24,0,57.11,16.207,58.653,16.207,58.653l115.763-20.837Z" transform="translate(385.673 99.562)" fill="rgba(243,0,117,0.03)"/>
        <path id="Path_836" data-name="Path 836" d="M967.87,662.26q-11.25-.27-22.46-.86l4.48-68.68.93-14.35,20.84,39.36s1.86,13.75,4.31,33.34c.14,1.05.27,2.11.41,3.2.32,2.64.66,5.37,1,8.17l-2.16-.03Q971.545,662.365,967.87,662.26Z" transform="translate(477.549 99.562)" fill="rgba(243,0,117,0.03)"/>
        <circle id="Ellipse_164" data-name="Ellipse 164" cx="27.701" cy="27.701" r="27.701" transform="translate(1376.538 342.885)" fill="rgba(243,0,117,0.03)"/>
        <path id="Path_837" data-name="Path 837" d="M994.835,307.014a27.7,27.7,0,0,1,24.814-27.551,28,28,0,0,0-2.884-.15,27.7,27.7,0,1,0,0,55.4,28.012,28.012,0,0,0,2.885-.15,27.7,27.7,0,0,1-24.816-27.551Z" transform="translate(320.648 46.121)" fill="rgba(243,0,117,0.03)"/>
        <ellipse id="Ellipse_165" data-name="Ellipse 165" cx="27.701" cy="46.168" rx="27.701" ry="46.168" transform="matrix(0.257, -0.966, 0.966, 0.257, 1282.505, 456.348)" fill="rgba(243,0,117,0.03)"/>
        <path id="Path_838" data-name="Path 838" d="M1083.24,611.41c-.9,9.18-1.75,17.08-2.39,22.79-.06.45-.1.88-.15,1.3-.61,5.35-.99,8.47-.99,8.47l-9.17,18.53h-48.88c2.82-6.44,5.48-12.45,7.86-17.79.46-1.01.9-2,1.33-2.96,5.35-11.87,9.11-19.79,9.88-20.55,3.09-3.09,12.74-135.44,12.74-135.44s7.48-6.41,15.68-6.5h.01c5.73-.07,11.82,2.96,15.95,13.44C1091.85,509.82,1087.09,572.31,1083.24,611.41Z" transform="translate(414.453 99.562)" fill="rgba(243,0,117,0.03)"/>
        <path id="Path_839" data-name="Path 839" d="M955.459,599.732s17.031,36.114,15.651,45.77S955.459,599.732,955.459,599.732Z" transform="translate(476.007 99.562)" fill="rgba(243,0,117,0.03)" opacity="0.1"/>
        <ellipse id="Ellipse_166" data-name="Ellipse 166" cx="3.859" cy="7.718" rx="3.859" ry="7.718" transform="translate(1398.28 458.76)" fill="rgba(243,0,117,0.03)"/>
      </g>
    </g>
  </g>
</svg>
