<svg xmlns="http://www.w3.org/2000/svg" xmlns:xlink="http://www.w3.org/1999/xlink" width="375" height="812" viewBox="0 0 375 812"><defs><clipPath id="a"><rect width="375" height="812" fill="none"/></clipPath></defs><g clip-path="url(#a)"><path d="M670.1,239.841A131.631,131.631,0,0,1,516.935,369.762q-3.083-.5-6.122-1.156-4.118-.875-8.138-2.012A131.684,131.684,0,1,1,670.1,239.841Z" transform="translate(-446.651 -156.218)" fill="#f30075" opacity="0.098"/><g transform="translate(-91 -3.324)"><path d="M247,165.776V957.739c0,5.383,1.414,9.757,3.166,9.776H618.252c1.752-.02,3.169-4.394,3.166-9.776V165.776c0-5.383-1.413-9.756-3.166-9.776C618.252,156,247,160.394,247,165.776Z" transform="translate(-156 -152.676)" fill="#f30075" opacity="0"/><path d="M249.106,329.211c12.835-.037,24.953,4.524,35.521,11.618,11.093,7.445,20.468,17.309,28.7,27.756,9.1,11.544,16.9,24.036,25.27,36.1,7.731,11.143,16.015,21.976,25.978,31.235,9.426,8.76,20.344,16.125,32.656,20.119,1.5.487,3.017.917,4.546,1.3,1.724.433,2.459-2.229.734-2.662-12.644-3.173-23.949-10.046-33.668-18.612-10.141-8.939-18.573-19.545-26.324-30.57-8.439-12-16.2-24.483-25.128-36.143-8.256-10.788-17.541-20.932-28.569-28.948-10.234-7.439-22.088-12.737-34.8-13.771-1.639-.133-3.281-.19-4.925-.185a1.381,1.381,0,0,0,0,2.761Z" transform="translate(-156 356.84)" fill="#f30075"/><path d="M250.54,820.6c22.578-50.554,53.444-74.451,84.1-89.953,32.058-16.214,65.133-24.918,95.592-53.844,14.545-13.441,27.9-32.492,39.432-56.266,10.77-22.776,19.7-49.455,26.418-78.888,13.7-59.668,17.962-127.786,12.1-193.45-6.2-66.757-21.573-127.638-44.012-174.3q-4.1-8.535-8.493-16.342c-1.371-2.445-3.337,1.853-1.952,4.322,23.849,42.569,41.119,100.52,49.412,165.806,8.1,64.4,6.005,133-5.942,194.4-5.8,29.826-13.82,57.281-23.732,81.214-10.516,24.963-23.022,45.42-36.89,60.345-29.546,32.292-62.617,42.287-94.518,57.157-30.078,14.02-60.76,34.02-84.875,78.073q-4.49,8.216-8.588,17.4c-1.251,2.8.7,7.124,1.952,4.322Z" transform="translate(-156 -7.571)" fill="#f30075"/><path d="M248.632,283.793a137.963,137.963,0,0,1,92.034,3.6c8.619,3.38,17.46,7.309,24.67,13.845,6.2,5.623,11.65,14.134,10.1,23.691-1.428,8.809-8.514,15.768-16.141,17.041-7.866,1.313-15.032-4.16-18.64-11.917a25.77,25.77,0,0,1,1.458-24.7,28.267,28.267,0,0,1,19.59-12.146c8.516-1.271,16.892,1.6,24.257,6.4,16.647,10.848,27.278,29.76,41.259,44.177a68.572,68.572,0,0,0,23.149,16.3,63.675,63.675,0,0,0,25.831,4.467c18.4-.536,36.038-8.136,51.068-20.057,15.077-11.959,27.53-27.66,38.433-44.417,5.83-8.96,10.9-18.588,17-27.312,6.005-8.587,13.436-16.221,22.938-19.1a22.257,22.257,0,0,1,13.228-.084,1.2,1.2,0,0,0,1.445-.977,1.423,1.423,0,0,0-.8-1.686c-9.238-2.881-18.95.491-26.61,6.64-8.193,6.577-14.064,16.11-19.633,25.446-11.127,18.652-23.11,36.728-38.321,51.32-15.186,14.568-33.461,25.007-53.384,27.1a63.838,63.838,0,0,1-28.322-3.156c-9.581-3.442-17.889-9.659-25.233-17.408-14.429-15.225-25.653-35.21-43.712-45.4-7.612-4.3-15.942-6.357-24.378-4.721A30.466,30.466,0,0,0,340.5,303.261a28.429,28.429,0,0,0-3.265,24.8c2.668,8.01,8.62,14.928,16.18,16.505,7.63,1.592,15.6-2.432,20.367-9.281a25.015,25.015,0,0,0,1.865-24.583c-3.919-8.664-11.565-14.653-19.013-18.88a130.53,130.53,0,0,0-29.286-11.771,140.218,140.218,0,0,0-63.373-2.854,145.9,145.9,0,0,0-15.984,3.93,1.423,1.423,0,0,0-.8,1.686,1.2,1.2,0,0,0,1.445.977Z" transform="translate(-156 102.101)" fill="#f30075"/><path d="M573.948,760.115c12.624-26.275,25.533-54.144,30.982-86.289a159.234,159.234,0,0,0,1.163-47.071,134.617,134.617,0,0,0-10.788-37.82,130.355,130.355,0,0,0-43.381-53.024c-20.846-14.675-43.326-22.2-65.083-32.782-20.055-9.754-40.617-22.482-55.6-46.19-14.155-22.4-22.175-56.115-14.28-86.441,7.163-27.516,24.621-45.763,42.047-55.4,21.366-11.811,44.25-13.937,66.023-23.3,18.2-7.826,36.831-21.17,48.1-45.671,9.551-20.764,12.617-50.706,4.982-73.914a55.887,55.887,0,0,0-7.4-14.918c-1.7-2.385-4.229,1.514-2.523,3.91,12.874,18.083,13.027,49.021,5.774,71.923-8.517,26.89-26.906,42.208-44.606,50.908C508.3,294.4,486,296.608,464.835,306.351c-18.093,8.327-35.792,23.258-46.439,48.212a105.676,105.676,0,0,0-8.166,40.346,127.515,127.515,0,0,0,7.688,43.818c10.065,27.7,28.005,45.614,46.469,57.7,38.818,25.419,84.868,29.3,116.849,75.9a131.232,131.232,0,0,1,22.521,76.371c-.594,32.842-11.922,62.723-23.7,88.965-2.982,6.641-6.07,13.164-9.187,19.653-1.372,2.856,1.724,5.616,3.081,2.791Z" transform="translate(-187.679 54.026)" fill="#f30075"/><path d="M604.223,457.363a92.192,92.192,0,0,1,17.1-36.58,96.7,96.7,0,0,1,30.789-26.217,89.249,89.249,0,0,1,21.348-8.16c1.727-.416,1-3.079-.734-2.662a94.821,94.821,0,0,0-37.092,18.485,99.071,99.071,0,0,0-26.165,32.2,92.139,92.139,0,0,0-7.913,22.2C601.188,458.361,603.849,459.1,604.223,457.363Z" transform="translate(-209.582 356.84)" fill="#f30075"/><circle cx="53.38" cy="53.38" r="53.38" transform="translate(285.944 532.215)" fill="#f30075"/><circle cx="21.168" cy="21.168" r="21.168" transform="translate(371.073 183.505)" fill="#f30075"/><circle cx="21.168" cy="21.168" r="21.168" transform="translate(112.284 162.572)" fill="#f30075"/><path d="M249.212,335.112c13.859-.117,26.944,14.194,38.355,36.447,11.978,23.357,22.1,54.3,30.995,87.076,9.827,36.217,18.248,75.4,27.287,113.258,8.348,34.958,17.292,68.944,28.051,97.991,10.179,27.481,21.967,50.587,35.262,63.118a50.635,50.635,0,0,0,4.909,4.08c1.861,1.357,2.655-6.994.793-8.353-13.653-9.955-25.86-31.517-36.354-58.39-10.951-28.042-20.055-61.317-28.424-95.9-9.113-37.656-17.5-76.807-27.133-113.386-8.915-33.845-18.941-65.668-30.849-90.817-11.05-23.337-23.851-39.959-37.573-43.2a22.2,22.2,0,0,0-5.318-.58c-.8.082-1.439,2-1.439,4.331S248.409,335.031,249.212,335.112Z" transform="translate(-105 -134.16)" fill="#f30075"/></g><path d="M659.514,234.546a126.338,126.338,0,0,1-147.01,124.7q-2.959-.483-5.876-1.11-3.952-.839-7.811-1.931a126.388,126.388,0,1,1,160.7-121.656Z" transform="translate(-199.651 111.782)" fill="#f30075" opacity="0.098"/><path d="M754.784,282.181a173.959,173.959,0,0,1-202.423,171.7q-4.074-.665-8.09-1.528-5.442-1.156-10.755-2.658A174.028,174.028,0,1,1,754.784,282.181Z" transform="translate(-446.651 396.282)" fill="#f30075" opacity="0.099"/><path d="M543.491,177.9c0,30.517-19.217,56.453-45.983,65.907a67.527,67.527,0,0,1-33.543,2.9q-1.6-.266-3.178-.612-2.138-.463-4.225-1.065c-28.735-8.249-49.8-35.179-49.8-67.127,0-38.511,30.607-69.731,68.363-69.731S543.491,139.39,543.491,177.9Z" transform="translate(-392.651 246.829)" fill="#f30075" opacity="0.102"/></g></svg>