<svg xmlns="http://www.w3.org/2000/svg" width="423.211" height="311.742" viewBox="0 0 423.211 311.742">
  <g id="Group_106" data-name="Group 106" transform="translate(-1553 -244)">
    <g id="Group_99" data-name="Group 99" transform="translate(1553 244)">
      <path id="Path_771" data-name="Path 771" d="M424.366,374.869a136.882,136.882,0,1,1,96.79-40.092,136.882,136.882,0,0,1-96.79,40.092Zm0-272.872c-74.985,0-135.99,61-135.99,135.99s61,135.99,135.99,135.99,135.99-61,135.99-135.99S499.352,102,424.366,102Z" transform="translate(-214.38 -63.372)" fill="#3f3d56"/>
      <path id="Path_772" data-name="Path 772" d="M602.935,657.907c-2.535,9.37-11.217,15.173-11.217,15.173s-4.573-9.389-2.038-18.759S600.9,639.148,600.9,639.148,605.469,648.537,602.935,657.907Z" transform="translate(-382.639 -420.438)" fill="#f30075"/>
      <path id="Path_773" data-name="Path 773" d="M567.69,657.907c2.535,9.37,11.217,15.173,11.217,15.173s4.573-9.389,2.038-18.759-11.217-15.173-11.217-15.173S565.155,648.537,567.69,657.907Z" transform="translate(-368.905 -420.438)" fill="#f30075"/>
      <path id="Path_774" data-name="Path 774" d="M555.391,667.582c6.956,6.771,7.805,17.179,7.805,17.179s-10.428-.569-17.383-7.34-7.805-17.179-7.805-17.179S548.435,660.811,555.391,667.582Z" transform="translate(-351.614 -432.539)" fill="#3f3d56"/>
      <path id="Path_775" data-name="Path 775" d="M602.305,667.582c-6.956,6.771-7.805,17.179-7.805,17.179s10.428-.569,17.383-7.34,7.805-17.179,7.805-17.179S609.261,660.811,602.305,667.582Z" transform="translate(-386.984 -432.539)" fill="#3f3d56"/>
      <path id="Path_776" data-name="Path 776" d="M567.69,117.322c2.535-9.37,11.217-15.173,11.217-15.173s4.573,9.389,2.038,18.759-11.217,15.173-11.217,15.173S565.155,126.692,567.69,117.322Z" transform="translate(-368.905 -63.958)" fill="#f30075"/>
      <path id="Path_777" data-name="Path 777" d="M602.935,117.322c-2.535-9.37-11.217-15.173-11.217-15.173s-4.573,9.389-2.038,18.759S600.9,136.081,600.9,136.081,605.469,126.692,602.935,117.322Z" transform="translate(-382.639 -63.958)" fill="#f30075"/>
      <path id="Path_778" data-name="Path 778" d="M602.305,119.345c-6.956-6.771-7.805-17.179-7.805-17.179s10.428.569,17.383,7.34,7.805,17.179,7.805,17.179S609.261,126.116,602.305,119.345Z" transform="translate(-386.984 -63.967)" fill="#3f3d56"/>
      <path id="Path_779" data-name="Path 779" d="M555.391,119.345c6.956-6.771,7.805-17.179,7.805-17.179s-10.428.569-17.383,7.34-7.805,17.179-7.805,17.179S548.435,126.116,555.391,119.345Z" transform="translate(-351.614 -63.967)" fill="#3f3d56"/>
      <path id="Path_818" data-name="Path 818" d="M0,0H177.213V180.206H0Z" transform="translate(6.522 5.652)" fill="#f30075"/>
      <path id="Path_780" data-name="Path 780" d="M189.748,22.935H22.935V191.666h8.948V32.522H189.748Z" transform="translate(-12.709 -12.709)" fill="#3f3d56"/>
      <path id="Path_781" data-name="Path 781" d="M189.748,22.935H22.935V191.666h8.948V32.522H189.748Z" transform="translate(-12.709 -12.709)" opacity="0.3"/>
      <path id="Path_782" data-name="Path 782" d="M175.3,44.437H43V67.446h125.27V203.58h32.6V44.437Z" transform="translate(-23.829 -24.624)" opacity="0.1"/>
      <path id="Path_783" data-name="Path 783" d="M39.5,16.495V205.678H226.765V16.495ZM216.539,195.451H49.726V26.721H216.539Z" transform="translate(-39.5 -16.495)" fill="#3f3d56"/>
      <path id="Path_784" data-name="Path 784" d="M323.068,456.438s8.468,16.406,13.231,20.111-7.674,8.2-7.674,8.2L314.071,462Z" transform="translate(-211.33 -301.253)" fill="#a0616a"/>
      <path id="Path_785" data-name="Path 785" d="M198.722,366.82s39.429,10.32,42.869,17.2,14.025,23.551,14.025,23.551L240,420.009l-15.348-23.022-42.339-19.053Z" transform="translate(-118.638 -245.681)" fill="#2f2e41"/>
      <path id="Path_786" data-name="Path 786" d="M332.564,499.3s-3.7-3.175-4.763-1.059-4.234,12.966-4.234,12.966,4.5,4.234,13.76,1.588c0,0,2.382-1.852,6.086,0s17.465-1.852,16.936-7.939S345.8,499.3,345.8,499.3s-5.907-6.618-6.658-4.1.307,2.78.307,2.78S334.681,503,332.564,499.3Z" transform="translate(-217.866 -324.845)" fill="#2f2e41"/>
      <path id="Path_787" data-name="Path 787" d="M238.97,492.641l-2.646,22.228H249.29s-1.059-17.2-.794-19.317S238.97,492.641,238.97,492.641Z" transform="translate(-144.375 -321.945)" fill="#a0616a"/>
      <path id="Path_788" data-name="Path 788" d="M252.957,382.845s7.145,10.585,2.911,11.379-7.674-11.379-7.674-11.379Z" transform="translate(-169.667 -252.082)" fill="#a0616a"/>
      <path id="Path_789" data-name="Path 789" d="M137.06,377.84s-5.292,15.613,15.613,19.847,27.256,7.674,27.256,7.674l2.646,26.991,18.259,1.059s8.732-41.016-2.646-46.309-35.459-11.379-35.459-11.379Z" transform="translate(-93.23 -251.997)" fill="#2f2e41"/>
      <path id="Path_790" data-name="Path 790" d="M231.325,526.46a33.393,33.393,0,0,1,4.234-1.852s2.326-5.365,6.588-4.8l9.29,13.532s14.025,10.056,4.234,12.7a36.193,36.193,0,0,1-17.465.529l-3.969-2.911s.529-2.911-2.911-2.382c0,0-7.145-2.911-6.88-5.028s5.885-11.332,5.885-11.332Z" transform="translate(-136.561 -336.151)" fill="#2f2e41"/>
      <circle id="Ellipse_154" data-name="Ellipse 154" cx="10.585" cy="10.585" r="10.585" transform="translate(68.044 71.289)" fill="#a0616a"/>
      <path id="Path_791" data-name="Path 791" d="M211.229,233.878s-9.526,6.88-11.379,7.145,8.732,13.231,8.732,13.231,5.028-8.2,8.2-9.262S211.229,233.878,211.229,233.878Z" transform="translate(-128.234 -156.76)" fill="#a0616a"/>
      <path id="Path_792" data-name="Path 792" d="M168.462,246.886s-3.969-5.292-6.351-5.292S138.3,243.975,136.443,261.7s-.794,48.69-.794,48.69-1.588-7.674,16.142-4.5c0,0,21.17-4.5,24.874-4.5s5.292-37.841,5.292-37.841l-6.025-9.342S173.225,259.323,168.462,246.886Z" transform="translate(-92.612 -164.863)" fill="#d0cde1"/>
      <path id="Path_793" data-name="Path 793" d="M227.364,286.105l3.969,2.117,4.763,29.108,6.616,15.083s-7.145-2.46-7.674.49L224.454,317.6Z" transform="translate(-155.107 -192.369)" fill="#d0cde1"/>
      <path id="Path_794" data-name="Path 794" d="M229.271,209.851l5.758.719c-.11,1.172-.079,2.624.959,3.178.488.261,1.107.247,1.54.592,1.041.83.023,2.614.61,3.808l1.684.446a3.255,3.255,0,0,0,4.424,1.327,6.315,6.315,0,0,0,2.218-3.2,8.092,8.092,0,0,0,.925-4.566c-.327-1.662-1.685-3.044-1.747-4.737-.028-.757.132-1.7-.506-2.11a2.7,2.7,0,0,0-.934-.248c-1.471-.307-2.29-1.83-3.387-2.857-2.3-2.152-5.83-2.1-8.974-1.908a7.97,7.97,0,0,0-2.641.46,7.694,7.694,0,0,0-2.488,1.984,25.993,25.993,0,0,0-4.44,5.882,10.438,10.438,0,0,0-1.056,7.16c-.06-.23,1.942-1.735,2.191-1.976a5.188,5.188,0,0,0,1.276-1.99C225.67,209.787,227.042,209.573,229.271,209.851Z" transform="translate(-153.152 -135.026)" fill="#2f2e41"/>
      <path id="Path_795" data-name="Path 795" d="M162.1,281.777,162.9,300.3l11.771,13.8-10.712-15.391Z" transform="translate(-89.827 -182.681)" opacity="0.1"/>
      <path id="Path_796" data-name="Path 796" d="M114.625,293.054l9.262,21.434,11.908,9.791-12.7-8.732Z" transform="translate(-63.517 -189.906)" opacity="0.1"/>
      <path id="Path_797" data-name="Path 797" d="M255.211,348.306l5.6,3.85a1.545,1.545,0,0,1,.428,1.9l-.748,1.545.173.119-.85,1.755-.173-.119-6.164,12.721a1.194,1.194,0,0,1-1.776.567l-5.259-3.618a1.777,1.777,0,0,1-.492-2.186l7.783-16.061a1,1,0,0,1,1.483-.474Z" transform="translate(-168.346 -230.679)" fill="#3f3d56"/>
      <path id="Path_798" data-name="Path 798" d="M207.976,348.635,214,352.778l7.858-16.215-6.024-4.143Z" transform="translate(-129.865 -214.49)" fill="#fff"/>
      <path id="Path_799" data-name="Path 799" d="M236.094,377.277s10.5,7.274,6.839,9.549S231.654,379,231.654,379Z" transform="translate(-145.979 -248.371)" fill="#a0616a"/>
      <path id="Path_800" data-name="Path 800" d="M158.571,256.431s-13.76,3.969-9.791,16.142c.958,2.936,2.115,6.088,3.321,9.181,3.792,9.728,8.058,18.869,8.058,18.869l11.961,10.814,16.089,4.534,1.852-1.588s.529-5.028-1.852-5.557a29.407,29.407,0,0,1-6.086-2.646L172.6,292.155S172.331,257.225,158.571,256.431Z" transform="translate(-99.657 -173.93)" fill="#d0cde1"/>
      <rect id="Rectangle_300" data-name="Rectangle 300" width="172.994" height="175.915" transform="translate(416.844 265.86) rotate(180)" fill="#f30075"/>
      <path id="Path_801" data-name="Path 801" d="M733.389,322.881H896.23V487.594H887.5V332.24H733.389Z" transform="translate(-483.002 -227.476)" fill="#3f3d56"/>
      <path id="Path_802" data-name="Path 802" d="M733.389,322.881H896.23V487.594H887.5V332.24H733.389Z" transform="translate(-483.002 -227.476)" opacity="0.3"/>
      <path id="Path_803" data-name="Path 803" d="M758.346,343.871H887.5v22.461H765.208V499.226h-31.82V343.871Z" transform="translate(-483.002 -240.17)" opacity="0.1"/>
      <path id="Path_804" data-name="Path 804" d="M750.5,316.987V501.665H933.307V316.987Zm9.983,9.983H923.324V491.682H760.483Z" transform="translate(-510.096 -232.665)" fill="#3f3d56"/>
      <path id="Path_805" data-name="Path 805" d="M952.324,503.581c-3.937-6.651-11.724-6.961-11.724-6.961s-7.589-.97-12.457,9.16c-4.538,9.442-10.8,18.559-1.008,20.769l1.769-5.505,1.1,5.915a38.32,38.32,0,0,0,4.19.072c10.486-.339,20.473.1,20.151-3.664C953.911,518.364,956.111,509.981,952.324,503.581Z" transform="translate(-605.1 -327.515)" fill="#2f2e41"/>
      <path id="Path_806" data-name="Path 806" d="M885.909,612.053l-.828,14.907,24.293,2.484.828-15.459-8.282-5.245Z" transform="translate(-554.137 -392.835)" fill="#a0616a"/>
      <path id="Path_807" data-name="Path 807" d="M966.337,676.509c-.728-7.042-29.65-10.239-36.6-10.906l-2.6-1.516-.828-8.834s-25.673-2.208-27.605-2.484-3.589,3.313-3.589,4.141c0,.6-.361,4.873-1.812,7.406-3.132,2.517-12.681,10.436-12.681,13.436,0,3.589,7.592,48.724,7.592,48.724l.828,9.386,7.73,1.38-.552-29.262s2.761-16.839-1.1-21.532v-1.932s11.335-2.953,15.331-6.169c1.158-.249,4.411-.862,6.208-.329.246.145.53.294.846.446a1.274,1.274,0,0,1,.114.117l.031-.048c5.168,2.419,18.426,5.47,23.848,4.6a18.975,18.975,0,0,1,12.146,2.208c-3.037,3.865-.828,14.907-.828,14.907l.276,23.741,3.865,4.693H962.2V715.709S967.166,684.515,966.337,676.509Z" transform="translate(-582.201 -443.896)" fill="#2f2e41"/>
      <circle id="Ellipse_155" data-name="Ellipse 155" cx="9.11" cy="9.11" r="9.11" transform="translate(323.957 176.135)" fill="#a0616a"/>
      <path id="Path_808" data-name="Path 808" d="M937.021,545.676s1.38,6.073-.552,6.625a26.122,26.122,0,0,0-4.417,1.932l-2.208,7.177v7.177l26.777,3.037.828-2.484v-3.589l-3.037-5.521-1.38-1.38s-6.073-6.625-4.693-12.975Z" transform="translate(-597.269 -358.69)" fill="#a0616a"/>
      <path id="Path_809" data-name="Path 809" d="M991.263,594.9s.828,9.662,0,14.079a61.181,61.181,0,0,0-.552,11.042l-6.073-1.1V604.008l1.38-8.006Z" transform="translate(-639.838 -390.397)" fill="#a0616a"/>
      <circle id="Ellipse_156" data-name="Ellipse 156" cx="5.631" cy="5.631" r="5.631" transform="translate(330.821 166.92)" fill="#2f2e41"/>
      <path id="Path_810" data-name="Path 810" d="M950.484,486.4a5.631,5.631,0,0,1,5.038-5.6,5.631,5.631,0,1,0,0,11.2,5.631,5.631,0,0,1-5.038-5.6Z" transform="translate(-620.256 -315.04)" fill="#2f2e41"/>
      <path id="Path_811" data-name="Path 811" d="M921.172,489.322l-7.694-4.03-10.626,1.649-2.2,9.709,5.472-.21,1.529-3.567v3.508l2.525-.1,1.466-5.679.916,6.046,8.977-.183Z" transform="translate(-575.689 -312.068)" fill="#2f2e41"/>
      <path id="Path_812" data-name="Path 812" d="M901.488,818.356s3.917,1.843,5.069,2.535,5.761-.691,4.839,3.456-4.839,8.065-4.839,8.065-1.843,2.074-1.843,3.456-4.608,11.982-10.139,11.521-4.609-5.991-4.609-5.991l1.152-5.991s2.3-10.139,2.765-9.908a10.076,10.076,0,0,1,1.613,1.843A10.221,10.221,0,0,0,901.488,818.356Z" transform="translate(-586.481 -535.662)" fill="#d0cde1"/>
      <path id="Path_813" data-name="Path 813" d="M1032.264,802.877s-3.917,1.843-5.069,2.535-5.761-.691-4.839,3.456,4.839,8.065,4.839,8.065,1.843,2.074,1.843,3.456,4.609,11.982,10.139,11.521,4.609-5.991,4.609-5.991l-1.152-5.991s-2.3-10.139-2.765-9.908a10.066,10.066,0,0,0-1.613,1.843A10.221,10.221,0,0,1,1032.264,802.877Z" transform="translate(-660.672 -527.085)" fill="#d0cde1"/>
      <path id="Path_814" data-name="Path 814" d="M964.509,649.519v-2.191h-.487v-.974a1.7,1.7,0,0,0-1.7-1.7h-5.842a1.7,1.7,0,0,0-1.7,1.7v16.309a1.7,1.7,0,0,0,1.7,1.7h5.842a1.7,1.7,0,0,0,1.7-1.7V652.44h.487v-2.191h-.487v-.73Z" transform="translate(-623.289 -421.705)" fill="#d0cde1"/>
      <circle id="Ellipse_157" data-name="Ellipse 157" cx="0.974" cy="0.974" r="0.974" transform="translate(335.378 228.722)" fill="#3f3d56"/>
      <path id="Path_815" data-name="Path 815" d="M904.262,584.372,899.293,604.8a5.755,5.755,0,0,0,2.484,7.177c4.417,2.761,14.355,6.349,14.355,6.349s8.834,12.146,9.938,7.177-6.625-11.318-6.625-11.318l-13.527-8.558,5.245-14.355Z" transform="translate(-577.827 -386.213)" fill="#a0616a"/>
      <path id="Path_816" data-name="Path 816" d="M979.992,641.927s4.141-.552,3.865,4.141-5.8,5.245-5.8,5.245-2.484,10.49-6.073,8.558,1.932-12.422,1.932-12.422l4.693-3.589Z" transform="translate(-632.156 -419.701)" fill="#a0616a"/>
      <path id="Path_817" data-name="Path 817" d="M919.683,569.026l4.417-9.11-8.834,3.037a10.217,10.217,0,0,0-5.245,8.282c-.276,5.8,6.349,8.834,6.349,8.834s1.1,8.282.552,9.386,0,5.521,0,5.521,10.628-2.9,15.873.69,9.524,1.518,9.524,1.518-.276-6.9,1.932-8.006,4.141-6.349,2.208-9.662c0,0,4.417.552,4.141-3.589a10.856,10.856,0,0,0-6.073-9.386c-3.589-1.656-3.985-1.921-3.985-1.921l5.09,9.374v2.484s-9.01-5.751-17.924-6.23a11.873,11.873,0,0,0-8.025,2.642h0Z" transform="translate(-598.486 -369.616)" fill="#2f2e41"/>
    </g>
  </g>
</svg>
