<svg xmlns="http://www.w3.org/2000/svg" width="1187" height="792.779" viewBox="0 0 1187 792.779">
  <g id="Group_104" data-name="Group 104" transform="translate(-125 -287.43)">
    <g id="Group_103" data-name="Group 103" transform="translate(125 287.43)">
      <circle id="Ellipse_167" data-name="Ellipse 167" cx="47.5" cy="47.5" r="47.5" transform="translate(21.309 100.696)" fill="#ff6584"/>
      <path id="Path_840" data-name="Path 840" d="M398.254,480.6,443.5,413.309l-45.156,74.528.094,7.572q-4.955.038-9.814-.165l2.244-97.329-.061-.751.083-.145.215-9.2-49.552-71.944,49.494,65.061.176,1.944,1.7-73.536-42.8-74.59,42.922,61.671-.448-152.347v-.507l.015.5,2.841,120.07,39.007-48.773-38.879,59.116.851,65.776,35.894-64.195-35.762,73.865.474,36.575,52.2-89.423L397.194,399.267Z" transform="translate(-84.9 -101.396)" fill="#3f3d56"/>
      <path id="Path_841" data-name="Path 841" d="M555.455,529.42,600.7,462.131l-45.156,74.528.094,7.572q-4.955.038-9.814-.165l2.244-97.329-.061-.751.083-.145.215-9.2L498.757,364.7,548.25,429.76l.176,1.944,1.7-73.536-42.8-74.59,42.922,61.671L549.795,192.9V192.4l.015.5,2.841,120.07,39.007-48.772-38.879,59.116.851,65.776,35.894-64.195-35.762,73.865.474,36.575,52.2-89.423L554.4,448.089Z" transform="translate(-24.664 -101.396)" fill="#e6e6e6"/>
      <path id="Path_842" data-name="Path 842" d="M260.7,438.42l45.248-67.289L260.8,445.659l.094,7.572q-4.955.038-9.814-.165l2.244-97.329-.061-.751.083-.145.215-9.2L204,273.7,253.5,338.76l.176,1.944,1.7-73.536-42.8-74.59,42.922,61.671L255.043,101.9V101.4l.015.5,2.841,120.07,39.007-48.773-38.879,59.116.851,65.776,35.894-64.195L259.01,307.755l.474,36.575,52.2-89.423L259.643,357.089Z" transform="translate(-156 -101.396)" fill="#3f3d56"/>
      <path id="Path_843" data-name="Path 843" d="M707.042,599.213l45.248-67.289-45.156,74.528.094,7.572q-4.955.038-9.814-.165l2.244-97.329-.061-.751.083-.145.215-9.2-49.552-71.944,49.494,65.061.176,1.944,1.7-73.536-42.8-74.59,42.922,61.671L701.382,262.7v-.507l.015.5,2.841,120.07,39.007-48.773L704.366,393.1l.851,65.776,35.894-64.195L705.35,468.548l.474,36.575,52.2-89.423L705.982,517.882Z" transform="translate(33.421 -56.901)" fill="#e6e6e6"/>
      <path id="Path_844" data-name="Path 844" d="M1343,798.6H156V418.7c1.213,0,2.439,0,3.652.009,146.855.131,287.419,8.805,417.126,24.572q9.737,1.165,19.387,2.414c.563.065,1.113.131,1.664.206q41.107,5.263,80.638,11.481,7.054,1.123,14.071,2.255,28.405,4.6,55.9,9.694,12.946,2.386,25.679,4.884c123.528,24.16,232.184,55.348,320.54,91.822a870.242,870.242,0,0,1,90.958,43.389C1285.739,665.133,1343,729.726,1343,798.6Z" transform="translate(-156 -5.825)" fill="#3f3d56"/>
      <path id="Path_845" data-name="Path 845" d="M840.593,798.6H156V505.723c103.145,0,200.965,9.76,288.689,27.239q12.871,2.555,25.442,5.352,5.53,1.207,11.013,2.489,17.068,3.944,33.555,8.3,23.033,6.063,44.83,12.876,12.9,4.042,25.321,8.309c.917.318,1.834.636,2.742.954q9.755,3.383,19.2,6.934c56.733,21.25,105.184,46.449,143.025,74.586C807.562,695.7,840.593,745.5,840.593,798.6Z" transform="translate(-156 -5.825)" fill="#f30075"/>
      <path id="Path_846" data-name="Path 846" d="M746.609,749.516l-1.478,1.151a183.173,183.173,0,0,1,20.941,33.546l1.694-.8a185.611,185.611,0,0,0-21.157-33.892Zm-56.115-53.523c-.571-.43-1.142-.852-1.712-1.273l-1.114,1.506c.571.421,1.142.842,1.7,1.263A335.325,335.325,0,0,1,718.285,721.5l1.282-1.366a338.715,338.715,0,0,0-29.073-24.142Zm-69.852-42.688-.852,1.675c12.164,6.185,23.87,12.66,34.781,19.248l.964-1.6C644.587,666.022,632.844,659.519,620.642,653.305Zm-73.071-31.9-.655,1.75c12.651,4.744,25.068,9.76,36.886,14.9l.739-1.712C572.7,631.185,560.26,626.16,547.571,621.407Zm-47.647-16.338c-9.17-2.873-18.64-5.68-28.156-8.347l-.505,1.806c9.5,2.657,18.948,5.465,28.1,8.319,3.359,1.057,6.681,2.115,9.993,3.191l.571-1.778Q504.959,606.646,499.925,605.069Zm-78.451-21.194c-3.724-.87-7.439-1.712-11.023-2.5-5.352-1.188-10.78-2.349-16.151-3.462l-.374,1.834c5.352,1.1,10.779,2.274,16.122,3.462,3.584.777,7.28,1.619,10.995,2.48,3.921.908,7.86,1.843,11.715,2.77l.44-1.815c-3.855-.936-7.8-1.872-11.725-2.77Zm-105.69-19.716-.271,1.853c13.194,1.909,26.425,4.024,39.31,6.279l.328-1.843C342.237,568.192,329,566.077,315.784,564.159Zm-79.19-9.226-.168,1.862c13.24,1.188,26.565,2.555,39.609,4.07L276.25,559C263.187,557.487,249.844,556.121,236.594,554.933Zm-79.574-5.025-.066,1.871c13.25.5,26.631,1.17,39.768,2l.112-1.871C183.688,551.087,170.3,550.413,157.02,549.908Z" transform="translate(-156 -5.825)" fill="#fff"/>
      <path id="Path_847" data-name="Path 847" d="M635,798.6H156V593.681c177.694,0,332.8,41.4,415.479,102.883C611.884,726.61,635,761.456,635,798.6Z" transform="translate(-156 -5.825)" fill="#3f3d56"/>
      <path id="Path_848" data-name="Path 848" d="M1343,798.6H156l555.376-102.04,238.388-43.8,235.849-43.333C1285.739,665.133,1343,729.726,1343,798.6Z" transform="translate(-156 -5.825)" opacity="0.2"/>
      <path id="Path_849" data-name="Path 849" d="M676.351,294.712l1.98-3.465-9.9-1.98-.99,4.95,1.485,3.96Z" transform="translate(227.525 40.165)" fill="#6c63ff"/>
      <path id="Path_850" data-name="Path 850" d="M676.351,294.712l1.98-3.465-9.9-1.98-.99,4.95,1.485,3.96Z" transform="translate(227.525 40.165)" opacity="0.2"/>
      <circle id="Ellipse_168" data-name="Ellipse 168" cx="12.871" cy="12.871" r="12.871" transform="translate(885.884 304.708)" fill="#ffb8b8"/>
      <path id="Path_851" data-name="Path 851" d="M659.767,279.613l-10.4,17.327,15.347,8.911,7.92-18.317Z" transform="translate(224.534 39.827)" fill="#ffb8b8"/>
      <path id="Path_852" data-name="Path 852" d="M814.777,401.306l-13.366-5.445s-20.3,3.465-22.277,9.9-1.98,58.415-1.98,58.415-4.95,12.871,1.98,13.366c0,0-1.98,2.97,0,3.465s22.277,0,30.2,2.475,23.762,4.455,23.762,1.98v-4.455s3.465-3.465,1.485-9.406-4.455-18.812-4.455-18.812,14.851-32.673,13.366-36.633-19.617-16.207-19.617-16.207Z" transform="translate(69.912 -54.992)" fill="#6c63ff"/>
      <path id="Path_853" data-name="Path 853" d="M628.085,362.781l.495,3.96,6.93-8.416h-2.475Z" transform="translate(213.267 49.718)" fill="#ffb8b8"/>
      <path id="Path_854" data-name="Path 854" d="M814.777,401.306l-14.356-3.465s-2.97-2.475-2.97-5.445,4.455-7.426,7.426-10.4a2.74,2.74,0,0,1,1.99-.827c2.94-.025,6.5,3.832,6.5,3.832l-3.955,6.6-.178.292Z" transform="translate(64.282 -61.905)" fill="#6c63ff"/>
      <path id="Path_855" data-name="Path 855" d="M825.843,395.394l8.489-2.752s2.723,10.643-.248,11.138-19.307-.99-19.307-.99Z" transform="translate(71.111 -60.819)" fill="#6c63ff"/>
      <path id="Path_856" data-name="Path 856" d="M780.124,478.533l-6.436,36.633s-2.475,4.455-1.485,6.436,1.485,1.98,0,2.97-3.465,0-2.97,2.475a25.264,25.264,0,0,1,.495,4.455l-13.861,47.524s-8.911,3.96-2.475,6.436,12.871,4.455,14.356,1.98,0-5.445,0-5.445l22.772-54.455s3.465-4.95,3.465-7.921,11.386-24.257,11.386-24.257.495,21.287.99,22.772-.99,4.455-.99,6.436-.99,1.98,0,2.97.99,12.376.99,12.376-5.941,44.059-2.475,44.554,13.366-.495,13.366-2.475a2.47,2.47,0,0,0-1.485-2.475L822.2,541.9a7.877,7.877,0,0,1,.495-4.455c.99-1.98.99-1.98.99-2.97s-.495-1.485,0-1.98a2.444,2.444,0,0,0,.495-1.485s-.99-2.97-.495-3.465,11.386-37.623,7.921-42.079S780.124,478.533,780.124,478.533Z" transform="translate(64.537 -40.01)" fill="#2f2e41"/>
      <path id="Path_857" data-name="Path 857" d="M804.381,582.987l-3.465,7.921s-7.921,8.911-1.98,10.891,7.921,1.485,7.921,1.485,2.475.495,2.475,1.485,19.8,8.416,21.287,1.98-15.346-18.317-15.346-18.317v-5.941Z" transform="translate(68.325 -32.807)" fill="#2f2e41"/>
      <path id="Path_858" data-name="Path 858" d="M766.2,586.653l.75,8.613s4.654,10.976-1.608,10.952-7.98-1.127-7.98-1.127-2.5-.323-2.82.615-21.453,1.64-20.8-4.933,20.4-12.445,20.4-12.445l1.9-5.628Z" transform="translate(46.481 -33.109)" fill="#2f2e41"/>
      <path id="Path_859" data-name="Path 859" d="M814.122,384.532c.795-.053,1.325-.92,1.545-1.744a8.571,8.571,0,0,1,.725-2.436c1.231-1.941,4.431-1.157,5.73-3.046.8-1.162.632-3.053,1.786-3.792a2.8,2.8,0,0,1,2.46.067,26.884,26.884,0,0,1,8.473,5.046l1.034-.842,1.291,2.581c.5-.6,1.466-.136,1.886.535s.624,1.529,1.223,2.018c.955.779,2.446.119,3.024-1.011a6.24,6.24,0,0,0,.282-3.783,27.1,27.1,0,0,0-3.143-9.07l1.181-.709-1.527-.218.584-1.326-1.6-.019.632-1.134c-2.151.738-4.373-.614-6.427-1.621a18.356,18.356,0,0,0-11.032-1.868,13.945,13.945,0,0,0-9.432,6.127,12.534,12.534,0,0,0-1.753,9.334C811.8,380.405,815.032,380.839,814.122,384.532Z" transform="translate(72.977 -64.482)" fill="#2f2e41"/>
      <path id="Path_860" data-name="Path 860" d="M782.1,403.781s-2.97-.495-4.95,3.465-16.831,35.643-9.406,45.544S782.1,465.661,782.1,465.661l1.485.495,7.426-7.921-2.475-3.465s0-3.465-1.98-3.96-1.98.99-2.475-.99,1.98-.495-.495-2.475-.495-2.97-.495-2.97Z" transform="translate(70.316 -57.875)" fill="#6c63ff"/>
      <path id="Path_861" data-name="Path 861" d="M678.579,368.474l-.495,3.96-6.931-8.416h2.476Z" transform="translate(227.891 50.508)" fill="#ffb8b8"/>
      <path id="Path_862" data-name="Path 862" d="M833.836,414.424s6.931-3.465,8.911.495,15.594,33.663,8.168,43.564-14.356,12.871-14.356,12.871l-1.485.495-7.426-7.921,2.475-3.465s0-3.465,1.98-3.96,1.98.99,2.475-.99-1.98-.495.495-2.475.495-2.97.495-2.97Z" transform="translate(76.828 -54.743)" fill="#6c63ff"/>
      <path id="Path_863" data-name="Path 863" d="M630.807,321.939l-5.445,21.782,6.435,7.921-2.97-9.9Z" transform="translate(212.104 46.094)" opacity="0.2"/>
      <path id="Path_864" data-name="Path 864" d="M813.371,385l-3.955,6.6c-2.485-.861-2.693-6.629-2.549-10.431C809.807,381.148,813.371,385,813.371,385Z" transform="translate(64.769 -62.463)" opacity="0.2"/>
    </g>
  </g>
</svg>
