<svg xmlns="http://www.w3.org/2000/svg" xmlns:xlink="http://www.w3.org/1999/xlink" width="280.216" height="291.859" viewBox="0 0 280.216 291.859"><defs><linearGradient id="a" y1="0.5" x2="1" y2="0.5" gradientUnits="objectBoundingBox"><stop offset="0" stop-color="gray" stop-opacity="0.251"/><stop offset="0.54" stop-color="gray" stop-opacity="0.122"/><stop offset="1" stop-color="gray" stop-opacity="0.102"/></linearGradient><linearGradient id="h" x1="0.5" y1="1" x2="0.5" y2="0" xlink:href="#a"/><linearGradient id="j" x1="0" y1="0.5" y2="0.5" xlink:href="#a"/><linearGradient id="u" x1="0.5" y1="1" x2="0.5" y2="0" xlink:href="#a"/><linearGradient id="z" x1="0" y1="0.5" y2="0.5" xlink:href="#a"/><linearGradient id="ar" x1="0" y1="0.5" y2="0.5" xlink:href="#a"/><linearGradient id="aw" x1="0.5" y1="1" x2="0.5" y2="0" xlink:href="#a"/><linearGradient id="ax" x1="0" y1="0.5" y2="0.5" xlink:href="#a"/><linearGradient id="ay" x1="0.5" y1="0.999" x2="0.5" y2="-0.002" xlink:href="#a"/><linearGradient id="az" x1="0" y1="0.5" y2="0.5" xlink:href="#a"/><linearGradient id="ba" x1="0.001" y1="0.501" y2="0.501" xlink:href="#a"/><linearGradient id="bf" x1="0" y1="0.5" y2="0.5" xlink:href="#a"/><linearGradient id="bh" x1="0" y1="0.5" y2="0.5" xlink:href="#a"/><linearGradient id="bi" x1="0" y1="0.498" y2="0.498" xlink:href="#a"/><linearGradient id="bj" x1="0" y1="0.498" y2="0.498" xlink:href="#a"/><linearGradient id="bl" x1="0" y1="0.502" y2="0.502" xlink:href="#a"/><linearGradient id="bm" x1="0" y1="0.502" y2="0.502" xlink:href="#a"/><linearGradient id="bo" x1="0" y1="0.5" y2="0.5" xlink:href="#a"/><linearGradient id="br" x1="0" y1="0.499" y2="0.499" xlink:href="#a"/><linearGradient id="bs" x1="0" y1="0.501" y2="0.501" xlink:href="#a"/><linearGradient id="ch" x1="0.5" y1="1.002" x2="0.5" y2="0.003" xlink:href="#a"/><linearGradient id="cj" x1="0.5" y1="1" x2="0.5" y2="0" xlink:href="#a"/></defs><g transform="translate(0 49.129)" opacity="0.7"><path d="M458.807,330.391,366.37,308.13V482.356l92.437-24.2Z" transform="translate(-226.503 -239.626)" fill="url(#a)"/><g transform="translate(139.867 68.504)" opacity="0.1"><path d="M458.807,330.391,366.37,308.13V482.356l92.437-24.2Z" transform="translate(-366.37 -308.13)" fill="url(#a)"/></g><path d="M124.23,330.391l92.441-22.261V482.356L124.23,458.641Z" transform="translate(-76.803 -239.626)" fill="url(#a)"/><g transform="translate(47.427 68.504)" opacity="0.17"><path d="M124.23,330.391l92.441-22.261V482.356L124.23,458.641Z" transform="translate(-124.23 -308.13)" fill="url(#a)"/></g><path d="M366.37,243.864l47.911-39.684L506.718,227.9l-47.911,38.23Z" transform="translate(-226.503 -175.361)" fill="url(#a)"/><path d="M0,228.376l47.427,37.749,92.441-22.261L92.922,204.18Z" transform="translate(0 -175.361)" fill="url(#a)"/><g transform="translate(0 28.819)" opacity="0.05"><path d="M0,228.376l47.427,37.749,92.441-22.261L92.922,204.18Z" transform="translate(0 -204.18)" fill="url(#a)"/></g><g transform="translate(71.306 48.366)" opacity="0.5"><rect width="68.611" height="63.304" rx="4.5" fill="url(#h)"/></g><rect width="67.03" height="61.77" rx="4.5" transform="translate(72.142 48.854)" fill="url(#a)"/><rect width="11.304" height="10.174" rx="4.5" transform="translate(77.307 59.029)" fill="url(#j)"/><rect width="44.938" height="1.13" rx="0.565" transform="translate(92.002 59.029)" fill="url(#a)"/><rect width="44.938" height="1.13" rx="0.565" transform="translate(92.002 62.419)" fill="url(#a)"/><rect width="60.762" height="1.13" rx="0.565" transform="translate(76.177 74.731)" fill="url(#a)"/><rect width="60.762" height="1.13" rx="0.565" transform="translate(76.177 78.121)" fill="url(#a)"/><rect width="60.762" height="1.13" rx="0.565" transform="translate(76.177 82.641)" fill="url(#a)"/><rect width="35.042" height="1.13" rx="0.565" transform="translate(76.177 86.035)" fill="url(#a)"/><rect width="60.762" height="1.13" rx="0.565" transform="translate(76.177 90.543)" fill="url(#a)"/><rect width="60.762" height="1.13" rx="0.565" transform="translate(76.177 93.933)" fill="url(#a)"/><rect width="60.762" height="1.13" rx="0.565" transform="translate(76.177 98.457)" fill="url(#a)"/><rect width="35.042" height="1.13" rx="0.565" transform="translate(76.177 101.847)" fill="url(#a)"/><g transform="translate(81.66 62.991)" opacity="0.5"><rect width="68.611" height="63.304" rx="4.5" fill="url(#u)"/></g><rect width="67.03" height="61.77" rx="4.5" transform="translate(82.496 63.484)" fill="url(#a)"/><rect width="11.304" height="10.174" rx="4.5" transform="translate(87.661 73.658)" fill="url(#j)"/><rect width="44.938" height="1.13" rx="0.565" transform="translate(102.359 73.658)" fill="url(#a)"/><rect width="44.938" height="1.13" rx="0.565" transform="translate(102.359 77.048)" fill="url(#a)"/><rect width="60.762" height="1.13" rx="0.565" transform="translate(86.531 89.356)" fill="url(#z)"/><rect width="60.762" height="1.13" rx="0.565" transform="translate(86.531 92.75)" fill="url(#z)"/><rect width="60.762" height="1.13" rx="0.565" transform="translate(86.531 97.27)" fill="url(#z)"/><rect width="35.042" height="1.13" rx="0.565" transform="translate(86.531 100.66)" fill="url(#a)"/><rect width="60.762" height="1.13" rx="0.565" transform="translate(86.531 105.172)" fill="url(#z)"/><rect width="60.762" height="1.13" rx="0.565" transform="translate(86.531 108.563)" fill="url(#z)"/><rect width="60.762" height="1.13" rx="0.565" transform="translate(86.531 113.086)" fill="url(#z)"/><rect width="35.042" height="1.13" rx="0.565" transform="translate(86.531 116.477)" fill="url(#a)"/><g transform="translate(121.558 71.184)" opacity="0.5"><rect width="59.448" height="69.848" transform="translate(0 0)" fill="url(#u)"/></g><rect width="56.356" height="67.179" transform="translate(123.386 72.31)" fill="url(#a)"/><g transform="translate(144.196 81.304)" opacity="0.5"><path d="M621.147,411.1V409.41H615.02V411.1h-4.31v8.288h14.736V411.1Zm-5.364-1.08h4.581v1.073h-4.581Z" transform="translate(-610.71 -409.41)" fill="url(#u)"/></g><rect width="13.492" height="7.589" transform="translate(144.819 83.271)" fill="url(#a)"/><path d="M389.65,342.76v1.97h.7v-1.4h4.215v1.4h.7v-1.97Z" transform="translate(-240.895 -261.036)" fill="url(#a)"/><rect width="39.631" height="1.687" transform="translate(131.82 101.782)" fill="url(#a)"/><rect width="39.631" height="1.687" transform="translate(131.82 112.884)" fill="url(#a)"/><rect width="39.631" height="1.687" transform="translate(131.82 115.835)" fill="url(#a)"/><rect width="16.725" height="1.687" transform="translate(131.82 109.933)" fill="url(#a)"/><g transform="translate(158.944 109.933)" opacity="0.6"><rect width="12.507" height="1.687" fill="url(#a)"/></g><rect width="12.507" height="1.687" transform="translate(145.731 122.722)" fill="url(#ar)"/><path d="M124.23,366.44V494.69l92.441,23.715V391.125Z" transform="translate(-76.803 -275.675)" fill="url(#a)"/><path d="M458.807,494.209l-92.437,24.2V391.125l92.437-24.685Z" transform="translate(-226.503 -275.675)" fill="url(#a)"/><g transform="translate(139.867 90.765)" opacity="0.07"><path d="M458.807,494.209l-92.437,24.2V391.125l92.437-24.685Z" transform="translate(-366.37 -366.44)" fill="url(#a)"/></g><g transform="translate(195.521 165.781)" opacity="0.07"><path d="M512.15,573.1v42.1l36.783-10.163v-42.1Z" transform="translate(-512.15 -562.94)" fill="url(#a)"/></g><rect width="27.262" height="26.193" transform="translate(183.927 80.068)" fill="url(#aw)"/><rect width="26.407" height="25.017" transform="translate(184.354 80.709)" fill="url(#ax)"/><g transform="translate(191.951 83.82)" opacity="0.5"><path d="M743.741,417.275V416h-4.669v1.283H735.8v6.307h11.212v-6.314Zm-4.085-.817h3.5v.817h-3.5Z" transform="translate(-735.8 -416)" fill="url(#ay)"/></g><g transform="translate(192.425 85.309)" opacity="0.6"><rect width="10.262" height="5.772" fill="url(#az)"/></g><g transform="translate(195.418 84.13)" opacity="0.6"><path d="M511.88,349.06v1.5h.538v-1.069h3.207v1.069h.534v-1.5Z" transform="translate(-511.88 -349.06)" fill="url(#ba)"/></g><g transform="translate(193.013 95.571)" opacity="0.6"><rect width="9.514" height="1.283" fill="url(#az)"/></g><rect width="16.252" height="1.283" transform="translate(189.432 97.923)" fill="url(#a)"/><g transform="translate(119.298)" opacity="0.5"><rect width="35.321" height="29.014" fill="url(#aw)"/></g><rect width="34.431" height="27.983" transform="translate(119.71 0.55)" fill="url(#a)"/><rect width="34.431" height="6.242" transform="translate(119.71 0.55)" fill="url(#bf)"/><g transform="translate(119.71 0.55)" opacity="0.1"><rect width="34.431" height="6.242" fill="url(#bf)"/></g><rect width="28.945" height="3.634" transform="translate(122.455 9.055)" fill="url(#bh)"/><rect width="21.127" height="1.233" transform="translate(122.455 15.435)" fill="url(#bi)"/><rect width="13.717" height="1.233" transform="translate(122.455 17.561)" fill="url(#bj)"/><rect width="18.107" height="1.233" transform="translate(122.455 19.688)" fill="url(#bj)"/><rect width="21.127" height="1.233" transform="translate(122.455 21.81)" fill="url(#bl)"/><rect width="7.063" height="1.233" transform="translate(122.455 23.937)" fill="url(#bm)"/><g transform="translate(171.229 21.787)" opacity="0.5"><rect width="43.781" height="35.958" fill="url(#u)"/></g><rect width="42.678" height="34.683" transform="translate(171.741 22.467)" fill="url(#bo)"/><rect width="42.678" height="7.735" transform="translate(171.741 22.467)" fill="url(#bh)"/><rect width="35.874" height="4.505" transform="translate(175.139 33.007)" fill="url(#a)"/><rect width="26.185" height="1.531" transform="translate(175.139 40.914)" fill="url(#br)"/><rect width="17.004" height="1.531" transform="translate(175.139 43.548)" fill="url(#bs)"/><rect width="22.444" height="1.531" transform="translate(175.139 46.186)" fill="url(#br)"/><rect width="26.185" height="1.531" transform="translate(175.139 48.82)" fill="url(#br)"/><rect width="8.758" height="1.531" transform="translate(175.139 51.454)" fill="url(#bs)"/><rect width="10.201" height="1.359" transform="translate(177.009 34.538)" fill="url(#a)"/><g transform="translate(46.22 92.46)" opacity="0.1"><path d="M121.07,435.73,172.853,448.8l41.62-33.878V394.11l-92.437-23.23Z" transform="translate(-121.07 -370.88)" fill="url(#a)"/></g><g transform="translate(139.623 92.46)" opacity="0.1"><path d="M459.136,435.73,407.35,448.8,365.73,414.92V394.11l92.437-23.23Z" transform="translate(-365.73 -370.88)" fill="url(#a)"/></g><path d="M47.427,366.44,0,405.643l92.437,23.23,47.43-37.749Z" transform="translate(0 -275.675)" fill="url(#a)"/><path d="M458.807,366.44l47.911,39.2-91.952,23.23-48.4-37.749Z" transform="translate(-226.503 -275.675)" fill="url(#a)"/><g transform="translate(139.867 90.765)" opacity="0.07"><path d="M458.807,366.44l47.911,39.2-91.952,23.23-48.4-37.749Z" transform="translate(-366.37 -366.44)" fill="url(#a)"/></g></g><path d="M460.527,327.614,368.88,305.54V478.277l91.647-23.99Z" transform="translate(-228.055 -188.896)" fill="#535461"/><path d="M460.527,327.614,368.88,305.54V478.277l91.647-23.99Z" transform="translate(-228.055 -188.896)" opacity="0.1"/><path d="M128.83,327.614l91.643-22.074V478.277L128.83,454.764Z" transform="translate(-79.647 -188.896)" fill="#535461"/><path d="M128.83,325.614l91.643-22.074v173.5L128.83,453.528Z" transform="translate(-79.647 -187.659)" opacity="0.17"/><path d="M366.88,242.588l48.267-40.108,91.647,23.513-48.267,38.669Z" transform="translate(-226.818 -125.18)" fill="#f30075"/><path d="M7.66,228.47,54.682,265.9l91.643-22.074L99.784,204.48Z" transform="translate(-4.736 -126.417)" fill="#535461"/><path d="M5.66,226.47l48.167,38.192,91.643-22.074L97.784,202.48Z" transform="translate(-3.499 -125.18)" fill="#f30075"/><g transform="translate(72.852 96.678)" opacity="0.5"><rect width="68.023" height="62.762" rx="4.5" fill="url(#u)"/></g><rect width="66.454" height="61.239" rx="4.5" transform="translate(73.684 97.167)" fill="#f5f5f5"/><rect width="11.209" height="10.086" rx="4.5" transform="translate(78.804 107.253)" fill="#6c63ff"/><rect width="44.552" height="1.122" rx="0.561" transform="translate(93.376 107.253)" fill="#e0e0e0"/><rect width="44.552" height="1.122" rx="0.561" transform="translate(93.376 110.613)" fill="#e0e0e0"/><rect width="60.243" height="1.122" rx="0.561" transform="translate(77.685 122.818)" fill="#e0e0e0"/><rect width="60.243" height="1.122" rx="0.561" transform="translate(77.685 126.181)" fill="#e0e0e0"/><rect width="60.243" height="1.122" rx="0.561" transform="translate(77.685 130.663)" fill="#e0e0e0"/><rect width="34.744" height="1.122" rx="0.561" transform="translate(77.685 134.026)" fill="#e0e0e0"/><rect width="60.243" height="1.122" rx="0.561" transform="translate(77.685 138.497)" fill="#e0e0e0"/><rect width="60.243" height="1.122" rx="0.561" transform="translate(77.685 141.86)" fill="#e0e0e0"/><rect width="60.243" height="1.122" rx="0.561" transform="translate(77.685 146.342)" fill="#e0e0e0"/><rect width="34.744" height="1.122" rx="0.561" transform="translate(77.685 149.705)" fill="#e0e0e0"/><g transform="translate(83.118 111.181)" opacity="0.5"><rect width="68.023" height="62.762" rx="4.5" fill="url(#aw)"/></g><rect width="66.454" height="61.239" rx="4.5" transform="translate(83.95 111.67)" fill="#fff"/><rect width="11.209" height="10.086" rx="4.5" transform="translate(89.07 121.756)" fill="#6c63ff"/><rect width="44.552" height="1.122" rx="0.561" transform="translate(103.642 121.756)" fill="#e0e0e0"/><rect width="44.552" height="1.122" rx="0.561" transform="translate(103.642 125.116)" fill="#e0e0e0"/><rect width="60.243" height="1.122" rx="0.561" transform="translate(87.951 137.321)" fill="#e0e0e0"/><rect width="60.243" height="1.122" rx="0.561" transform="translate(87.951 140.684)" fill="#e0e0e0"/><rect width="60.243" height="1.122" rx="0.561" transform="translate(87.951 145.166)" fill="#e0e0e0"/><rect width="34.744" height="1.122" rx="0.561" transform="translate(87.951 148.53)" fill="#e0e0e0"/><rect width="60.243" height="1.122" rx="0.561" transform="translate(87.951 153)" fill="#e0e0e0"/><rect width="60.243" height="1.122" rx="0.561" transform="translate(87.951 156.363)" fill="#e0e0e0"/><rect width="60.243" height="1.122" rx="0.561" transform="translate(87.951 160.845)" fill="#e0e0e0"/><rect width="34.744" height="1.122" rx="0.561" transform="translate(87.951 164.209)" fill="#e0e0e0"/><g transform="translate(122.676 119.305)" opacity="0.5"><rect width="58.941" height="69.248" fill="url(#u)"/></g><rect width="55.875" height="66.603" transform="translate(124.49 120.42)" fill="#fff"/><g transform="translate(145.12 129.334)" opacity="0.5"><path d="M623.48,408.206V406.53h-6.089v1.676h-4.26v8.219h14.61v-8.219Zm-5.345-1.065h4.581v1.065h-4.581Z" transform="translate(-613.13 -406.53)" fill="url(#aw)"/></g><rect width="13.377" height="7.525" transform="translate(145.739 131.289)" fill="#6c63ff"/><path d="M391.97,339.88v1.951h.695v-1.393h4.18v1.393h.7V339.88Z" transform="translate(-242.33 -210.126)" fill="#6c63ff"/><rect width="39.291" height="1.672" transform="translate(132.85 149.64)" fill="#e0e0e0"/><rect width="39.291" height="1.672" transform="translate(132.85 160.647)" fill="#e0e0e0"/><rect width="39.291" height="1.672" transform="translate(132.85 163.575)" fill="#e0e0e0"/><rect width="16.58" height="1.672" transform="translate(132.85 157.722)" fill="#e0e0e0"/><rect width="12.4" height="1.672" transform="translate(159.742 157.722)" fill="#3ad29f" opacity="0.6"/><rect width="12.4" height="1.672" transform="translate(146.644 170.401)" fill="#6c63ff"/><path d="M128.83,363.36V490.511l91.643,23.513,1.237-126.192Z" transform="translate(-79.647 -224.642)" fill="#f30075"/><path d="M460.527,490.033l-91.647,23.99V387.831l91.647-24.471Z" transform="translate(-228.055 -224.642)" fill="#535461"/><path d="M460.527,490.033l-91.647,23.99V387.831l91.647-24.471Z" transform="translate(-228.055 -224.642)" fill="#f30075" opacity="0.997"/><path d="M513.42,568.249v41.742l36.466-10.075V558.17Z" transform="translate(-317.414 -345.08)" opacity="0.07"/><rect width="27.029" height="25.968" transform="translate(184.511 128.113)" fill="url(#u)"/><rect width="26.181" height="24.803" transform="translate(184.935 128.746)" fill="#f5f5f5"/><g transform="translate(192.471 131.804)" opacity="0.5"><path d="M745.032,414.29V413H740.4v1.275H737.16v6.253h11.113V414.29Zm-4.05-.809h3.474v.809h-3.474Z" transform="translate(-737.16 -413)" fill="url(#ch)"/></g><rect width="10.174" height="5.723" transform="translate(192.936 133.305)" fill="#6c63ff" opacity="0.6"/><path d="M513.16,346.13v1.485h.531v-1.061h3.18v1.061h.527V346.13Z" transform="translate(-317.253 -213.99)" fill="#6c63ff" opacity="0.6"/><g transform="translate(193.521 143.483)" opacity="0.6"><rect width="9.433" height="1.271" fill="#6c63ff"/></g><rect width="16.11" height="1.271" transform="translate(189.97 145.815)" fill="#bdbdbd"/><rect width="27.029" height="25.968" transform="translate(158.6)" fill="url(#u)"/><rect width="26.181" height="24.803" transform="translate(159.024 0.638)" fill="#f5f5f5"/><g transform="translate(166.56 3.711)" opacity="0.5"><path d="M677.162,78.741V77.47h-4.631v1.271H669.29v6.253H680.4V78.741Zm-4.051-.809h3.474v.809h-3.474Z" transform="translate(-669.29 -77.47)" fill="url(#cj)"/></g><rect width="10.174" height="5.723" transform="translate(167.026 5.192)" fill="#6c63ff" opacity="0.6"/><path d="M445.29,10.55v1.485h.531V10.974H449v1.061h.527V10.55Z" transform="translate(-275.294 -6.522)" fill="#6c63ff" opacity="0.6"/><g transform="translate(167.61 15.37)" opacity="0.6"><rect width="9.433" height="1.271" fill="#6c63ff"/></g><rect width="16.11" height="1.271" transform="translate(164.06 17.702)" fill="#bdbdbd"/><g transform="translate(120.435 48.728)" opacity="0.5"><rect width="35.019" height="28.766" fill="url(#aw)"/></g><rect width="34.137" height="27.743" transform="translate(120.844 49.274)" fill="#f2f2f2"/><rect width="34.137" height="6.188" transform="translate(120.844 49.274)" fill="#6c63ff"/><rect width="34.137" height="6.188" transform="translate(120.844 49.274)" opacity="0.1"/><rect width="28.697" height="3.604" transform="translate(123.566 57.708)" fill="#e0e0e0"/><rect width="20.944" height="1.225" transform="translate(123.566 64.03)" fill="#e0e0e0"/><rect width="13.598" height="1.225" transform="translate(123.566 66.137)" fill="#e0e0e0"/><rect width="17.951" height="1.225" transform="translate(123.566 68.244)" fill="#e0e0e0"/><rect width="20.944" height="1.225" transform="translate(123.566 70.355)" fill="#e0e0e0"/><rect width="7.005" height="1.225" transform="translate(123.566 72.463)" fill="#e0e0e0"/><g transform="translate(171.92 70.329)" opacity="0.5"><rect width="43.407" height="35.653" fill="url(#u)"/></g><rect width="42.311" height="34.389" transform="translate(172.428 71.001)" fill="#fff"/><rect width="42.311" height="7.67" transform="translate(172.428 71.001)" fill="#6c63ff"/><rect width="35.569" height="4.467" transform="translate(175.799 81.453)" fill="#f5f5f5"/><rect width="25.96" height="1.516" transform="translate(175.799 89.291)" fill="#e0e0e0"/><rect width="16.859" height="1.516" transform="translate(175.799 91.906)" fill="#e0e0e0"/><rect width="22.249" height="1.516" transform="translate(175.799 94.517)" fill="#e0e0e0"/><rect width="25.96" height="1.516" transform="translate(175.799 97.132)" fill="#e0e0e0"/><rect width="8.681" height="1.516" transform="translate(175.799 99.744)" fill="#e0e0e0"/><rect width="10.113" height="1.348" transform="translate(177.654 82.969)" fill="#69f0ae"/><path d="M125.69,432.057l51.34,12.953,41.265-33.588V390.792L126.648,367.76Z" transform="translate(-77.706 -227.362)" opacity="0.1"/><path d="M460.865,432.057l-51.34,12.953L368.26,411.422V390.792l91.647-23.032Z" transform="translate(-227.671 -227.362)" opacity="0.1"/><path d="M52.682,363.36,5.66,402.224,97.3,425.256l47.022-37.424Z" transform="translate(-3.499 -224.642)" fill="#f30075"/><path d="M460.527,363.36l47.5,38.864-91.165,23.032L368.88,387.831Z" transform="translate(-228.055 -224.642)" fill="#535461"/><path d="M460.527,363.36l47.5,38.864-91.165,23.032L368.88,387.831Z" transform="translate(-228.055 -224.642)" fill="#f30075"/></svg>